<?xml version="1.0" standalone="no"?>
<!DOCTYPE svg PUBLIC "-//W3C//DTD SVG 20010904//EN" "http://www.w3.org/TR/2001/REC-SVG-20010904/DTD/svg10.dtd">
<svg version="1.0" xmlns="http://www.w3.org/2000/svg" width="360" height="480" viewBox="0 0 360 480" preserveAspectRatio="xMidYMid meet"><g transform="translate(0,480) scale(0.011628,-0.011628)" fill="black" stroke="none"><path d="M22565 35979 c-16 -4 -50 -7 -74 -8 -56 -1 -132 -37 -139 -65 -3 -11 -18 -44 -33 -73 -15 -28 -30 -65 -34 -82 -3 -17 -18 -40 -32 -50 -13 -11 -53 -64 -88 -118 -35 -54 -73 -110 -84 -125 -12 -14 -31 -52 -43 -84 -12 -31 -31 -67 -42 -79 -27 -29 -62 -87 -71 -117 -4 -13 -16 -35 -27 -50 -10 -15 -39 -66 -64 -114 -25 -48 -53 -98 -64 -111 -10 -13 -22 -38 -25 -56 -4 -18 -15 -41 -24 -52 -24 -29 -51 -81 -51 -98 0 -7 -14 -33 -31 -57 -17 -23 -42 -72 -54 -107 -14 -38 -40 -82 -63 -107 -24 -26 -43 -59 -50 -87 -6 -25 -25 -63 -43 -85 -45 -56 -99 -139 -99 -152 0 -6 -11 -23 -24 -39 -14 -16 -28 -41 -31 -55 -4 -15 -27 -50 -51 -79 -25 -28 -53 -68 -64 -88 -10 -20 -45 -67 -77 -105 -54 -64 -73 -92 -130 -193 -11 -21 -35 -51 -52 -67 -17 -17 -31 -37 -31 -47 0 -9 -6 -22 -14 -28 -12 -10 -96 -127 -121 -170 -54 -92 -133 -204 -151 -215 -12 -8 -32 -36 -44 -61 -32 -66 -139 -175 -173 -175 -14 0 -29 -4 -32 -10 -3 -5 -15 -10 -26 -10 -11 0 -30 -11 -43 -25 -31 -34 -109 -65 -186 -75 -36 -5 -108 -16 -160 -24 -52 -9 -136 -22 -185 -30 -50 -7 -106 -20 -126 -29 -36 -15 -85 -23 -189 -32 -84 -8 -121 -15 -175 -36 -81 -31 -235 -44 -835 -74 -41 -2 -124 -7 -185 -10 -141 -9 -758 -10 -940 -1 -77 3 -234 9 -350 12 -115 3 -246 7 -290 9 -44 2 -172 8 -285 14 -113 5 -263 8 -335 7 -115 -3 -476 24 -544 40 -14 3 -111 7 -215 9 -105 2 -247 7 -316 10 -69 4 -222 8 -340 11 -230 4 -376 10 -505 18 -44 3 -138 8 -208 11 -71 3 -150 10 -175 16 -26 6 -101 13 -167 15 -212 6 -567 24 -665 33 -105 10 -236 16 -290 12 -19 -1 -215 -3 -435 -5 -220 -2 -410 -6 -421 -10 -12 -4 -86 -11 -165 -16 -141 -10 -250 -19 -479 -42 -63 -6 -180 -11 -260 -12 -80 -1 -150 -4 -156 -8 -6 -4 -53 -8 -105 -9 -52 0 -150 -8 -219 -16 -69 -8 -154 -17 -190 -19 -36 -2 -110 -9 -165 -15 -169 -18 -373 -26 -423 -17 -26 5 -83 13 -127 18 -174 19 -197 32 -241 139 -15 36 -36 78 -46 93 -10 14 -18 35 -18 46 0 10 -12 41 -26 68 -14 27 -32 60 -39 74 -16 31 -56 120 -80 180 -41 101 -74 166 -94 184 -11 11 -21 28 -21 38 0 11 -9 31 -20 45 -11 14 -20 33 -20 42 0 9 -11 32 -24 51 -13 19 -32 53 -43 75 -41 83 -126 238 -149 272 -13 20 -24 41 -24 48 0 6 -8 19 -17 28 -10 9 -27 33 -37 54 -11 21 -35 63 -55 93 -19 30 -46 73 -59 95 -14 22 -38 58 -53 81 -15 22 -31 53 -35 67 -3 15 -15 33 -25 41 -10 7 -28 35 -40 62 -12 27 -37 70 -54 96 -18 26 -50 82 -70 125 -69 145 -87 178 -107 195 -10 9 -22 34 -25 55 -6 39 -40 99 -80 144 -13 14 -34 54 -48 89 -14 34 -32 75 -42 89 -9 14 -30 51 -46 81 -16 30 -36 62 -43 71 -20 23 -61 107 -80 163 -11 31 -26 54 -43 64 -37 21 -72 78 -80 133 -7 44 -74 171 -108 205 -10 10 -32 12 -81 8 -59 -5 -70 -10 -94 -37 -16 -17 -28 -36 -28 -41 0 -5 -7 -17 -15 -26 -14 -16 -12 -24 19 -85 20 -37 40 -94 47 -128 6 -34 15 -70 20 -80 6 -9 12 -46 13 -80 2 -34 7 -70 11 -79 3 -9 1 -26 -5 -38 -15 -27 4 -212 28 -280 11 -33 15 -73 12 -150 -4 -145 -4 -201 1 -305 4 -67 1 -96 -9 -113 -12 -19 -12 -40 -2 -137 9 -85 9 -122 1 -146 -6 -18 -11 -47 -11 -65 0 -18 -8 -46 -17 -62 -15 -27 -16 -36 -4 -81 7 -28 10 -64 6 -81 -4 -18 -2 -36 4 -44 7 -9 7 -23 1 -47 -6 -19 -10 -124 -10 -234 1 -110 1 -209 0 -220 0 -11 2 -58 5 -105 7 -106 7 -78 0 -435 -4 -165 -7 -325 -8 -355 0 -30 3 -122 7 -205 7 -156 9 -274 5 -410 -2 -44 1 -129 5 -190 4 -60 7 -119 6 -130 -5 -62 3 -212 12 -222 7 -9 7 -21 -1 -40 -15 -39 -7 -236 13 -300 9 -28 16 -80 16 -115 -1 -34 -1 -80 0 -101 0 -21 -4 -46 -10 -56 -6 -13 -5 -40 5 -87 15 -77 37 -329 35 -414 0 -30 7 -97 15 -148 9 -52 13 -106 10 -122 -3 -16 0 -57 9 -92 8 -35 15 -76 15 -93 1 -141 11 -385 25 -554 9 -111 14 -207 11 -212 -12 -18 -72 -21 -110 -5 -20 9 -47 16 -58 16 -11 0 -30 9 -41 19 -12 12 -54 27 -101 36 -43 9 -92 23 -107 31 -15 8 -43 14 -62 14 -20 0 -55 9 -78 19 -64 29 -327 64 -314 42 4 -5 20 -12 36 -16 17 -4 43 -17 58 -30 15 -12 61 -34 103 -48 43 -14 85 -30 95 -35 11 -5 37 -19 59 -30 57 -29 172 -72 223 -83 24 -5 54 -17 68 -28 14 -11 44 -23 67 -26 57 -10 111 -32 170 -71 59 -39 84 -73 92 -128 6 -38 42 -164 66 -231 17 -45 35 -105 47 -150 6 -22 34 -98 62 -170 67 -167 102 -261 133 -360 29 -91 84 -232 126 -320 15 -33 50 -127 76 -210 27 -82 63 -175 82 -206 18 -31 33 -61 33 -67 0 -5 11 -34 25 -64 32 -68 33 -113 3 -132 -33 -20 -174 -26 -693 -31 -766 -7 -943 -16 -1072 -56 -137 -43 -92 -64 187 -90 63 -6 129 -13 145 -15 17 -3 248 -7 515 -10 267 -2 490 -5 495 -5 6 0 62 4 125 9 63 5 147 6 185 2 39 -3 104 -3 145 1 117 11 118 10 259 -201 39 -58 92 -135 118 -173 75 -105 104 -149 160 -239 55 -88 111 -166 181 -251 23 -29 63 -79 90 -111 26 -33 77 -94 115 -137 37 -42 67 -84 67 -94 0 -34 -19 -53 -63 -59 -24 -4 -112 -29 -197 -56 -85 -28 -160 -50 -169 -50 -8 0 -37 -6 -65 -14 -28 -8 -80 -22 -116 -32 -36 -9 -94 -25 -130 -36 -36 -10 -96 -27 -135 -38 -38 -10 -95 -28 -125 -40 -30 -13 -75 -31 -100 -41 -25 -9 -67 -23 -95 -29 -27 -6 -81 -25 -119 -41 -39 -16 -86 -34 -105 -39 -56 -14 -169 -55 -246 -87 -138 -59 -311 -123 -350 -129 -22 -4 -68 -19 -102 -34 -34 -16 -76 -31 -94 -35 -19 -4 -40 -11 -49 -16 -8 -5 -35 -16 -60 -24 -62 -22 -321 -107 -403 -134 -38 -12 -81 -28 -97 -36 -15 -8 -61 -18 -103 -24 -50 -6 -86 -16 -107 -31 -16 -12 -56 -26 -88 -31 -31 -5 -82 -16 -112 -25 -30 -9 -81 -20 -113 -25 -31 -5 -103 -25 -160 -45 -56 -19 -129 -41 -162 -48 -33 -7 -98 -25 -145 -41 -47 -15 -105 -31 -130 -35 -25 -4 -58 -12 -75 -18 -16 -6 -66 -19 -110 -28 -44 -9 -96 -25 -115 -35 -19 -10 -60 -24 -90 -32 -134 -36 -187 -51 -210 -63 -14 -7 -53 -17 -85 -23 -56 -10 -167 -50 -182 -65 -3 -3 -18 -6 -32 -6 -14 -1 -37 -7 -51 -15 -14 -8 -38 -15 -55 -15 -16 0 -48 -9 -70 -20 -22 -11 -50 -19 -62 -20 -12 0 -24 -4 -28 -9 -3 -5 -20 -13 -38 -16 -17 -4 -46 -15 -62 -26 -26 -15 -86 -34 -252 -78 -41 -11 -93 -48 -93 -67 0 -16 36 -18 95 -4 22 5 81 12 130 15 97 6 166 19 230 43 22 8 74 23 115 32 124 30 262 66 315 83 28 9 106 30 175 47 69 17 139 36 155 41 60 21 122 38 240 64 66 15 127 30 135 34 8 5 40 14 70 21 30 7 63 17 73 22 10 5 52 15 95 23 87 16 230 54 312 83 30 10 93 25 140 32 47 7 128 25 180 41 53 16 106 29 118 29 12 0 48 13 79 30 32 16 81 35 108 41 28 6 64 15 81 20 17 5 46 9 65 9 19 0 45 7 58 16 13 9 42 21 65 26 45 10 153 55 176 73 20 16 172 62 234 70 27 4 61 15 75 25 14 11 55 26 91 35 36 9 79 25 95 35 17 10 77 34 135 53 227 75 453 147 462 147 6 0 21 9 35 20 14 11 40 20 58 20 18 0 75 16 126 35 52 19 104 35 117 35 22 0 110 26 259 76 39 13 81 24 94 24 13 0 71 15 129 34 58 19 159 46 225 61 66 14 148 35 183 46 34 10 73 19 87 19 13 0 36 5 52 11 16 6 50 8 80 4 60 -7 100 -32 222 -140 123 -109 162 -139 216 -170 48 -27 75 -50 152 -122 18 -18 39 -33 45 -33 6 0 51 -27 99 -60 48 -33 111 -72 139 -88 69 -37 141 -77 345 -196 44 -25 103 -55 130 -65 28 -11 117 -51 198 -91 82 -39 174 -78 205 -86 31 -8 62 -19 68 -25 13 -11 120 -54 220 -89 120 -42 166 -87 184 -177 6 -32 15 -76 21 -98 12 -50 22 -106 49 -265 12 -69 26 -150 31 -180 34 -184 52 -420 63 -836 2 -60 6 -119 10 -131 4 -11 2 -40 -5 -64 -6 -24 -15 -152 -19 -284 -15 -421 -15 -464 5 -1020 2 -49 10 -124 19 -165 9 -41 16 -88 15 -105 0 -16 2 -138 5 -270 3 -132 5 -472 5 -755 -1 -283 0 -605 2 -715 6 -509 -2 -1153 -16 -1175 -5 -9 -22 -234 -30 -400 -2 -52 -9 -135 -15 -185 -24 -200 -30 -255 -40 -370 -13 -138 -24 -219 -39 -290 -6 -27 -23 -122 -37 -210 -14 -88 -34 -200 -45 -250 -10 -49 -19 -104 -19 -121 0 -18 -5 -36 -10 -39 -5 -3 -10 -23 -10 -43 0 -20 -9 -61 -20 -90 -11 -29 -20 -69 -20 -90 0 -21 -7 -65 -16 -97 -8 -33 -13 -73 -10 -90 3 -16 -1 -66 -9 -110 -8 -44 -22 -133 -30 -199 -9 -65 -20 -126 -24 -135 -5 -9 -13 -66 -17 -126 -4 -61 -13 -127 -20 -148 -7 -21 -18 -77 -24 -125 -6 -48 -19 -130 -30 -182 -34 -169 -81 -450 -109 -650 -5 -36 -17 -92 -26 -125 -10 -33 -21 -80 -26 -105 -10 -61 -32 -142 -62 -237 -13 -43 -32 -111 -41 -152 -10 -44 -26 -85 -40 -102 -14 -17 -28 -51 -34 -88 -6 -33 -24 -91 -40 -128 -17 -37 -47 -120 -68 -183 -20 -63 -43 -127 -51 -141 -24 -50 -153 -451 -153 -478 0 -16 -8 -39 -19 -52 -10 -13 -28 -55 -40 -94 -27 -86 -75 -214 -106 -280 -13 -27 -26 -60 -30 -73 -4 -13 -21 -49 -39 -81 -37 -64 -66 -143 -66 -176 0 -12 -8 -33 -19 -46 -19 -25 -91 -180 -91 -196 0 -6 -8 -21 -18 -34 -10 -13 -27 -53 -37 -89 -10 -36 -25 -74 -32 -85 -7 -11 -13 -25 -13 -32 0 -7 -42 -99 -94 -205 -105 -216 -130 -272 -141 -308 -4 -14 -15 -38 -25 -55 -38 -64 -80 -146 -80 -157 0 -6 -22 -49 -50 -95 -27 -46 -50 -90 -50 -98 0 -8 -16 -39 -35 -69 -19 -30 -59 -101 -88 -158 -29 -57 -69 -129 -89 -160 -21 -32 -41 -70 -44 -85 -4 -16 -16 -41 -26 -58 -10 -16 -18 -37 -18 -45 0 -8 -20 -46 -45 -85 -87 -139 -95 -153 -95 -167 0 -16 -93 -163 -110 -173 -6 -4 -17 -21 -24 -40 -8 -18 -36 -67 -63 -107 -50 -76 -80 -130 -131 -233 -16 -33 -36 -66 -45 -73 -9 -8 -39 -59 -67 -114 -28 -55 -68 -128 -89 -161 -21 -34 -44 -79 -51 -99 -10 -35 -28 -61 -104 -154 -15 -18 -26 -38 -26 -47 0 -8 -8 -25 -18 -38 -10 -13 -29 -44 -42 -69 -14 -25 -32 -54 -41 -65 -9 -11 -35 -53 -58 -94 -23 -41 -53 -88 -67 -105 -51 -62 -114 -149 -114 -157 0 -5 -13 -23 -29 -41 -15 -18 -32 -45 -37 -60 -5 -15 -21 -42 -37 -60 -15 -18 -48 -57 -72 -86 -25 -29 -45 -57 -45 -63 0 -6 -35 -45 -79 -88 -43 -42 -85 -90 -94 -107 -8 -17 -34 -45 -57 -64 -23 -18 -53 -54 -68 -79 -14 -25 -33 -50 -42 -55 -8 -5 -40 -36 -70 -69 -53 -57 -99 -103 -333 -332 -257 -251 -346 -334 -373 -348 -16 -9 -47 -34 -69 -57 -22 -23 -80 -75 -130 -115 -49 -40 -105 -90 -123 -109 -19 -20 -40 -36 -48 -36 -8 0 -31 -15 -51 -33 -21 -19 -46 -37 -56 -40 -9 -4 -17 -10 -17 -15 0 -5 -26 -26 -58 -48 -31 -21 -80 -57 -109 -79 -28 -22 -79 -60 -113 -85 -33 -25 -78 -60 -99 -77 -21 -18 -54 -40 -74 -48 -20 -8 -42 -23 -49 -34 -7 -10 -35 -34 -62 -52 -62 -44 -61 -43 -126 -74 -30 -15 -64 -34 -75 -44 -11 -10 -46 -32 -77 -50 -32 -18 -60 -36 -63 -41 -3 -5 -18 -11 -34 -15 -16 -3 -37 -16 -47 -27 -11 -11 -35 -28 -54 -37 -19 -9 -53 -28 -75 -44 -82 -56 -112 -74 -141 -81 -38 -9 -217 -129 -249 -168 -46 -54 -32 -71 75 -89 133 -22 332 16 419 79 24 18 52 32 61 32 9 0 25 9 35 20 10 11 24 20 32 20 7 0 35 15 62 34 27 19 76 48 109 65 33 17 64 36 67 42 4 6 27 19 52 30 25 10 69 39 98 64 28 25 57 45 62 45 5 0 33 23 62 50 29 28 74 62 99 76 59 31 109 66 147 102 17 15 50 39 75 51 25 13 65 43 90 66 25 24 55 46 67 50 12 3 31 17 42 31 21 27 148 114 166 114 5 0 17 13 26 29 9 15 37 38 62 50 25 12 48 28 51 36 3 8 19 21 37 30 17 9 66 51 108 93 42 43 103 97 134 121 31 24 57 47 57 50 0 3 25 33 55 66 30 33 55 63 55 66 0 3 26 27 58 52 57 44 172 155 240 230 19 20 40 37 47 37 8 0 19 10 26 21 6 12 47 58 90 103 44 44 96 102 117 128 20 26 49 52 64 59 16 6 28 18 28 26 0 9 20 36 45 62 98 101 125 132 125 143 0 6 25 36 55 67 45 46 160 191 225 285 8 11 35 46 60 76 25 31 61 82 80 114 38 64 190 299 266 414 48 71 92 148 166 292 21 40 48 87 61 104 13 17 36 58 51 91 15 33 38 71 51 85 12 14 26 36 30 50 4 14 13 32 20 40 6 8 31 51 54 95 24 44 58 98 76 120 18 22 62 98 99 169 36 71 73 137 81 146 8 9 21 35 30 59 16 46 90 186 111 211 7 8 36 62 65 120 28 58 67 128 85 156 19 28 34 56 34 62 0 7 24 60 54 119 29 60 69 142 88 183 49 103 144 297 171 345 12 22 37 76 55 120 18 44 40 91 48 105 7 14 34 68 59 120 25 52 57 116 70 143 14 26 25 55 25 66 0 10 6 24 14 31 8 6 24 42 36 78 28 87 50 141 71 172 9 14 24 50 34 80 9 30 27 73 40 95 12 22 28 63 34 90 7 28 25 70 40 95 16 25 34 68 41 95 7 28 22 62 32 77 10 14 18 31 18 36 0 6 11 34 25 64 14 29 25 64 25 76 0 13 18 65 39 115 78 184 103 253 110 302 4 28 12 60 19 71 6 12 21 52 33 90 29 92 50 153 89 249 17 44 36 98 41 120 6 22 21 65 33 95 13 30 35 91 49 135 14 44 42 123 61 175 19 52 40 111 46 130 7 19 16 49 22 65 6 17 15 48 20 70 5 22 19 75 30 118 11 42 24 105 28 140 5 34 13 80 18 102 5 22 15 74 22 115 7 41 18 95 26 120 7 25 18 97 24 160 5 63 14 131 20 150 9 30 30 151 44 250 3 19 16 103 31 185 14 83 30 191 34 242 5 50 11 96 14 101 3 4 11 44 17 88 6 43 17 113 25 154 21 105 35 201 43 300 4 47 13 95 20 107 6 12 12 41 12 66 0 24 6 66 14 93 8 27 17 79 20 115 3 36 12 90 20 120 7 30 18 86 24 124 6 39 16 102 22 140 23 142 40 262 50 340 5 44 12 89 15 100 7 25 37 312 40 385 5 124 26 407 31 430 18 80 48 578 47 780 -12 1959 -17 2157 -58 2705 -2 28 -9 118 -16 200 -6 87 -8 198 -4 265 4 63 8 185 10 270 1 85 5 270 8 410 4 143 2 312 -4 385 -6 72 -12 238 -15 370 -4 206 -8 248 -25 299 -30 88 -49 175 -49 228 0 26 -8 69 -19 95 -27 71 -35 173 -15 201 21 30 53 28 193 -13 65 -19 129 -35 144 -35 14 0 37 -4 52 -10 22 -8 158 -38 390 -86 39 -8 138 -23 220 -34 83 -11 177 -25 210 -30 80 -13 601 -20 684 -9 36 5 111 12 166 15 55 3 150 13 210 20 182 25 387 44 396 38 5 -3 53 0 106 6 54 6 166 17 248 26 165 17 264 29 370 44 39 5 131 14 205 20 74 5 182 16 240 25 58 8 150 20 205 26 118 13 188 23 310 43 182 30 438 88 513 116 29 11 66 20 83 20 16 0 46 7 66 15 19 8 42 15 50 15 8 0 38 11 66 24 29 13 77 29 107 36 63 14 162 51 300 111 97 42 203 79 229 79 8 0 32 -12 54 -27 43 -30 42 -20 17 -193 -22 -153 -21 -138 -41 -470 -12 -184 -16 -343 -23 -755 -2 -137 -8 -295 -14 -350 -11 -100 -23 -305 -27 -465 -1 -47 -7 -146 -13 -220 -12 -156 -8 -525 6 -620 6 -36 11 -144 11 -240 1 -96 6 -213 12 -260 6 -47 10 -111 9 -142 0 -31 4 -74 9 -95 6 -21 13 -99 16 -173 3 -74 10 -152 16 -174 6 -21 8 -48 5 -60 -3 -11 0 -39 5 -61 6 -22 14 -83 19 -135 4 -52 13 -142 19 -200 6 -58 15 -154 21 -215 6 -60 13 -123 15 -140 9 -79 26 -241 35 -339 6 -60 15 -128 20 -150 14 -66 40 -276 40 -331 0 -27 7 -93 16 -145 9 -52 20 -124 24 -160 5 -36 13 -87 19 -115 19 -95 36 -200 33 -209 -5 -15 37 -313 57 -411 11 -49 27 -135 36 -190 9 -55 23 -131 30 -170 8 -38 16 -90 19 -115 3 -25 11 -79 19 -120 25 -131 76 -383 92 -450 8 -36 19 -87 24 -115 10 -54 66 -281 81 -331 6 -17 10 -41 10 -55 0 -13 7 -49 16 -79 9 -30 22 -93 29 -140 7 -47 20 -101 28 -120 8 -19 19 -62 25 -95 5 -33 21 -105 35 -160 14 -55 28 -119 32 -142 4 -24 10 -45 14 -48 5 -2 18 -48 31 -102 12 -54 35 -145 50 -203 16 -58 33 -130 39 -160 7 -30 22 -91 35 -135 13 -44 29 -100 35 -125 7 -25 18 -65 26 -90 33 -104 58 -190 80 -270 13 -47 37 -126 54 -176 16 -51 30 -100 29 -110 0 -19 4 -33 48 -154 13 -36 29 -87 34 -114 6 -26 17 -61 26 -78 8 -16 24 -70 35 -120 19 -88 74 -260 103 -323 27 -58 55 -131 66 -170 26 -91 82 -236 104 -270 8 -13 20 -45 27 -72 6 -26 31 -82 54 -123 48 -87 120 -234 130 -270 4 -14 27 -65 50 -115 24 -49 48 -108 55 -130 21 -70 91 -229 201 -460 16 -33 29 -63 29 -67 0 -8 82 -185 121 -259 16 -31 29 -62 29 -68 0 -7 20 -53 44 -104 24 -51 67 -144 97 -207 30 -63 61 -126 71 -140 9 -14 27 -54 39 -90 13 -37 37 -80 56 -99 18 -19 33 -39 33 -45 0 -6 7 -24 16 -41 9 -16 34 -66 56 -110 23 -44 60 -112 84 -151 24 -39 44 -77 44 -86 0 -8 9 -23 20 -33 11 -10 20 -26 20 -35 0 -9 11 -32 24 -51 14 -19 43 -70 66 -114 39 -77 66 -124 159 -280 23 -38 54 -97 70 -130 15 -33 40 -74 54 -91 14 -17 29 -44 33 -60 4 -16 13 -36 20 -45 8 -9 27 -40 42 -70 41 -78 101 -173 169 -269 10 -14 26 -47 35 -73 9 -26 28 -62 43 -79 14 -17 35 -49 47 -72 11 -22 38 -62 59 -88 22 -26 45 -60 52 -76 7 -16 25 -44 41 -63 33 -40 78 -107 137 -204 24 -38 64 -95 90 -125 25 -30 52 -67 60 -82 8 -15 48 -65 90 -110 41 -46 89 -103 106 -128 18 -25 56 -70 85 -101 29 -31 69 -76 88 -99 19 -24 53 -63 75 -86 22 -23 52 -54 66 -70 77 -86 309 -298 454 -416 76 -62 118 -97 180 -151 22 -19 55 -42 73 -51 18 -9 57 -38 86 -64 30 -26 97 -78 151 -117 53 -38 111 -82 128 -97 70 -61 192 -155 250 -195 34 -23 73 -51 87 -61 46 -35 234 -144 292 -168 32 -13 72 -24 90 -24 42 1 103 23 129 46 21 19 26 73 9 104 -9 17 -88 79 -179 142 -18 13 -50 37 -70 54 -20 17 -49 38 -66 47 -16 8 -56 38 -88 66 -32 28 -62 51 -67 51 -5 0 -19 11 -32 23 -54 56 -251 215 -337 272 -25 17 -83 64 -130 105 -47 41 -99 83 -115 94 -16 10 -52 40 -80 67 -28 27 -92 84 -142 126 -50 43 -131 112 -180 154 -49 42 -96 80 -105 85 -9 5 -57 56 -108 114 -52 58 -115 125 -141 150 -27 25 -77 81 -112 125 -35 44 -79 96 -97 115 -18 19 -40 46 -49 60 -9 14 -37 52 -63 85 -25 33 -56 76 -70 96 -13 20 -59 83 -101 139 -43 57 -78 107 -78 112 0 5 -33 50 -74 101 -40 51 -85 116 -100 144 -14 28 -30 54 -36 58 -5 3 -26 39 -46 80 -20 40 -44 81 -55 91 -10 9 -19 22 -19 29 0 7 -10 20 -21 31 -12 10 -33 42 -46 69 -13 28 -38 74 -56 102 -98 160 -128 214 -139 244 -6 19 -28 57 -49 84 -20 28 -46 70 -58 95 -12 25 -32 63 -45 85 -14 22 -38 65 -55 96 -16 31 -41 69 -54 85 -21 25 -43 64 -109 189 -9 17 -40 77 -68 135 -29 58 -63 119 -76 136 -13 18 -34 56 -47 85 -13 30 -38 76 -55 103 -17 27 -37 65 -43 85 -6 20 -24 55 -40 79 -29 43 -79 142 -79 156 0 5 -8 20 -18 34 -10 15 -31 58 -47 95 -15 38 -39 85 -53 105 -13 20 -31 54 -38 76 -8 22 -23 58 -33 80 -56 122 -69 153 -76 176 -4 14 -15 41 -25 60 -9 19 -34 71 -55 115 -20 44 -59 125 -85 180 -26 55 -57 123 -68 150 -23 55 -75 177 -115 271 -15 34 -27 68 -27 75 0 8 -11 35 -25 61 -14 26 -25 53 -25 61 0 8 -13 28 -30 45 -16 18 -30 37 -30 43 0 5 -11 35 -25 65 -14 30 -25 58 -25 63 0 5 -22 53 -49 107 -27 55 -59 133 -71 174 -27 91 -90 249 -102 256 -4 3 -8 16 -8 29 0 12 -18 68 -40 124 -22 55 -40 112 -40 127 0 14 -11 53 -25 87 -27 69 -60 173 -70 227 -7 34 -15 61 -69 225 -14 45 -37 121 -50 170 -42 158 -54 199 -74 247 -11 25 -24 68 -28 94 -4 26 -30 120 -59 208 -28 89 -60 197 -70 241 -10 44 -33 139 -52 210 -18 72 -44 175 -58 230 -30 126 -62 246 -80 306 -8 26 -15 56 -15 68 0 23 -13 82 -40 186 -11 39 -21 86 -24 105 -3 19 -17 82 -31 140 -44 176 -46 183 -55 250 -4 36 -17 92 -28 125 -28 86 -42 150 -42 190 0 19 -7 52 -15 72 -17 46 -42 149 -61 263 -8 47 -19 105 -23 130 -5 25 -21 110 -35 190 -38 212 -53 293 -65 336 -5 22 -15 86 -21 144 -6 58 -15 132 -20 165 -5 33 -12 87 -15 120 -3 33 -12 82 -20 109 -8 27 -15 73 -15 102 0 29 -5 65 -10 80 -6 14 -15 81 -20 147 -6 67 -17 149 -25 182 -8 33 -14 76 -14 95 1 47 -17 221 -25 240 -3 8 -10 53 -16 100 -5 47 -16 123 -25 170 -9 47 -14 100 -11 118 3 18 -1 83 -9 145 -7 62 -16 159 -19 217 -4 58 -13 150 -21 205 -29 211 -37 291 -45 453 -5 92 -13 203 -19 247 -17 133 -31 312 -37 475 -3 85 -8 207 -11 270 -7 150 -7 113 1 450 3 162 9 309 13 325 4 17 7 68 8 115 1 47 9 202 18 345 9 143 18 376 21 517 2 141 7 261 10 267 3 5 8 90 10 188 2 113 9 202 19 243 9 36 18 117 21 180 5 132 40 281 86 373 21 42 28 67 23 88 -7 34 16 74 49 85 12 4 34 15 48 24 14 10 52 35 85 56 33 21 97 66 142 101 46 34 95 69 111 77 16 8 35 22 42 31 8 9 39 29 69 45 60 30 299 188 418 276 40 30 77 54 82 54 5 0 64 40 132 88 68 48 159 111 201 140 42 29 89 69 105 89 15 21 54 65 85 98 32 33 65 76 74 95 10 19 37 61 62 94 l45 59 96 -6 c53 -3 110 -10 126 -16 34 -11 185 -45 320 -71 268 -51 328 -64 411 -86 49 -13 104 -24 121 -24 16 0 43 -4 59 -9 16 -5 56 -14 89 -20 33 -7 74 -17 90 -22 66 -22 185 -52 280 -69 55 -11 143 -28 195 -40 52 -12 120 -26 150 -31 30 -6 75 -17 100 -25 25 -8 56 -14 70 -14 14 0 59 -11 100 -24 41 -13 120 -33 175 -46 55 -12 154 -35 220 -50 136 -33 220 -50 385 -80 63 -11 147 -29 185 -39 39 -10 115 -29 170 -41 124 -28 244 -57 310 -76 28 -8 79 -18 115 -21 36 -3 70 -9 75 -14 6 -4 29 -12 50 -18 22 -5 54 -14 70 -19 99 -33 134 -42 170 -42 22 0 57 -9 77 -20 20 -10 60 -22 90 -25 29 -4 69 -12 88 -19 42 -16 104 -33 185 -50 33 -8 101 -25 150 -39 50 -14 108 -29 130 -33 22 -4 54 -13 72 -21 18 -7 48 -13 66 -13 19 0 47 -6 63 -14 16 -8 54 -17 84 -21 30 -3 66 -10 80 -15 14 -4 59 -18 100 -31 41 -12 87 -28 101 -35 15 -7 51 -18 80 -23 92 -17 112 -22 177 -48 35 -13 96 -33 135 -43 208 -55 262 -73 285 -90 13 -11 36 -20 49 -20 26 0 104 -22 163 -46 19 -8 64 -21 98 -30 35 -9 101 -30 145 -49 45 -18 116 -43 157 -55 41 -13 107 -33 145 -45 39 -13 90 -26 115 -29 l45 -6 -52 30 c-29 16 -55 30 -59 30 -4 0 -30 11 -58 24 -28 13 -70 27 -94 31 -23 4 -65 22 -93 40 -29 20 -69 37 -97 41 -26 4 -57 13 -68 21 -12 7 -50 22 -85 32 -35 10 -80 25 -99 34 -57 25 -164 57 -192 57 -14 0 -38 4 -54 9 -16 5 -58 17 -94 27 -36 10 -78 26 -95 36 -16 9 -48 21 -70 27 -22 5 -84 24 -139 40 -54 17 -109 31 -121 31 -13 0 -63 14 -112 31 -48 17 -116 35 -150 40 -34 6 -87 21 -118 34 -30 14 -63 25 -72 25 -9 0 -48 15 -87 33 -59 28 -87 35 -168 41 -61 4 -114 14 -143 26 -26 11 -67 20 -91 20 -31 0 -56 8 -82 25 -37 25 -217 75 -268 75 -41 0 -107 21 -130 42 -24 22 -101 45 -189 58 -125 19 -161 27 -190 42 -16 9 -57 21 -90 27 -142 28 -171 35 -180 41 -5 4 -23 10 -40 13 -87 16 -131 29 -151 42 -13 8 -33 15 -45 15 -12 0 -65 13 -118 29 -172 52 -207 61 -234 61 -15 0 -44 6 -64 14 -37 13 -131 42 -283 86 -41 12 -85 26 -98 31 -13 5 -35 9 -49 9 -15 0 -40 4 -57 9 -74 22 -217 51 -284 56 -43 4 -94 16 -127 31 -31 13 -70 24 -88 24 -18 1 -57 9 -87 20 -30 11 -71 19 -91 20 -20 0 -61 14 -95 32 -50 26 -71 31 -139 33 -77 3 -139 14 -165 30 -7 5 -31 7 -52 7 -49 -2 -229 41 -259 61 -13 10 -33 14 -49 11 -17 -4 -43 2 -70 16 -23 12 -74 28 -114 36 -39 9 -132 32 -206 53 -74 21 -175 48 -225 61 -49 13 -96 29 -104 36 -22 20 3 91 48 135 61 60 95 109 155 229 56 112 83 151 186 275 48 57 100 146 100 172 0 6 17 29 39 52 l38 40 239 -5 c132 -3 304 -9 384 -15 80 -6 217 -14 305 -19 88 -4 210 -13 270 -19 61 -6 135 -13 165 -16 30 -3 132 -9 225 -14 94 -5 208 -13 255 -19 75 -10 216 -21 670 -52 63 -5 124 -11 135 -14 11 -3 70 -8 130 -10 120 -6 387 -30 475 -44 30 -5 100 -8 155 -6 55 1 123 -2 150 -8 28 -5 93 -13 145 -18 52 -4 140 -13 195 -19 55 -6 152 -16 215 -21 63 -6 135 -15 160 -21 52 -12 272 -24 440 -24 109 0 180 14 180 35 0 9 -54 27 -85 29 -20 1 -260 32 -390 51 -38 5 -95 15 -125 21 -30 7 -100 13 -155 14 -55 1 -143 11 -195 22 -52 11 -125 21 -163 22 -37 1 -100 9 -140 17 -39 9 -139 20 -222 24 -82 5 -192 18 -243 29 -57 12 -102 17 -115 12 -26 -10 -211 12 -282 33 -27 8 -95 18 -150 22 -55 3 -109 11 -119 16 -11 6 -78 12 -150 14 -111 2 -241 9 -371 19 -16 1 -68 8 -115 14 -47 6 -128 13 -180 16 -52 2 -115 8 -140 14 -25 5 -162 13 -305 16 -143 3 -273 10 -290 15 -35 10 -193 23 -320 26 -49 2 -121 7 -160 13 -237 34 -277 41 -304 57 -17 10 -33 24 -35 31 -8 20 63 144 181 313 34 49 70 109 81 133 10 24 33 59 49 78 17 18 40 54 53 79 12 25 29 52 36 61 8 8 20 36 27 61 8 24 35 70 61 102 25 31 46 64 46 73 0 8 13 41 30 72 72 138 201 416 228 492 43 123 70 172 106 196 31 22 168 64 286 88 36 8 92 24 125 36 33 12 78 25 100 29 22 4 65 15 95 24 83 25 125 35 238 56 56 11 113 25 125 32 12 6 42 15 67 19 25 4 61 12 80 19 19 6 49 17 65 22 17 6 75 23 130 37 55 15 115 35 134 44 19 9 44 17 57 17 12 0 51 9 86 20 34 11 72 20 83 20 11 0 33 7 49 15 16 8 54 22 85 31 31 9 101 31 157 50 55 19 109 34 120 34 25 0 105 30 125 47 8 7 22 13 30 13 20 1 115 35 131 47 7 6 29 13 49 16 19 3 75 24 122 46 48 23 90 41 94 41 18 0 159 63 178 80 11 9 28 20 38 23 10 4 16 11 12 16 -9 15 -106 1 -141 -20 -17 -11 -42 -19 -55 -19 -24 0 -66 -20 -113 -54 -22 -16 -31 -17 -52 -7 -20 9 -32 7 -62 -8 -20 -10 -59 -21 -87 -25 -27 -3 -72 -15 -100 -25 -27 -11 -88 -27 -135 -36 -150 -28 -184 -37 -240 -62 -80 -36 -107 -44 -185 -53 -96 -12 -156 -24 -180 -37 -21 -12 -218 -68 -292 -83 -23 -5 -58 -16 -78 -25 -21 -8 -60 -15 -88 -15 -28 0 -58 -6 -66 -13 -23 -18 -131 -50 -331 -98 -96 -22 -191 -48 -210 -56 -120 -52 -310 -47 -310 8 0 10 14 45 31 76 76 140 111 216 106 234 -3 10 8 51 25 91 16 40 43 114 60 163 16 50 41 114 54 143 13 29 24 71 24 92 0 26 14 70 39 123 21 45 46 118 56 162 21 100 29 127 49 190 9 28 26 84 37 125 11 41 29 89 40 106 10 17 19 42 19 54 0 29 49 178 61 186 5 3 9 27 9 53 0 26 11 80 25 119 14 39 25 86 25 102 0 17 5 41 12 53 11 21 23 79 48 236 6 35 13 68 16 73 18 29 74 385 80 508 6 130 23 279 36 303 5 10 18 68 29 128 10 60 24 119 29 130 6 11 8 29 5 40 -8 23 11 264 25 344 6 28 15 141 20 252 6 111 16 216 22 235 5 18 12 143 14 278 3 135 6 354 9 487 3 181 8 258 20 308 14 54 15 71 5 96 -8 18 -10 47 -6 74 4 31 1 58 -10 86 -14 33 -14 45 -5 66 12 27 3 152 -19 251 -6 23 -10 61 -10 84 0 74 -32 322 -45 348 -15 32 -13 263 4 304 23 56 -19 182 -86 262 -20 24 -102 36 -158 23z m13 -433 c16 -15 16 -20 42 -234 11 -95 25 -182 31 -193 5 -11 10 -48 9 -82 0 -34 4 -98 10 -142 6 -44 11 -91 11 -105 1 -14 5 -45 10 -70 13 -68 13 -405 0 -575 -18 -242 -20 -325 -10 -352 6 -15 5 -71 -1 -151 -5 -70 -11 -174 -13 -232 -2 -58 -9 -132 -15 -165 -22 -115 -34 -231 -36 -345 -2 -63 -6 -126 -10 -139 -5 -13 -10 -47 -12 -75 -11 -169 -22 -234 -46 -286 -14 -30 -29 -82 -32 -115 -3 -33 -10 -89 -15 -125 -17 -116 -32 -233 -41 -310 -4 -41 -13 -117 -19 -169 -6 -52 -9 -103 -6 -112 4 -10 1 -35 -5 -56 -25 -83 -32 -110 -40 -153 -12 -63 -39 -167 -57 -220 -16 -48 -26 -93 -42 -180 -6 -30 -22 -93 -37 -140 -14 -47 -28 -98 -30 -115 -1 -16 -10 -46 -18 -66 -8 -19 -14 -49 -14 -65 1 -16 -11 -52 -25 -80 -14 -28 -31 -73 -38 -100 -6 -27 -18 -60 -25 -74 -28 -50 -74 -185 -74 -215 -1 -37 -30 -126 -69 -208 -32 -69 -60 -152 -91 -274 -11 -45 -31 -106 -44 -136 -13 -29 -39 -96 -56 -148 -18 -52 -38 -103 -45 -114 -7 -12 -27 -53 -44 -93 -16 -40 -41 -87 -54 -105 -27 -37 -57 -99 -57 -119 0 -26 -60 -86 -93 -93 -17 -4 -45 -14 -61 -22 -16 -8 -63 -21 -105 -29 -123 -21 -169 -32 -198 -48 -38 -19 -165 -56 -193 -56 -12 0 -39 -8 -59 -19 -34 -18 -135 -41 -177 -41 -10 0 -55 -11 -99 -24 -44 -13 -120 -34 -170 -46 -49 -12 -96 -26 -103 -32 -12 -10 -95 -32 -182 -47 -51 -9 -92 -24 -146 -52 -21 -10 -45 -19 -53 -19 -25 0 -145 -30 -165 -42 -11 -6 -49 -21 -85 -33 -36 -13 -88 -32 -114 -44 -27 -12 -57 -21 -68 -21 -20 0 -119 -32 -289 -94 -52 -19 -171 -61 -265 -93 -93 -33 -188 -69 -210 -80 -22 -11 -56 -24 -75 -28 -19 -4 -69 -20 -110 -35 -41 -15 -109 -40 -150 -55 -105 -37 -146 -54 -215 -85 -139 -64 -223 -101 -271 -117 -28 -10 -83 -38 -122 -63 -176 -110 -167 -102 -170 -143 -3 -31 1 -39 22 -48 33 -15 90 3 254 83 127 61 328 148 462 198 41 16 122 46 180 68 58 22 152 58 209 81 57 22 109 41 117 41 7 0 55 18 106 41 51 22 111 45 133 50 22 5 69 21 105 34 36 13 146 49 245 80 99 31 209 67 245 80 36 13 103 35 150 49 245 73 301 90 367 112 39 13 81 24 93 24 12 0 31 5 43 12 33 19 90 38 112 38 11 0 52 9 90 19 39 11 133 36 210 56 77 19 165 43 195 51 30 8 84 21 120 28 36 7 89 21 118 31 71 24 138 16 169 -19 l23 -27 -22 -57 c-11 -31 -29 -69 -39 -84 -11 -14 -19 -31 -19 -36 0 -14 -46 -103 -96 -188 -23 -38 -61 -108 -85 -155 -23 -46 -55 -104 -69 -130 -15 -25 -33 -62 -39 -82 -7 -20 -20 -43 -30 -49 -18 -13 -111 -181 -111 -201 0 -7 -24 -43 -53 -81 -51 -68 -91 -130 -122 -191 -8 -17 -37 -57 -63 -90 -26 -33 -65 -86 -87 -118 -21 -32 -48 -60 -59 -62 -26 -6 -401 11 -556 25 -138 13 -269 18 -620 24 -146 3 -314 10 -375 16 -246 25 -1045 -2 -1155 -39 -14 -5 -54 -17 -90 -27 -78 -22 -107 -39 -115 -67 -3 -12 -11 -39 -17 -59 -9 -31 -8 -41 6 -63 18 -28 44 -32 84 -11 15 7 43 16 62 20 67 13 406 47 520 52 348 17 1314 -6 1937 -44 145 -9 186 -21 200 -59 8 -20 -57 -147 -116 -226 -26 -34 -65 -94 -89 -133 -23 -39 -56 -86 -72 -104 -16 -18 -35 -49 -41 -69 -6 -20 -21 -47 -33 -61 -12 -14 -35 -45 -51 -70 -37 -58 -93 -118 -125 -134 -31 -16 -118 -13 -196 8 -32 8 -99 22 -149 31 -132 24 -204 40 -357 79 -75 19 -168 39 -207 45 -38 6 -82 16 -97 22 -16 5 -58 14 -94 19 -36 5 -83 14 -105 19 -22 6 -80 19 -130 30 -49 10 -133 28 -185 39 -336 72 -470 92 -616 91 -175 -1 -212 -9 -251 -55 -46 -55 -58 -102 -34 -134 17 -23 24 -25 77 -21 131 7 366 4 416 -7 29 -6 87 -16 128 -22 41 -7 107 -18 145 -25 39 -8 113 -21 165 -30 104 -17 217 -38 325 -60 39 -8 120 -23 180 -34 61 -11 146 -29 190 -40 85 -21 237 -55 295 -66 103 -19 268 -59 292 -72 47 -23 46 -72 -3 -128 -27 -31 -250 -254 -289 -289 -19 -17 -55 -44 -80 -60 -78 -48 -163 -104 -215 -141 -27 -20 -88 -61 -135 -92 -47 -30 -96 -64 -110 -74 -14 -11 -53 -33 -86 -49 -34 -16 -108 -62 -165 -103 -107 -77 -163 -109 -232 -133 -21 -8 -71 -34 -111 -59 -40 -25 -87 -50 -105 -56 -19 -7 -75 -34 -125 -61 -50 -27 -102 -56 -116 -63 -33 -17 -202 -94 -320 -145 -107 -46 -270 -101 -375 -126 -38 -10 -97 -28 -130 -40 -34 -13 -81 -28 -105 -33 -125 -29 -187 -41 -207 -41 -13 0 -46 -9 -75 -20 -57 -22 -247 -58 -443 -84 -66 -9 -181 -26 -255 -38 -74 -11 -207 -27 -295 -34 -88 -7 -196 -19 -240 -27 -44 -8 -116 -18 -160 -22 -44 -3 -129 -15 -190 -25 -60 -11 -182 -24 -270 -30 -213 -14 -610 -47 -765 -65 -147 -16 -483 -19 -625 -6 -55 5 -176 17 -270 25 -337 31 -565 61 -680 91 -27 7 -70 16 -95 20 -25 4 -81 17 -125 30 -44 13 -116 33 -160 45 -44 12 -90 28 -102 36 -12 8 -30 14 -39 14 -9 0 -42 9 -73 19 -31 11 -83 27 -116 36 -33 10 -98 32 -145 50 -47 18 -110 41 -140 50 -74 24 -219 82 -250 101 -14 8 -41 22 -60 30 -36 15 -327 157 -415 202 -76 39 -296 175 -378 234 -29 20 -76 54 -105 75 -30 21 -77 56 -105 78 -29 23 -74 56 -102 75 -80 54 -195 160 -195 180 0 31 16 36 210 69 30 6 95 21 143 34 49 14 152 37 230 52 78 15 158 34 177 42 19 8 58 19 85 23 28 5 82 13 120 19 72 12 153 33 215 57 19 7 58 18 85 23 28 6 82 20 120 31 39 11 94 25 122 30 29 5 76 16 105 24 29 8 89 24 133 35 193 47 402 104 427 117 15 8 37 14 50 14 13 0 77 18 143 39 112 36 143 46 293 87 80 22 208 64 266 87 27 10 90 30 140 42 235 61 266 81 266 176 0 34 -6 47 -35 76 -29 29 -41 34 -68 30 -60 -8 -322 -77 -352 -92 -16 -9 -91 -33 -165 -54 -74 -21 -173 -52 -220 -69 -47 -16 -116 -38 -155 -47 -38 -9 -95 -25 -125 -35 -121 -40 -289 -90 -350 -106 -35 -8 -74 -21 -85 -27 -20 -11 -30 -13 -170 -41 -44 -9 -123 -30 -175 -45 -83 -26 -168 -48 -402 -107 -32 -8 -69 -14 -82 -14 -14 0 -28 -4 -31 -10 -3 -5 -16 -10 -28 -10 -13 0 -47 -7 -77 -16 -73 -20 -212 -52 -280 -64 -30 -5 -80 -17 -110 -25 -30 -8 -95 -24 -145 -36 -49 -11 -119 -28 -155 -36 -36 -9 -87 -20 -115 -25 -27 -5 -79 -18 -115 -29 -36 -11 -74 -19 -85 -19 -40 1 -101 38 -140 86 -53 66 -174 209 -261 308 -39 45 -88 108 -110 140 -57 86 -63 95 -125 171 -31 39 -64 85 -74 104 -9 18 -36 61 -59 95 -75 110 -136 224 -136 255 0 27 4 30 47 40 109 24 409 41 713 42 135 0 1015 -10 1350 -16 113 -2 275 -6 360 -10 253 -12 626 -14 770 -5 224 14 511 39 580 49 36 6 87 13 114 17 66 8 106 46 106 102 0 102 -43 136 -156 121 -109 -15 -248 -27 -256 -23 -3 2 -51 -3 -105 -12 -54 -9 -136 -18 -183 -21 -47 -2 -107 -6 -135 -8 -82 -6 -986 -5 -1657 1 -603 5 -972 -3 -1143 -26 -38 -5 -171 -12 -295 -16 -191 -5 -231 -4 -262 9 -36 15 -64 55 -83 117 -4 14 -27 66 -51 117 -24 50 -44 96 -44 102 0 7 -11 33 -23 59 -13 26 -31 74 -41 107 -10 33 -32 94 -51 135 -18 41 -36 86 -40 100 -4 14 -13 32 -21 40 -15 17 -65 149 -99 260 -23 77 -54 160 -80 217 -8 17 -15 39 -15 48 0 16 -15 54 -67 175 -23 53 -53 152 -53 176 0 12 -9 41 -20 65 -24 54 -27 124 -4 133 31 12 82 5 144 -19 35 -14 72 -25 83 -25 10 0 46 -11 80 -23 34 -13 80 -29 102 -35 22 -6 94 -29 159 -51 66 -23 130 -41 142 -41 12 0 55 -14 95 -31 41 -17 92 -35 114 -40 57 -13 283 -80 328 -98 16 -6 39 -11 52 -11 14 0 39 -6 57 -14 60 -26 299 -97 393 -117 33 -7 77 -21 97 -31 21 -10 51 -18 67 -18 17 0 61 -11 98 -26 38 -14 88 -29 113 -35 57 -12 136 -35 225 -64 39 -12 102 -28 140 -35 72 -13 148 -31 200 -49 17 -5 57 -15 90 -22 33 -6 103 -24 155 -40 52 -16 102 -29 110 -29 9 0 57 -13 108 -30 51 -16 103 -30 114 -30 21 0 41 -5 148 -41 30 -10 73 -21 95 -24 22 -4 66 -16 98 -26 32 -10 86 -23 120 -29 77 -14 241 -52 372 -87 98 -26 137 -34 320 -67 207 -38 467 -61 498 -45 28 15 50 75 37 99 -15 28 -124 76 -205 89 -38 7 -92 18 -120 26 -27 8 -99 23 -160 34 -228 42 -322 62 -385 81 -36 11 -72 20 -80 20 -37 -1 -388 69 -490 96 -30 9 -82 22 -115 30 -33 8 -85 22 -115 31 -88 26 -201 53 -220 53 -9 0 -46 8 -81 19 -35 10 -98 26 -139 34 -41 9 -100 23 -130 32 -30 9 -82 23 -116 30 -33 7 -77 20 -98 29 -21 9 -47 16 -58 16 -10 0 -33 8 -51 17 -18 9 -63 22 -102 29 -91 15 -152 31 -250 65 -85 29 -91 31 -285 79 -69 18 -171 45 -226 61 -56 16 -108 29 -116 29 -9 0 -51 11 -94 25 -43 14 -119 37 -169 50 -49 14 -128 38 -175 55 -47 16 -96 30 -109 30 -30 0 -157 37 -191 56 -23 12 -49 20 -195 58 -27 7 -98 30 -157 50 -58 20 -114 36 -125 36 -25 0 -135 35 -180 58 -21 11 -50 22 -64 25 -27 7 -49 42 -49 80 0 12 -7 42 -16 67 -44 127 -54 187 -78 475 -8 94 -19 220 -25 280 -10 104 -27 403 -36 620 -3 55 -10 137 -16 183 -6 45 -8 98 -5 116 4 18 0 76 -7 127 -8 52 -15 168 -17 259 -1 91 -4 181 -5 200 -2 19 -9 91 -15 160 -6 69 -13 268 -15 444 -3 175 -9 363 -14 417 -4 54 -4 122 0 150 4 28 4 61 -1 74 -5 14 -5 47 0 82 11 69 27 1092 19 1228 -1 22 1 67 5 100 3 33 8 197 11 365 3 168 10 345 16 393 8 64 8 101 0 135 -7 29 -8 69 -3 107 l8 60 34 -2 c27 -1 43 -10 68 -39 17 -20 32 -43 32 -49 0 -7 9 -24 20 -37 10 -14 28 -49 39 -79 12 -30 41 -85 65 -123 24 -38 47 -83 50 -100 4 -17 22 -51 41 -75 19 -24 35 -50 35 -57 0 -14 36 -80 58 -106 18 -21 102 -199 102 -215 0 -7 11 -20 24 -29 14 -8 30 -30 36 -48 6 -18 24 -46 41 -62 17 -16 42 -51 54 -79 13 -27 32 -66 43 -85 10 -19 27 -51 36 -71 10 -20 35 -58 57 -84 21 -26 43 -63 49 -83 5 -21 21 -55 35 -77 13 -22 31 -54 39 -71 8 -17 22 -36 30 -43 9 -8 25 -44 36 -81 11 -37 28 -78 39 -91 10 -13 24 -47 30 -76 7 -28 24 -66 37 -85 30 -40 59 -103 69 -149 4 -19 19 -54 33 -79 48 -85 52 -95 52 -125 0 -16 7 -41 15 -55 8 -14 22 -41 31 -60 9 -19 27 -48 40 -63 13 -16 24 -36 24 -46 0 -9 4 -21 9 -27 12 -12 61 -137 61 -154 0 -7 10 -29 23 -49 12 -19 27 -45 32 -56 12 -23 42 -39 107 -56 45 -12 47 -12 100 24 32 22 70 39 98 43 25 3 90 14 145 25 107 19 196 32 365 49 92 10 214 25 370 45 25 4 70 6 100 5 30 0 75 4 100 10 44 10 88 12 550 30 129 5 244 10 255 13 11 2 45 7 75 11 30 4 86 14 123 23 53 12 74 13 94 4 13 -6 29 -9 34 -5 19 11 1173 19 1192 7 5 -3 88 -7 185 -10 98 -2 193 -6 212 -8 19 -1 98 -5 175 -9 162 -7 493 -34 514 -42 8 -2 156 -7 330 -9 390 -6 715 -14 801 -19 36 -2 151 -9 255 -15 105 -6 258 -15 340 -21 260 -17 586 -34 700 -36 147 -3 383 -12 470 -19 430 -30 1739 -23 1824 10 9 4 52 9 96 11 77 3 198 13 430 35 163 15 294 38 334 58 33 17 212 58 355 82 33 6 91 19 130 29 58 16 92 18 186 14 144 -7 154 -6 201 6 45 12 149 108 149 137 0 21 43 95 105 178 24 33 52 74 61 90 9 17 37 54 61 84 25 30 54 73 65 95 20 40 50 82 116 160 17 22 32 44 32 49 0 5 18 34 40 66 22 31 40 61 40 65 0 5 14 24 30 43 17 18 30 38 30 44 0 5 15 24 33 42 17 18 46 60 64 93 18 33 42 69 54 80 11 10 30 36 41 57 10 21 48 68 82 104 38 39 69 81 76 104 8 22 19 44 26 50 7 5 18 32 25 60 7 28 20 51 29 54 8 3 28 32 44 65 16 33 48 86 72 118 24 33 47 75 50 93 4 19 17 45 29 59 29 34 81 118 95 155 6 16 44 87 83 158 134 239 146 262 147 284 0 12 9 27 19 33 11 5 22 23 26 39 3 16 14 36 25 46 10 9 24 31 31 48 6 18 27 55 45 83 18 28 36 63 40 78 9 38 59 108 133 188 l63 66 56 -5 c32 -3 63 -11 70 -17z M20195 31285 c-41 -18 -67 -20 -155 -11 -110 11 -121 10 -280 -9 -80 -9 -183 -21 -230 -26 -47 -4 -112 -13 -145 -18 -33 -6 -103 -15 -155 -21 -52 -5 -115 -14 -140 -20 -25 -5 -92 -17 -150 -25 -129 -19 -222 -37 -320 -65 -41 -11 -102 -25 -135 -30 -33 -5 -89 -16 -125 -25 -36 -9 -88 -20 -117 -25 -49 -8 -93 -19 -158 -42 -16 -6 -75 -20 -130 -32 -55 -12 -111 -28 -125 -36 -14 -7 -59 -19 -100 -26 -89 -15 -166 -41 -205 -72 -15 -12 -37 -22 -49 -22 -22 0 -94 -23 -124 -40 -35 -19 -111 -50 -124 -50 -8 0 -34 -12 -59 -28 -24 -15 -71 -39 -104 -54 -171 -77 -202 -93 -235 -123 -14 -13 -40 -31 -59 -40 -19 -10 -58 -39 -85 -64 -28 -26 -64 -57 -81 -70 -55 -41 -305 -295 -305 -311 0 -8 -27 -55 -60 -104 -33 -48 -74 -125 -91 -170 -17 -44 -36 -88 -43 -96 -24 -29 -52 -86 -71 -145 -10 -33 -30 -76 -45 -95 -28 -39 -28 -39 -87 -142 -23 -41 -55 -82 -72 -93 -49 -32 -58 -78 -32 -163 18 -59 29 -77 67 -111 26 -23 52 -41 58 -41 9 0 51 -26 146 -90 42 -28 140 -56 300 -85 52 -9 109 -21 126 -26 39 -12 289 -59 369 -69 33 -5 83 -15 110 -23 28 -8 95 -21 150 -27 204 -24 252 -30 320 -40 39 -6 97 -14 130 -19 33 -5 100 -4 150 0 50 5 158 13 240 19 83 5 175 16 205 24 188 51 249 71 327 110 117 59 282 136 291 136 4 0 27 11 52 24 25 13 59 26 75 30 17 4 49 22 73 41 24 18 64 42 90 51 61 23 149 80 169 110 8 13 22 26 31 29 10 3 45 31 79 63 34 32 94 76 134 97 50 28 99 67 156 125 250 255 276 286 304 345 35 72 65 115 108 151 42 35 79 90 142 210 28 54 61 113 74 129 21 29 75 135 75 149 0 3 20 49 45 102 25 52 45 97 45 101 0 3 18 30 40 59 30 40 40 62 40 91 0 21 5 54 11 73 13 44 20 285 9 325 -5 17 -11 48 -15 70 -5 31 -19 52 -61 92 -30 29 -71 60 -90 68 -44 18 -138 18 -179 0z m106 -302 c73 -36 76 -70 18 -237 -26 -76 -59 -146 -90 -193 -27 -42 -49 -83 -49 -93 0 -9 -27 -55 -59 -102 -69 -99 -95 -147 -110 -203 -15 -58 -125 -199 -293 -377 -27 -28 -48 -55 -48 -62 0 -17 -140 -151 -177 -170 -18 -9 -49 -30 -68 -48 -20 -17 -49 -38 -64 -47 -45 -25 -171 -123 -171 -132 0 -26 -110 -53 -147 -36 -32 14 -38 48 -19 104 9 27 21 98 26 158 5 61 15 147 21 193 6 45 9 92 6 103 -3 11 -1 49 5 85 10 69 -5 412 -22 489 -15 69 -38 157 -65 250 -34 115 -42 187 -24 202 22 17 87 33 179 43 245 28 343 41 420 54 47 9 104 16 128 16 24 0 52 5 63 10 30 17 221 28 364 22 109 -4 137 -9 176 -29z m-2654 -483 c31 -19 32 -22 27 -67 -3 -27 -8 -55 -11 -63 -14 -39 -38 -275 -53 -511 -12 -195 -9 -232 41 -434 5 -22 18 -76 29 -120 25 -107 90 -283 117 -317 5 -7 22 -38 37 -68 15 -30 35 -67 44 -82 30 -49 7 -58 -164 -70 -138 -9 -163 -8 -339 16 -104 14 -212 32 -240 40 -27 7 -79 17 -115 20 -93 8 -129 14 -212 32 -63 14 -135 29 -313 64 -37 7 -84 18 -177 41 -62 16 -68 39 -53 199 7 74 19 153 28 175 8 22 18 60 22 85 4 24 17 60 29 80 12 19 27 46 34 60 7 14 22 41 33 60 12 19 28 53 35 74 8 21 39 72 70 111 69 90 247 272 319 325 29 22 56 44 60 50 4 6 28 21 54 34 26 14 53 32 60 40 7 9 31 21 53 26 22 6 60 27 84 46 25 19 50 34 56 34 6 0 42 16 79 35 38 19 77 35 87 35 9 1 46 16 82 35 78 41 146 46 197 15z M11500 30950 c-47 -5 -161 -13 -255 -19 -93 -6 -192 -18 -219 -26 -35 -11 -119 -17 -295 -21 -171 -4 -257 -10 -281 -19 -53 -20 -176 -34 -255 -28 -63 5 -72 3 -89 -16 -11 -12 -23 -43 -27 -69 -24 -157 -40 -243 -54 -287 -26 -80 -56 -385 -43 -445 4 -19 16 -75 27 -125 11 -49 23 -115 27 -145 4 -33 20 -81 40 -120 19 -35 34 -72 34 -81 0 -9 18 -41 40 -70 22 -30 40 -60 40 -69 0 -8 12 -33 25 -55 14 -22 25 -46 25 -53 0 -14 181 -221 255 -292 26 -25 60 -62 76 -83 39 -53 204 -193 259 -219 25 -12 71 -41 102 -65 31 -24 82 -57 114 -73 31 -17 78 -49 105 -71 27 -23 97 -62 159 -89 124 -55 235 -113 265 -140 25 -22 119 -70 138 -70 8 0 40 -9 73 -21 95 -33 224 -68 294 -79 131 -22 218 -59 268 -114 36 -40 52 -43 108 -20 21 9 104 22 184 30 263 24 328 33 437 64 60 16 144 34 187 41 60 8 96 20 145 48 36 20 104 52 151 70 112 44 171 74 226 116 25 19 51 35 59 35 29 0 146 64 171 93 58 69 291 236 359 257 22 7 73 37 112 67 44 32 83 53 99 53 14 0 34 5 46 11 30 16 58 86 58 148 0 69 -51 242 -101 340 -22 41 -39 81 -39 87 0 7 -26 63 -57 125 -47 93 -73 129 -138 197 -44 46 -86 95 -94 110 -13 25 -26 43 -119 166 -24 32 -62 69 -84 84 -22 15 -91 73 -154 130 -63 56 -120 102 -128 102 -7 0 -33 17 -57 39 -24 21 -78 55 -119 75 -102 50 -129 64 -170 92 -36 24 -190 84 -216 84 -8 0 -43 13 -77 29 -65 30 -170 70 -270 101 -32 10 -69 25 -81 33 -34 23 -297 88 -411 102 -160 20 -316 35 -372 35 -28 0 -63 4 -76 9 -35 14 -326 21 -427 11z m315 -275 c36 -18 40 -24 43 -62 2 -27 -7 -72 -23 -120 -15 -43 -33 -118 -41 -166 -8 -49 -21 -102 -30 -118 -35 -68 -72 -272 -93 -505 -4 -49 -11 -96 -15 -102 -8 -13 -28 -178 -27 -217 0 -11 3 -49 6 -85 3 -36 8 -103 10 -150 4 -93 39 -220 76 -272 12 -16 32 -64 45 -105 13 -42 30 -83 39 -93 14 -15 53 -139 58 -184 4 -37 -28 -43 -100 -17 -142 50 -626 310 -743 398 -14 11 -47 32 -73 49 -222 136 -458 395 -569 624 -37 76 -92 246 -134 420 -26 106 -26 207 1 413 17 131 34 164 99 196 44 22 69 25 294 37 136 7 274 16 307 20 33 3 89 8 125 10 36 2 85 8 110 13 25 5 54 9 65 9 55 1 247 21 253 27 4 4 68 5 142 3 108 -3 143 -8 175 -23z m1692 -466 c21 -13 52 -33 69 -46 17 -13 36 -23 43 -23 6 0 50 -38 98 -85 47 -46 116 -105 154 -131 38 -25 92 -74 119 -108 94 -115 140 -171 178 -216 21 -25 44 -60 50 -77 6 -18 24 -52 40 -75 45 -67 82 -141 82 -166 0 -12 14 -48 30 -79 17 -31 30 -65 30 -76 0 -30 -68 -107 -109 -124 -20 -9 -72 -41 -116 -73 -44 -32 -104 -72 -132 -90 -29 -17 -53 -36 -53 -40 0 -5 -39 -32 -87 -61 -49 -29 -114 -69 -145 -90 -32 -20 -75 -43 -95 -49 -21 -7 -83 -34 -138 -60 -178 -86 -257 -120 -277 -120 -10 0 -31 -6 -46 -14 -40 -21 -194 -47 -233 -40 -63 12 -68 46 -15 101 22 22 66 143 66 180 0 11 9 32 20 46 11 14 20 29 20 35 0 5 14 28 31 51 32 45 65 118 97 216 69 212 100 317 120 410 6 28 15 68 21 90 41 162 63 438 42 532 -6 26 -17 78 -26 115 -19 86 -19 106 3 110 28 6 119 -18 159 -43z M15150 27257 c-38 -31 -72 -89 -67 -115 6 -29 -41 -194 -66 -232 -9 -14 -21 -47 -28 -75 -6 -27 -25 -73 -40 -101 -16 -28 -29 -57 -29 -64 0 -17 -86 -167 -119 -207 -14 -17 -42 -53 -61 -80 -19 -26 -53 -70 -76 -98 -23 -27 -48 -62 -55 -77 -8 -15 -33 -41 -57 -57 -23 -17 -58 -53 -77 -80 -51 -71 -186 -175 -285 -220 -19 -9 -51 -28 -71 -43 -20 -16 -42 -28 -49 -28 -7 0 -47 -16 -89 -36 -96 -46 -155 -69 -256 -101 -44 -13 -96 -33 -115 -43 -19 -10 -62 -25 -95 -35 -33 -9 -76 -25 -96 -36 -20 -10 -61 -23 -91 -28 -29 -5 -78 -16 -108 -24 -30 -9 -84 -23 -120 -31 -36 -9 -99 -24 -140 -35 -41 -10 -106 -24 -145 -30 -38 -7 -92 -19 -120 -26 -230 -63 -374 -79 -475 -53 -45 11 -80 12 -195 2 -162 -12 -205 -27 -227 -75 -34 -73 -33 -76 19 -128 83 -81 87 -83 200 -75 55 4 166 1 253 -5 l155 -12 100 35 c55 19 126 44 157 55 36 13 108 26 190 33 98 8 155 19 218 40 47 16 126 38 175 49 50 12 106 24 125 28 45 11 187 59 220 76 23 11 134 50 220 76 19 6 85 35 147 65 62 30 119 54 127 54 8 0 38 13 67 28 30 15 86 41 124 57 39 16 76 33 83 38 7 5 25 17 41 26 62 35 129 91 230 192 212 212 280 291 322 372 45 87 66 102 122 86 40 -11 52 -23 101 -109 52 -91 71 -115 156 -196 112 -107 178 -150 370 -245 287 -142 297 -146 470 -190 167 -43 256 -58 430 -75 85 -8 196 -21 245 -29 290 -46 399 -50 560 -21 74 13 162 19 340 21 260 3 325 12 392 51 50 29 65 51 83 116 11 43 10 51 -10 93 -38 78 -125 125 -231 125 -42 0 -73 -6 -98 -20 -20 -10 -79 -32 -131 -49 -52 -16 -111 -36 -130 -44 -66 -27 -198 -37 -445 -33 -132 3 -269 10 -305 15 -36 6 -101 15 -145 21 -44 5 -100 14 -125 20 -25 5 -72 12 -105 15 -33 4 -80 12 -105 19 -25 8 -81 24 -125 36 -192 55 -305 92 -315 105 -6 8 -26 17 -43 20 -18 4 -74 27 -125 53 -99 48 -260 174 -309 240 -15 20 -35 45 -45 55 -10 10 -20 30 -24 45 -3 15 -14 47 -24 72 -26 63 -39 197 -35 385 2 125 6 168 19 192 9 18 16 42 16 55 0 38 -73 161 -110 186 -37 25 -114 30 -140 9z"/></g></svg>
