<?xml version="1.0" encoding="UTF-8" standalone="no"?>
<!DOCTYPE svg PUBLIC "-//W3C//DTD SVG 1.1//EN"
 "http://www.w3.org/Graphics/SVG/1.1/DTD/svg11.dtd">
<!-- Generated by graphviz version 2.40.1 (20161225.0304)
 -->
<!-- Title: state transitions Pages: 1 -->
<svg width="258pt" height="133pt"
 viewBox="0.00 0.00 258.00 133.00" xmlns="http://www.w3.org/2000/svg" xmlns:xlink="http://www.w3.org/1999/xlink">
<g id="graph0" class="graph" transform="scale(1 1) rotate(0) translate(4 129)">
<title>state transitions</title>
<polygon fill="#ffffff" stroke="transparent" points="-4,4 -4,-129 254,-129 254,4 -4,4"/>
<g id="clust1" class="cluster">
<title>cluster_nested</title>
<path fill="none" stroke="#000000" stroke-width="2" d="M82,-8C82,-8 230,-8 230,-8 236,-8 242,-14 242,-20 242,-20 242,-78 242,-78 242,-84 236,-90 230,-90 230,-90 82,-90 82,-90 76,-90 70,-84 70,-78 70,-78 70,-20 70,-20 70,-14 76,-8 82,-8"/>
<text text-anchor="start" x="137.991" y="-71.2" font-family="Helvetica,sans-Serif" font-size="12.00" fill="#000000">nested</text>
</g>
<!-- c -->
<g id="node1" class="node">
<title>c</title>
<polygon fill="transparent" stroke="transparent" stroke-width="2" points="56,-52 0,-52 0,-16 56,-16 56,-52"/>
<text text-anchor="start" x="25" y="-30.2" font-family="Helvetica,sans-Serif" font-size="12.00" fill="#000000">c</text>
<path fill="none" stroke="#000000" stroke-width="2" d="M12.3333,-17C12.3333,-17 43.6667,-17 43.6667,-17 49.3333,-17 55,-22.6667 55,-28.3333 55,-28.3333 55,-39.6667 55,-39.6667 55,-45.3333 49.3333,-51 43.6667,-51 43.6667,-51 12.3333,-51 12.3333,-51 6.6667,-51 1,-45.3333 1,-39.6667 1,-39.6667 1,-28.3333 1,-28.3333 1,-22.6667 6.6667,-17 12.3333,-17"/>
</g>
<!-- ] -->
<g id="node2" class="node">
<title>]</title>
<polygon fill="#000000" stroke="#000000" stroke-width="2" points="133,-125 79,-125 79,-118 133,-118 133,-125"/>
<text text-anchor="middle" x="106" y="-117.9" font-family="Helvetica,sans-Serif" font-size="12.00" fill="#000000"> </text>
</g>
<!-- ]&#45;&gt;c -->
<g id="edge1" class="edge">
<title>]&#45;&gt;c</title>
<path fill="none" stroke="#000000" d="M100.2163,-117.9461C91.8075,-112.594 76.0109,-101.8246 65,-90 56.853,-81.2509 49.2935,-70.5204 43.1591,-60.8018"/>
<polygon fill="#000000" stroke="#000000" points="46.1402,-58.9679 37.9501,-52.2468 40.1614,-62.6084 46.1402,-58.9679"/>
<text text-anchor="middle" x="89.3895" y="-101" font-family="Helvetica,sans-Serif" font-size="10.00" fill="#000000"> </text>
</g>
<!-- b -->
<g id="node5" class="node">
<title>b</title>
<polygon fill="transparent" stroke="transparent" stroke-width="2" points="134,-52 78,-52 78,-16 134,-16 134,-52"/>
<text text-anchor="start" x="102.6646" y="-30.2" font-family="Helvetica,sans-Serif" font-size="12.00" fill="#000000">b</text>
<path fill="none" stroke="#000000" stroke-width="2" d="M90.3333,-17C90.3333,-17 121.6667,-17 121.6667,-17 127.3333,-17 133,-22.6667 133,-28.3333 133,-28.3333 133,-39.6667 133,-39.6667 133,-45.3333 127.3333,-51 121.6667,-51 121.6667,-51 90.3333,-51 90.3333,-51 84.6667,-51 79,-45.3333 79,-39.6667 79,-39.6667 79,-28.3333 79,-28.3333 79,-22.6667 84.6667,-17 90.3333,-17"/>
</g>
<!-- ]&#45;&gt;b -->
<g id="edge3" class="edge">
<title>]&#45;&gt;b</title>
<path fill="none" stroke="#000000" d="M106,-117.7402C106,-108.2694 106,-82.7314 106,-62.3266"/>
<polygon fill="#000000" stroke="#000000" points="109.5001,-62.2363 106,-52.2364 102.5001,-62.2364 109.5001,-62.2363"/>
<text text-anchor="middle" x="107.3895" y="-101" font-family="Helvetica,sans-Serif" font-size="10.00" fill="#000000"> </text>
</g>
<!-- nested -->
<!-- a -->
<g id="node4" class="node">
<title>a</title>
<polygon fill="transparent" stroke="transparent" stroke-width="2" points="212,-52 156,-52 156,-16 212,-16 212,-52"/>
<text text-anchor="start" x="180.6646" y="-30.2" font-family="Helvetica,sans-Serif" font-size="12.00" fill="#000000">a</text>
<path fill="none" stroke="#000000" stroke-width="2" d="M168.3333,-17C168.3333,-17 199.6667,-17 199.6667,-17 205.3333,-17 211,-22.6667 211,-28.3333 211,-28.3333 211,-39.6667 211,-39.6667 211,-45.3333 205.3333,-51 199.6667,-51 199.6667,-51 168.3333,-51 168.3333,-51 162.6667,-51 157,-45.3333 157,-39.6667 157,-39.6667 157,-28.3333 157,-28.3333 157,-22.6667 162.6667,-17 168.3333,-17"/>
</g>
<!-- a&#45;&gt;] -->
<g id="edge2" class="edge">
<title>a&#45;&gt;]</title>
<path fill="none" stroke="#000000" d="M173.242,-52.1171C165.9982,-63.5836 155.8199,-78.3823 145,-90 137.4092,-98.1505 127.6621,-106.0237 119.8113,-111.8601"/>
<polygon fill="#000000" stroke="#000000" points="117.5392,-109.1823 111.4478,-117.8509 121.6155,-114.873 117.5392,-109.1823"/>
<text text-anchor="middle" x="137.3895" y="-101" font-family="Helvetica,sans-Serif" font-size="10.00" fill="#000000"> </text>
</g>
</g>
</svg>
