<?xml version="1.0" encoding="UTF-8" standalone="no"?>
<!DOCTYPE svg PUBLIC "-//W3C//DTD SVG 1.1//EN"
 "http://www.w3.org/Graphics/SVG/1.1/DTD/svg11.dtd">
<!-- Generated by graphviz version 2.47.3 (20210619.1520)
 -->
<!-- Title: dependency&#45;cruiser output Pages: 1 -->
<svg width="856pt" height="446pt"
 viewBox="0.00 0.00 856.00 446.00" xmlns="http://www.w3.org/2000/svg" xmlns:xlink="http://www.w3.org/1999/xlink">
<g id="graph0" class="graph" transform="scale(1 1) rotate(0) translate(4 442)">
<title>dependency&#45;cruiser output</title>
<polygon fill="white" stroke="transparent" points="-4,4 -4,-442 852,-442 852,4 -4,4"/>
<g id="clust1" class="cluster">
<title>cluster_src</title>
<path fill="#ffffff" stroke="black" stroke-width="2" d="M94,-8C94,-8 828,-8 828,-8 834,-8 840,-14 840,-20 840,-20 840,-418 840,-418 840,-424 834,-430 828,-430 828,-430 94,-430 94,-430 88,-430 82,-424 82,-418 82,-418 82,-20 82,-20 82,-14 88,-8 94,-8"/>
<text text-anchor="middle" x="461" y="-418.8" font-family="Helvetica,sans-Serif" font-weight="bold" font-size="9.00">src</text>
</g>
<g id="clust2" class="cluster">
<title>cluster_src/parse</title>
<path fill="#ffffff" stroke="black" stroke-width="2" d="M341,-266C341,-266 673,-266 673,-266 679,-266 685,-272 685,-278 685,-278 685,-366 685,-366 685,-372 679,-378 673,-378 673,-378 341,-378 341,-378 335,-378 329,-372 329,-366 329,-366 329,-278 329,-278 329,-272 335,-266 341,-266"/>
<text text-anchor="middle" x="507" y="-366.8" font-family="Helvetica,sans-Serif" font-weight="bold" font-size="9.00">parse</text>
</g>
<g id="clust3" class="cluster">
<title>cluster_src/render</title>
<path fill="#ffffff" stroke="black" stroke-width="2" d="M329,-70C329,-70 653.5,-70 653.5,-70 659.5,-70 665.5,-76 665.5,-82 665.5,-82 665.5,-226 665.5,-226 665.5,-232 659.5,-238 653.5,-238 653.5,-238 329,-238 329,-238 323,-238 317,-232 317,-226 317,-226 317,-82 317,-82 317,-76 323,-70 329,-70"/>
<text text-anchor="middle" x="491.25" y="-226.8" font-family="Helvetica,sans-Serif" font-weight="bold" font-size="9.00">render</text>
</g>
<!-- bin -->
<g id="node1" class="node">
<title>bin</title>
<g id="a_node1"><a xlink:href="https://github.com/sverweij/state-machine-cat/blob/develop/bin" xlink:title="bin">
<polygon fill="#ffffcc" stroke="black" points="54,-77 2,-77 0,-75 0,-59 52,-59 54,-61 54,-77"/>
<polyline fill="none" stroke="black" points="52,-75 0,-75 "/>
<polyline fill="none" stroke="black" points="52,-75 52,-59 "/>
<polyline fill="none" stroke="black" points="52,-75 54,-77 "/>
<text text-anchor="middle" x="27" y="-65.8" font-family="Helvetica,sans-Serif" font-size="9.00">bin</text>
</a>
</g>
</g>
<!-- src/cli -->
<g id="node2" class="node">
<title>src/cli</title>
<g id="a_node2"><a xlink:href="https://github.com/sverweij/state-machine-cat/blob/develop/src/cli" xlink:title="cli">
<polygon fill="#ccffcc" stroke="black" points="158.5,-77 106.5,-77 104.5,-75 104.5,-59 156.5,-59 158.5,-61 158.5,-77"/>
<polyline fill="none" stroke="black" points="156.5,-75 104.5,-75 "/>
<polyline fill="none" stroke="black" points="156.5,-75 156.5,-59 "/>
<polyline fill="none" stroke="black" points="156.5,-75 158.5,-77 "/>
<text text-anchor="middle" x="131.5" y="-65.8" font-family="Helvetica,sans-Serif" font-size="9.00">cli</text>
</a>
</g>
</g>
<!-- bin&#45;&gt;src/cli -->
<g id="edge1" class="edge">
<title>bin&#45;&gt;src/cli</title>
<path fill="none" stroke="#007700" stroke-width="2" stroke-opacity="0.466667" d="M54.18,-68C54.18,-68 98.45,-68 98.45,-68"/>
<polygon fill="#007700" fill-opacity="0.466667" stroke="#007700" stroke-width="2" stroke-opacity="0.466667" points="98.45,-70.1 104.45,-68 98.45,-65.9 98.45,-70.1"/>
</g>
<!-- src/index&#45;node.mjs -->
<g id="node3" class="node">
<title>src/index&#45;node.mjs</title>
<g id="a_node3"><a xlink:href="https://github.com/sverweij/state-machine-cat/blob/develop/src/index-node.mjs" xlink:title="index&#45;node.mjs">
<path fill="#ffffcc" stroke="black" d="M283,-91C283,-91 215,-91 215,-91 212,-91 209,-88 209,-85 209,-85 209,-79 209,-79 209,-76 212,-73 215,-73 215,-73 283,-73 283,-73 286,-73 289,-76 289,-79 289,-79 289,-85 289,-85 289,-88 286,-91 283,-91"/>
<text text-anchor="middle" x="249" y="-79.8" font-family="Helvetica,sans-Serif" font-size="9.00">index&#45;node.mjs</text>
</a>
</g>
</g>
<!-- src/cli&#45;&gt;src/index&#45;node.mjs -->
<g id="edge2" class="edge">
<title>src/cli&#45;&gt;src/index&#45;node.mjs</title>
<path fill="none" stroke="#000000" stroke-width="2" stroke-opacity="0.200000" d="M132,-77.12C132,-80.71 132,-84 132,-84 132,-84 202.74,-84 202.74,-84"/>
<polygon fill="#000000" fill-opacity="0.200000" stroke="#000000" stroke-width="2" stroke-opacity="0.200000" points="202.74,-86.1 208.74,-84 202.74,-81.9 202.74,-86.1"/>
</g>
<!-- src/options.mjs -->
<g id="node4" class="node">
<title>src/options.mjs</title>
<g id="a_node4"><a xlink:href="https://github.com/sverweij/state-machine-cat/blob/develop/src/options.mjs" xlink:title="options.mjs">
<path fill="#ffffcc" stroke="black" d="M798,-121C798,-121 747,-121 747,-121 744,-121 741,-118 741,-115 741,-115 741,-109 741,-109 741,-106 744,-103 747,-103 747,-103 798,-103 798,-103 801,-103 804,-106 804,-109 804,-109 804,-115 804,-115 804,-118 801,-121 798,-121"/>
<text text-anchor="middle" x="772.5" y="-109.8" font-family="Helvetica,sans-Serif" font-size="9.00">options.mjs</text>
</a>
</g>
</g>
<!-- src/cli&#45;&gt;src/options.mjs -->
<g id="edge3" class="edge">
<title>src/cli&#45;&gt;src/options.mjs</title>
<path fill="none" stroke="#000000" stroke-width="2" stroke-opacity="0.200000" d="M158.66,-67.5C281.97,-67.5 783,-67.5 783,-67.5 783,-67.5 783,-96.99 783,-96.99"/>
<polygon fill="#000000" fill-opacity="0.200000" stroke="#000000" stroke-width="2" stroke-opacity="0.200000" points="780.9,-96.99 783,-102.99 785.1,-96.99 780.9,-96.99"/>
</g>
<!-- src/index&#45;node.mjs&#45;&gt;src/options.mjs -->
<g id="edge4" class="edge">
<title>src/index&#45;node.mjs&#45;&gt;src/options.mjs</title>
<path fill="none" stroke="#000000" stroke-width="2" stroke-opacity="0.200000" d="M289.25,-82C410.19,-82 762,-82 762,-82 762,-82 762,-96.84 762,-96.84"/>
<polygon fill="#000000" fill-opacity="0.200000" stroke="#000000" stroke-width="2" stroke-opacity="0.200000" points="759.9,-96.84 762,-102.84 764.1,-96.84 759.9,-96.84"/>
</g>
<!-- src/parse/index.mjs -->
<g id="node5" class="node">
<title>src/parse/index.mjs</title>
<g id="a_node5"><a xlink:href="https://github.com/sverweij/state-machine-cat/blob/develop/src/parse/index.mjs" xlink:title="index.mjs">
<path fill="#ffccff" stroke="black" d="M387,-292C387,-292 343,-292 343,-292 340,-292 337,-289 337,-286 337,-286 337,-280 337,-280 337,-277 340,-274 343,-274 343,-274 387,-274 387,-274 390,-274 393,-277 393,-280 393,-280 393,-286 393,-286 393,-289 390,-292 387,-292"/>
<text text-anchor="middle" x="365" y="-280.8" font-family="Helvetica,sans-Serif" font-size="9.00">index.mjs</text>
</a>
</g>
</g>
<!-- src/index&#45;node.mjs&#45;&gt;src/parse/index.mjs -->
<g id="edge5" class="edge">
<title>src/index&#45;node.mjs&#45;&gt;src/parse/index.mjs</title>
<path fill="none" stroke="#ff00ff" stroke-width="2" stroke-opacity="0.466667" d="M285,-91.02C285,-129.76 285,-280 285,-280 285,-280 330.57,-280 330.57,-280"/>
<polygon fill="#ff00ff" fill-opacity="0.466667" stroke="#ff00ff" stroke-width="2" stroke-opacity="0.466667" points="330.57,-282.1 336.57,-280 330.57,-277.9 330.57,-282.1"/>
</g>
<!-- src/render/index&#45;node.mjs -->
<g id="node6" class="node">
<title>src/render/index&#45;node.mjs</title>
<g id="a_node6"><a xlink:href="https://github.com/sverweij/state-machine-cat/blob/develop/src/render/index-node.mjs" xlink:title="index&#45;node.mjs">
<path fill="#ccccff" stroke="black" d="M399,-121C399,-121 331,-121 331,-121 328,-121 325,-118 325,-115 325,-115 325,-109 325,-109 325,-106 328,-103 331,-103 331,-103 399,-103 399,-103 402,-103 405,-106 405,-109 405,-109 405,-115 405,-115 405,-118 402,-121 399,-121"/>
<text text-anchor="middle" x="365" y="-109.8" font-family="Helvetica,sans-Serif" font-size="9.00">index&#45;node.mjs</text>
</a>
</g>
</g>
<!-- src/index&#45;node.mjs&#45;&gt;src/render/index&#45;node.mjs -->
<g id="edge6" class="edge">
<title>src/index&#45;node.mjs&#45;&gt;src/render/index&#45;node.mjs</title>
<path fill="none" stroke="#0000ff" stroke-width="2" stroke-opacity="0.466667" d="M289.03,-86.5C309.43,-86.5 330,-86.5 330,-86.5 330,-86.5 330,-96.79 330,-96.79"/>
<polygon fill="#0000ff" fill-opacity="0.466667" stroke="#0000ff" stroke-width="2" stroke-opacity="0.466667" points="327.9,-96.79 330,-102.79 332.1,-96.79 327.9,-96.79"/>
</g>
<!-- src/transform -->
<g id="node7" class="node">
<title>src/transform</title>
<g id="a_node7"><a xlink:href="https://github.com/sverweij/state-machine-cat/blob/develop/src/transform" xlink:title="transform">
<polygon fill="#ffffcc" stroke="black" points="658,-404 605,-404 603,-402 603,-386 656,-386 658,-388 658,-404"/>
<polyline fill="none" stroke="black" points="656,-402 603,-402 "/>
<polyline fill="none" stroke="black" points="656,-402 656,-386 "/>
<polyline fill="none" stroke="black" points="656,-402 658,-404 "/>
<text text-anchor="middle" x="630.5" y="-392.8" font-family="Helvetica,sans-Serif" font-size="9.00">transform</text>
</a>
</g>
</g>
<!-- src/index&#45;node.mjs&#45;&gt;src/transform -->
<g id="edge7" class="edge">
<title>src/index&#45;node.mjs&#45;&gt;src/transform</title>
<path fill="none" stroke="#000000" stroke-width="2" stroke-opacity="0.200000" d="M281,-91.28C281,-142.86 281,-392 281,-392 281,-392 596.78,-392 596.78,-392"/>
<polygon fill="#000000" fill-opacity="0.200000" stroke="#000000" stroke-width="2" stroke-opacity="0.200000" points="596.78,-394.1 602.78,-392 596.78,-389.9 596.78,-394.1"/>
</g>
<!-- src/version.mjs -->
<g id="node8" class="node">
<title>src/version.mjs</title>
<g id="a_node8"><a xlink:href="https://github.com/sverweij/state-machine-cat/blob/develop/src/version.mjs" xlink:title="version.mjs">
<path fill="#ffffcc" stroke="black" d="M390.5,-62C390.5,-62 339.5,-62 339.5,-62 336.5,-62 333.5,-59 333.5,-56 333.5,-56 333.5,-50 333.5,-50 333.5,-47 336.5,-44 339.5,-44 339.5,-44 390.5,-44 390.5,-44 393.5,-44 396.5,-47 396.5,-50 396.5,-50 396.5,-56 396.5,-56 396.5,-59 393.5,-62 390.5,-62"/>
<text text-anchor="middle" x="365" y="-50.8" font-family="Helvetica,sans-Serif" font-size="9.00">version.mjs</text>
</a>
</g>
</g>
<!-- src/index&#45;node.mjs&#45;&gt;src/version.mjs -->
<g id="edge8" class="edge">
<title>src/index&#45;node.mjs&#45;&gt;src/version.mjs</title>
<path fill="none" stroke="#000000" stroke-width="2" stroke-opacity="0.200000" d="M289.25,-77.5C322.75,-77.5 365,-77.5 365,-77.5 365,-77.5 365,-68.12 365,-68.12"/>
<polygon fill="#000000" fill-opacity="0.200000" stroke="#000000" stroke-width="2" stroke-opacity="0.200000" points="367.1,-68.12 365,-62.12 362.9,-68.12 367.1,-68.12"/>
</g>
<!-- src/parse/index.mjs&#45;&gt;src/options.mjs -->
<g id="edge14" class="edge">
<title>src/parse/index.mjs&#45;&gt;src/options.mjs</title>
<path fill="none" stroke="#000000" stroke-width="2" stroke-opacity="0.200000" d="M375,-273.9C375,-256.34 375,-219.5 375,-219.5 375,-219.5 773,-219.5 773,-219.5 773,-219.5 773,-127.17 773,-127.17"/>
<polygon fill="#000000" fill-opacity="0.200000" stroke="#000000" stroke-width="2" stroke-opacity="0.200000" points="775.1,-127.17 773,-121.17 770.9,-127.17 775.1,-127.17"/>
</g>
<!-- src/parse/scxml -->
<g id="node11" class="node">
<title>src/parse/scxml</title>
<g id="a_node11"><a xlink:href="https://github.com/sverweij/state-machine-cat/blob/develop/src/parse/scxml" xlink:title="scxml">
<polygon fill="#ffccff" stroke="black" points="521.5,-322 469.5,-322 467.5,-320 467.5,-304 519.5,-304 521.5,-306 521.5,-322"/>
<polyline fill="none" stroke="black" points="519.5,-320 467.5,-320 "/>
<polyline fill="none" stroke="black" points="519.5,-320 519.5,-304 "/>
<polyline fill="none" stroke="black" points="519.5,-320 521.5,-322 "/>
<text text-anchor="middle" x="494.5" y="-310.8" font-family="Helvetica,sans-Serif" font-size="9.00">scxml</text>
</a>
</g>
</g>
<!-- src/parse/index.mjs&#45;&gt;src/parse/scxml -->
<g id="edge15" class="edge">
<title>src/parse/index.mjs&#45;&gt;src/parse/scxml</title>
<path fill="none" stroke="#ff00ff" stroke-width="2" stroke-opacity="0.466667" d="M365,-292.16C365,-300.99 365,-313 365,-313 365,-313 461.35,-313 461.35,-313"/>
<polygon fill="#ff00ff" fill-opacity="0.466667" stroke="#ff00ff" stroke-width="2" stroke-opacity="0.466667" points="461.35,-315.1 467.35,-313 461.35,-310.9 461.35,-315.1"/>
</g>
<!-- src/parse/smcat&#45;ast.schema.mjs -->
<g id="node12" class="node">
<title>src/parse/smcat&#45;ast.schema.mjs</title>
<g id="a_node12"><a xlink:href="https://github.com/sverweij/state-machine-cat/blob/develop/src/parse/smcat-ast.schema.mjs" xlink:title="smcat&#45;ast.schema.mjs">
<path fill="#ffccff" stroke="black" d="M542,-352C542,-352 447,-352 447,-352 444,-352 441,-349 441,-346 441,-346 441,-340 441,-340 441,-337 444,-334 447,-334 447,-334 542,-334 542,-334 545,-334 548,-337 548,-340 548,-340 548,-346 548,-346 548,-349 545,-352 542,-352"/>
<text text-anchor="middle" x="494.5" y="-340.8" font-family="Helvetica,sans-Serif" font-size="9.00">smcat&#45;ast.schema.mjs</text>
</a>
</g>
</g>
<!-- src/parse/index.mjs&#45;&gt;src/parse/smcat&#45;ast.schema.mjs -->
<g id="edge16" class="edge">
<title>src/parse/index.mjs&#45;&gt;src/parse/smcat&#45;ast.schema.mjs</title>
<path fill="none" stroke="#ff00ff" stroke-width="2" stroke-opacity="0.466667" d="M393.48,-286C419.84,-286 455,-286 455,-286 455,-286 455,-327.84 455,-327.84"/>
<polygon fill="#ff00ff" fill-opacity="0.466667" stroke="#ff00ff" stroke-width="2" stroke-opacity="0.466667" points="452.9,-327.84 455,-333.84 457.1,-327.84 452.9,-327.84"/>
</g>
<!-- src/parse/smcat -->
<g id="node13" class="node">
<title>src/parse/smcat</title>
<g id="a_node13"><a xlink:href="https://github.com/sverweij/state-machine-cat/blob/develop/src/parse/smcat" xlink:title="smcat">
<polygon fill="#ffccff" stroke="black" points="521.5,-292 469.5,-292 467.5,-290 467.5,-274 519.5,-274 521.5,-276 521.5,-292"/>
<polyline fill="none" stroke="black" points="519.5,-290 467.5,-290 "/>
<polyline fill="none" stroke="black" points="519.5,-290 519.5,-274 "/>
<polyline fill="none" stroke="black" points="519.5,-290 521.5,-292 "/>
<text text-anchor="middle" x="494.5" y="-280.8" font-family="Helvetica,sans-Serif" font-size="9.00">smcat</text>
</a>
</g>
</g>
<!-- src/parse/index.mjs&#45;&gt;src/parse/smcat -->
<g id="edge17" class="edge">
<title>src/parse/index.mjs&#45;&gt;src/parse/smcat</title>
<path fill="none" stroke="#ff00ff" stroke-width="2" stroke-opacity="0.466667" d="M393.1,-280C393.1,-280 461.34,-280 461.34,-280"/>
<polygon fill="#ff00ff" fill-opacity="0.466667" stroke="#ff00ff" stroke-width="2" stroke-opacity="0.466667" points="461.34,-282.1 467.34,-280 461.34,-277.9 461.34,-282.1"/>
</g>
<!-- src/render/dot -->
<g id="node16" class="node">
<title>src/render/dot</title>
<g id="a_node16"><a xlink:href="https://github.com/sverweij/state-machine-cat/blob/develop/src/render/dot" xlink:title="dot">
<polygon fill="#ccccff" stroke="black" points="657.5,-132 605.5,-132 603.5,-130 603.5,-114 655.5,-114 657.5,-116 657.5,-132"/>
<polyline fill="none" stroke="black" points="655.5,-130 603.5,-130 "/>
<polyline fill="none" stroke="black" points="655.5,-130 655.5,-114 "/>
<polyline fill="none" stroke="black" points="655.5,-130 657.5,-132 "/>
<text text-anchor="middle" x="630.5" y="-120.8" font-family="Helvetica,sans-Serif" font-size="9.00">dot</text>
</a>
</g>
</g>
<!-- src/render/index&#45;node.mjs&#45;&gt;src/render/dot -->
<g id="edge24" class="edge">
<title>src/render/index&#45;node.mjs&#45;&gt;src/render/dot</title>
<path fill="none" stroke="#0000ff" stroke-width="2" stroke-opacity="0.466667" d="M405.04,-117.5C405.04,-117.5 597.13,-117.5 597.13,-117.5"/>
<polygon fill="#0000ff" fill-opacity="0.466667" stroke="#0000ff" stroke-width="2" stroke-opacity="0.466667" points="597.13,-119.6 603.13,-117.5 597.13,-115.4 597.13,-119.6"/>
</g>
<!-- src/render/scjson -->
<g id="node17" class="node">
<title>src/render/scjson</title>
<g id="a_node17"><a xlink:href="https://github.com/sverweij/state-machine-cat/blob/develop/src/render/scjson" xlink:title="scjson">
<polygon fill="#ccccff" stroke="black" points="657.5,-205 605.5,-205 603.5,-203 603.5,-187 655.5,-187 657.5,-189 657.5,-205"/>
<polyline fill="none" stroke="black" points="655.5,-203 603.5,-203 "/>
<polyline fill="none" stroke="black" points="655.5,-203 655.5,-187 "/>
<polyline fill="none" stroke="black" points="655.5,-203 657.5,-205 "/>
<text text-anchor="middle" x="630.5" y="-193.8" font-family="Helvetica,sans-Serif" font-size="9.00">scjson</text>
</a>
</g>
</g>
<!-- src/render/index&#45;node.mjs&#45;&gt;src/render/scjson -->
<g id="edge25" class="edge">
<title>src/render/index&#45;node.mjs&#45;&gt;src/render/scjson</title>
<path fill="none" stroke="#0000ff" stroke-width="2" stroke-opacity="0.466667" d="M396,-121.24C396,-144.11 396,-201.5 396,-201.5 396,-201.5 597.14,-201.5 597.14,-201.5"/>
<polygon fill="#0000ff" fill-opacity="0.466667" stroke="#0000ff" stroke-width="2" stroke-opacity="0.466667" points="597.14,-203.6 603.14,-201.5 597.14,-199.4 597.14,-203.6"/>
</g>
<!-- src/render/scxml -->
<g id="node18" class="node">
<title>src/render/scxml</title>
<g id="a_node18"><a xlink:href="https://github.com/sverweij/state-machine-cat/blob/develop/src/render/scxml" xlink:title="scxml">
<polygon fill="#ccccff" stroke="black" points="521.5,-198 469.5,-198 467.5,-196 467.5,-180 519.5,-180 521.5,-182 521.5,-198"/>
<polyline fill="none" stroke="black" points="519.5,-196 467.5,-196 "/>
<polyline fill="none" stroke="black" points="519.5,-196 519.5,-180 "/>
<polyline fill="none" stroke="black" points="519.5,-196 521.5,-198 "/>
<text text-anchor="middle" x="494.5" y="-186.8" font-family="Helvetica,sans-Serif" font-size="9.00">scxml</text>
</a>
</g>
</g>
<!-- src/render/index&#45;node.mjs&#45;&gt;src/render/scxml -->
<g id="edge26" class="edge">
<title>src/render/index&#45;node.mjs&#45;&gt;src/render/scxml</title>
<path fill="none" stroke="#0000ff" stroke-width="2" stroke-opacity="0.466667" d="M399,-121.19C399,-140.26 399,-182.33 399,-182.33 399,-182.33 461.39,-182.33 461.39,-182.33"/>
<polygon fill="#0000ff" fill-opacity="0.466667" stroke="#0000ff" stroke-width="2" stroke-opacity="0.466667" points="461.39,-184.43 467.39,-182.33 461.39,-180.23 461.39,-184.43"/>
</g>
<!-- src/render/smcat -->
<g id="node19" class="node">
<title>src/render/smcat</title>
<g id="a_node19"><a xlink:href="https://github.com/sverweij/state-machine-cat/blob/develop/src/render/smcat" xlink:title="smcat">
<polygon fill="#ccccff" stroke="black" points="521.5,-154 469.5,-154 467.5,-152 467.5,-136 519.5,-136 521.5,-138 521.5,-154"/>
<polyline fill="none" stroke="black" points="519.5,-152 467.5,-152 "/>
<polyline fill="none" stroke="black" points="519.5,-152 519.5,-136 "/>
<polyline fill="none" stroke="black" points="519.5,-152 521.5,-154 "/>
<text text-anchor="middle" x="494.5" y="-142.8" font-family="Helvetica,sans-Serif" font-size="9.00">smcat</text>
</a>
</g>
</g>
<!-- src/render/index&#45;node.mjs&#45;&gt;src/render/smcat -->
<g id="edge27" class="edge">
<title>src/render/index&#45;node.mjs&#45;&gt;src/render/smcat</title>
<path fill="none" stroke="#0000ff" stroke-width="2" stroke-opacity="0.466667" d="M402,-121.02C402,-130.79 402,-145 402,-145 402,-145 461.25,-145 461.25,-145"/>
<polygon fill="#0000ff" fill-opacity="0.466667" stroke="#0000ff" stroke-width="2" stroke-opacity="0.466667" points="461.25,-147.1 467.25,-145 461.25,-142.9 461.25,-147.1"/>
</g>
<!-- src/render/vector -->
<g id="node20" class="node">
<title>src/render/vector</title>
<g id="a_node20"><a xlink:href="https://github.com/sverweij/state-machine-cat/blob/develop/src/render/vector" xlink:title="vector">
<polygon fill="#ccccff" stroke="black" points="521.5,-110 469.5,-110 467.5,-108 467.5,-92 519.5,-92 521.5,-94 521.5,-110"/>
<polyline fill="none" stroke="black" points="519.5,-108 467.5,-108 "/>
<polyline fill="none" stroke="black" points="519.5,-108 519.5,-92 "/>
<polyline fill="none" stroke="black" points="519.5,-108 521.5,-110 "/>
<text text-anchor="middle" x="494.5" y="-98.8" font-family="Helvetica,sans-Serif" font-size="9.00">vector</text>
</a>
</g>
</g>
<!-- src/render/index&#45;node.mjs&#45;&gt;src/render/vector -->
<g id="edge28" class="edge">
<title>src/render/index&#45;node.mjs&#45;&gt;src/render/vector</title>
<path fill="none" stroke="#0000ff" stroke-width="2" stroke-opacity="0.466667" d="M405.26,-105.33C405.26,-105.33 461.37,-105.33 461.37,-105.33"/>
<polygon fill="#0000ff" fill-opacity="0.466667" stroke="#0000ff" stroke-width="2" stroke-opacity="0.466667" points="461.37,-107.43 467.37,-105.33 461.37,-103.23 461.37,-107.43"/>
</g>
<!-- src/state&#45;machine&#45;model.mjs -->
<g id="node15" class="node">
<title>src/state&#45;machine&#45;model.mjs</title>
<g id="a_node15"><a xlink:href="https://github.com/sverweij/state-machine-cat/blob/develop/src/state-machine-model.mjs" xlink:title="state&#45;machine&#45;model.mjs">
<path fill="#ffffcc" stroke="black" d="M826,-252C826,-252 719,-252 719,-252 716,-252 713,-249 713,-246 713,-246 713,-240 713,-240 713,-237 716,-234 719,-234 719,-234 826,-234 826,-234 829,-234 832,-237 832,-240 832,-240 832,-246 832,-246 832,-249 829,-252 826,-252"/>
<text text-anchor="middle" x="772.5" y="-240.8" font-family="Helvetica,sans-Serif" font-size="9.00">state&#45;machine&#45;model.mjs</text>
</a>
</g>
</g>
<!-- src/transform&#45;&gt;src/state&#45;machine&#45;model.mjs -->
<g id="edge39" class="edge">
<title>src/transform&#45;&gt;src/state&#45;machine&#45;model.mjs</title>
<path fill="none" stroke="#000000" stroke-width="2" stroke-opacity="0.200000" d="M658.31,-395C699.78,-395 773,-395 773,-395 773,-395 773,-258.05 773,-258.05"/>
<polygon fill="#000000" fill-opacity="0.200000" stroke="#000000" stroke-width="2" stroke-opacity="0.200000" points="775.1,-258.05 773,-252.05 770.9,-258.05 775.1,-258.05"/>
</g>
<!-- src/index.mjs -->
<g id="node9" class="node">
<title>src/index.mjs</title>
<g id="a_node9"><a xlink:href="https://github.com/sverweij/state-machine-cat/blob/develop/src/index.mjs" xlink:title="index.mjs">
<path fill="#ffffcc" stroke="black" d="M271,-256C271,-256 227,-256 227,-256 224,-256 221,-253 221,-250 221,-250 221,-244 221,-244 221,-241 224,-238 227,-238 227,-238 271,-238 271,-238 274,-238 277,-241 277,-244 277,-244 277,-250 277,-250 277,-253 274,-256 271,-256"/>
<text text-anchor="middle" x="249" y="-244.8" font-family="Helvetica,sans-Serif" font-size="9.00">index.mjs</text>
</a>
</g>
</g>
<!-- src/index.mjs&#45;&gt;src/options.mjs -->
<g id="edge9" class="edge">
<title>src/index.mjs&#45;&gt;src/options.mjs</title>
<path fill="none" stroke="#000000" stroke-width="2" stroke-opacity="0.200000" d="M277.2,-246.4C370.6,-246.4 664,-246.4 664,-246.4 664,-246.4 664,-118.67 664,-118.67 664,-118.67 734.83,-118.67 734.83,-118.67"/>
<polygon fill="#000000" fill-opacity="0.200000" stroke="#000000" stroke-width="2" stroke-opacity="0.200000" points="734.83,-120.77 740.83,-118.67 734.83,-116.57 734.83,-120.77"/>
</g>
<!-- src/index.mjs&#45;&gt;src/parse/index.mjs -->
<g id="edge10" class="edge">
<title>src/index.mjs&#45;&gt;src/parse/index.mjs</title>
<path fill="none" stroke="#ff00ff" stroke-width="2" stroke-opacity="0.466667" d="M259,-256.05C259,-267.57 259,-286 259,-286 259,-286 330.87,-286 330.87,-286"/>
<polygon fill="#ff00ff" fill-opacity="0.466667" stroke="#ff00ff" stroke-width="2" stroke-opacity="0.466667" points="330.87,-288.1 336.87,-286 330.87,-283.9 330.87,-288.1"/>
</g>
<!-- src/index.mjs&#45;&gt;src/transform -->
<g id="edge12" class="edge">
<title>src/index.mjs&#45;&gt;src/transform</title>
<path fill="none" stroke="#000000" stroke-width="2" stroke-opacity="0.200000" d="M240,-256.45C240,-289.5 240,-398 240,-398 240,-398 596.73,-398 596.73,-398"/>
<polygon fill="#000000" fill-opacity="0.200000" stroke="#000000" stroke-width="2" stroke-opacity="0.200000" points="596.73,-400.1 602.73,-398 596.73,-395.9 596.73,-400.1"/>
</g>
<!-- src/index.mjs&#45;&gt;src/version.mjs -->
<g id="edge13" class="edge">
<title>src/index.mjs&#45;&gt;src/version.mjs</title>
<path fill="none" stroke="#000000" stroke-width="2" stroke-opacity="0.200000" d="M277.32,-240.8C292.04,-240.8 307,-240.8 307,-240.8 307,-240.8 307,-51.5 307,-51.5 307,-51.5 327.28,-51.5 327.28,-51.5"/>
<polygon fill="#000000" fill-opacity="0.200000" stroke="#000000" stroke-width="2" stroke-opacity="0.200000" points="327.28,-53.6 333.28,-51.5 327.28,-49.4 327.28,-53.6"/>
</g>
<!-- src/render/index.mjs -->
<g id="node10" class="node">
<title>src/render/index.mjs</title>
<g id="a_node10"><a xlink:href="https://github.com/sverweij/state-machine-cat/blob/develop/src/render/index.mjs" xlink:title="index.mjs">
<path fill="#ccccff" stroke="black" d="M387,-187C387,-187 343,-187 343,-187 340,-187 337,-184 337,-181 337,-181 337,-175 337,-175 337,-172 340,-169 343,-169 343,-169 387,-169 387,-169 390,-169 393,-172 393,-175 393,-175 393,-181 393,-181 393,-184 390,-187 387,-187"/>
<text text-anchor="middle" x="365" y="-175.8" font-family="Helvetica,sans-Serif" font-size="9.00">index.mjs</text>
</a>
</g>
</g>
<!-- src/index.mjs&#45;&gt;src/render/index.mjs -->
<g id="edge11" class="edge">
<title>src/index.mjs&#45;&gt;src/render/index.mjs</title>
<path fill="none" stroke="#0000ff" stroke-width="2" stroke-opacity="0.466667" d="M277.11,-243.6C308.82,-243.6 356,-243.6 356,-243.6 356,-243.6 356,-193.12 356,-193.12"/>
<polygon fill="#0000ff" fill-opacity="0.466667" stroke="#0000ff" stroke-width="2" stroke-opacity="0.466667" points="358.1,-193.12 356,-187.12 353.9,-193.12 358.1,-193.12"/>
</g>
<!-- src/render/index.mjs&#45;&gt;src/render/dot -->
<g id="edge29" class="edge">
<title>src/render/index.mjs&#45;&gt;src/render/dot</title>
<path fill="none" stroke="#0000ff" stroke-width="2" stroke-opacity="0.466667" d="M393.49,-175.6C460.4,-175.6 622,-175.6 622,-175.6 622,-175.6 622,-138.16 622,-138.16"/>
<polygon fill="#0000ff" fill-opacity="0.466667" stroke="#0000ff" stroke-width="2" stroke-opacity="0.466667" points="624.1,-138.16 622,-132.16 619.9,-138.16 624.1,-138.16"/>
</g>
<!-- src/render/index.mjs&#45;&gt;src/render/scjson -->
<g id="edge30" class="edge">
<title>src/render/index.mjs&#45;&gt;src/render/scjson</title>
<path fill="none" stroke="#0000ff" stroke-width="2" stroke-opacity="0.466667" d="M393.14,-177.8C463.23,-177.8 640,-177.8 640,-177.8 640,-177.8 640,-180.9 640,-180.9"/>
<polygon fill="#0000ff" fill-opacity="0.466667" stroke="#0000ff" stroke-width="2" stroke-opacity="0.466667" points="637.9,-180.9 640,-186.9 642.1,-180.9 637.9,-180.9"/>
</g>
<!-- src/render/index.mjs&#45;&gt;src/render/scxml -->
<g id="edge31" class="edge">
<title>src/render/index.mjs&#45;&gt;src/render/scxml</title>
<path fill="none" stroke="#0000ff" stroke-width="2" stroke-opacity="0.466667" d="M393.1,-184.67C393.1,-184.67 461.34,-184.67 461.34,-184.67"/>
<polygon fill="#0000ff" fill-opacity="0.466667" stroke="#0000ff" stroke-width="2" stroke-opacity="0.466667" points="461.34,-186.77 467.34,-184.67 461.34,-182.57 461.34,-186.77"/>
</g>
<!-- src/render/index.mjs&#45;&gt;src/render/smcat -->
<g id="edge32" class="edge">
<title>src/render/index.mjs&#45;&gt;src/render/smcat</title>
<path fill="none" stroke="#0000ff" stroke-width="2" stroke-opacity="0.466667" d="M393.21,-173.4C431.44,-173.4 495,-173.4 495,-173.4 495,-173.4 495,-160.3 495,-160.3"/>
<polygon fill="#0000ff" fill-opacity="0.466667" stroke="#0000ff" stroke-width="2" stroke-opacity="0.466667" points="497.1,-160.3 495,-154.3 492.9,-160.3 497.1,-160.3"/>
</g>
<!-- src/render/index.mjs&#45;&gt;src/render/vector -->
<g id="edge33" class="edge">
<title>src/render/index.mjs&#45;&gt;src/render/vector</title>
<path fill="none" stroke="#0000ff" stroke-width="2" stroke-opacity="0.466667" d="M393.32,-171.2C408.04,-171.2 423,-171.2 423,-171.2 423,-171.2 423,-107.67 423,-107.67 423,-107.67 461.47,-107.67 461.47,-107.67"/>
<polygon fill="#0000ff" fill-opacity="0.466667" stroke="#0000ff" stroke-width="2" stroke-opacity="0.466667" points="461.47,-109.77 467.47,-107.67 461.47,-105.57 461.47,-109.77"/>
</g>
<!-- src/parse/scxml&#45;&gt;src/transform -->
<g id="edge19" class="edge">
<title>src/parse/scxml&#45;&gt;src/transform</title>
<path fill="none" stroke="#000000" stroke-width="2" stroke-opacity="0.200000" d="M521.79,-316C561.63,-316 631,-316 631,-316 631,-316 631,-379.94 631,-379.94"/>
<polygon fill="#000000" fill-opacity="0.200000" stroke="#000000" stroke-width="2" stroke-opacity="0.200000" points="628.9,-379.94 631,-385.94 633.1,-379.94 628.9,-379.94"/>
</g>
<!-- src/parse/parser&#45;helpers.mjs -->
<g id="node14" class="node">
<title>src/parse/parser&#45;helpers.mjs</title>
<g id="a_node14"><a xlink:href="https://github.com/sverweij/state-machine-cat/blob/develop/src/parse/parser-helpers.mjs" xlink:title="parser&#45;helpers.mjs">
<path fill="#ffccff" stroke="black" d="M671,-292C671,-292 590,-292 590,-292 587,-292 584,-289 584,-286 584,-286 584,-280 584,-280 584,-277 587,-274 590,-274 590,-274 671,-274 671,-274 674,-274 677,-277 677,-280 677,-280 677,-286 677,-286 677,-289 674,-292 671,-292"/>
<text text-anchor="middle" x="630.5" y="-280.8" font-family="Helvetica,sans-Serif" font-size="9.00">parser&#45;helpers.mjs</text>
</a>
</g>
</g>
<!-- src/parse/scxml&#45;&gt;src/parse/parser&#45;helpers.mjs -->
<g id="edge20" class="edge">
<title>src/parse/scxml&#45;&gt;src/parse/parser&#45;helpers.mjs</title>
<path fill="none" stroke="#ff00ff" stroke-width="2" stroke-opacity="0.466667" d="M521.69,-310C551.15,-310 594,-310 594,-310 594,-310 594,-298.14 594,-298.14"/>
<polygon fill="#ff00ff" fill-opacity="0.466667" stroke="#ff00ff" stroke-width="2" stroke-opacity="0.466667" points="596.1,-298.14 594,-292.14 591.9,-298.14 596.1,-298.14"/>
</g>
<!-- src/parse/smcat&#45;&gt;src/parse/parser&#45;helpers.mjs -->
<g id="edge21" class="edge">
<title>src/parse/smcat&#45;&gt;src/parse/parser&#45;helpers.mjs</title>
<path fill="none" stroke="#ff00ff" stroke-width="2" stroke-opacity="0.466667" d="M521.69,-283C521.69,-283 577.79,-283 577.79,-283"/>
<polygon fill="#ff00ff" fill-opacity="0.466667" stroke="#ff00ff" stroke-width="2" stroke-opacity="0.466667" points="577.79,-285.1 583.79,-283 577.79,-280.9 577.79,-285.1"/>
</g>
<!-- src/parse/parser&#45;helpers.mjs&#45;&gt;src/state&#45;machine&#45;model.mjs -->
<g id="edge18" class="edge">
<title>src/parse/parser&#45;helpers.mjs&#45;&gt;src/state&#45;machine&#45;model.mjs</title>
<path fill="none" stroke="#000000" stroke-width="2" stroke-opacity="0.200000" d="M671,-273.76C671,-263.76 671,-249.2 671,-249.2 671,-249.2 706.87,-249.2 706.87,-249.2"/>
<polygon fill="#000000" fill-opacity="0.200000" stroke="#000000" stroke-width="2" stroke-opacity="0.200000" points="706.87,-251.3 712.87,-249.2 706.87,-247.1 706.87,-251.3"/>
</g>
<!-- src/render/dot&#45;&gt;src/options.mjs -->
<g id="edge22" class="edge">
<title>src/render/dot&#45;&gt;src/options.mjs</title>
<path fill="none" stroke="#000000" stroke-width="2" stroke-opacity="0.200000" d="M657.54,-116.33C657.54,-116.33 734.85,-116.33 734.85,-116.33"/>
<polygon fill="#000000" fill-opacity="0.200000" stroke="#000000" stroke-width="2" stroke-opacity="0.200000" points="734.85,-118.43 740.85,-116.33 734.85,-114.23 734.85,-118.43"/>
</g>
<!-- src/render/dot&#45;&gt;src/state&#45;machine&#45;model.mjs -->
<g id="edge23" class="edge">
<title>src/render/dot&#45;&gt;src/state&#45;machine&#45;model.mjs</title>
<path fill="none" stroke="#000000" stroke-width="2" stroke-opacity="0.200000" d="M657.7,-126.5C687.77,-126.5 732,-126.5 732,-126.5 732,-126.5 732,-227.86 732,-227.86"/>
<polygon fill="#000000" fill-opacity="0.200000" stroke="#000000" stroke-width="2" stroke-opacity="0.200000" points="729.9,-227.86 732,-233.86 734.1,-227.86 729.9,-227.86"/>
</g>
<!-- src/render/scjson&#45;&gt;src/state&#45;machine&#45;model.mjs -->
<g id="edge34" class="edge">
<title>src/render/scjson&#45;&gt;src/state&#45;machine&#45;model.mjs</title>
<path fill="none" stroke="#000000" stroke-width="2" stroke-opacity="0.200000" d="M657.75,-196C685.04,-196 723,-196 723,-196 723,-196 723,-227.94 723,-227.94"/>
<polygon fill="#000000" fill-opacity="0.200000" stroke="#000000" stroke-width="2" stroke-opacity="0.200000" points="720.9,-227.94 723,-233.94 725.1,-227.94 720.9,-227.94"/>
</g>
<!-- src/render/scxml&#45;&gt;src/render/scjson -->
<g id="edge35" class="edge">
<title>src/render/scxml&#45;&gt;src/render/scjson</title>
<path fill="none" stroke="#0000ff" stroke-width="2" stroke-opacity="0.466667" d="M521.69,-192.5C521.69,-192.5 597.35,-192.5 597.35,-192.5"/>
<polygon fill="#0000ff" fill-opacity="0.466667" stroke="#0000ff" stroke-width="2" stroke-opacity="0.466667" points="597.35,-194.6 603.35,-192.5 597.35,-190.4 597.35,-194.6"/>
</g>
<!-- src/render/vector&#45;&gt;src/options.mjs -->
<g id="edge36" class="edge">
<title>src/render/vector&#45;&gt;src/options.mjs</title>
<path fill="none" stroke="#000000" stroke-width="2" stroke-opacity="0.200000" d="M521.66,-105.33C521.66,-105.33 735,-105.33 735,-105.33"/>
<polygon fill="#000000" fill-opacity="0.200000" stroke="#000000" stroke-width="2" stroke-opacity="0.200000" points="735,-107.43 741,-105.33 735,-103.23 735,-107.43"/>
</g>
<!-- src/render/vector&#45;&gt;src/render/dot -->
<g id="edge37" class="edge">
<title>src/render/vector&#45;&gt;src/render/dot</title>
<path fill="none" stroke="#0000ff" stroke-width="2" stroke-opacity="0.466667" d="M521.79,-107.67C561.63,-107.67 631,-107.67 631,-107.67 631,-107.67 631,-108.29 631,-108.29"/>
<polygon fill="#0000ff" fill-opacity="0.466667" stroke="#0000ff" stroke-width="2" stroke-opacity="0.466667" points="628.9,-107.9 631,-113.9 633.1,-107.9 628.9,-107.9"/>
</g>
<!-- src/tmp&#45;hoodoo.mjs -->
<g id="node21" class="node">
<title>src/tmp&#45;hoodoo.mjs</title>
<g id="a_node21"><a xlink:href="https://github.com/sverweij/state-machine-cat/blob/develop/src/tmp-hoodoo.mjs" xlink:title="no&#45;unreachable&#45;from&#45;api">
<path fill="#ffffcc" stroke="red" d="M167,-256C167,-256 96,-256 96,-256 93,-256 90,-253 90,-250 90,-250 90,-244 90,-244 90,-241 93,-238 96,-238 96,-238 167,-238 167,-238 170,-238 173,-241 173,-244 173,-244 173,-250 173,-250 173,-253 170,-256 167,-256"/>
<text text-anchor="middle" x="131.5" y="-244.8" font-family="Helvetica,sans-Serif" font-size="9.00" fill="red">tmp&#45;hoodoo.mjs</text>
</a>
</g>
</g>
<!-- src/tmp&#45;hoodoo.mjs&#45;&gt;src/index.mjs -->
<g id="edge38" class="edge">
<title>src/tmp&#45;hoodoo.mjs&#45;&gt;src/index.mjs</title>
<path fill="none" stroke="#000000" stroke-width="2" stroke-opacity="0.200000" d="M173.26,-247C173.26,-247 214.99,-247 214.99,-247"/>
<polygon fill="#000000" fill-opacity="0.200000" stroke="#000000" stroke-width="2" stroke-opacity="0.200000" points="214.99,-249.1 220.99,-247 214.99,-244.9 214.99,-249.1"/>
</g>
</g>
</svg>
