<?xml version="1.0" encoding="UTF-8" standalone="no"?>
<!DOCTYPE svg PUBLIC "-//W3C//DTD SVG 1.1//EN"
 "http://www.w3.org/Graphics/SVG/1.1/DTD/svg11.dtd">
<!-- Generated by graphviz version 7.1.0 (20230121.1956)
 -->
<!-- Title: dependency&#45;cruiser output Pages: 1 -->
<svg width="762pt" height="492pt"
 viewBox="0.00 0.00 761.50 492.00" xmlns="http://www.w3.org/2000/svg" xmlns:xlink="http://www.w3.org/1999/xlink">
<g id="graph0" class="graph" transform="scale(1 1) rotate(0) translate(4 488)">
<title>dependency&#45;cruiser output</title>
<polygon fill="white" stroke="none" points="-4,4 -4,-488 757.5,-488 757.5,4 -4,4"/>
<g id="clust1" class="cluster">
<title>cluster_src</title>
<path fill="#ffffff" stroke="black" stroke-width="2" d="M20,-62C20,-62 733.5,-62 733.5,-62 739.5,-62 745.5,-68 745.5,-74 745.5,-74 745.5,-464 745.5,-464 745.5,-470 739.5,-476 733.5,-476 733.5,-476 20,-476 20,-476 14,-476 8,-470 8,-464 8,-464 8,-74 8,-74 8,-68 14,-62 20,-62"/>
<text text-anchor="middle" x="376.75" y="-464.8" font-family="Helvetica,sans-Serif" font-weight="bold" font-size="9.00">src</text>
</g>
<g id="clust2" class="cluster">
<title>cluster_src/parse</title>
<path fill="#ffffff" stroke="black" stroke-width="2" d="M246.5,-138C246.5,-138 578.5,-138 578.5,-138 584.5,-138 590.5,-144 590.5,-150 590.5,-150 590.5,-238 590.5,-238 590.5,-244 584.5,-250 578.5,-250 578.5,-250 246.5,-250 246.5,-250 240.5,-250 234.5,-244 234.5,-238 234.5,-238 234.5,-150 234.5,-150 234.5,-144 240.5,-138 246.5,-138"/>
<text text-anchor="middle" x="412.5" y="-238.8" font-family="Helvetica,sans-Serif" font-weight="bold" font-size="9.00">parse</text>
</g>
<g id="clust3" class="cluster">
<title>cluster_src/render</title>
<path fill="#ffffff" stroke="black" stroke-width="2" d="M234.5,-258C234.5,-258 559,-258 559,-258 565,-258 571,-264 571,-270 571,-270 571,-414 571,-414 571,-420 565,-426 559,-426 559,-426 234.5,-426 234.5,-426 228.5,-426 222.5,-420 222.5,-414 222.5,-414 222.5,-270 222.5,-270 222.5,-264 228.5,-258 234.5,-258"/>
<text text-anchor="middle" x="396.75" y="-414.8" font-family="Helvetica,sans-Serif" font-weight="bold" font-size="9.00">render</text>
</g>
<!-- bin -->
<g id="node1" class="node">
<title>bin</title>
<g id="a_node1"><a xlink:href="https://github.com/sverweij/state-machine-cat/blob/develop/bin" xlink:title="bin">
<polygon fill="#ffffcc" stroke="black" points="70,-18 18,-18 16,-16 16,0 68,0 70,-2 70,-18"/>
<polyline fill="none" stroke="black" points="68,-16 16,-16"/>
<polyline fill="none" stroke="black" points="68,-16 68,0"/>
<polyline fill="none" stroke="black" points="68,-16 70,-18"/>
<text text-anchor="middle" x="43" y="-6.8" font-family="Helvetica,sans-Serif" font-size="9.00">bin</text>
</a>
</g>
</g>
<!-- package.json -->
<g id="node2" class="node">
<title>package.json</title>
<g id="a_node2"><a xlink:href="https://github.com/sverweij/state-machine-cat/blob/develop/package.json" xlink:title="package.json">
<path fill="#ffee44" stroke="black" d="M78.5,-52.02C78.5,-53.25 62.59,-54.25 43,-54.25 23.41,-54.25 7.5,-53.25 7.5,-52.02 7.5,-52.02 7.5,-31.98 7.5,-31.98 7.5,-30.75 23.41,-29.75 43,-29.75 62.59,-29.75 78.5,-30.75 78.5,-31.98 78.5,-31.98 78.5,-52.02 78.5,-52.02"/>
<path fill="none" stroke="black" d="M78.5,-52.02C78.5,-50.79 62.59,-49.8 43,-49.8 23.41,-49.8 7.5,-50.79 7.5,-52.02"/>
<text text-anchor="middle" x="43" y="-39.8" font-family="Helvetica,sans-Serif" font-size="9.00">package.json</text>
</a>
</g>
</g>
<!-- src/cli -->
<g id="node3" class="node">
<title>src/cli</title>
<g id="a_node3"><a xlink:href="https://github.com/sverweij/state-machine-cat/blob/develop/src/cli" xlink:title="cli">
<polygon fill="#ccffcc" stroke="black" points="70,-400 18,-400 16,-398 16,-382 68,-382 70,-384 70,-400"/>
<polyline fill="none" stroke="black" points="68,-398 16,-398"/>
<polyline fill="none" stroke="black" points="68,-398 68,-382"/>
<polyline fill="none" stroke="black" points="68,-398 70,-400"/>
<text text-anchor="start" x="38" y="-388.8" font-family="Helvetica,sans-Serif" font-size="9.00">cli</text>
</a>
</g>
</g>
<!-- src/index&#45;node.mts -->
<g id="node4" class="node">
<title>src/index&#45;node.mts</title>
<g id="a_node4"><a xlink:href="https://github.com/sverweij/state-machine-cat/blob/develop/src/index-node.mts" xlink:title="index&#45;node.mts">
<path fill="#ffffcc" stroke="black" d="M188.5,-283C188.5,-283 120.5,-283 120.5,-283 117.5,-283 114.5,-280 114.5,-277 114.5,-277 114.5,-271 114.5,-271 114.5,-268 117.5,-265 120.5,-265 120.5,-265 188.5,-265 188.5,-265 191.5,-265 194.5,-268 194.5,-271 194.5,-271 194.5,-277 194.5,-277 194.5,-280 191.5,-283 188.5,-283"/>
<text text-anchor="start" x="122.5" y="-271.8" font-family="Helvetica,sans-Serif" font-size="9.00">index&#45;node.mts</text>
</a>
</g>
</g>
<!-- src/cli&#45;&gt;src/index&#45;node.mts -->
<g id="edge1" class="edge">
<title>src/cli&#45;&gt;src/index&#45;node.mts</title>
<path fill="none" stroke="#000000" stroke-width="2" stroke-opacity="0.200000" d="M34.5,-381.82C34.5,-354.24 34.5,-274 34.5,-274 34.5,-274 105.18,-274 105.18,-274"/>
<polygon fill="#000000" fill-opacity="0.200000" stroke="#000000" stroke-width="2" stroke-opacity="0.200000" points="105.18,-276.1 111.18,-274 105.18,-271.9 105.18,-276.1"/>
</g>
<!-- src/render/vector -->
<g id="node5" class="node">
<title>src/render/vector</title>
<g id="a_node5"><a xlink:href="https://github.com/sverweij/state-machine-cat/blob/develop/src/render/vector" xlink:title="vector">
<polygon fill="#ccccff" stroke="black" points="427,-400 375,-400 373,-398 373,-382 425,-382 427,-384 427,-400"/>
<polyline fill="none" stroke="black" points="425,-398 373,-398"/>
<polyline fill="none" stroke="black" points="425,-398 425,-382"/>
<polyline fill="none" stroke="black" points="425,-398 427,-400"/>
<text text-anchor="start" x="387.5" y="-388.8" font-family="Helvetica,sans-Serif" font-size="9.00">vector</text>
</a>
</g>
</g>
<!-- src/cli&#45;&gt;src/render/vector -->
<g id="edge2" class="edge">
<title>src/cli&#45;&gt;src/render/vector</title>
<path fill="none" stroke="#0000ff" stroke-width="2" stroke-opacity="0.466667" d="M70.42,-394C70.42,-394 363.95,-394 363.95,-394"/>
<polygon fill="#0000ff" fill-opacity="0.466667" stroke="#0000ff" stroke-width="2" stroke-opacity="0.466667" points="363.95,-396.1 369.95,-394 363.95,-391.9 363.95,-396.1"/>
</g>
<!-- src/options.mts -->
<g id="node6" class="node">
<title>src/options.mts</title>
<g id="a_node6"><a xlink:href="https://github.com/sverweij/state-machine-cat/blob/develop/src/options.mts" xlink:title="options.mts">
<path fill="#ffffcc" stroke="black" d="M703.5,-389C703.5,-389 652.5,-389 652.5,-389 649.5,-389 646.5,-386 646.5,-383 646.5,-383 646.5,-377 646.5,-377 646.5,-374 649.5,-371 652.5,-371 652.5,-371 703.5,-371 703.5,-371 706.5,-371 709.5,-374 709.5,-377 709.5,-377 709.5,-383 709.5,-383 709.5,-386 706.5,-389 703.5,-389"/>
<text text-anchor="start" x="654.5" y="-377.8" font-family="Helvetica,sans-Serif" font-size="9.00">options.mts</text>
</a>
</g>
</g>
<!-- src/cli&#45;&gt;src/options.mts -->
<g id="edge3" class="edge">
<title>src/cli&#45;&gt;src/options.mts</title>
<path fill="none" stroke="#000000" stroke-width="2" stroke-opacity="0.200000" d="M52.5,-381.57C52.5,-371.36 52.5,-356.5 52.5,-356.5 52.5,-356.5 667.5,-356.5 667.5,-356.5 667.5,-356.5 667.5,-361.69 667.5,-361.69"/>
<polygon fill="#000000" fill-opacity="0.200000" stroke="#000000" stroke-width="2" stroke-opacity="0.200000" points="665.4,-361.69 667.5,-367.69 669.6,-361.69 665.4,-361.69"/>
</g>
<!-- src/index&#45;node.mts&#45;&gt;src/options.mts -->
<g id="edge4" class="edge">
<title>src/index&#45;node.mts&#45;&gt;src/options.mts</title>
<path fill="none" stroke="#000000" stroke-width="2" stroke-opacity="0.200000" d="M194.64,-270C318.82,-270 688.5,-270 688.5,-270 688.5,-270 688.5,-361.59 688.5,-361.59"/>
<polygon fill="#000000" fill-opacity="0.200000" stroke="#000000" stroke-width="2" stroke-opacity="0.200000" points="686.4,-361.59 688.5,-367.59 690.6,-361.59 686.4,-361.59"/>
</g>
<!-- src/parse/index.mts -->
<g id="node7" class="node">
<title>src/parse/index.mts</title>
<g id="a_node7"><a xlink:href="https://github.com/sverweij/state-machine-cat/blob/develop/src/parse/index.mts" xlink:title="index.mts">
<path fill="#ffccff" stroke="black" d="M292.5,-209C292.5,-209 248.5,-209 248.5,-209 245.5,-209 242.5,-206 242.5,-203 242.5,-203 242.5,-197 242.5,-197 242.5,-194 245.5,-191 248.5,-191 248.5,-191 292.5,-191 292.5,-191 295.5,-191 298.5,-194 298.5,-197 298.5,-197 298.5,-203 298.5,-203 298.5,-206 295.5,-209 292.5,-209"/>
<text text-anchor="start" x="250.5" y="-197.8" font-family="Helvetica,sans-Serif" font-size="9.00">index.mts</text>
</a>
</g>
</g>
<!-- src/index&#45;node.mts&#45;&gt;src/parse/index.mts -->
<g id="edge5" class="edge">
<title>src/index&#45;node.mts&#45;&gt;src/parse/index.mts</title>
<path fill="none" stroke="#ff00ff" stroke-width="2" stroke-opacity="0.466667" d="M191.5,-264.72C191.5,-245.47 191.5,-203 191.5,-203 191.5,-203 233.4,-203 233.4,-203"/>
<polygon fill="#ff00ff" fill-opacity="0.466667" stroke="#ff00ff" stroke-width="2" stroke-opacity="0.466667" points="233.4,-205.1 239.4,-203 233.4,-200.9 233.4,-205.1"/>
</g>
<!-- src/render/index&#45;node.mts -->
<g id="node8" class="node">
<title>src/render/index&#45;node.mts</title>
<g id="a_node8"><a xlink:href="https://github.com/sverweij/state-machine-cat/blob/develop/src/render/index-node.mts" xlink:title="index&#45;node.mts">
<path fill="#ccccff" stroke="black" d="M304.5,-353C304.5,-353 236.5,-353 236.5,-353 233.5,-353 230.5,-350 230.5,-347 230.5,-347 230.5,-341 230.5,-341 230.5,-338 233.5,-335 236.5,-335 236.5,-335 304.5,-335 304.5,-335 307.5,-335 310.5,-338 310.5,-341 310.5,-341 310.5,-347 310.5,-347 310.5,-350 307.5,-353 304.5,-353"/>
<text text-anchor="start" x="238.5" y="-341.8" font-family="Helvetica,sans-Serif" font-size="9.00">index&#45;node.mts</text>
</a>
</g>
</g>
<!-- src/index&#45;node.mts&#45;&gt;src/render/index&#45;node.mts -->
<g id="edge6" class="edge">
<title>src/index&#45;node.mts&#45;&gt;src/render/index&#45;node.mts</title>
<path fill="none" stroke="#0000ff" stroke-width="2" stroke-opacity="0.466667" d="M195,-275C215.25,-275 235.5,-275 235.5,-275 235.5,-275 235.5,-325.67 235.5,-325.67"/>
<polygon fill="#0000ff" fill-opacity="0.466667" stroke="#0000ff" stroke-width="2" stroke-opacity="0.466667" points="233.4,-325.67 235.5,-331.67 237.6,-325.67 233.4,-325.67"/>
</g>
<!-- src/transform -->
<g id="node9" class="node">
<title>src/transform</title>
<g id="a_node9"><a xlink:href="https://github.com/sverweij/state-machine-cat/blob/develop/src/transform" xlink:title="transform">
<polygon fill="#ffffcc" stroke="black" points="563.5,-130 510.5,-130 508.5,-128 508.5,-112 561.5,-112 563.5,-114 563.5,-130"/>
<polyline fill="none" stroke="black" points="561.5,-128 508.5,-128"/>
<polyline fill="none" stroke="black" points="561.5,-128 561.5,-112"/>
<polyline fill="none" stroke="black" points="561.5,-128 563.5,-130"/>
<text text-anchor="start" x="516.5" y="-118.8" font-family="Helvetica,sans-Serif" font-size="9.00">transform</text>
</a>
</g>
</g>
<!-- src/index&#45;node.mts&#45;&gt;src/transform -->
<g id="edge7" class="edge">
<title>src/index&#45;node.mts&#45;&gt;src/transform</title>
<path fill="none" stroke="#000000" stroke-width="2" stroke-opacity="0.200000" d="M188.5,-264.55C188.5,-231.5 188.5,-123 188.5,-123 188.5,-123 499.12,-123 499.12,-123"/>
<polygon fill="#000000" fill-opacity="0.200000" stroke="#000000" stroke-width="2" stroke-opacity="0.200000" points="499.12,-125.1 505.12,-123 499.12,-120.9 499.12,-125.1"/>
</g>
<!-- src/version.mts -->
<g id="node10" class="node">
<title>src/version.mts</title>
<g id="a_node10"><a xlink:href="https://github.com/sverweij/state-machine-cat/blob/develop/src/version.mts" xlink:title="version.mts">
<path fill="#ffffcc" stroke="black" d="M296,-116C296,-116 245,-116 245,-116 242,-116 239,-113 239,-110 239,-110 239,-104 239,-104 239,-101 242,-98 245,-98 245,-98 296,-98 296,-98 299,-98 302,-101 302,-104 302,-104 302,-110 302,-110 302,-113 299,-116 296,-116"/>
<text text-anchor="start" x="247" y="-104.8" font-family="Helvetica,sans-Serif" font-size="9.00">version.mts</text>
</a>
</g>
</g>
<!-- src/index&#45;node.mts&#45;&gt;src/version.mts -->
<g id="edge8" class="edge">
<title>src/index&#45;node.mts&#45;&gt;src/version.mts</title>
<path fill="none" stroke="#000000" stroke-width="2" stroke-opacity="0.200000" d="M185.5,-264.8C185.5,-230.42 185.5,-111.5 185.5,-111.5 185.5,-111.5 229.82,-111.5 229.82,-111.5"/>
<polygon fill="#000000" fill-opacity="0.200000" stroke="#000000" stroke-width="2" stroke-opacity="0.200000" points="229.82,-113.6 235.82,-111.5 229.82,-109.4 229.82,-113.6"/>
</g>
<!-- src/render/vector&#45;&gt;src/options.mts -->
<g id="edge36" class="edge">
<title>src/render/vector&#45;&gt;src/options.mts</title>
<path fill="none" stroke="#000000" stroke-width="2" stroke-opacity="0.200000" d="M427.42,-386.67C427.42,-386.67 637.11,-386.67 637.11,-386.67"/>
<polygon fill="#000000" fill-opacity="0.200000" stroke="#000000" stroke-width="2" stroke-opacity="0.200000" points="637.11,-388.77 643.11,-386.67 637.1,-384.57 637.11,-388.77"/>
</g>
<!-- src/render/dot -->
<g id="node18" class="node">
<title>src/render/dot</title>
<g id="a_node18"><a xlink:href="https://github.com/sverweij/state-machine-cat/blob/develop/src/render/dot" xlink:title="dot">
<polygon fill="#ccccff" stroke="black" points="563,-378 511,-378 509,-376 509,-360 561,-360 563,-362 563,-378"/>
<polyline fill="none" stroke="black" points="561,-376 509,-376"/>
<polyline fill="none" stroke="black" points="561,-376 561,-360"/>
<polyline fill="none" stroke="black" points="561,-376 563,-378"/>
<text text-anchor="start" x="529.5" y="-366.8" font-family="Helvetica,sans-Serif" font-size="9.00">dot</text>
</a>
</g>
</g>
<!-- src/render/vector&#45;&gt;src/render/dot -->
<g id="edge37" class="edge">
<title>src/render/vector&#45;&gt;src/render/dot</title>
<path fill="none" stroke="#0000ff" stroke-width="2" stroke-opacity="0.466667" d="M427.29,-384.33C467.13,-384.33 536.5,-384.33 536.5,-384.33 536.5,-384.33 536.5,-383.74 536.5,-383.74"/>
<polygon fill="#0000ff" fill-opacity="0.466667" stroke="#0000ff" stroke-width="2" stroke-opacity="0.466667" points="538.6,-387.48 536.5,-381.48 534.4,-387.48 538.6,-387.48"/>
</g>
<!-- src/parse/index.mts&#45;&gt;src/options.mts -->
<g id="edge14" class="edge">
<title>src/parse/index.mts&#45;&gt;src/options.mts</title>
<path fill="none" stroke="#000000" stroke-width="2" stroke-opacity="0.200000" d="M298.86,-200C379.86,-200 606.5,-200 606.5,-200 606.5,-200 606.5,-372.75 606.5,-372.75 606.5,-372.75 636.99,-372.75 636.99,-372.75"/>
<polygon fill="#000000" fill-opacity="0.200000" stroke="#000000" stroke-width="2" stroke-opacity="0.200000" points="636.99,-374.85 642.99,-372.75 636.99,-370.65 636.99,-374.85"/>
</g>
<!-- src/parse/scxml -->
<g id="node13" class="node">
<title>src/parse/scxml</title>
<g id="a_node13"><a xlink:href="https://github.com/sverweij/state-machine-cat/blob/develop/src/parse/scxml" xlink:title="scxml">
<polygon fill="#ffccff" stroke="black" points="427,-164 375,-164 373,-162 373,-146 425,-146 427,-148 427,-164"/>
<polyline fill="none" stroke="black" points="425,-162 373,-162"/>
<polyline fill="none" stroke="black" points="425,-162 425,-146"/>
<polyline fill="none" stroke="black" points="425,-162 427,-164"/>
<text text-anchor="start" x="388" y="-152.8" font-family="Helvetica,sans-Serif" font-size="9.00">scxml</text>
</a>
</g>
</g>
<!-- src/parse/index.mts&#45;&gt;src/parse/scxml -->
<g id="edge15" class="edge">
<title>src/parse/index.mts&#45;&gt;src/parse/scxml</title>
<path fill="none" stroke="#ff00ff" stroke-width="2" stroke-opacity="0.466667" d="M270.5,-190.89C270.5,-177.74 270.5,-155 270.5,-155 270.5,-155 363.51,-155 363.51,-155"/>
<polygon fill="#ff00ff" fill-opacity="0.466667" stroke="#ff00ff" stroke-width="2" stroke-opacity="0.466667" points="363.51,-157.1 369.51,-155 363.51,-152.9 363.51,-157.1"/>
</g>
<!-- src/parse/smcat&#45;ast.schema.mts -->
<g id="node14" class="node">
<title>src/parse/smcat&#45;ast.schema.mts</title>
<g id="a_node14"><a xlink:href="https://github.com/sverweij/state-machine-cat/blob/develop/src/parse/smcat-ast.schema.mts" xlink:title="smcat&#45;ast.schema.mts">
<path fill="#ffccff" stroke="black" d="M447.5,-194C447.5,-194 352.5,-194 352.5,-194 349.5,-194 346.5,-191 346.5,-188 346.5,-188 346.5,-182 346.5,-182 346.5,-179 349.5,-176 352.5,-176 352.5,-176 447.5,-176 447.5,-176 450.5,-176 453.5,-179 453.5,-182 453.5,-182 453.5,-188 453.5,-188 453.5,-191 450.5,-194 447.5,-194"/>
<text text-anchor="start" x="354.5" y="-182.8" font-family="Helvetica,sans-Serif" font-size="9.00">smcat&#45;ast.schema.mts</text>
</a>
</g>
</g>
<!-- src/parse/index.mts&#45;&gt;src/parse/smcat&#45;ast.schema.mts -->
<g id="edge16" class="edge">
<title>src/parse/index.mts&#45;&gt;src/parse/smcat&#45;ast.schema.mts</title>
<path fill="none" stroke="#ff00ff" stroke-width="2" stroke-opacity="0.466667" d="M298.98,-197C325.34,-197 360.5,-197 360.5,-197 360.5,-197 360.5,-196.72 360.5,-196.72"/>
<polygon fill="#ff00ff" fill-opacity="0.466667" stroke="#ff00ff" stroke-width="2" stroke-opacity="0.466667" points="362.6,-203.24 360.5,-197.24 358.4,-203.24 362.6,-203.24"/>
</g>
<!-- src/parse/smcat -->
<g id="node15" class="node">
<title>src/parse/smcat</title>
<g id="a_node15"><a xlink:href="https://github.com/sverweij/state-machine-cat/blob/develop/src/parse/smcat" xlink:title="smcat">
<polygon fill="#ffccff" stroke="black" points="427,-224 375,-224 373,-222 373,-206 425,-206 427,-208 427,-224"/>
<polyline fill="none" stroke="black" points="425,-222 373,-222"/>
<polyline fill="none" stroke="black" points="425,-222 425,-206"/>
<polyline fill="none" stroke="black" points="425,-222 427,-224"/>
<text text-anchor="start" x="387.5" y="-212.8" font-family="Helvetica,sans-Serif" font-size="9.00">smcat</text>
</a>
</g>
</g>
<!-- src/parse/index.mts&#45;&gt;src/parse/smcat -->
<g id="edge17" class="edge">
<title>src/parse/index.mts&#45;&gt;src/parse/smcat</title>
<path fill="none" stroke="#ff00ff" stroke-width="2" stroke-opacity="0.466667" d="M298.71,-203C336.94,-203 400.5,-203 400.5,-203 400.5,-203 400.5,-203.28 400.5,-203.28"/>
<polygon fill="#ff00ff" fill-opacity="0.466667" stroke="#ff00ff" stroke-width="2" stroke-opacity="0.466667" points="398.4,-196.76 400.5,-202.76 402.6,-196.76 398.4,-196.76"/>
</g>
<!-- src/render/index&#45;node.mts&#45;&gt;src/render/vector -->
<g id="edge28" class="edge">
<title>src/render/index&#45;node.mts&#45;&gt;src/render/vector</title>
<path fill="none" stroke="#0000ff" stroke-width="2" stroke-opacity="0.466667" d="M310.92,-349.33C349.08,-349.33 400.5,-349.33 400.5,-349.33 400.5,-349.33 400.5,-372.73 400.5,-372.73"/>
<polygon fill="#0000ff" fill-opacity="0.466667" stroke="#0000ff" stroke-width="2" stroke-opacity="0.466667" points="398.4,-372.73 400.5,-378.73 402.6,-372.73 398.4,-372.73"/>
</g>
<!-- src/render/index&#45;node.mts&#45;&gt;src/render/dot -->
<g id="edge24" class="edge">
<title>src/render/index&#45;node.mts&#45;&gt;src/render/dot</title>
<path fill="none" stroke="#0000ff" stroke-width="2" stroke-opacity="0.466667" d="M310.9,-345.67C385.31,-345.67 536.5,-345.67 536.5,-345.67 536.5,-345.67 536.5,-350.48 536.5,-350.48"/>
<polygon fill="#0000ff" fill-opacity="0.466667" stroke="#0000ff" stroke-width="2" stroke-opacity="0.466667" points="534.4,-350.48 536.5,-356.48 538.6,-350.48 534.4,-350.48"/>
</g>
<!-- src/render/scjson -->
<g id="node19" class="node">
<title>src/render/scjson</title>
<g id="a_node19"><a xlink:href="https://github.com/sverweij/state-machine-cat/blob/develop/src/render/scjson" xlink:title="scjson">
<polygon fill="#ccccff" stroke="black" points="563,-298 511,-298 509,-296 509,-280 561,-280 563,-282 563,-298"/>
<polyline fill="none" stroke="black" points="561,-296 509,-296"/>
<polyline fill="none" stroke="black" points="561,-296 561,-280"/>
<polyline fill="none" stroke="black" points="561,-296 563,-298"/>
<text text-anchor="start" x="522.5" y="-286.8" font-family="Helvetica,sans-Serif" font-size="9.00">scjson</text>
</a>
</g>
</g>
<!-- src/render/index&#45;node.mts&#45;&gt;src/render/scjson -->
<g id="edge25" class="edge">
<title>src/render/index&#45;node.mts&#45;&gt;src/render/scjson</title>
<path fill="none" stroke="#0000ff" stroke-width="2" stroke-opacity="0.466667" d="M305.5,-334.59C305.5,-318.75 305.5,-288.5 305.5,-288.5 305.5,-288.5 499.63,-288.5 499.63,-288.5"/>
<polygon fill="#0000ff" fill-opacity="0.466667" stroke="#0000ff" stroke-width="2" stroke-opacity="0.466667" points="499.63,-290.6 505.63,-288.5 499.63,-286.4 499.63,-290.6"/>
</g>
<!-- src/render/scxml -->
<g id="node20" class="node">
<title>src/render/scxml</title>
<g id="a_node20"><a xlink:href="https://github.com/sverweij/state-machine-cat/blob/develop/src/render/scxml" xlink:title="scxml">
<polygon fill="#ccccff" stroke="black" points="427,-312 375,-312 373,-310 373,-294 425,-294 427,-296 427,-312"/>
<polyline fill="none" stroke="black" points="425,-310 373,-310"/>
<polyline fill="none" stroke="black" points="425,-310 425,-294"/>
<polyline fill="none" stroke="black" points="425,-310 427,-312"/>
<text text-anchor="start" x="388" y="-300.8" font-family="Helvetica,sans-Serif" font-size="9.00">scxml</text>
</a>
</g>
</g>
<!-- src/render/index&#45;node.mts&#45;&gt;src/render/scxml -->
<g id="edge26" class="edge">
<title>src/render/index&#45;node.mts&#45;&gt;src/render/scxml</title>
<path fill="none" stroke="#0000ff" stroke-width="2" stroke-opacity="0.466667" d="M308.5,-334.54C308.5,-323.43 308.5,-306.5 308.5,-306.5 308.5,-306.5 363.52,-306.5 363.52,-306.5"/>
<polygon fill="#0000ff" fill-opacity="0.466667" stroke="#0000ff" stroke-width="2" stroke-opacity="0.466667" points="363.52,-308.6 369.52,-306.5 363.52,-304.4 363.52,-308.6"/>
</g>
<!-- src/render/smcat -->
<g id="node21" class="node">
<title>src/render/smcat</title>
<g id="a_node21"><a xlink:href="https://github.com/sverweij/state-machine-cat/blob/develop/src/render/smcat" xlink:title="smcat">
<polygon fill="#ccccff" stroke="black" points="427,-342 375,-342 373,-340 373,-324 425,-324 427,-326 427,-342"/>
<polyline fill="none" stroke="black" points="425,-340 373,-340"/>
<polyline fill="none" stroke="black" points="425,-340 425,-324"/>
<polyline fill="none" stroke="black" points="425,-340 427,-342"/>
<text text-anchor="start" x="387.5" y="-330.8" font-family="Helvetica,sans-Serif" font-size="9.00">smcat</text>
</a>
</g>
</g>
<!-- src/render/index&#45;node.mts&#45;&gt;src/render/smcat -->
<g id="edge27" class="edge">
<title>src/render/index&#45;node.mts&#45;&gt;src/render/smcat</title>
<path fill="none" stroke="#0000ff" stroke-width="2" stroke-opacity="0.466667" d="M310.76,-338.5C310.76,-338.5 363.85,-338.5 363.85,-338.5"/>
<polygon fill="#0000ff" fill-opacity="0.466667" stroke="#0000ff" stroke-width="2" stroke-opacity="0.466667" points="363.85,-340.6 369.85,-338.5 363.85,-336.4 363.85,-340.6"/>
</g>
<!-- src/state&#45;machine&#45;model.mts -->
<g id="node17" class="node">
<title>src/state&#45;machine&#45;model.mts</title>
<g id="a_node17"><a xlink:href="https://github.com/sverweij/state-machine-cat/blob/develop/src/state-machine-model.mts" xlink:title="state&#45;machine&#45;model.mts">
<path fill="#ffffcc" stroke="black" d="M731.5,-261C731.5,-261 624.5,-261 624.5,-261 621.5,-261 618.5,-258 618.5,-255 618.5,-255 618.5,-249 618.5,-249 618.5,-246 621.5,-243 624.5,-243 624.5,-243 731.5,-243 731.5,-243 734.5,-243 737.5,-246 737.5,-249 737.5,-249 737.5,-255 737.5,-255 737.5,-258 734.5,-261 731.5,-261"/>
<text text-anchor="start" x="626.5" y="-249.8" font-family="Helvetica,sans-Serif" font-size="9.00">state&#45;machine&#45;model.mts</text>
</a>
</g>
</g>
<!-- src/transform&#45;&gt;src/state&#45;machine&#45;model.mts -->
<g id="edge38" class="edge">
<title>src/transform&#45;&gt;src/state&#45;machine&#45;model.mts</title>
<path fill="none" stroke="#000000" stroke-width="2" stroke-opacity="0.200000" d="M563.81,-121C605.28,-121 678.5,-121 678.5,-121 678.5,-121 678.5,-233.55 678.5,-233.55"/>
<polygon fill="#000000" fill-opacity="0.200000" stroke="#000000" stroke-width="2" stroke-opacity="0.200000" points="676.4,-233.55 678.5,-239.55 680.6,-233.55 676.4,-233.55"/>
</g>
<!-- src/index.mts -->
<g id="node11" class="node">
<title>src/index.mts</title>
<g id="a_node11"><a xlink:href="https://github.com/sverweij/state-machine-cat/blob/develop/src/index.mts" xlink:title="index.mts">
<path fill="#ffffcc" stroke="black" d="M176.5,-116C176.5,-116 132.5,-116 132.5,-116 129.5,-116 126.5,-113 126.5,-110 126.5,-110 126.5,-104 126.5,-104 126.5,-101 129.5,-98 132.5,-98 132.5,-98 176.5,-98 176.5,-98 179.5,-98 182.5,-101 182.5,-104 182.5,-104 182.5,-110 182.5,-110 182.5,-113 179.5,-116 176.5,-116"/>
<text text-anchor="start" x="134.5" y="-104.8" font-family="Helvetica,sans-Serif" font-size="9.00">index.mts</text>
</a>
</g>
</g>
<!-- src/index.mts&#45;&gt;src/options.mts -->
<g id="edge9" class="edge">
<title>src/index.mts&#45;&gt;src/options.mts</title>
<path fill="none" stroke="#000000" stroke-width="2" stroke-opacity="0.200000" d="M140.5,-116.1C140.5,-145.1 140.5,-233.5 140.5,-233.5 140.5,-233.5 594.5,-233.5 594.5,-233.5 594.5,-233.5 594.5,-374.5 594.5,-374.5 594.5,-374.5 637.41,-374.5 637.41,-374.5"/>
<polygon fill="#000000" fill-opacity="0.200000" stroke="#000000" stroke-width="2" stroke-opacity="0.200000" points="637.41,-376.6 643.41,-374.5 637.41,-372.4 637.41,-376.6"/>
</g>
<!-- src/index.mts&#45;&gt;src/parse/index.mts -->
<g id="edge10" class="edge">
<title>src/index.mts&#45;&gt;src/parse/index.mts</title>
<path fill="none" stroke="#ff00ff" stroke-width="2" stroke-opacity="0.466667" d="M168.5,-116.29C168.5,-139.29 168.5,-197 168.5,-197 168.5,-197 233.06,-197 233.06,-197"/>
<polygon fill="#ff00ff" fill-opacity="0.466667" stroke="#ff00ff" stroke-width="2" stroke-opacity="0.466667" points="233.06,-199.1 239.06,-197 233.06,-194.9 233.06,-199.1"/>
</g>
<!-- src/index.mts&#45;&gt;src/transform -->
<g id="edge12" class="edge">
<title>src/index.mts&#45;&gt;src/transform</title>
<path fill="none" stroke="#000000" stroke-width="2" stroke-opacity="0.200000" d="M154.5,-116.35C154.5,-118.15 154.5,-119.5 154.5,-119.5 154.5,-119.5 499.23,-119.5 499.23,-119.5"/>
<polygon fill="#000000" fill-opacity="0.200000" stroke="#000000" stroke-width="2" stroke-opacity="0.200000" points="499.23,-121.6 505.23,-119.5 499.23,-117.4 499.23,-121.6"/>
</g>
<!-- src/index.mts&#45;&gt;src/version.mts -->
<g id="edge13" class="edge">
<title>src/index.mts&#45;&gt;src/version.mts</title>
<path fill="none" stroke="#000000" stroke-width="2" stroke-opacity="0.200000" d="M182.88,-102.5C182.88,-102.5 229.71,-102.5 229.71,-102.5"/>
<polygon fill="#000000" fill-opacity="0.200000" stroke="#000000" stroke-width="2" stroke-opacity="0.200000" points="229.71,-104.6 235.71,-102.5 229.71,-100.4 229.71,-104.6"/>
</g>
<!-- src/render/index.mts -->
<g id="node12" class="node">
<title>src/render/index.mts</title>
<g id="a_node12"><a xlink:href="https://github.com/sverweij/state-machine-cat/blob/develop/src/render/index.mts" xlink:title="index.mts">
<path fill="#ccccff" stroke="black" d="M292.5,-301C292.5,-301 248.5,-301 248.5,-301 245.5,-301 242.5,-298 242.5,-295 242.5,-295 242.5,-289 242.5,-289 242.5,-286 245.5,-283 248.5,-283 248.5,-283 292.5,-283 292.5,-283 295.5,-283 298.5,-286 298.5,-289 298.5,-289 298.5,-295 298.5,-295 298.5,-298 295.5,-301 292.5,-301"/>
<text text-anchor="start" x="250.5" y="-289.8" font-family="Helvetica,sans-Serif" font-size="9.00">index.mts</text>
</a>
</g>
</g>
<!-- src/index.mts&#45;&gt;src/render/index.mts -->
<g id="edge11" class="edge">
<title>src/index.mts&#45;&gt;src/render/index.mts</title>
<path fill="none" stroke="#0000ff" stroke-width="2" stroke-opacity="0.466667" d="M182.82,-107C197.54,-107 212.5,-107 212.5,-107 212.5,-107 212.5,-292 212.5,-292 212.5,-292 233.15,-292 233.15,-292"/>
<polygon fill="#0000ff" fill-opacity="0.466667" stroke="#0000ff" stroke-width="2" stroke-opacity="0.466667" points="233.15,-294.1 239.15,-292 233.15,-289.9 233.15,-294.1"/>
</g>
<!-- src/render/index.mts&#45;&gt;src/render/vector -->
<g id="edge33" class="edge">
<title>src/render/index.mts&#45;&gt;src/render/vector</title>
<path fill="none" stroke="#0000ff" stroke-width="2" stroke-opacity="0.466667" d="M298.93,-299.25C311.07,-299.25 322.5,-299.25 322.5,-299.25 322.5,-299.25 322.5,-388 322.5,-388 322.5,-388 363.87,-388 363.87,-388"/>
<polygon fill="#0000ff" fill-opacity="0.466667" stroke="#0000ff" stroke-width="2" stroke-opacity="0.466667" points="363.87,-390.1 369.87,-388 363.87,-385.9 363.87,-390.1"/>
</g>
<!-- src/render/index.mts&#45;&gt;src/render/dot -->
<g id="edge29" class="edge">
<title>src/render/index.mts&#45;&gt;src/render/dot</title>
<path fill="none" stroke="#0000ff" stroke-width="2" stroke-opacity="0.466667" d="M298.76,-297.5C315.9,-297.5 334.5,-297.5 334.5,-297.5 334.5,-297.5 334.5,-369 334.5,-369 334.5,-369 499.8,-369 499.8,-369"/>
<polygon fill="#0000ff" fill-opacity="0.466667" stroke="#0000ff" stroke-width="2" stroke-opacity="0.466667" points="499.8,-371.1 505.8,-369 499.8,-366.9 499.8,-371.1"/>
</g>
<!-- src/render/index.mts&#45;&gt;src/render/scjson -->
<g id="edge30" class="edge">
<title>src/render/index.mts&#45;&gt;src/render/scjson</title>
<path fill="none" stroke="#0000ff" stroke-width="2" stroke-opacity="0.466667" d="M298.91,-285.75C298.91,-285.75 499.56,-285.75 499.56,-285.75"/>
<polygon fill="#0000ff" fill-opacity="0.466667" stroke="#0000ff" stroke-width="2" stroke-opacity="0.466667" points="499.56,-287.85 505.56,-285.75 499.56,-283.65 499.56,-287.85"/>
</g>
<!-- src/render/index.mts&#45;&gt;src/render/scxml -->
<g id="edge31" class="edge">
<title>src/render/index.mts&#45;&gt;src/render/scxml</title>
<path fill="none" stroke="#0000ff" stroke-width="2" stroke-opacity="0.466667" d="M298.92,-295.75C298.92,-295.75 363.51,-295.75 363.51,-295.75"/>
<polygon fill="#0000ff" fill-opacity="0.466667" stroke="#0000ff" stroke-width="2" stroke-opacity="0.466667" points="363.51,-297.85 369.51,-295.75 363.51,-293.65 363.51,-297.85"/>
</g>
<!-- src/render/index.mts&#45;&gt;src/render/smcat -->
<g id="edge32" class="edge">
<title>src/render/index.mts&#45;&gt;src/render/smcat</title>
<path fill="none" stroke="#0000ff" stroke-width="2" stroke-opacity="0.466667" d="M270.5,-301.46C270.5,-312.57 270.5,-329.5 270.5,-329.5 270.5,-329.5 363.51,-329.5 363.51,-329.5"/>
<polygon fill="#0000ff" fill-opacity="0.466667" stroke="#0000ff" stroke-width="2" stroke-opacity="0.466667" points="363.51,-331.6 369.51,-329.5 363.51,-327.4 363.51,-331.6"/>
</g>
<!-- src/parse/scxml&#45;&gt;src/transform -->
<g id="edge19" class="edge">
<title>src/parse/scxml&#45;&gt;src/transform</title>
<path fill="none" stroke="#000000" stroke-width="2" stroke-opacity="0.200000" d="M400.5,-145.67C400.5,-137.36 400.5,-126.5 400.5,-126.5 400.5,-126.5 499.23,-126.5 499.23,-126.5"/>
<polygon fill="#000000" fill-opacity="0.200000" stroke="#000000" stroke-width="2" stroke-opacity="0.200000" points="499.23,-128.6 505.23,-126.5 499.23,-124.4 499.23,-128.6"/>
</g>
<!-- src/parse/parser&#45;helpers.mts -->
<g id="node16" class="node">
<title>src/parse/parser&#45;helpers.mts</title>
<g id="a_node16"><a xlink:href="https://github.com/sverweij/state-machine-cat/blob/develop/src/parse/parser-helpers.mts" xlink:title="parser&#45;helpers.mts">
<path fill="#ffccff" stroke="black" d="M576.5,-224C576.5,-224 495.5,-224 495.5,-224 492.5,-224 489.5,-221 489.5,-218 489.5,-218 489.5,-212 489.5,-212 489.5,-209 492.5,-206 495.5,-206 495.5,-206 576.5,-206 576.5,-206 579.5,-206 582.5,-209 582.5,-212 582.5,-212 582.5,-218 582.5,-218 582.5,-221 579.5,-224 576.5,-224"/>
<text text-anchor="start" x="497.5" y="-212.8" font-family="Helvetica,sans-Serif" font-size="9.00">parser&#45;helpers.mts</text>
</a>
</g>
</g>
<!-- src/parse/scxml&#45;&gt;src/parse/parser&#45;helpers.mts -->
<g id="edge20" class="edge">
<title>src/parse/scxml&#45;&gt;src/parse/parser&#45;helpers.mts</title>
<path fill="none" stroke="#ff00ff" stroke-width="2" stroke-opacity="0.466667" d="M427.45,-155C456.9,-155 499.5,-155 499.5,-155 499.5,-155 499.5,-196.6 499.5,-196.6"/>
<polygon fill="#ff00ff" fill-opacity="0.466667" stroke="#ff00ff" stroke-width="2" stroke-opacity="0.466667" points="497.4,-196.6 499.5,-202.6 501.6,-196.6 497.4,-196.6"/>
</g>
<!-- src/parse/smcat&#45;&gt;src/parse/parser&#45;helpers.mts -->
<g id="edge21" class="edge">
<title>src/parse/smcat&#45;&gt;src/parse/parser&#45;helpers.mts</title>
<path fill="none" stroke="#ff00ff" stroke-width="2" stroke-opacity="0.466667" d="M427.19,-215C427.19,-215 479.99,-215 479.99,-215"/>
<polygon fill="#ff00ff" fill-opacity="0.466667" stroke="#ff00ff" stroke-width="2" stroke-opacity="0.466667" points="479.99,-217.1 485.99,-215 479.99,-212.9 479.99,-217.1"/>
</g>
<!-- src/parse/parser&#45;helpers.mts&#45;&gt;src/state&#45;machine&#45;model.mts -->
<g id="edge18" class="edge">
<title>src/parse/parser&#45;helpers.mts&#45;&gt;src/state&#45;machine&#45;model.mts</title>
<path fill="none" stroke="#000000" stroke-width="2" stroke-opacity="0.200000" d="M573.5,-224.34C573.5,-235.3 573.5,-252 573.5,-252 573.5,-252 609.09,-252 609.09,-252"/>
<polygon fill="#000000" fill-opacity="0.200000" stroke="#000000" stroke-width="2" stroke-opacity="0.200000" points="609.09,-254.1 615.09,-252 609.09,-249.9 609.09,-254.1"/>
</g>
<!-- src/render/dot&#45;&gt;src/options.mts -->
<g id="edge22" class="edge">
<title>src/render/dot&#45;&gt;src/options.mts</title>
<path fill="none" stroke="#000000" stroke-width="2" stroke-opacity="0.200000" d="M563.38,-376.25C563.38,-376.25 637.22,-376.25 637.22,-376.25"/>
<polygon fill="#000000" fill-opacity="0.200000" stroke="#000000" stroke-width="2" stroke-opacity="0.200000" points="637.22,-378.35 643.22,-376.25 637.22,-374.15 637.22,-378.35"/>
</g>
<!-- src/render/dot&#45;&gt;src/state&#45;machine&#45;model.mts -->
<g id="edge23" class="edge">
<title>src/render/dot&#45;&gt;src/state&#45;machine&#45;model.mts</title>
<path fill="none" stroke="#000000" stroke-width="2" stroke-opacity="0.200000" d="M563.47,-365.5C593.53,-365.5 637.5,-365.5 637.5,-365.5 637.5,-365.5 637.5,-270.32 637.5,-270.32"/>
<polygon fill="#000000" fill-opacity="0.200000" stroke="#000000" stroke-width="2" stroke-opacity="0.200000" points="639.6,-270.32 637.5,-264.32 635.4,-270.32 639.6,-270.32"/>
</g>
<!-- src/render/scjson&#45;&gt;src/state&#45;machine&#45;model.mts -->
<g id="edge34" class="edge">
<title>src/render/scjson&#45;&gt;src/state&#45;machine&#45;model.mts</title>
<path fill="none" stroke="#000000" stroke-width="2" stroke-opacity="0.200000" d="M563.25,-289C590.54,-289 628.5,-289 628.5,-289 628.5,-289 628.5,-270.36 628.5,-270.36"/>
<polygon fill="#000000" fill-opacity="0.200000" stroke="#000000" stroke-width="2" stroke-opacity="0.200000" points="630.6,-270.36 628.5,-264.36 626.4,-270.36 630.6,-270.36"/>
</g>
<!-- src/render/scxml&#45;&gt;src/render/scjson -->
<g id="edge35" class="edge">
<title>src/render/scxml&#45;&gt;src/render/scjson</title>
<path fill="none" stroke="#0000ff" stroke-width="2" stroke-opacity="0.466667" d="M400.5,-293.52C400.5,-292.18 400.5,-291.25 400.5,-291.25 400.5,-291.25 499.55,-291.25 499.55,-291.25"/>
<polygon fill="#0000ff" fill-opacity="0.466667" stroke="#0000ff" stroke-width="2" stroke-opacity="0.466667" points="499.55,-293.35 505.55,-291.25 499.55,-289.15 499.55,-293.35"/>
</g>
</g>
</svg>
