<?xml version="1.0" encoding="UTF-8" standalone="no"?>
<!DOCTYPE svg PUBLIC "-//W3C//DTD SVG 1.1//EN"
 "http://www.w3.org/Graphics/SVG/1.1/DTD/svg11.dtd">
<!-- Generated by graphviz version 12.2.1 (20241206.2353)
 -->
<!-- Title: dependency&#45;cruiser output Pages: 1 -->
<svg width="749pt" height="468pt"
 viewBox="0.00 0.00 749.25 468.00" xmlns="http://www.w3.org/2000/svg" xmlns:xlink="http://www.w3.org/1999/xlink">
<g id="graph0" class="graph" transform="scale(1 1) rotate(0) translate(4 464)">
<title>dependency&#45;cruiser output</title>
<polygon fill="white" stroke="none" points="-4,4 -4,-464 745.25,-464 745.25,4 -4,4"/>
<g id="clust1" class="cluster">
<title>cluster_src</title>
<path fill="#ffffff" stroke="black" stroke-width="2" d="M20,-8C20,-8 721.25,-8 721.25,-8 727.25,-8 733.25,-14 733.25,-20 733.25,-20 733.25,-440 733.25,-440 733.25,-446 727.25,-452 721.25,-452 721.25,-452 20,-452 20,-452 14,-452 8,-446 8,-440 8,-440 8,-20 8,-20 8,-14 14,-8 20,-8"/>
<text text-anchor="middle" x="370.62" y="-439.45" font-family="Helvetica,sans-Serif" font-weight="bold" font-size="9.00">src</text>
</g>
<g id="clust2" class="cluster">
<title>cluster_src/parse</title>
<path fill="#ffffff" stroke="black" stroke-width="2" d="M237,-314C237,-314 566.5,-314 566.5,-314 572.5,-314 578.5,-320 578.5,-326 578.5,-326 578.5,-414 578.5,-414 578.5,-420 572.5,-426 566.5,-426 566.5,-426 237,-426 237,-426 231,-426 225,-420 225,-414 225,-414 225,-326 225,-326 225,-320 231,-314 237,-314"/>
<text text-anchor="middle" x="401.75" y="-413.45" font-family="Helvetica,sans-Serif" font-weight="bold" font-size="9.00">parse</text>
</g>
<g id="clust3" class="cluster">
<title>cluster_src/render</title>
<path fill="#ffffff" stroke="black" stroke-width="2" d="M225,-40C225,-40 547.25,-40 547.25,-40 553.25,-40 559.25,-46 559.25,-52 559.25,-52 559.25,-226 559.25,-226 559.25,-232 553.25,-238 547.25,-238 547.25,-238 225,-238 225,-238 219,-238 213,-232 213,-226 213,-226 213,-52 213,-52 213,-46 219,-40 225,-40"/>
<text text-anchor="middle" x="386.12" y="-225.45" font-family="Helvetica,sans-Serif" font-weight="bold" font-size="9.00">render</text>
</g>
<!-- src/cli -->
<g id="node1" class="node">
<title>src/cli</title>
<g id="a_node1"><a xlink:href="https://github.com/sverweij/state-machine-cat/blob/main/src/cli" xlink:title="cli">
<polygon fill="#ccffcc" stroke="black" points="70,-159.88 17.97,-159.88 16,-157.9 16,-142.12 68.03,-142.12 70,-144.1 70,-159.88"/>
<polyline fill="none" stroke="black" points="68.03,-157.9 16,-157.9"/>
<polyline fill="none" stroke="black" points="68.03,-157.9 68.03,-142.12"/>
<polyline fill="none" stroke="black" points="68.03,-157.9 70,-159.88"/>
<text text-anchor="start" x="38.5" y="-147.32" font-family="Helvetica,sans-Serif" font-size="9.00">cli</text>
</a>
</g>
</g>
<!-- src/index&#45;node.mts -->
<g id="node2" class="node">
<title>src/index&#45;node.mts</title>
<g id="a_node2"><a xlink:href="https://github.com/sverweij/state-machine-cat/blob/main/src/index-node.mts" xlink:title="index&#45;node.mts">
<path fill="#ddfeff" stroke="black" d="M179.08,-292.88C179.08,-292.88 111.92,-292.88 111.92,-292.88 108.96,-292.88 106,-289.92 106,-286.96 106,-286.96 106,-281.04 106,-281.04 106,-278.08 108.96,-275.12 111.92,-275.12 111.92,-275.12 179.08,-275.12 179.08,-275.12 182.04,-275.12 185,-278.08 185,-281.04 185,-281.04 185,-286.96 185,-286.96 185,-289.92 182.04,-292.88 179.08,-292.88"/>
<text text-anchor="start" x="114" y="-280.32" font-family="Helvetica,sans-Serif" font-size="9.00">index&#45;node.mts</text>
</a>
</g>
</g>
<!-- src/cli&#45;&gt;src/index&#45;node.mts -->
<g id="edge1" class="edge">
<title>src/cli&#45;&gt;src/index&#45;node.mts</title>
<path fill="none" stroke="#000000" stroke-width="2" stroke-opacity="0.200000" d="M70.37,-155C89.73,-155 112.25,-155 112.25,-155 112.25,-155 112.25,-265.7 112.25,-265.7"/>
<polygon fill="#000000" fill-opacity="0.200000" stroke="#000000" stroke-width="2" stroke-opacity="0.200000" points="110.15,-265.7 112.25,-271.7 114.35,-265.7 110.15,-265.7"/>
</g>
<!-- src/options.mts -->
<g id="node3" class="node">
<title>src/options.mts</title>
<g id="a_node3"><a xlink:href="https://github.com/sverweij/state-machine-cat/blob/main/src/options.mts" xlink:title="options.mts">
<path fill="#ddfeff" stroke="black" d="M691.21,-97.88C691.21,-97.88 640.54,-97.88 640.54,-97.88 637.58,-97.88 634.62,-94.92 634.62,-91.96 634.62,-91.96 634.62,-86.04 634.62,-86.04 634.62,-83.08 637.58,-80.12 640.54,-80.12 640.54,-80.12 691.21,-80.12 691.21,-80.12 694.17,-80.12 697.12,-83.08 697.12,-86.04 697.12,-86.04 697.12,-91.96 697.12,-91.96 697.12,-94.92 694.17,-97.88 691.21,-97.88"/>
<text text-anchor="start" x="642.62" y="-85.33" font-family="Helvetica,sans-Serif" font-size="9.00">options.mts</text>
</a>
</g>
</g>
<!-- src/cli&#45;&gt;src/options.mts -->
<g id="edge2" class="edge">
<title>src/cli&#45;&gt;src/options.mts</title>
<path fill="none" stroke="#000000" stroke-width="2" stroke-opacity="0.200000" d="M70.18,-144.79C190.14,-144.79 666.25,-144.79 666.25,-144.79 666.25,-144.79 666.25,-107.24 666.25,-107.24"/>
<polygon fill="#000000" fill-opacity="0.200000" stroke="#000000" stroke-width="2" stroke-opacity="0.200000" points="668.35,-107.24 666.25,-101.24 664.15,-107.24 668.35,-107.24"/>
</g>
<!-- src/index&#45;node.mts&#45;&gt;src/options.mts -->
<g id="edge3" class="edge">
<title>src/index&#45;node.mts&#45;&gt;src/options.mts</title>
<path fill="none" stroke="#000000" stroke-width="2" stroke-opacity="0.200000" d="M176.25,-274.7C176.25,-235.51 176.25,-85.75 176.25,-85.75 176.25,-85.75 625.1,-85.75 625.1,-85.75"/>
<polygon fill="#000000" fill-opacity="0.200000" stroke="#000000" stroke-width="2" stroke-opacity="0.200000" points="625.1,-87.85 631.1,-85.75 625.1,-83.65 625.1,-87.85"/>
</g>
<!-- src/parse/index.mts -->
<g id="node4" class="node">
<title>src/parse/index.mts</title>
<g id="a_node4"><a xlink:href="https://github.com/sverweij/state-machine-cat/blob/main/src/parse/index.mts" xlink:title="index.mts">
<path fill="#ffccff" stroke="black" d="M282.08,-339.88C282.08,-339.88 238.92,-339.88 238.92,-339.88 235.96,-339.88 233,-336.92 233,-333.96 233,-333.96 233,-328.04 233,-328.04 233,-325.08 235.96,-322.12 238.92,-322.12 238.92,-322.12 282.08,-322.12 282.08,-322.12 285.04,-322.12 288,-325.08 288,-328.04 288,-328.04 288,-333.96 288,-333.96 288,-336.92 285.04,-339.88 282.08,-339.88"/>
<text text-anchor="start" x="241" y="-327.32" font-family="Helvetica,sans-Serif" font-size="9.00">index.mts</text>
</a>
</g>
</g>
<!-- src/index&#45;node.mts&#45;&gt;src/parse/index.mts -->
<g id="edge4" class="edge">
<title>src/index&#45;node.mts&#45;&gt;src/parse/index.mts</title>
<path fill="none" stroke="#ff00ff" stroke-width="2" stroke-opacity="0.466667" d="M185.31,-288.38C218.45,-288.38 260.25,-288.38 260.25,-288.38 260.25,-288.38 260.25,-312.93 260.25,-312.93"/>
<polygon fill="#ff00ff" fill-opacity="0.466667" stroke="#ff00ff" stroke-width="2" stroke-opacity="0.466667" points="258.15,-312.93 260.25,-318.93 262.35,-312.93 258.15,-312.93"/>
</g>
<!-- src/render/index&#45;node.mts -->
<g id="node5" class="node">
<title>src/render/index&#45;node.mts</title>
<g id="a_node5"><a xlink:href="https://github.com/sverweij/state-machine-cat/blob/main/src/render/index-node.mts" xlink:title="index&#45;node.mts">
<path fill="#ccccff" stroke="black" d="M294.08,-167.88C294.08,-167.88 226.92,-167.88 226.92,-167.88 223.96,-167.88 221,-164.92 221,-161.96 221,-161.96 221,-156.04 221,-156.04 221,-153.08 223.96,-150.12 226.92,-150.12 226.92,-150.12 294.08,-150.12 294.08,-150.12 297.04,-150.12 300,-153.08 300,-156.04 300,-156.04 300,-161.96 300,-161.96 300,-164.92 297.04,-167.88 294.08,-167.88"/>
<text text-anchor="start" x="229" y="-155.32" font-family="Helvetica,sans-Serif" font-size="9.00">index&#45;node.mts</text>
</a>
</g>
</g>
<!-- src/index&#45;node.mts&#45;&gt;src/render/index&#45;node.mts -->
<g id="edge5" class="edge">
<title>src/index&#45;node.mts&#45;&gt;src/render/index&#45;node.mts</title>
<path fill="none" stroke="#0000ff" stroke-width="2" stroke-opacity="0.466667" d="M179.25,-274.97C179.25,-247.03 179.25,-163.88 179.25,-163.88 179.25,-163.88 211.8,-163.88 211.8,-163.88"/>
<polygon fill="#0000ff" fill-opacity="0.466667" stroke="#0000ff" stroke-width="2" stroke-opacity="0.466667" points="211.8,-165.98 217.8,-163.88 211.8,-161.78 211.8,-165.98"/>
</g>
<!-- src/transform -->
<g id="node6" class="node">
<title>src/transform</title>
<g id="a_node6"><a xlink:href="https://github.com/sverweij/state-machine-cat/blob/main/src/transform" xlink:title="transform">
<polygon fill="#ffffcc" stroke="black" points="551.38,-291.88 499.1,-291.88 497.12,-289.9 497.12,-274.12 549.4,-274.12 551.38,-276.1 551.38,-291.88"/>
<polyline fill="none" stroke="black" points="549.4,-289.9 497.12,-289.9"/>
<polyline fill="none" stroke="black" points="549.4,-289.9 549.4,-274.12"/>
<polyline fill="none" stroke="black" points="549.4,-289.9 551.38,-291.88"/>
<text text-anchor="start" x="505.12" y="-279.32" font-family="Helvetica,sans-Serif" font-size="9.00">transform</text>
</a>
</g>
</g>
<!-- src/index&#45;node.mts&#45;&gt;src/transform -->
<g id="edge6" class="edge">
<title>src/index&#45;node.mts&#45;&gt;src/transform</title>
<path fill="none" stroke="#000000" stroke-width="2" stroke-opacity="0.200000" d="M185.32,-281.38C185.32,-281.38 488.06,-281.38 488.06,-281.38"/>
<polygon fill="#000000" fill-opacity="0.200000" stroke="#000000" stroke-width="2" stroke-opacity="0.200000" points="488.06,-283.48 494.06,-281.38 488.06,-279.28 488.06,-283.48"/>
</g>
<!-- src/version.mts -->
<g id="node7" class="node">
<title>src/version.mts</title>
<g id="a_node7"><a xlink:href="https://github.com/sverweij/state-machine-cat/blob/main/src/version.mts" xlink:title="version.mts">
<path fill="#ddfeff" stroke="black" d="M285.83,-277.88C285.83,-277.88 235.17,-277.88 235.17,-277.88 232.21,-277.88 229.25,-274.92 229.25,-271.96 229.25,-271.96 229.25,-266.04 229.25,-266.04 229.25,-263.08 232.21,-260.12 235.17,-260.12 235.17,-260.12 285.83,-260.12 285.83,-260.12 288.79,-260.12 291.75,-263.08 291.75,-266.04 291.75,-266.04 291.75,-271.96 291.75,-271.96 291.75,-274.92 288.79,-277.88 285.83,-277.88"/>
<text text-anchor="start" x="237.25" y="-265.32" font-family="Helvetica,sans-Serif" font-size="9.00">version.mts</text>
</a>
</g>
</g>
<!-- src/index&#45;node.mts&#45;&gt;src/version.mts -->
<g id="edge7" class="edge">
<title>src/index&#45;node.mts&#45;&gt;src/version.mts</title>
<path fill="none" stroke="#000000" stroke-width="2" stroke-opacity="0.200000" d="M182.25,-274.82C182.25,-272.24 182.25,-270.12 182.25,-270.12 182.25,-270.12 220.1,-270.12 220.1,-270.12"/>
<polygon fill="#000000" fill-opacity="0.200000" stroke="#000000" stroke-width="2" stroke-opacity="0.200000" points="220.1,-272.23 226.1,-270.13 220.1,-268.03 220.1,-272.23"/>
</g>
<!-- src/parse/index.mts&#45;&gt;src/options.mts -->
<g id="edge13" class="edge">
<title>src/parse/index.mts&#45;&gt;src/options.mts</title>
<path fill="none" stroke="#000000" stroke-width="2" stroke-opacity="0.200000" d="M288.36,-328.04C303.13,-328.04 318.25,-328.04 318.25,-328.04 318.25,-328.04 318.25,-87.62 318.25,-87.62 318.25,-87.62 625.39,-87.62 625.39,-87.62"/>
<polygon fill="#000000" fill-opacity="0.200000" stroke="#000000" stroke-width="2" stroke-opacity="0.200000" points="625.39,-89.73 631.39,-87.63 625.39,-85.53 625.39,-89.73"/>
</g>
<!-- src/parse/scxml -->
<g id="node10" class="node">
<title>src/parse/scxml</title>
<g id="a_node10"><a xlink:href="https://github.com/sverweij/state-machine-cat/blob/main/src/parse/scxml" xlink:title="scxml">
<polygon fill="#ffccff" stroke="black" points="416,-369.88 363.97,-369.88 362,-367.9 362,-352.12 414.03,-352.12 416,-354.1 416,-369.88"/>
<polyline fill="none" stroke="black" points="414.03,-367.9 362,-367.9"/>
<polyline fill="none" stroke="black" points="414.03,-367.9 414.03,-352.12"/>
<polyline fill="none" stroke="black" points="414.03,-367.9 416,-369.88"/>
<text text-anchor="start" x="377.38" y="-357.32" font-family="Helvetica,sans-Serif" font-size="9.00">scxml</text>
</a>
</g>
</g>
<!-- src/parse/index.mts&#45;&gt;src/parse/scxml -->
<g id="edge14" class="edge">
<title>src/parse/index.mts&#45;&gt;src/parse/scxml</title>
<path fill="none" stroke="#ff00ff" stroke-width="2" stroke-opacity="0.466667" d="M269.25,-340.16C269.25,-348.99 269.25,-361 269.25,-361 269.25,-361 352.5,-361 352.5,-361"/>
<polygon fill="#ff00ff" fill-opacity="0.466667" stroke="#ff00ff" stroke-width="2" stroke-opacity="0.466667" points="352.5,-363.1 358.5,-361 352.5,-358.9 352.5,-363.1"/>
</g>
<!-- src/parse/smcat&#45;ast.schema.mts -->
<g id="node11" class="node">
<title>src/parse/smcat&#45;ast.schema.mts</title>
<g id="a_node11"><a xlink:href="https://github.com/sverweij/state-machine-cat/blob/main/src/parse/smcat-ast.schema.mts" xlink:title="smcat&#45;ast.schema.mts">
<path fill="#ffccff" stroke="black" d="M436.08,-339.88C436.08,-339.88 341.92,-339.88 341.92,-339.88 338.96,-339.88 336,-336.92 336,-333.96 336,-333.96 336,-328.04 336,-328.04 336,-325.08 338.96,-322.12 341.92,-322.12 341.92,-322.12 436.08,-322.12 436.08,-322.12 439.04,-322.12 442,-325.08 442,-328.04 442,-328.04 442,-333.96 442,-333.96 442,-336.92 439.04,-339.88 436.08,-339.88"/>
<text text-anchor="start" x="344" y="-327.32" font-family="Helvetica,sans-Serif" font-size="9.00">smcat&#45;ast.schema.mts</text>
</a>
</g>
</g>
<!-- src/parse/index.mts&#45;&gt;src/parse/smcat&#45;ast.schema.mts -->
<g id="edge15" class="edge">
<title>src/parse/index.mts&#45;&gt;src/parse/smcat&#45;ast.schema.mts</title>
<path fill="none" stroke="#ff00ff" stroke-width="2" stroke-opacity="0.466667" d="M288.38,-333.96C288.38,-333.96 326.5,-333.96 326.5,-333.96"/>
<polygon fill="#ff00ff" fill-opacity="0.466667" stroke="#ff00ff" stroke-width="2" stroke-opacity="0.466667" points="326.5,-336.06 332.5,-333.96 326.5,-331.86 326.5,-336.06"/>
</g>
<!-- src/parse/smcat -->
<g id="node12" class="node">
<title>src/parse/smcat</title>
<g id="a_node12"><a xlink:href="https://github.com/sverweij/state-machine-cat/blob/main/src/parse/smcat" xlink:title="smcat">
<polygon fill="#ffccff" stroke="black" points="416,-399.88 363.97,-399.88 362,-397.9 362,-382.12 414.03,-382.12 416,-384.1 416,-399.88"/>
<polyline fill="none" stroke="black" points="414.03,-397.9 362,-397.9"/>
<polyline fill="none" stroke="black" points="414.03,-397.9 414.03,-382.12"/>
<polyline fill="none" stroke="black" points="414.03,-397.9 416,-399.88"/>
<text text-anchor="start" x="377" y="-387.32" font-family="Helvetica,sans-Serif" font-size="9.00">smcat</text>
</a>
</g>
</g>
<!-- src/parse/index.mts&#45;&gt;src/parse/smcat -->
<g id="edge16" class="edge">
<title>src/parse/index.mts&#45;&gt;src/parse/smcat</title>
<path fill="none" stroke="#ff00ff" stroke-width="2" stroke-opacity="0.466667" d="M251.25,-340.38C251.25,-357.25 251.25,-391 251.25,-391 251.25,-391 352.76,-391 352.76,-391"/>
<polygon fill="#ff00ff" fill-opacity="0.466667" stroke="#ff00ff" stroke-width="2" stroke-opacity="0.466667" points="352.76,-393.1 358.76,-391 352.76,-388.9 352.76,-393.1"/>
</g>
<!-- src/render/dot -->
<g id="node15" class="node">
<title>src/render/dot</title>
<g id="a_node15"><a xlink:href="https://github.com/sverweij/state-machine-cat/blob/main/src/render/dot" xlink:title="dot">
<polygon fill="#ccccff" stroke="black" points="551.25,-119.88 499.22,-119.88 497.25,-117.9 497.25,-102.12 549.28,-102.12 551.25,-104.1 551.25,-119.88"/>
<polyline fill="none" stroke="black" points="549.28,-117.9 497.25,-117.9"/>
<polyline fill="none" stroke="black" points="549.28,-117.9 549.28,-102.12"/>
<polyline fill="none" stroke="black" points="549.28,-117.9 551.25,-119.88"/>
<text text-anchor="start" x="517.88" y="-107.33" font-family="Helvetica,sans-Serif" font-size="9.00">dot</text>
</a>
</g>
</g>
<!-- src/render/index&#45;node.mts&#45;&gt;src/render/dot -->
<g id="edge23" class="edge">
<title>src/render/index&#45;node.mts&#45;&gt;src/render/dot</title>
<path fill="none" stroke="#0000ff" stroke-width="2" stroke-opacity="0.466667" d="M291.25,-149.68C291.25,-148.37 291.25,-147.46 291.25,-147.46 291.25,-147.46 533.25,-147.46 533.25,-147.46 533.25,-147.46 533.25,-129.23 533.25,-129.23"/>
<polygon fill="#0000ff" fill-opacity="0.466667" stroke="#0000ff" stroke-width="2" stroke-opacity="0.466667" points="535.35,-129.23 533.25,-123.23 531.15,-129.23 535.35,-129.23"/>
</g>
<!-- src/render/ndot -->
<g id="node16" class="node">
<title>src/render/ndot</title>
<g id="a_node16"><a xlink:href="https://github.com/sverweij/state-machine-cat/blob/main/src/render/ndot" xlink:title="ndot">
<polygon fill="#ccccff" stroke="black" points="416,-197.88 363.97,-197.88 362,-195.9 362,-180.12 414.03,-180.12 416,-182.1 416,-197.88"/>
<polyline fill="none" stroke="black" points="414.03,-195.9 362,-195.9"/>
<polyline fill="none" stroke="black" points="414.03,-195.9 414.03,-180.12"/>
<polyline fill="none" stroke="black" points="414.03,-195.9 416,-197.88"/>
<text text-anchor="start" x="380" y="-185.32" font-family="Helvetica,sans-Serif" font-size="9.00">ndot</text>
</a>
</g>
</g>
<!-- src/render/index&#45;node.mts&#45;&gt;src/render/ndot -->
<g id="edge24" class="edge">
<title>src/render/index&#45;node.mts&#45;&gt;src/render/ndot</title>
<path fill="none" stroke="#0000ff" stroke-width="2" stroke-opacity="0.466667" d="M294.25,-168.16C294.25,-176.99 294.25,-189 294.25,-189 294.25,-189 352.57,-189 352.57,-189"/>
<polygon fill="#0000ff" fill-opacity="0.466667" stroke="#0000ff" stroke-width="2" stroke-opacity="0.466667" points="352.57,-191.1 358.57,-189 352.57,-186.9 352.57,-191.1"/>
</g>
<!-- src/render/scjson -->
<g id="node17" class="node">
<title>src/render/scjson</title>
<g id="a_node17"><a xlink:href="https://github.com/sverweij/state-machine-cat/blob/main/src/render/scjson" xlink:title="scjson">
<polygon fill="#ccccff" stroke="black" points="551.25,-171.88 499.22,-171.88 497.25,-169.9 497.25,-154.12 549.28,-154.12 551.25,-156.1 551.25,-171.88"/>
<polyline fill="none" stroke="black" points="549.28,-169.9 497.25,-169.9"/>
<polyline fill="none" stroke="black" points="549.28,-169.9 549.28,-154.12"/>
<polyline fill="none" stroke="black" points="549.28,-169.9 551.25,-171.88"/>
<text text-anchor="start" x="511.12" y="-159.32" font-family="Helvetica,sans-Serif" font-size="9.00">scjson</text>
</a>
</g>
</g>
<!-- src/render/index&#45;node.mts&#45;&gt;src/render/scjson -->
<g id="edge25" class="edge">
<title>src/render/index&#45;node.mts&#45;&gt;src/render/scjson</title>
<path fill="none" stroke="#0000ff" stroke-width="2" stroke-opacity="0.466667" d="M297.25,-168.3C297.25,-172.26 297.25,-176 297.25,-176 297.25,-176 524.25,-176 524.25,-176 524.25,-176 524.25,-175.62 524.25,-175.62"/>
<polygon fill="#0000ff" fill-opacity="0.466667" stroke="#0000ff" stroke-width="2" stroke-opacity="0.466667" points="526.35,-181.2 524.25,-175.2 522.15,-181.2 526.35,-181.2"/>
</g>
<!-- src/render/scxml -->
<g id="node18" class="node">
<title>src/render/scxml</title>
<g id="a_node18"><a xlink:href="https://github.com/sverweij/state-machine-cat/blob/main/src/render/scxml" xlink:title="scxml">
<polygon fill="#ccccff" stroke="black" points="416,-167.88 363.97,-167.88 362,-165.9 362,-150.12 414.03,-150.12 416,-152.1 416,-167.88"/>
<polyline fill="none" stroke="black" points="414.03,-165.9 362,-165.9"/>
<polyline fill="none" stroke="black" points="414.03,-165.9 414.03,-150.12"/>
<polyline fill="none" stroke="black" points="414.03,-165.9 416,-167.88"/>
<text text-anchor="start" x="377.38" y="-155.32" font-family="Helvetica,sans-Serif" font-size="9.00">scxml</text>
</a>
</g>
</g>
<!-- src/render/index&#45;node.mts&#45;&gt;src/render/scxml -->
<g id="edge26" class="edge">
<title>src/render/index&#45;node.mts&#45;&gt;src/render/scxml</title>
<path fill="none" stroke="#0000ff" stroke-width="2" stroke-opacity="0.466667" d="M300.45,-159C300.45,-159 352.66,-159 352.66,-159"/>
<polygon fill="#0000ff" fill-opacity="0.466667" stroke="#0000ff" stroke-width="2" stroke-opacity="0.466667" points="352.66,-161.1 358.66,-159 352.66,-156.9 352.66,-161.1"/>
</g>
<!-- src/render/smcat.mts -->
<g id="node19" class="node">
<title>src/render/smcat.mts</title>
<g id="a_node19"><a xlink:href="https://github.com/sverweij/state-machine-cat/blob/main/src/render/smcat.mts" xlink:title="smcat.mts">
<path fill="#ccccff" stroke="black" d="M411.33,-123.88C411.33,-123.88 366.67,-123.88 366.67,-123.88 363.71,-123.88 360.75,-120.92 360.75,-117.96 360.75,-117.96 360.75,-112.04 360.75,-112.04 360.75,-109.08 363.71,-106.12 366.67,-106.12 366.67,-106.12 411.33,-106.12 411.33,-106.12 414.29,-106.12 417.25,-109.08 417.25,-112.04 417.25,-112.04 417.25,-117.96 417.25,-117.96 417.25,-120.92 414.29,-123.88 411.33,-123.88"/>
<text text-anchor="start" x="368.75" y="-111.33" font-family="Helvetica,sans-Serif" font-size="9.00">smcat.mts</text>
</a>
</g>
</g>
<!-- src/render/index&#45;node.mts&#45;&gt;src/render/smcat.mts -->
<g id="edge27" class="edge">
<title>src/render/index&#45;node.mts&#45;&gt;src/render/smcat.mts</title>
<path fill="none" stroke="#0000ff" stroke-width="2" stroke-opacity="0.466667" d="M297.25,-150C297.25,-138.54 297.25,-120.21 297.25,-120.21 297.25,-120.21 351.45,-120.21 351.45,-120.21"/>
<polygon fill="#0000ff" fill-opacity="0.466667" stroke="#0000ff" stroke-width="2" stroke-opacity="0.466667" points="351.45,-122.31 357.45,-120.21 351.45,-118.11 351.45,-122.31"/>
</g>
<!-- src/render/vector -->
<g id="node20" class="node">
<title>src/render/vector</title>
<g id="a_node20"><a xlink:href="https://github.com/sverweij/state-machine-cat/blob/main/src/render/vector" xlink:title="vector">
<polygon fill="#ccccff" stroke="black" points="416,-65.88 363.97,-65.88 362,-63.9 362,-48.12 414.03,-48.12 416,-50.1 416,-65.88"/>
<polyline fill="none" stroke="black" points="414.03,-63.9 362,-63.9"/>
<polyline fill="none" stroke="black" points="414.03,-63.9 414.03,-48.12"/>
<polyline fill="none" stroke="black" points="414.03,-63.9 416,-65.88"/>
<text text-anchor="start" x="376.62" y="-53.33" font-family="Helvetica,sans-Serif" font-size="9.00">vector</text>
</a>
</g>
</g>
<!-- src/render/index&#45;node.mts&#45;&gt;src/render/vector -->
<g id="edge28" class="edge">
<title>src/render/index&#45;node.mts&#45;&gt;src/render/vector</title>
<path fill="none" stroke="#0000ff" stroke-width="2" stroke-opacity="0.466667" d="M294.25,-149.86C294.25,-125.34 294.25,-59.96 294.25,-59.96 294.25,-59.96 352.57,-59.96 352.57,-59.96"/>
<polygon fill="#0000ff" fill-opacity="0.466667" stroke="#0000ff" stroke-width="2" stroke-opacity="0.466667" points="352.57,-62.06 358.57,-59.96 352.57,-57.86 352.57,-62.06"/>
</g>
<!-- src/state&#45;machine&#45;model.mts -->
<g id="node14" class="node">
<title>src/state&#45;machine&#45;model.mts</title>
<g id="a_node14"><a xlink:href="https://github.com/sverweij/state-machine-cat/blob/main/src/state-machine-model.mts" xlink:title="state&#45;machine&#45;model.mts">
<path fill="#ddfeff" stroke="black" d="M719.33,-197.88C719.33,-197.88 612.42,-197.88 612.42,-197.88 609.46,-197.88 606.5,-194.92 606.5,-191.96 606.5,-191.96 606.5,-186.04 606.5,-186.04 606.5,-183.08 609.46,-180.12 612.42,-180.12 612.42,-180.12 719.33,-180.12 719.33,-180.12 722.29,-180.12 725.25,-183.08 725.25,-186.04 725.25,-186.04 725.25,-191.96 725.25,-191.96 725.25,-194.92 722.29,-197.88 719.33,-197.88"/>
<text text-anchor="start" x="614.5" y="-185.32" font-family="Helvetica,sans-Serif" font-size="9.00">state&#45;machine&#45;model.mts</text>
</a>
</g>
</g>
<!-- src/transform&#45;&gt;src/state&#45;machine&#45;model.mts -->
<g id="edge40" class="edge">
<title>src/transform&#45;&gt;src/state&#45;machine&#45;model.mts</title>
<path fill="none" stroke="#000000" stroke-width="2" stroke-opacity="0.200000" d="M537.25,-273.82C537.25,-250.49 537.25,-190.78 537.25,-190.78 537.25,-190.78 597.05,-190.78 597.05,-190.78"/>
<polygon fill="#000000" fill-opacity="0.200000" stroke="#000000" stroke-width="2" stroke-opacity="0.200000" points="597.05,-192.88 603.05,-190.78 597.05,-188.68 597.05,-192.88"/>
</g>
<!-- src/index.mts -->
<g id="node8" class="node">
<title>src/index.mts</title>
<g id="a_node8"><a xlink:href="https://github.com/sverweij/state-machine-cat/blob/main/src/index.mts" xlink:title="index.mts">
<path fill="#ddfeff" stroke="black" d="M167.08,-255.88C167.08,-255.88 123.92,-255.88 123.92,-255.88 120.96,-255.88 118,-252.92 118,-249.96 118,-249.96 118,-244.04 118,-244.04 118,-241.08 120.96,-238.12 123.92,-238.12 123.92,-238.12 167.08,-238.12 167.08,-238.12 170.04,-238.12 173,-241.08 173,-244.04 173,-244.04 173,-249.96 173,-249.96 173,-252.92 170.04,-255.88 167.08,-255.88"/>
<text text-anchor="start" x="126" y="-243.32" font-family="Helvetica,sans-Serif" font-size="9.00">index.mts</text>
</a>
</g>
</g>
<!-- src/index.mts&#45;&gt;src/options.mts -->
<g id="edge8" class="edge">
<title>src/index.mts&#45;&gt;src/options.mts</title>
<path fill="none" stroke="#000000" stroke-width="2" stroke-opacity="0.200000" d="M136.25,-237.76C136.25,-203.25 136.25,-83.88 136.25,-83.88 136.25,-83.88 625.3,-83.88 625.3,-83.88"/>
<polygon fill="#000000" fill-opacity="0.200000" stroke="#000000" stroke-width="2" stroke-opacity="0.200000" points="625.3,-85.98 631.3,-83.88 625.3,-81.78 625.3,-85.98"/>
</g>
<!-- src/index.mts&#45;&gt;src/parse/index.mts -->
<g id="edge9" class="edge">
<title>src/index.mts&#45;&gt;src/parse/index.mts</title>
<path fill="none" stroke="#ff00ff" stroke-width="2" stroke-opacity="0.466667" d="M173.36,-249.96C188.13,-249.96 203.25,-249.96 203.25,-249.96 203.25,-249.96 203.25,-331 203.25,-331 203.25,-331 223.52,-331 223.52,-331"/>
<polygon fill="#ff00ff" fill-opacity="0.466667" stroke="#ff00ff" stroke-width="2" stroke-opacity="0.466667" points="223.52,-333.1 229.52,-331 223.52,-328.9 223.52,-333.1"/>
</g>
<!-- src/index.mts&#45;&gt;src/transform -->
<g id="edge11" class="edge">
<title>src/index.mts&#45;&gt;src/transform</title>
<path fill="none" stroke="#000000" stroke-width="2" stroke-opacity="0.200000" d="M173.21,-244.04C258.33,-244.04 510.25,-244.04 510.25,-244.04 510.25,-244.04 510.25,-264.94 510.25,-264.94"/>
<polygon fill="#000000" fill-opacity="0.200000" stroke="#000000" stroke-width="2" stroke-opacity="0.200000" points="508.15,-264.94 510.25,-270.94 512.35,-264.94 508.15,-264.94"/>
</g>
<!-- src/index.mts&#45;&gt;src/version.mts -->
<g id="edge12" class="edge">
<title>src/index.mts&#45;&gt;src/version.mts</title>
<path fill="none" stroke="#000000" stroke-width="2" stroke-opacity="0.200000" d="M145.25,-256.06C145.25,-260.59 145.25,-265.12 145.25,-265.12 145.25,-265.12 219.98,-265.12 219.98,-265.12"/>
<polygon fill="#000000" fill-opacity="0.200000" stroke="#000000" stroke-width="2" stroke-opacity="0.200000" points="219.98,-267.23 225.98,-265.13 219.98,-263.03 219.98,-267.23"/>
</g>
<!-- src/render/index.mts -->
<g id="node9" class="node">
<title>src/render/index.mts</title>
<g id="a_node9"><a xlink:href="https://github.com/sverweij/state-machine-cat/blob/main/src/render/index.mts" xlink:title="index.mts">
<path fill="#ccccff" stroke="black" d="M282.08,-112.88C282.08,-112.88 238.92,-112.88 238.92,-112.88 235.96,-112.88 233,-109.92 233,-106.96 233,-106.96 233,-101.04 233,-101.04 233,-98.08 235.96,-95.12 238.92,-95.12 238.92,-95.12 282.08,-95.12 282.08,-95.12 285.04,-95.12 288,-98.08 288,-101.04 288,-101.04 288,-106.96 288,-106.96 288,-109.92 285.04,-112.88 282.08,-112.88"/>
<text text-anchor="start" x="241" y="-100.33" font-family="Helvetica,sans-Serif" font-size="9.00">index.mts</text>
</a>
</g>
</g>
<!-- src/index.mts&#45;&gt;src/render/index.mts -->
<g id="edge10" class="edge">
<title>src/index.mts&#45;&gt;src/render/index.mts</title>
<path fill="none" stroke="#0000ff" stroke-width="2" stroke-opacity="0.466667" d="M154.25,-238.05C154.25,-206.75 154.25,-104 154.25,-104 154.25,-104 223.56,-104 223.56,-104"/>
<polygon fill="#0000ff" fill-opacity="0.466667" stroke="#0000ff" stroke-width="2" stroke-opacity="0.466667" points="223.56,-106.1 229.56,-104 223.56,-101.9 223.56,-106.1"/>
</g>
<!-- src/render/index.mts&#45;&gt;src/render/dot -->
<g id="edge29" class="edge">
<title>src/render/index.mts&#45;&gt;src/render/dot</title>
<path fill="none" stroke="#0000ff" stroke-width="2" stroke-opacity="0.466667" d="M251.25,-94.82C251.25,-92.87 251.25,-91.38 251.25,-91.38 251.25,-91.38 510.25,-91.38 510.25,-91.38 510.25,-91.38 510.25,-92.62 510.25,-92.62"/>
<polygon fill="#0000ff" fill-opacity="0.466667" stroke="#0000ff" stroke-width="2" stroke-opacity="0.466667" points="508.15,-92.62 510.25,-98.62 512.35,-92.62 508.15,-92.62"/>
</g>
<!-- src/render/index.mts&#45;&gt;src/render/scjson -->
<g id="edge30" class="edge">
<title>src/render/index.mts&#45;&gt;src/render/scjson</title>
<path fill="none" stroke="#0000ff" stroke-width="2" stroke-opacity="0.466667" d="M260.25,-113.37C260.25,-120.81 260.25,-129.96 260.25,-129.96 260.25,-129.96 515.25,-129.96 515.25,-129.96 515.25,-129.96 515.25,-144.94 515.25,-144.94"/>
<polygon fill="#0000ff" fill-opacity="0.466667" stroke="#0000ff" stroke-width="2" stroke-opacity="0.466667" points="513.15,-144.94 515.25,-150.94 517.35,-144.94 513.15,-144.94"/>
</g>
<!-- src/render/index.mts&#45;&gt;src/render/scxml -->
<g id="edge31" class="edge">
<title>src/render/index.mts&#45;&gt;src/render/scxml</title>
<path fill="none" stroke="#0000ff" stroke-width="2" stroke-opacity="0.466667" d="M246.25,-113.1C246.25,-122.57 246.25,-136.04 246.25,-136.04 246.25,-136.04 389.25,-136.04 389.25,-136.04 389.25,-136.04 389.25,-140.63 389.25,-140.63"/>
<polygon fill="#0000ff" fill-opacity="0.466667" stroke="#0000ff" stroke-width="2" stroke-opacity="0.466667" points="387.15,-140.63 389.25,-146.63 391.35,-140.63 387.15,-140.63"/>
</g>
<!-- src/render/index.mts&#45;&gt;src/render/smcat.mts -->
<g id="edge32" class="edge">
<title>src/render/index.mts&#45;&gt;src/render/smcat.mts</title>
<path fill="none" stroke="#0000ff" stroke-width="2" stroke-opacity="0.466667" d="M274.25,-113.11C274.25,-115.06 274.25,-116.54 274.25,-116.54 274.25,-116.54 351.31,-116.54 351.31,-116.54"/>
<polygon fill="#0000ff" fill-opacity="0.466667" stroke="#0000ff" stroke-width="2" stroke-opacity="0.466667" points="351.31,-118.64 357.31,-116.54 351.31,-114.44 351.31,-118.64"/>
</g>
<!-- src/render/index.mts&#45;&gt;src/render/vector -->
<g id="edge33" class="edge">
<title>src/render/index.mts&#45;&gt;src/render/vector</title>
<path fill="none" stroke="#0000ff" stroke-width="2" stroke-opacity="0.466667" d="M269.25,-94.84C269.25,-80.41 269.25,-54.04 269.25,-54.04 269.25,-54.04 352.5,-54.04 352.5,-54.04"/>
<polygon fill="#0000ff" fill-opacity="0.466667" stroke="#0000ff" stroke-width="2" stroke-opacity="0.466667" points="352.5,-56.14 358.5,-54.04 352.5,-51.94 352.5,-56.14"/>
</g>
<!-- src/parse/scxml&#45;&gt;src/transform -->
<g id="edge18" class="edge">
<title>src/parse/scxml&#45;&gt;src/transform</title>
<path fill="none" stroke="#000000" stroke-width="2" stroke-opacity="0.200000" d="M416.45,-358.04C438.66,-358.04 466.25,-358.04 466.25,-358.04 466.25,-358.04 466.25,-284.88 466.25,-284.88 466.25,-284.88 487.92,-284.88 487.92,-284.88"/>
<polygon fill="#000000" fill-opacity="0.200000" stroke="#000000" stroke-width="2" stroke-opacity="0.200000" points="487.92,-286.98 493.92,-284.88 487.92,-282.78 487.92,-286.98"/>
</g>
<!-- src/parse/parser&#45;helpers.mts -->
<g id="node13" class="node">
<title>src/parse/parser&#45;helpers.mts</title>
<g id="a_node13"><a xlink:href="https://github.com/sverweij/state-machine-cat/blob/main/src/parse/parser-helpers.mts" xlink:title="parser&#45;helpers.mts">
<path fill="#ffccff" stroke="black" d="M564.58,-369.88C564.58,-369.88 483.92,-369.88 483.92,-369.88 480.96,-369.88 478,-366.92 478,-363.96 478,-363.96 478,-358.04 478,-358.04 478,-355.08 480.96,-352.12 483.92,-352.12 483.92,-352.12 564.58,-352.12 564.58,-352.12 567.54,-352.12 570.5,-355.08 570.5,-358.04 570.5,-358.04 570.5,-363.96 570.5,-363.96 570.5,-366.92 567.54,-369.88 564.58,-369.88"/>
<text text-anchor="start" x="486" y="-357.32" font-family="Helvetica,sans-Serif" font-size="9.00">parser&#45;helpers.mts</text>
</a>
</g>
</g>
<!-- src/parse/scxml&#45;&gt;src/parse/parser&#45;helpers.mts -->
<g id="edge19" class="edge">
<title>src/parse/scxml&#45;&gt;src/parse/parser&#45;helpers.mts</title>
<path fill="none" stroke="#ff00ff" stroke-width="2" stroke-opacity="0.466667" d="M416.37,-363.96C416.37,-363.96 468.71,-363.96 468.71,-363.96"/>
<polygon fill="#ff00ff" fill-opacity="0.466667" stroke="#ff00ff" stroke-width="2" stroke-opacity="0.466667" points="468.71,-366.06 474.71,-363.96 468.71,-361.86 468.71,-366.06"/>
</g>
<!-- src/parse/smcat&#45;&gt;src/parse/parser&#45;helpers.mts -->
<g id="edge20" class="edge">
<title>src/parse/smcat&#45;&gt;src/parse/parser&#45;helpers.mts</title>
<path fill="none" stroke="#ff00ff" stroke-width="2" stroke-opacity="0.466667" d="M416.37,-391C455.89,-391 524.25,-391 524.25,-391 524.25,-391 524.25,-379.19 524.25,-379.19"/>
<polygon fill="#ff00ff" fill-opacity="0.466667" stroke="#ff00ff" stroke-width="2" stroke-opacity="0.466667" points="526.35,-379.19 524.25,-373.19 522.15,-379.19 526.35,-379.19"/>
</g>
<!-- src/parse/parser&#45;helpers.mts&#45;&gt;src/state&#45;machine&#45;model.mts -->
<g id="edge17" class="edge">
<title>src/parse/parser&#45;helpers.mts&#45;&gt;src/state&#45;machine&#45;model.mts</title>
<path fill="none" stroke="#000000" stroke-width="2" stroke-opacity="0.200000" d="M561.25,-352.04C561.25,-317.42 561.25,-194.32 561.25,-194.32 561.25,-194.32 597.2,-194.32 597.2,-194.32"/>
<polygon fill="#000000" fill-opacity="0.200000" stroke="#000000" stroke-width="2" stroke-opacity="0.200000" points="597.2,-196.43 603.2,-194.33 597.2,-192.23 597.2,-196.43"/>
</g>
<!-- src/render/dot&#45;&gt;src/options.mts -->
<g id="edge21" class="edge">
<title>src/render/dot&#45;&gt;src/options.mts</title>
<path fill="none" stroke="#000000" stroke-width="2" stroke-opacity="0.200000" d="M537.25,-101.71C537.25,-97.41 537.25,-93.25 537.25,-93.25 537.25,-93.25 625.38,-93.25 625.38,-93.25"/>
<polygon fill="#000000" fill-opacity="0.200000" stroke="#000000" stroke-width="2" stroke-opacity="0.200000" points="625.38,-95.35 631.38,-93.25 625.38,-91.15 625.38,-95.35"/>
</g>
<!-- src/render/dot&#45;&gt;src/state&#45;machine&#45;model.mts -->
<g id="edge22" class="edge">
<title>src/render/dot&#45;&gt;src/state&#45;machine&#45;model.mts</title>
<path fill="none" stroke="#000000" stroke-width="2" stroke-opacity="0.200000" d="M551.58,-111C581.49,-111 625.25,-111 625.25,-111 625.25,-111 625.25,-170.72 625.25,-170.72"/>
<polygon fill="#000000" fill-opacity="0.200000" stroke="#000000" stroke-width="2" stroke-opacity="0.200000" points="623.15,-170.72 625.25,-176.72 627.35,-170.72 623.15,-170.72"/>
</g>
<!-- src/render/ndot&#45;&gt;src/options.mts -->
<g id="edge34" class="edge">
<title>src/render/ndot&#45;&gt;src/options.mts</title>
<path fill="none" stroke="#000000" stroke-width="2" stroke-opacity="0.200000" d="M416.29,-183.68C434.17,-183.68 454.25,-183.68 454.25,-183.68 454.25,-183.68 454.25,-89.5 454.25,-89.5 454.25,-89.5 625.17,-89.5 625.17,-89.5"/>
<polygon fill="#000000" fill-opacity="0.200000" stroke="#000000" stroke-width="2" stroke-opacity="0.200000" points="625.17,-91.6 631.17,-89.5 625.17,-87.4 625.17,-91.6"/>
</g>
<!-- src/render/ndot&#45;&gt;src/state&#45;machine&#45;model.mts -->
<g id="edge35" class="edge">
<title>src/render/ndot&#45;&gt;src/state&#45;machine&#45;model.mts</title>
<path fill="none" stroke="#000000" stroke-width="2" stroke-opacity="0.200000" d="M416.31,-187.22C416.31,-187.22 597.13,-187.22 597.13,-187.22"/>
<polygon fill="#000000" fill-opacity="0.200000" stroke="#000000" stroke-width="2" stroke-opacity="0.200000" points="597.13,-189.33 603.13,-187.23 597.13,-185.13 597.13,-189.33"/>
</g>
<!-- src/render/scjson&#45;&gt;src/state&#45;machine&#45;model.mts -->
<g id="edge36" class="edge">
<title>src/render/scjson&#45;&gt;src/state&#45;machine&#45;model.mts</title>
<path fill="none" stroke="#000000" stroke-width="2" stroke-opacity="0.200000" d="M551.36,-163C578.49,-163 616.25,-163 616.25,-163 616.25,-163 616.25,-170.88 616.25,-170.88"/>
<polygon fill="#000000" fill-opacity="0.200000" stroke="#000000" stroke-width="2" stroke-opacity="0.200000" points="614.15,-170.88 616.25,-176.88 618.35,-170.88 614.15,-170.88"/>
</g>
<!-- src/render/scxml&#45;&gt;src/render/scjson -->
<g id="edge37" class="edge">
<title>src/render/scxml&#45;&gt;src/render/scjson</title>
<path fill="none" stroke="#0000ff" stroke-width="2" stroke-opacity="0.466667" d="M416.37,-161C416.37,-161 487.89,-161 487.89,-161"/>
<polygon fill="#0000ff" fill-opacity="0.466667" stroke="#0000ff" stroke-width="2" stroke-opacity="0.466667" points="487.89,-163.1 493.89,-161 487.89,-158.9 487.89,-163.1"/>
</g>
<!-- src/render/vector&#45;&gt;src/options.mts -->
<g id="edge38" class="edge">
<title>src/render/vector&#45;&gt;src/options.mts</title>
<path fill="none" stroke="#000000" stroke-width="2" stroke-opacity="0.200000" d="M389.25,-66.31C389.25,-73.42 389.25,-82 389.25,-82 389.25,-82 625.12,-82 625.12,-82"/>
<polygon fill="#000000" fill-opacity="0.200000" stroke="#000000" stroke-width="2" stroke-opacity="0.200000" points="625.12,-84.1 631.12,-82 625.12,-79.9 625.12,-84.1"/>
</g>
<!-- src/render/vector&#45;&gt;src/render/dot -->
<g id="edge39" class="edge">
<title>src/render/vector&#45;&gt;src/render/dot</title>
<path fill="none" stroke="#0000ff" stroke-width="2" stroke-opacity="0.466667" d="M416.37,-57C455.89,-57 524.25,-57 524.25,-57 524.25,-57 524.25,-93.06 524.25,-93.06"/>
<polygon fill="#0000ff" fill-opacity="0.466667" stroke="#0000ff" stroke-width="2" stroke-opacity="0.466667" points="522.15,-93.06 524.25,-99.06 526.35,-93.06 522.15,-93.06"/>
</g>
</g>
</svg>
