<?xml version="1.0" encoding="UTF-8" standalone="no"?>
<!DOCTYPE svg PUBLIC "-//W3C//DTD SVG 1.1//EN"
 "http://www.w3.org/Graphics/SVG/1.1/DTD/svg11.dtd">
<!-- Generated by graphviz version 2.44.1 (20200629.0846)
 -->
<!-- Title: dependency&#45;cruiser output Pages: 1 -->
<svg width="781pt" height="398pt"
 viewBox="0.00 0.00 781.00 398.38" xmlns="http://www.w3.org/2000/svg" xmlns:xlink="http://www.w3.org/1999/xlink">
<g id="graph0" class="graph" transform="scale(1 1) rotate(0) translate(4 394.38)">
<title>dependency&#45;cruiser output</title>
<polygon fill="white" stroke="transparent" points="-4,4 -4,-394.38 777,-394.38 777,4 -4,4"/>
<g id="clust1" class="cluster">
<title>cluster_src</title>
<path fill="#ffffff" stroke="black" stroke-width="2" d="M94,-32.38C94,-32.38 753,-32.38 753,-32.38 759,-32.38 765,-38.38 765,-44.38 765,-44.38 765,-370.38 765,-370.38 765,-376.38 759,-382.38 753,-382.38 753,-382.38 94,-382.38 94,-382.38 88,-382.38 82,-376.38 82,-370.38 82,-370.38 82,-44.38 82,-44.38 82,-38.38 88,-32.38 94,-32.38"/>
<text text-anchor="middle" x="423.5" y="-371.18" font-family="Helvetica,sans-Serif" font-weight="bold" font-size="9.00">src</text>
</g>
<g id="clust2" class="cluster">
<title>cluster_src/parse</title>
<path fill="#ffffff" stroke="black" stroke-width="2" d="M282.5,-66.38C282.5,-66.38 605,-66.38 605,-66.38 611,-66.38 617,-72.38 617,-78.38 617,-78.38 617,-172.38 617,-172.38 617,-178.38 611,-184.38 605,-184.38 605,-184.38 282.5,-184.38 282.5,-184.38 276.5,-184.38 270.5,-178.38 270.5,-172.38 270.5,-172.38 270.5,-78.38 270.5,-78.38 270.5,-72.38 276.5,-66.38 282.5,-66.38"/>
<text text-anchor="middle" x="443.75" y="-173.18" font-family="Helvetica,sans-Serif" font-weight="bold" font-size="9.00">parse</text>
</g>
<g id="clust3" class="cluster">
<title>cluster_src/render</title>
<path fill="#ffffff" stroke="black" stroke-width="2" d="M282.5,-192.38C282.5,-192.38 589,-192.38 589,-192.38 595,-192.38 601,-198.38 601,-204.38 601,-204.38 601,-320.38 601,-320.38 601,-326.38 595,-332.38 589,-332.38 589,-332.38 282.5,-332.38 282.5,-332.38 276.5,-332.38 270.5,-326.38 270.5,-320.38 270.5,-320.38 270.5,-204.38 270.5,-204.38 270.5,-198.38 276.5,-192.38 282.5,-192.38"/>
<text text-anchor="middle" x="435.75" y="-321.18" font-family="Helvetica,sans-Serif" font-weight="bold" font-size="9.00">render</text>
</g>
<!-- bin -->
<g id="node1" class="node">
<title>bin</title>
<g id="a_node1"><a xlink:href="https://github.com/sverweij/state-machine-cat/blob/develop/bin" xlink:title="bin">
<polygon fill="#ffffcc" stroke="black" points="54,-74.38 2,-74.38 0,-72.38 0,-56.38 52,-56.38 54,-58.38 54,-74.38"/>
<polyline fill="none" stroke="black" points="52,-72.38 0,-72.38 "/>
<polyline fill="none" stroke="black" points="52,-72.38 52,-56.38 "/>
<polyline fill="none" stroke="black" points="52,-72.38 54,-74.38 "/>
<text text-anchor="middle" x="27" y="-63.17" font-family="Helvetica,sans-Serif" font-size="9.00">bin</text>
</a>
</g>
</g>
<!-- package.json -->
<g id="node2" class="node">
<title>package.json</title>
<g id="a_node2"><a xlink:href="https://github.com/sverweij/state-machine-cat/blob/develop/package.json" xlink:title="package.json">
<path fill="#ffee44" stroke="black" d="M341,-22.4C341,-23.63 325.09,-24.63 305.5,-24.63 285.91,-24.63 270,-23.63 270,-22.4 270,-22.4 270,-2.35 270,-2.35 270,-1.12 285.91,-0.12 305.5,-0.12 325.09,-0.12 341,-1.12 341,-2.35 341,-2.35 341,-22.4 341,-22.4"/>
<path fill="none" stroke="black" d="M341,-22.4C341,-21.17 325.09,-20.17 305.5,-20.17 285.91,-20.17 270,-21.17 270,-22.4"/>
<text text-anchor="middle" x="305.5" y="-10.18" font-family="Helvetica,sans-Serif" font-size="9.00">package.json</text>
</a>
</g>
</g>
<!-- bin&#45;&gt;package.json -->
<g id="edge1" class="edge">
<title>bin&#45;&gt;package.json</title>
<path fill="none" stroke="#000000" stroke-width="2" stroke-opacity="0.200000" d="M54.27,-63.71C118.32,-63.71 273,-63.71 273,-63.71 273,-63.71 273,-30.02 273,-30.02"/>
<polygon fill="#000000" fill-opacity="0.200000" stroke="#000000" stroke-width="2" stroke-opacity="0.200000" points="275.1,-30.02 273,-24.02 270.9,-30.02 275.1,-30.02"/>
</g>
<!-- src/cli -->
<g id="node3" class="node">
<title>src/cli</title>
<g id="a_node3"><a xlink:href="https://github.com/sverweij/state-machine-cat/blob/develop/src/cli" xlink:title="cli">
<polygon fill="#ccffcc" stroke="black" points="144,-141.38 92,-141.38 90,-139.38 90,-123.38 142,-123.38 144,-125.38 144,-141.38"/>
<polyline fill="none" stroke="black" points="142,-139.38 90,-139.38 "/>
<polyline fill="none" stroke="black" points="142,-139.38 142,-123.38 "/>
<polyline fill="none" stroke="black" points="142,-139.38 144,-141.38 "/>
<text text-anchor="middle" x="117" y="-130.18" font-family="Helvetica,sans-Serif" font-size="9.00">cli</text>
</a>
</g>
</g>
<!-- bin&#45;&gt;src/cli -->
<g id="edge2" class="edge">
<title>bin&#45;&gt;src/cli</title>
<path fill="none" stroke="#007700" stroke-width="2" stroke-opacity="0.466667" d="M54,-69.04C80.51,-69.04 117,-69.04 117,-69.04 117,-69.04 117,-117.3 117,-117.3"/>
<polygon fill="#007700" fill-opacity="0.466667" stroke="#007700" stroke-width="2" stroke-opacity="0.466667" points="114.9,-117.3 117,-123.3 119.1,-117.3 114.9,-117.3"/>
</g>
<!-- src/index.js -->
<g id="node4" class="node">
<title>src/index.js</title>
<g id="a_node4"><a xlink:href="https://github.com/sverweij/state-machine-cat/blob/develop/src/index.js" xlink:title="index.js">
<path fill="#ffffcc" stroke="black" d="M228,-141.38C228,-141.38 186,-141.38 186,-141.38 183,-141.38 180,-138.38 180,-135.38 180,-135.38 180,-129.38 180,-129.38 180,-126.38 183,-123.38 186,-123.38 186,-123.38 228,-123.38 228,-123.38 231,-123.38 234,-126.38 234,-129.38 234,-129.38 234,-135.38 234,-135.38 234,-138.38 231,-141.38 228,-141.38"/>
<text text-anchor="middle" x="207" y="-130.18" font-family="Helvetica,sans-Serif" font-size="9.00">index.js</text>
</a>
</g>
</g>
<!-- src/cli&#45;&gt;src/index.js -->
<g id="edge3" class="edge">
<title>src/cli&#45;&gt;src/index.js</title>
<path fill="none" stroke="#000000" stroke-width="2" stroke-opacity="0.200000" d="M144,-132.38C144,-132.38 173.71,-132.38 173.71,-132.38"/>
<polygon fill="#000000" fill-opacity="0.200000" stroke="#000000" stroke-width="2" stroke-opacity="0.200000" points="173.71,-134.48 179.71,-132.38 173.7,-130.28 173.71,-134.48"/>
</g>
<!-- src/options.js -->
<g id="node5" class="node">
<title>src/options.js</title>
<g id="a_node5"><a xlink:href="https://github.com/sverweij/state-machine-cat/blob/develop/src/options.js" xlink:title="options.js">
<path fill="#ffffcc" stroke="black" d="M723,-276.38C723,-276.38 679,-276.38 679,-276.38 676,-276.38 673,-273.38 673,-270.38 673,-270.38 673,-264.38 673,-264.38 673,-261.38 676,-258.38 679,-258.38 679,-258.38 723,-258.38 723,-258.38 726,-258.38 729,-261.38 729,-264.38 729,-264.38 729,-270.38 729,-270.38 729,-273.38 726,-276.38 723,-276.38"/>
<text text-anchor="middle" x="701" y="-265.18" font-family="Helvetica,sans-Serif" font-size="9.00">options.js</text>
</a>
</g>
</g>
<!-- src/cli&#45;&gt;src/options.js -->
<g id="edge4" class="edge">
<title>src/cli&#45;&gt;src/options.js</title>
<path fill="none" stroke="#000000" stroke-width="2" stroke-opacity="0.200000" d="M117,-141.54C117,-159.24 117,-196.38 117,-196.38 117,-196.38 692,-196.38 692,-196.38 692,-196.38 692,-252.09 692,-252.09"/>
<polygon fill="#000000" fill-opacity="0.200000" stroke="#000000" stroke-width="2" stroke-opacity="0.200000" points="689.9,-252.09 692,-258.09 694.1,-252.09 689.9,-252.09"/>
</g>
<!-- src/index.js&#45;&gt;package.json -->
<g id="edge5" class="edge">
<title>src/index.js&#45;&gt;package.json</title>
<path fill="none" stroke="#000000" stroke-width="2" stroke-opacity="0.200000" d="M234.27,-129.38C253.56,-129.38 276,-129.38 276,-129.38 276,-129.38 276,-30.02 276,-30.02"/>
<polygon fill="#000000" fill-opacity="0.200000" stroke="#000000" stroke-width="2" stroke-opacity="0.200000" points="278.1,-30.02 276,-24.02 273.9,-30.02 278.1,-30.02"/>
</g>
<!-- src/index.js&#45;&gt;src/options.js -->
<g id="edge6" class="edge">
<title>src/index.js&#45;&gt;src/options.js</title>
<path fill="none" stroke="#000000" stroke-width="2" stroke-opacity="0.200000" d="M216,-141.49C216,-158.27 216,-192.38 216,-192.38 216,-192.38 711,-192.38 711,-192.38 711,-192.38 711,-252.18 711,-252.18"/>
<polygon fill="#000000" fill-opacity="0.200000" stroke="#000000" stroke-width="2" stroke-opacity="0.200000" points="708.9,-252.18 711,-258.18 713.1,-252.18 708.9,-252.18"/>
</g>
<!-- src/parse/index.js -->
<g id="node6" class="node">
<title>src/parse/index.js</title>
<g id="a_node6"><a xlink:href="https://github.com/sverweij/state-machine-cat/blob/develop/src/parse/index.js" xlink:title="index.js">
<path fill="#ffccff" stroke="black" d="M326.5,-141.38C326.5,-141.38 284.5,-141.38 284.5,-141.38 281.5,-141.38 278.5,-138.38 278.5,-135.38 278.5,-135.38 278.5,-129.38 278.5,-129.38 278.5,-126.38 281.5,-123.38 284.5,-123.38 284.5,-123.38 326.5,-123.38 326.5,-123.38 329.5,-123.38 332.5,-126.38 332.5,-129.38 332.5,-129.38 332.5,-135.38 332.5,-135.38 332.5,-138.38 329.5,-141.38 326.5,-141.38"/>
<text text-anchor="middle" x="305.5" y="-130.18" font-family="Helvetica,sans-Serif" font-size="9.00">index.js</text>
</a>
</g>
</g>
<!-- src/index.js&#45;&gt;src/parse/index.js -->
<g id="edge7" class="edge">
<title>src/index.js&#45;&gt;src/parse/index.js</title>
<path fill="none" stroke="#ff00ff" stroke-width="2" stroke-opacity="0.466667" d="M234.18,-135.38C234.18,-135.38 272.41,-135.38 272.41,-135.38"/>
<polygon fill="#ff00ff" fill-opacity="0.466667" stroke="#ff00ff" stroke-width="2" stroke-opacity="0.466667" points="272.41,-137.48 278.41,-135.38 272.41,-133.28 272.41,-137.48"/>
</g>
<!-- src/render/index.js -->
<g id="node7" class="node">
<title>src/render/index.js</title>
<g id="a_node7"><a xlink:href="https://github.com/sverweij/state-machine-cat/blob/develop/src/render/index.js" xlink:title="index.js">
<path fill="#ccccff" stroke="black" d="M326.5,-243.38C326.5,-243.38 284.5,-243.38 284.5,-243.38 281.5,-243.38 278.5,-240.38 278.5,-237.38 278.5,-237.38 278.5,-231.38 278.5,-231.38 278.5,-228.38 281.5,-225.38 284.5,-225.38 284.5,-225.38 326.5,-225.38 326.5,-225.38 329.5,-225.38 332.5,-228.38 332.5,-231.38 332.5,-231.38 332.5,-237.38 332.5,-237.38 332.5,-240.38 329.5,-243.38 326.5,-243.38"/>
<text text-anchor="middle" x="305.5" y="-232.18" font-family="Helvetica,sans-Serif" font-size="9.00">index.js</text>
</a>
</g>
</g>
<!-- src/index.js&#45;&gt;src/render/index.js -->
<g id="edge8" class="edge">
<title>src/index.js&#45;&gt;src/render/index.js</title>
<path fill="none" stroke="#0000ff" stroke-width="2" stroke-opacity="0.466667" d="M198,-141.43C198,-166.39 198,-234.38 198,-234.38 198,-234.38 272.37,-234.38 272.37,-234.38"/>
<polygon fill="#0000ff" fill-opacity="0.466667" stroke="#0000ff" stroke-width="2" stroke-opacity="0.466667" points="272.37,-236.48 278.37,-234.38 272.37,-232.28 272.37,-236.48"/>
</g>
<!-- src/transform -->
<g id="node8" class="node">
<title>src/transform</title>
<g id="a_node8"><a xlink:href="https://github.com/sverweij/state-machine-cat/blob/develop/src/transform" xlink:title="transform">
<polygon fill="#ffffcc" stroke="black" points="593.5,-58.38 540.5,-58.38 538.5,-56.38 538.5,-40.38 591.5,-40.38 593.5,-42.38 593.5,-58.38"/>
<polyline fill="none" stroke="black" points="591.5,-56.38 538.5,-56.38 "/>
<polyline fill="none" stroke="black" points="591.5,-56.38 591.5,-40.38 "/>
<polyline fill="none" stroke="black" points="591.5,-56.38 593.5,-58.38 "/>
<text text-anchor="middle" x="566" y="-47.17" font-family="Helvetica,sans-Serif" font-size="9.00">transform</text>
</a>
</g>
</g>
<!-- src/index.js&#45;&gt;src/transform -->
<g id="edge9" class="edge">
<title>src/index.js&#45;&gt;src/transform</title>
<path fill="none" stroke="#000000" stroke-width="2" stroke-opacity="0.200000" d="M207,-123.06C207,-101.19 207,-48.38 207,-48.38 207,-48.38 532.43,-48.38 532.43,-48.38"/>
<polygon fill="#000000" fill-opacity="0.200000" stroke="#000000" stroke-width="2" stroke-opacity="0.200000" points="532.43,-50.48 538.43,-48.38 532.43,-46.28 532.43,-50.48"/>
</g>
<!-- src/parse/index.js&#45;&gt;src/options.js -->
<g id="edge10" class="edge">
<title>src/parse/index.js&#45;&gt;src/options.js</title>
<path fill="none" stroke="#000000" stroke-width="2" stroke-opacity="0.200000" d="M332.63,-134.56C410.14,-134.56 627,-134.56 627,-134.56 627,-134.56 627,-262.88 627,-262.88 627,-262.88 666.6,-262.88 666.6,-262.88"/>
<polygon fill="#000000" fill-opacity="0.200000" stroke="#000000" stroke-width="2" stroke-opacity="0.200000" points="666.6,-264.98 672.6,-262.88 666.6,-260.78 666.6,-264.98"/>
</g>
<!-- src/parse/scxml -->
<g id="node9" class="node">
<title>src/parse/scxml</title>
<g id="a_node9"><a xlink:href="https://github.com/sverweij/state-machine-cat/blob/develop/src/parse/scxml" xlink:title="scxml">
<polygon fill="#ffccff" stroke="black" points="459,-92.38 407,-92.38 405,-90.38 405,-74.38 457,-74.38 459,-76.38 459,-92.38"/>
<polyline fill="none" stroke="black" points="457,-90.38 405,-90.38 "/>
<polyline fill="none" stroke="black" points="457,-90.38 457,-74.38 "/>
<polyline fill="none" stroke="black" points="457,-90.38 459,-92.38 "/>
<text text-anchor="middle" x="432" y="-81.17" font-family="Helvetica,sans-Serif" font-size="9.00">scxml</text>
</a>
</g>
</g>
<!-- src/parse/index.js&#45;&gt;src/parse/scxml -->
<g id="edge11" class="edge">
<title>src/parse/index.js&#45;&gt;src/parse/scxml</title>
<path fill="none" stroke="#ff00ff" stroke-width="2" stroke-opacity="0.466667" d="M306,-122.93C306,-108.69 306,-83.38 306,-83.38 306,-83.38 398.97,-83.38 398.97,-83.38"/>
<polygon fill="#ff00ff" fill-opacity="0.466667" stroke="#ff00ff" stroke-width="2" stroke-opacity="0.466667" points="398.97,-85.48 404.97,-83.38 398.97,-81.28 398.97,-85.48"/>
</g>
<!-- src/parse/smcat&#45;ast.schema.json -->
<g id="node10" class="node">
<title>src/parse/smcat&#45;ast.schema.json</title>
<g id="a_node10"><a xlink:href="https://github.com/sverweij/state-machine-cat/blob/develop/src/parse/smcat-ast.schema.json" xlink:title="smcat&#45;ast.schema.json">
<path fill="#ffccff" stroke="black" d="M487,-126.4C487,-127.63 462.35,-128.63 432,-128.63 401.65,-128.63 377,-127.63 377,-126.4 377,-126.4 377,-106.35 377,-106.35 377,-105.12 401.65,-104.12 432,-104.12 462.35,-104.12 487,-105.12 487,-106.35 487,-106.35 487,-126.4 487,-126.4"/>
<path fill="none" stroke="black" d="M487,-126.4C487,-125.17 462.35,-124.17 432,-124.17 401.65,-124.17 377,-125.17 377,-126.4"/>
<text text-anchor="middle" x="432" y="-114.17" font-family="Helvetica,sans-Serif" font-size="9.00">smcat&#45;ast.schema.json</text>
</a>
</g>
</g>
<!-- src/parse/index.js&#45;&gt;src/parse/smcat&#45;ast.schema.json -->
<g id="edge12" class="edge">
<title>src/parse/index.js&#45;&gt;src/parse/smcat&#45;ast.schema.json</title>
<path fill="none" stroke="#ff00ff" stroke-width="2" stroke-opacity="0.466667" d="M332.55,-131.66C357.6,-131.66 391,-131.66 391,-131.66 391,-131.66 391,-131.33 391,-131.33"/>
<polygon fill="#ff00ff" fill-opacity="0.466667" stroke="#ff00ff" stroke-width="2" stroke-opacity="0.466667" points="393.1,-134.42 391,-128.42 388.9,-134.42 393.1,-134.42"/>
</g>
<!-- src/parse/smcat -->
<g id="node11" class="node">
<title>src/parse/smcat</title>
<g id="a_node11"><a xlink:href="https://github.com/sverweij/state-machine-cat/blob/develop/src/parse/smcat" xlink:title="smcat">
<polygon fill="#ffccff" stroke="black" points="459,-158.38 407,-158.38 405,-156.38 405,-140.38 457,-140.38 459,-142.38 459,-158.38"/>
<polyline fill="none" stroke="black" points="457,-156.38 405,-156.38 "/>
<polyline fill="none" stroke="black" points="457,-156.38 457,-140.38 "/>
<polyline fill="none" stroke="black" points="457,-156.38 459,-158.38 "/>
<text text-anchor="middle" x="432" y="-147.18" font-family="Helvetica,sans-Serif" font-size="9.00">smcat</text>
</a>
</g>
</g>
<!-- src/parse/index.js&#45;&gt;src/parse/smcat -->
<g id="edge13" class="edge">
<title>src/parse/index.js&#45;&gt;src/parse/smcat</title>
<path fill="none" stroke="#ff00ff" stroke-width="2" stroke-opacity="0.466667" d="M332.64,-137.47C369.81,-137.47 432,-137.47 432,-137.47 432,-137.47 432,-137.74 432,-137.74"/>
<polygon fill="#ff00ff" fill-opacity="0.466667" stroke="#ff00ff" stroke-width="2" stroke-opacity="0.466667" points="429.9,-134.23 432,-140.23 434.1,-134.23 429.9,-134.23"/>
</g>
<!-- src/render/dot -->
<g id="node14" class="node">
<title>src/render/dot</title>
<g id="a_node14"><a xlink:href="https://github.com/sverweij/state-machine-cat/blob/develop/src/render/dot" xlink:title="dot">
<polygon fill="#ccccff" stroke="black" points="593,-254.38 541,-254.38 539,-252.38 539,-236.38 591,-236.38 593,-238.38 593,-254.38"/>
<polyline fill="none" stroke="black" points="591,-252.38 539,-252.38 "/>
<polyline fill="none" stroke="black" points="591,-252.38 591,-236.38 "/>
<polyline fill="none" stroke="black" points="591,-252.38 593,-254.38 "/>
<text text-anchor="middle" x="566" y="-243.18" font-family="Helvetica,sans-Serif" font-size="9.00">dot</text>
</a>
</g>
</g>
<!-- src/render/index.js&#45;&gt;src/render/dot -->
<g id="edge20" class="edge">
<title>src/render/index.js&#45;&gt;src/render/dot</title>
<path fill="none" stroke="#0000ff" stroke-width="2" stroke-opacity="0.466667" d="M332.89,-238.71C332.89,-238.71 532.98,-238.71 532.98,-238.71"/>
<polygon fill="#0000ff" fill-opacity="0.466667" stroke="#0000ff" stroke-width="2" stroke-opacity="0.466667" points="532.98,-240.81 538.98,-238.71 532.98,-236.61 532.98,-240.81"/>
</g>
<!-- src/render/scjson -->
<g id="node15" class="node">
<title>src/render/scjson</title>
<g id="a_node15"><a xlink:href="https://github.com/sverweij/state-machine-cat/blob/develop/src/render/scjson" xlink:title="scjson">
<polygon fill="#ccccff" stroke="black" points="593,-218.38 541,-218.38 539,-216.38 539,-200.38 591,-200.38 593,-202.38 593,-218.38"/>
<polyline fill="none" stroke="black" points="591,-216.38 539,-216.38 "/>
<polyline fill="none" stroke="black" points="591,-216.38 591,-200.38 "/>
<polyline fill="none" stroke="black" points="591,-216.38 593,-218.38 "/>
<text text-anchor="middle" x="566" y="-207.18" font-family="Helvetica,sans-Serif" font-size="9.00">scjson</text>
</a>
</g>
</g>
<!-- src/render/index.js&#45;&gt;src/render/scjson -->
<g id="edge21" class="edge">
<title>src/render/index.js&#45;&gt;src/render/scjson</title>
<path fill="none" stroke="#0000ff" stroke-width="2" stroke-opacity="0.466667" d="M306,-225.23C306,-217.4 306,-207.38 306,-207.38 306,-207.38 532.67,-207.38 532.67,-207.38"/>
<polygon fill="#0000ff" fill-opacity="0.466667" stroke="#0000ff" stroke-width="2" stroke-opacity="0.466667" points="532.67,-209.48 538.67,-207.38 532.67,-205.28 532.67,-209.48"/>
</g>
<!-- src/render/scxml -->
<g id="node16" class="node">
<title>src/render/scxml</title>
<g id="a_node16"><a xlink:href="https://github.com/sverweij/state-machine-cat/blob/develop/src/render/scxml" xlink:title="scxml">
<polygon fill="#ccccff" stroke="black" points="459,-232.38 407,-232.38 405,-230.38 405,-214.38 457,-214.38 459,-216.38 459,-232.38"/>
<polyline fill="none" stroke="black" points="457,-230.38 405,-230.38 "/>
<polyline fill="none" stroke="black" points="457,-230.38 457,-214.38 "/>
<polyline fill="none" stroke="black" points="457,-230.38 459,-232.38 "/>
<text text-anchor="middle" x="432" y="-221.18" font-family="Helvetica,sans-Serif" font-size="9.00">scxml</text>
</a>
</g>
</g>
<!-- src/render/index.js&#45;&gt;src/render/scxml -->
<g id="edge22" class="edge">
<title>src/render/index.js&#45;&gt;src/render/scxml</title>
<path fill="none" stroke="#0000ff" stroke-width="2" stroke-opacity="0.466667" d="M332.64,-228.88C332.64,-228.88 398.91,-228.88 398.91,-228.88"/>
<polygon fill="#0000ff" fill-opacity="0.466667" stroke="#0000ff" stroke-width="2" stroke-opacity="0.466667" points="398.91,-230.98 404.91,-228.88 398.91,-226.78 398.91,-230.98"/>
</g>
<!-- src/render/smcat -->
<g id="node17" class="node">
<title>src/render/smcat</title>
<g id="a_node17"><a xlink:href="https://github.com/sverweij/state-machine-cat/blob/develop/src/render/smcat" xlink:title="smcat">
<polygon fill="#ccccff" stroke="black" points="459,-306.38 407,-306.38 405,-304.38 405,-288.38 457,-288.38 459,-290.38 459,-306.38"/>
<polyline fill="none" stroke="black" points="457,-304.38 405,-304.38 "/>
<polyline fill="none" stroke="black" points="457,-304.38 457,-288.38 "/>
<polyline fill="none" stroke="black" points="457,-304.38 459,-306.38 "/>
<text text-anchor="middle" x="432" y="-295.18" font-family="Helvetica,sans-Serif" font-size="9.00">smcat</text>
</a>
</g>
</g>
<!-- src/render/index.js&#45;&gt;src/render/smcat -->
<g id="edge23" class="edge">
<title>src/render/index.js&#45;&gt;src/render/smcat</title>
<path fill="none" stroke="#0000ff" stroke-width="2" stroke-opacity="0.466667" d="M306,-243.4C306,-260.82 306,-297.38 306,-297.38 306,-297.38 398.97,-297.38 398.97,-297.38"/>
<polygon fill="#0000ff" fill-opacity="0.466667" stroke="#0000ff" stroke-width="2" stroke-opacity="0.466667" points="398.97,-299.48 404.97,-297.38 398.97,-295.28 398.97,-299.48"/>
</g>
<!-- src/render/svg.js -->
<g id="node18" class="node">
<title>src/render/svg.js</title>
<g id="a_node18"><a xlink:href="https://github.com/sverweij/state-machine-cat/blob/develop/src/render/svg.js" xlink:title="svg.js">
<path fill="#ccccff" stroke="black" d="M453,-276.38C453,-276.38 411,-276.38 411,-276.38 408,-276.38 405,-273.38 405,-270.38 405,-270.38 405,-264.38 405,-264.38 405,-261.38 408,-258.38 411,-258.38 411,-258.38 453,-258.38 453,-258.38 456,-258.38 459,-261.38 459,-264.38 459,-264.38 459,-270.38 459,-270.38 459,-273.38 456,-276.38 453,-276.38"/>
<text text-anchor="middle" x="432" y="-265.18" font-family="Helvetica,sans-Serif" font-size="9.00">svg.js</text>
</a>
</g>
</g>
<!-- src/render/index.js&#45;&gt;src/render/svg.js -->
<g id="edge24" class="edge">
<title>src/render/index.js&#45;&gt;src/render/svg.js</title>
<path fill="none" stroke="#0000ff" stroke-width="2" stroke-opacity="0.466667" d="M332.75,-241.04C367.46,-241.04 423,-241.04 423,-241.04 423,-241.04 423,-252.16 423,-252.16"/>
<polygon fill="#0000ff" fill-opacity="0.466667" stroke="#0000ff" stroke-width="2" stroke-opacity="0.466667" points="420.9,-252.16 423,-258.16 425.1,-252.16 420.9,-252.16"/>
</g>
<!-- src/state&#45;machine&#45;model.js -->
<g id="node13" class="node">
<title>src/state&#45;machine&#45;model.js</title>
<g id="a_node13"><a xlink:href="https://github.com/sverweij/state-machine-cat/blob/develop/src/state-machine-model.js" xlink:title="state&#45;machine&#45;model.js">
<path fill="#ffffcc" stroke="black" d="M751,-188.38C751,-188.38 651,-188.38 651,-188.38 648,-188.38 645,-185.38 645,-182.38 645,-182.38 645,-176.38 645,-176.38 645,-173.38 648,-170.38 651,-170.38 651,-170.38 751,-170.38 751,-170.38 754,-170.38 757,-173.38 757,-176.38 757,-176.38 757,-182.38 757,-182.38 757,-185.38 754,-188.38 751,-188.38"/>
<text text-anchor="middle" x="701" y="-177.18" font-family="Helvetica,sans-Serif" font-size="9.00">state&#45;machine&#45;model.js</text>
</a>
</g>
</g>
<!-- src/transform&#45;&gt;src/state&#45;machine&#45;model.js -->
<g id="edge29" class="edge">
<title>src/transform&#45;&gt;src/state&#45;machine&#45;model.js</title>
<path fill="none" stroke="#000000" stroke-width="2" stroke-opacity="0.200000" d="M593.65,-49.38C633.14,-49.38 701,-49.38 701,-49.38 701,-49.38 701,-164.03 701,-164.03"/>
<polygon fill="#000000" fill-opacity="0.200000" stroke="#000000" stroke-width="2" stroke-opacity="0.200000" points="698.9,-164.03 701,-170.03 703.1,-164.03 698.9,-164.03"/>
</g>
<!-- src/parse/scxml&#45;&gt;src/transform -->
<g id="edge15" class="edge">
<title>src/parse/scxml&#45;&gt;src/transform</title>
<path fill="none" stroke="#000000" stroke-width="2" stroke-opacity="0.200000" d="M459.12,-80.38C498.27,-80.38 566,-80.38 566,-80.38 566,-80.38 566,-64.51 566,-64.51"/>
<polygon fill="#000000" fill-opacity="0.200000" stroke="#000000" stroke-width="2" stroke-opacity="0.200000" points="568.1,-64.51 566,-58.51 563.9,-64.51 568.1,-64.51"/>
</g>
<!-- src/parse/parser&#45;helpers.js -->
<g id="node12" class="node">
<title>src/parse/parser&#45;helpers.js</title>
<g id="a_node12"><a xlink:href="https://github.com/sverweij/state-machine-cat/blob/develop/src/parse/parser-helpers.js" xlink:title="parser&#45;helpers.js">
<path fill="#ffccff" stroke="black" d="M603,-158.38C603,-158.38 529,-158.38 529,-158.38 526,-158.38 523,-155.38 523,-152.38 523,-152.38 523,-146.38 523,-146.38 523,-143.38 526,-140.38 529,-140.38 529,-140.38 603,-140.38 603,-140.38 606,-140.38 609,-143.38 609,-146.38 609,-146.38 609,-152.38 609,-152.38 609,-155.38 606,-158.38 603,-158.38"/>
<text text-anchor="middle" x="566" y="-147.18" font-family="Helvetica,sans-Serif" font-size="9.00">parser&#45;helpers.js</text>
</a>
</g>
</g>
<!-- src/parse/scxml&#45;&gt;src/parse/parser&#45;helpers.js -->
<g id="edge16" class="edge">
<title>src/parse/scxml&#45;&gt;src/parse/parser&#45;helpers.js</title>
<path fill="none" stroke="#ff00ff" stroke-width="2" stroke-opacity="0.466667" d="M459.05,-86.38C488.36,-86.38 531,-86.38 531,-86.38 531,-86.38 531,-134.35 531,-134.35"/>
<polygon fill="#ff00ff" fill-opacity="0.466667" stroke="#ff00ff" stroke-width="2" stroke-opacity="0.466667" points="528.9,-134.35 531,-140.35 533.1,-134.35 528.9,-134.35"/>
</g>
<!-- src/parse/smcat&#45;&gt;src/parse/parser&#45;helpers.js -->
<g id="edge17" class="edge">
<title>src/parse/smcat&#45;&gt;src/parse/parser&#45;helpers.js</title>
<path fill="none" stroke="#ff00ff" stroke-width="2" stroke-opacity="0.466667" d="M459.12,-149.38C459.12,-149.38 516.83,-149.38 516.83,-149.38"/>
<polygon fill="#ff00ff" fill-opacity="0.466667" stroke="#ff00ff" stroke-width="2" stroke-opacity="0.466667" points="516.83,-151.48 522.83,-149.38 516.83,-147.28 516.83,-151.48"/>
</g>
<!-- src/parse/parser&#45;helpers.js&#45;&gt;src/state&#45;machine&#45;model.js -->
<g id="edge14" class="edge">
<title>src/parse/parser&#45;helpers.js&#45;&gt;src/state&#45;machine&#45;model.js</title>
<path fill="none" stroke="#000000" stroke-width="2" stroke-opacity="0.200000" d="M601,-158.54C601,-167.36 601,-179.38 601,-179.38 601,-179.38 638.86,-179.38 638.86,-179.38"/>
<polygon fill="#000000" fill-opacity="0.200000" stroke="#000000" stroke-width="2" stroke-opacity="0.200000" points="638.86,-181.48 644.86,-179.38 638.86,-177.28 638.86,-181.48"/>
</g>
<!-- src/render/dot&#45;&gt;src/options.js -->
<g id="edge18" class="edge">
<title>src/render/dot&#45;&gt;src/options.js</title>
<path fill="none" stroke="#000000" stroke-width="2" stroke-opacity="0.200000" d="M566,-254.58C566,-260.61 566,-267.38 566,-267.38 566,-267.38 666.7,-267.38 666.7,-267.38"/>
<polygon fill="#000000" fill-opacity="0.200000" stroke="#000000" stroke-width="2" stroke-opacity="0.200000" points="666.7,-269.48 672.7,-267.38 666.7,-265.28 666.7,-269.48"/>
</g>
<!-- src/render/dot&#45;&gt;src/state&#45;machine&#45;model.js -->
<g id="edge19" class="edge">
<title>src/render/dot&#45;&gt;src/state&#45;machine&#45;model.js</title>
<path fill="none" stroke="#000000" stroke-width="2" stroke-opacity="0.200000" d="M593.04,-245.38C622.05,-245.38 664,-245.38 664,-245.38 664,-245.38 664,-194.55 664,-194.55"/>
<polygon fill="#000000" fill-opacity="0.200000" stroke="#000000" stroke-width="2" stroke-opacity="0.200000" points="666.1,-194.55 664,-188.55 661.9,-194.55 666.1,-194.55"/>
</g>
<!-- src/render/scjson&#45;&gt;src/state&#45;machine&#45;model.js -->
<g id="edge25" class="edge">
<title>src/render/scjson&#45;&gt;src/state&#45;machine&#45;model.js</title>
<path fill="none" stroke="#000000" stroke-width="2" stroke-opacity="0.200000" d="M593.19,-209.38C619.36,-209.38 655,-209.38 655,-209.38 655,-209.38 655,-194.54 655,-194.54"/>
<polygon fill="#000000" fill-opacity="0.200000" stroke="#000000" stroke-width="2" stroke-opacity="0.200000" points="657.1,-194.54 655,-188.54 652.9,-194.54 657.1,-194.54"/>
</g>
<!-- src/render/scxml&#45;&gt;src/render/scjson -->
<g id="edge26" class="edge">
<title>src/render/scxml&#45;&gt;src/render/scjson</title>
<path fill="none" stroke="#0000ff" stroke-width="2" stroke-opacity="0.466667" d="M459.12,-225.38C498.27,-225.38 566,-225.38 566,-225.38 566,-225.38 566,-224.5 566,-224.5"/>
<polygon fill="#0000ff" fill-opacity="0.466667" stroke="#0000ff" stroke-width="2" stroke-opacity="0.466667" points="568.1,-224.5 566,-218.5 563.9,-224.5 568.1,-224.5"/>
</g>
<!-- src/render/svg.js&#45;&gt;src/options.js -->
<g id="edge27" class="edge">
<title>src/render/svg.js&#45;&gt;src/options.js</title>
<path fill="none" stroke="#000000" stroke-width="2" stroke-opacity="0.200000" d="M459.02,-271.88C459.02,-271.88 666.78,-271.88 666.78,-271.88"/>
<polygon fill="#000000" fill-opacity="0.200000" stroke="#000000" stroke-width="2" stroke-opacity="0.200000" points="666.78,-273.98 672.78,-271.88 666.78,-269.78 666.78,-273.98"/>
</g>
<!-- src/render/svg.js&#45;&gt;src/render/dot -->
<g id="edge28" class="edge">
<title>src/render/svg.js&#45;&gt;src/render/dot</title>
<path fill="none" stroke="#0000ff" stroke-width="2" stroke-opacity="0.466667" d="M441,-258.12C441,-253.5 441,-248.88 441,-248.88 441,-248.88 532.88,-248.88 532.88,-248.88"/>
<polygon fill="#0000ff" fill-opacity="0.466667" stroke="#0000ff" stroke-width="2" stroke-opacity="0.466667" points="532.88,-250.98 538.88,-248.88 532.88,-246.78 532.88,-250.98"/>
</g>
</g>
</svg>
