<?xml version="1.0" encoding="UTF-8" standalone="no"?>
<!DOCTYPE svg PUBLIC "-//W3C//DTD SVG 1.1//EN"
 "http://www.w3.org/Graphics/SVG/1.1/DTD/svg11.dtd">
<!-- Generated by graphviz version 7.0.4 (20221203.1631)
 -->
<!-- Title: dependency&#45;cruiser output Pages: 1 -->
<svg width="844pt" height="438pt"
 viewBox="0.00 0.00 844.00 438.00" xmlns="http://www.w3.org/2000/svg" xmlns:xlink="http://www.w3.org/1999/xlink">
<g id="graph0" class="graph" transform="scale(1 1) rotate(0) translate(4 434)">
<title>dependency&#45;cruiser output</title>
<polygon fill="white" stroke="none" points="-4,4 -4,-434 840,-434 840,4 -4,4"/>
<g id="clust1" class="cluster">
<title>cluster_src</title>
<path fill="#ffffff" stroke="black" stroke-width="2" d="M111,-8C111,-8 816,-8 816,-8 822,-8 828,-14 828,-20 828,-20 828,-410 828,-410 828,-416 822,-422 816,-422 816,-422 111,-422 111,-422 105,-422 99,-416 99,-410 99,-410 99,-20 99,-20 99,-14 105,-8 111,-8"/>
<text text-anchor="middle" x="463.5" y="-410.8" font-family="Helvetica,sans-Serif" font-weight="bold" font-size="9.00">src</text>
</g>
<g id="clust2" class="cluster">
<title>cluster_src/parse</title>
<path fill="#ffffff" stroke="black" stroke-width="2" d="M329,-84C329,-84 661,-84 661,-84 667,-84 673,-90 673,-96 673,-96 673,-184 673,-184 673,-190 667,-196 661,-196 661,-196 329,-196 329,-196 323,-196 317,-190 317,-184 317,-184 317,-96 317,-96 317,-90 323,-84 329,-84"/>
<text text-anchor="middle" x="495" y="-184.8" font-family="Helvetica,sans-Serif" font-weight="bold" font-size="9.00">parse</text>
</g>
<g id="clust3" class="cluster">
<title>cluster_src/render</title>
<path fill="#ffffff" stroke="black" stroke-width="2" d="M317,-204C317,-204 641.5,-204 641.5,-204 647.5,-204 653.5,-210 653.5,-216 653.5,-216 653.5,-360 653.5,-360 653.5,-366 647.5,-372 641.5,-372 641.5,-372 317,-372 317,-372 311,-372 305,-366 305,-360 305,-360 305,-216 305,-216 305,-210 311,-204 317,-204"/>
<text text-anchor="middle" x="479.25" y="-360.8" font-family="Helvetica,sans-Serif" font-weight="bold" font-size="9.00">render</text>
</g>
<!-- bin -->
<g id="node1" class="node">
<title>bin</title>
<g id="a_node1"><a xlink:href="https://github.com/sverweij/state-machine-cat/blob/develop/bin" xlink:title="bin">
<polygon fill="#ffffcc" stroke="black" points="62.5,-346 10.5,-346 8.5,-344 8.5,-328 60.5,-328 62.5,-330 62.5,-346"/>
<polyline fill="none" stroke="black" points="60.5,-344 8.5,-344"/>
<polyline fill="none" stroke="black" points="60.5,-344 60.5,-328"/>
<polyline fill="none" stroke="black" points="60.5,-344 62.5,-346"/>
<text text-anchor="middle" x="35.5" y="-334.8" font-family="Helvetica,sans-Serif" font-size="9.00">bin</text>
</a>
</g>
</g>
<!-- src/cli -->
<g id="node2" class="node">
<title>src/cli</title>
<g id="a_node2"><a xlink:href="https://github.com/sverweij/state-machine-cat/blob/develop/src/cli" xlink:title="cli">
<polygon fill="#ccffcc" stroke="black" points="161,-346 109,-346 107,-344 107,-328 159,-328 161,-330 161,-346"/>
<polyline fill="none" stroke="black" points="159,-344 107,-344"/>
<polyline fill="none" stroke="black" points="159,-344 159,-328"/>
<polyline fill="none" stroke="black" points="159,-344 161,-346"/>
<text text-anchor="start" x="129" y="-334.8" font-family="Helvetica,sans-Serif" font-size="9.00">cli</text>
</a>
</g>
</g>
<!-- bin&#45;&gt;src/cli -->
<g id="edge1" class="edge">
<title>bin&#45;&gt;src/cli</title>
<path fill="none" stroke="#007700" stroke-width="2" stroke-opacity="0.466667" d="M62.94,-337C62.94,-337 97.68,-337 97.68,-337"/>
<polygon fill="#007700" fill-opacity="0.466667" stroke="#007700" stroke-width="2" stroke-opacity="0.466667" points="97.68,-339.1 103.68,-337 97.68,-334.9 97.68,-339.1"/>
</g>
<!-- src/index&#45;node.mjs -->
<g id="node4" class="node">
<title>src/index&#45;node.mjs</title>
<g id="a_node4"><a xlink:href="https://github.com/sverweij/state-machine-cat/blob/develop/src/index-node.mjs" xlink:title="index&#45;node.mjs">
<path fill="#ffffcc" stroke="black" d="M271,-229C271,-229 203,-229 203,-229 200,-229 197,-226 197,-223 197,-223 197,-217 197,-217 197,-214 200,-211 203,-211 203,-211 271,-211 271,-211 274,-211 277,-214 277,-217 277,-217 277,-223 277,-223 277,-226 274,-229 271,-229"/>
<text text-anchor="start" x="205" y="-217.8" font-family="Helvetica,sans-Serif" font-size="9.00">index&#45;node.mjs</text>
</a>
</g>
</g>
<!-- src/cli&#45;&gt;src/index&#45;node.mjs -->
<g id="edge2" class="edge">
<title>src/cli&#45;&gt;src/index&#45;node.mjs</title>
<path fill="none" stroke="#000000" stroke-width="2" stroke-opacity="0.200000" d="M134,-327.82C134,-300.24 134,-220 134,-220 134,-220 187.56,-220 187.56,-220"/>
<polygon fill="#000000" fill-opacity="0.200000" stroke="#000000" stroke-width="2" stroke-opacity="0.200000" points="187.56,-222.1 193.56,-220 187.56,-217.9 187.56,-222.1"/>
</g>
<!-- src/render/vector -->
<g id="node5" class="node">
<title>src/render/vector</title>
<g id="a_node5"><a xlink:href="https://github.com/sverweij/state-machine-cat/blob/develop/src/render/vector" xlink:title="vector">
<polygon fill="#ccccff" stroke="black" points="509.5,-346 457.5,-346 455.5,-344 455.5,-328 507.5,-328 509.5,-330 509.5,-346"/>
<polyline fill="none" stroke="black" points="507.5,-344 455.5,-344"/>
<polyline fill="none" stroke="black" points="507.5,-344 507.5,-328"/>
<polyline fill="none" stroke="black" points="507.5,-344 509.5,-346"/>
<text text-anchor="start" x="470" y="-334.8" font-family="Helvetica,sans-Serif" font-size="9.00">vector</text>
</a>
</g>
</g>
<!-- src/cli&#45;&gt;src/render/vector -->
<g id="edge3" class="edge">
<title>src/cli&#45;&gt;src/render/vector</title>
<path fill="none" stroke="#0000ff" stroke-width="2" stroke-opacity="0.466667" d="M161.35,-340C161.35,-340 446.25,-340 446.25,-340"/>
<polygon fill="#0000ff" fill-opacity="0.466667" stroke="#0000ff" stroke-width="2" stroke-opacity="0.466667" points="446.25,-342.1 452.25,-340 446.25,-337.9 446.25,-342.1"/>
</g>
<!-- src/options.mjs -->
<g id="node6" class="node">
<title>src/options.mjs</title>
<g id="a_node6"><a xlink:href="https://github.com/sverweij/state-machine-cat/blob/develop/src/options.mjs" xlink:title="options.mjs">
<path fill="#ffffcc" stroke="black" d="M786,-335C786,-335 735,-335 735,-335 732,-335 729,-332 729,-329 729,-329 729,-323 729,-323 729,-320 732,-317 735,-317 735,-317 786,-317 786,-317 789,-317 792,-320 792,-323 792,-323 792,-329 792,-329 792,-332 789,-335 786,-335"/>
<text text-anchor="start" x="737" y="-323.8" font-family="Helvetica,sans-Serif" font-size="9.00">options.mjs</text>
</a>
</g>
</g>
<!-- src/cli&#45;&gt;src/options.mjs -->
<g id="edge4" class="edge">
<title>src/cli&#45;&gt;src/options.mjs</title>
<path fill="none" stroke="#000000" stroke-width="2" stroke-opacity="0.200000" d="M134,-346.46C134,-349.37 134,-351.81 134,-351.81 134,-351.81 761,-351.81 761,-351.81 761,-351.81 761,-344.35 761,-344.35"/>
<polygon fill="#000000" fill-opacity="0.200000" stroke="#000000" stroke-width="2" stroke-opacity="0.200000" points="763.1,-344.35 761,-338.35 758.9,-344.35 763.1,-344.35"/>
</g>
<!-- package.json -->
<g id="node3" class="node">
<title>package.json</title>
<g id="a_node3"><a xlink:href="https://github.com/sverweij/state-machine-cat/blob/develop/package.json" xlink:title="package.json">
<path fill="#ffee44" stroke="black" d="M71,-380.02C71,-381.25 55.09,-382.25 35.5,-382.25 15.91,-382.25 0,-381.25 0,-380.02 0,-380.02 0,-359.98 0,-359.98 0,-358.75 15.91,-357.75 35.5,-357.75 55.09,-357.75 71,-358.75 71,-359.98 71,-359.98 71,-380.02 71,-380.02"/>
<path fill="none" stroke="black" d="M71,-380.02C71,-378.79 55.09,-377.8 35.5,-377.8 15.91,-377.8 0,-378.79 0,-380.02"/>
<text text-anchor="middle" x="35.5" y="-367.8" font-family="Helvetica,sans-Serif" font-size="9.00">package.json</text>
</a>
</g>
</g>
<!-- src/index&#45;node.mjs&#45;&gt;src/options.mjs -->
<g id="edge5" class="edge">
<title>src/index&#45;node.mjs&#45;&gt;src/options.mjs</title>
<path fill="none" stroke="#000000" stroke-width="2" stroke-opacity="0.200000" d="M277.25,-216C399.95,-216 761,-216 761,-216 761,-216 761,-307.59 761,-307.59"/>
<polygon fill="#000000" fill-opacity="0.200000" stroke="#000000" stroke-width="2" stroke-opacity="0.200000" points="758.9,-307.59 761,-313.59 763.1,-307.59 758.9,-307.59"/>
</g>
<!-- src/parse/index.mjs -->
<g id="node7" class="node">
<title>src/parse/index.mjs</title>
<g id="a_node7"><a xlink:href="https://github.com/sverweij/state-machine-cat/blob/develop/src/parse/index.mjs" xlink:title="index.mjs">
<path fill="#ffccff" stroke="black" d="M375,-155C375,-155 331,-155 331,-155 328,-155 325,-152 325,-149 325,-149 325,-143 325,-143 325,-140 328,-137 331,-137 331,-137 375,-137 375,-137 378,-137 381,-140 381,-143 381,-143 381,-149 381,-149 381,-152 378,-155 375,-155"/>
<text text-anchor="start" x="333" y="-143.8" font-family="Helvetica,sans-Serif" font-size="9.00">index.mjs</text>
</a>
</g>
</g>
<!-- src/index&#45;node.mjs&#45;&gt;src/parse/index.mjs -->
<g id="edge6" class="edge">
<title>src/index&#45;node.mjs&#45;&gt;src/parse/index.mjs</title>
<path fill="none" stroke="#ff00ff" stroke-width="2" stroke-opacity="0.466667" d="M274,-210.72C274,-191.47 274,-149 274,-149 274,-149 315.9,-149 315.9,-149"/>
<polygon fill="#ff00ff" fill-opacity="0.466667" stroke="#ff00ff" stroke-width="2" stroke-opacity="0.466667" points="315.9,-151.1 321.9,-149 315.9,-146.9 315.9,-151.1"/>
</g>
<!-- src/render/index&#45;node.mjs -->
<g id="node8" class="node">
<title>src/render/index&#45;node.mjs</title>
<g id="a_node8"><a xlink:href="https://github.com/sverweij/state-machine-cat/blob/develop/src/render/index-node.mjs" xlink:title="index&#45;node.mjs">
<path fill="#ccccff" stroke="black" d="M387,-299C387,-299 319,-299 319,-299 316,-299 313,-296 313,-293 313,-293 313,-287 313,-287 313,-284 316,-281 319,-281 319,-281 387,-281 387,-281 390,-281 393,-284 393,-287 393,-287 393,-293 393,-293 393,-296 390,-299 387,-299"/>
<text text-anchor="start" x="321" y="-287.8" font-family="Helvetica,sans-Serif" font-size="9.00">index&#45;node.mjs</text>
</a>
</g>
</g>
<!-- src/index&#45;node.mjs&#45;&gt;src/render/index&#45;node.mjs -->
<g id="edge7" class="edge">
<title>src/index&#45;node.mjs&#45;&gt;src/render/index&#45;node.mjs</title>
<path fill="none" stroke="#0000ff" stroke-width="2" stroke-opacity="0.466667" d="M277.5,-221C297.75,-221 318,-221 318,-221 318,-221 318,-271.67 318,-271.67"/>
<polygon fill="#0000ff" fill-opacity="0.466667" stroke="#0000ff" stroke-width="2" stroke-opacity="0.466667" points="315.9,-271.67 318,-277.67 320.1,-271.67 315.9,-271.67"/>
</g>
<!-- src/transform -->
<g id="node9" class="node">
<title>src/transform</title>
<g id="a_node9"><a xlink:href="https://github.com/sverweij/state-machine-cat/blob/develop/src/transform" xlink:title="transform">
<polygon fill="#ffffcc" stroke="black" points="646,-76 593,-76 591,-74 591,-58 644,-58 646,-60 646,-76"/>
<polyline fill="none" stroke="black" points="644,-74 591,-74"/>
<polyline fill="none" stroke="black" points="644,-74 644,-58"/>
<polyline fill="none" stroke="black" points="644,-74 646,-76"/>
<text text-anchor="start" x="599" y="-64.8" font-family="Helvetica,sans-Serif" font-size="9.00">transform</text>
</a>
</g>
</g>
<!-- src/index&#45;node.mjs&#45;&gt;src/transform -->
<g id="edge8" class="edge">
<title>src/index&#45;node.mjs&#45;&gt;src/transform</title>
<path fill="none" stroke="#000000" stroke-width="2" stroke-opacity="0.200000" d="M271,-210.55C271,-177.5 271,-69 271,-69 271,-69 581.62,-69 581.62,-69"/>
<polygon fill="#000000" fill-opacity="0.200000" stroke="#000000" stroke-width="2" stroke-opacity="0.200000" points="581.62,-71.1 587.62,-69 581.62,-66.9 581.62,-71.1"/>
</g>
<!-- src/version.mjs -->
<g id="node10" class="node">
<title>src/version.mjs</title>
<g id="a_node10"><a xlink:href="https://github.com/sverweij/state-machine-cat/blob/develop/src/version.mjs" xlink:title="version.mjs">
<polygon fill="#ffffcc" stroke="gray" points="384.5,-62 321.5,-62 321.5,-44 384.5,-44 384.5,-62"/>
<text text-anchor="start" x="329.5" y="-50.8" font-family="Helvetica,sans-Serif" font-size="9.00">version.mjs</text>
</a>
</g>
</g>
<!-- src/index&#45;node.mjs&#45;&gt;src/version.mjs -->
<g id="edge9" class="edge">
<title>src/index&#45;node.mjs&#45;&gt;src/version.mjs</title>
<path fill="none" stroke="#000000" stroke-width="2" stroke-opacity="0.200000" d="M268,-210.8C268,-176.42 268,-57.5 268,-57.5 268,-57.5 312.32,-57.5 312.32,-57.5"/>
<polygon fill="#000000" fill-opacity="0.200000" stroke="#000000" stroke-width="2" stroke-opacity="0.200000" points="312.32,-59.6 318.32,-57.5 312.32,-55.4 312.32,-59.6"/>
</g>
<!-- src/render/vector&#45;&gt;src/options.mjs -->
<g id="edge37" class="edge">
<title>src/render/vector&#45;&gt;src/options.mjs</title>
<path fill="none" stroke="#000000" stroke-width="2" stroke-opacity="0.200000" d="M509.92,-332.67C509.92,-332.67 719.61,-332.67 719.61,-332.67"/>
<polygon fill="#000000" fill-opacity="0.200000" stroke="#000000" stroke-width="2" stroke-opacity="0.200000" points="719.61,-334.77 725.61,-332.67 719.6,-330.57 719.61,-334.77"/>
</g>
<!-- src/render/dot -->
<g id="node18" class="node">
<title>src/render/dot</title>
<g id="a_node18"><a xlink:href="https://github.com/sverweij/state-machine-cat/blob/develop/src/render/dot" xlink:title="dot">
<polygon fill="#ccccff" stroke="black" points="645.5,-324 593.5,-324 591.5,-322 591.5,-306 643.5,-306 645.5,-308 645.5,-324"/>
<polyline fill="none" stroke="black" points="643.5,-322 591.5,-322"/>
<polyline fill="none" stroke="black" points="643.5,-322 643.5,-306"/>
<polyline fill="none" stroke="black" points="643.5,-322 645.5,-324"/>
<text text-anchor="start" x="612" y="-312.8" font-family="Helvetica,sans-Serif" font-size="9.00">dot</text>
</a>
</g>
</g>
<!-- src/render/vector&#45;&gt;src/render/dot -->
<g id="edge38" class="edge">
<title>src/render/vector&#45;&gt;src/render/dot</title>
<path fill="none" stroke="#0000ff" stroke-width="2" stroke-opacity="0.466667" d="M509.79,-330.33C549.63,-330.33 619,-330.33 619,-330.33 619,-330.33 619,-329.74 619,-329.74"/>
<polygon fill="#0000ff" fill-opacity="0.466667" stroke="#0000ff" stroke-width="2" stroke-opacity="0.466667" points="621.1,-333.48 619,-327.48 616.9,-333.48 621.1,-333.48"/>
</g>
<!-- src/parse/index.mjs&#45;&gt;src/options.mjs -->
<g id="edge15" class="edge">
<title>src/parse/index.mjs&#45;&gt;src/options.mjs</title>
<path fill="none" stroke="#000000" stroke-width="2" stroke-opacity="0.200000" d="M381.36,-146C462.36,-146 689,-146 689,-146 689,-146 689,-318.75 689,-318.75 689,-318.75 719.49,-318.75 719.49,-318.75"/>
<polygon fill="#000000" fill-opacity="0.200000" stroke="#000000" stroke-width="2" stroke-opacity="0.200000" points="719.49,-320.85 725.49,-318.75 719.49,-316.65 719.49,-320.85"/>
</g>
<!-- src/parse/scxml -->
<g id="node13" class="node">
<title>src/parse/scxml</title>
<g id="a_node13"><a xlink:href="https://github.com/sverweij/state-machine-cat/blob/develop/src/parse/scxml" xlink:title="scxml">
<polygon fill="#ffccff" stroke="black" points="509.5,-110 457.5,-110 455.5,-108 455.5,-92 507.5,-92 509.5,-94 509.5,-110"/>
<polyline fill="none" stroke="black" points="507.5,-108 455.5,-108"/>
<polyline fill="none" stroke="black" points="507.5,-108 507.5,-92"/>
<polyline fill="none" stroke="black" points="507.5,-108 509.5,-110"/>
<text text-anchor="start" x="470.5" y="-98.8" font-family="Helvetica,sans-Serif" font-size="9.00">scxml</text>
</a>
</g>
</g>
<!-- src/parse/index.mjs&#45;&gt;src/parse/scxml -->
<g id="edge16" class="edge">
<title>src/parse/index.mjs&#45;&gt;src/parse/scxml</title>
<path fill="none" stroke="#ff00ff" stroke-width="2" stroke-opacity="0.466667" d="M353,-136.89C353,-123.74 353,-101 353,-101 353,-101 446.01,-101 446.01,-101"/>
<polygon fill="#ff00ff" fill-opacity="0.466667" stroke="#ff00ff" stroke-width="2" stroke-opacity="0.466667" points="446.01,-103.1 452.01,-101 446.01,-98.9 446.01,-103.1"/>
</g>
<!-- src/parse/smcat&#45;ast.schema.mjs -->
<g id="node14" class="node">
<title>src/parse/smcat&#45;ast.schema.mjs</title>
<g id="a_node14"><a xlink:href="https://github.com/sverweij/state-machine-cat/blob/develop/src/parse/smcat-ast.schema.mjs" xlink:title="smcat&#45;ast.schema.mjs">
<polygon fill="#ffccff" stroke="gray" points="536,-140 429,-140 429,-122 536,-122 536,-140"/>
<text text-anchor="start" x="437" y="-128.8" font-family="Helvetica,sans-Serif" font-size="9.00">smcat&#45;ast.schema.mjs</text>
</a>
</g>
</g>
<!-- src/parse/index.mjs&#45;&gt;src/parse/smcat&#45;ast.schema.mjs -->
<g id="edge17" class="edge">
<title>src/parse/index.mjs&#45;&gt;src/parse/smcat&#45;ast.schema.mjs</title>
<path fill="none" stroke="#ff00ff" stroke-width="2" stroke-opacity="0.466667" d="M381.48,-143C407.84,-143 443,-143 443,-143 443,-143 443,-142.72 443,-142.72"/>
<polygon fill="#ff00ff" fill-opacity="0.466667" stroke="#ff00ff" stroke-width="2" stroke-opacity="0.466667" points="445.1,-149.24 443,-143.24 440.9,-149.24 445.1,-149.24"/>
</g>
<!-- src/parse/smcat -->
<g id="node15" class="node">
<title>src/parse/smcat</title>
<g id="a_node15"><a xlink:href="https://github.com/sverweij/state-machine-cat/blob/develop/src/parse/smcat" xlink:title="smcat">
<polygon fill="#ffccff" stroke="black" points="509.5,-170 457.5,-170 455.5,-168 455.5,-152 507.5,-152 509.5,-154 509.5,-170"/>
<polyline fill="none" stroke="black" points="507.5,-168 455.5,-168"/>
<polyline fill="none" stroke="black" points="507.5,-168 507.5,-152"/>
<polyline fill="none" stroke="black" points="507.5,-168 509.5,-170"/>
<text text-anchor="start" x="470" y="-158.8" font-family="Helvetica,sans-Serif" font-size="9.00">smcat</text>
</a>
</g>
</g>
<!-- src/parse/index.mjs&#45;&gt;src/parse/smcat -->
<g id="edge18" class="edge">
<title>src/parse/index.mjs&#45;&gt;src/parse/smcat</title>
<path fill="none" stroke="#ff00ff" stroke-width="2" stroke-opacity="0.466667" d="M381.21,-149C419.44,-149 483,-149 483,-149 483,-149 483,-149.28 483,-149.28"/>
<polygon fill="#ff00ff" fill-opacity="0.466667" stroke="#ff00ff" stroke-width="2" stroke-opacity="0.466667" points="480.9,-142.76 483,-148.76 485.1,-142.76 480.9,-142.76"/>
</g>
<!-- src/render/index&#45;node.mjs&#45;&gt;src/render/vector -->
<g id="edge29" class="edge">
<title>src/render/index&#45;node.mjs&#45;&gt;src/render/vector</title>
<path fill="none" stroke="#0000ff" stroke-width="2" stroke-opacity="0.466667" d="M393.42,-295.33C431.58,-295.33 483,-295.33 483,-295.33 483,-295.33 483,-318.73 483,-318.73"/>
<polygon fill="#0000ff" fill-opacity="0.466667" stroke="#0000ff" stroke-width="2" stroke-opacity="0.466667" points="480.9,-318.73 483,-324.73 485.1,-318.73 480.9,-318.73"/>
</g>
<!-- src/render/index&#45;node.mjs&#45;&gt;src/render/dot -->
<g id="edge25" class="edge">
<title>src/render/index&#45;node.mjs&#45;&gt;src/render/dot</title>
<path fill="none" stroke="#0000ff" stroke-width="2" stroke-opacity="0.466667" d="M393.4,-291.67C467.81,-291.67 619,-291.67 619,-291.67 619,-291.67 619,-296.48 619,-296.48"/>
<polygon fill="#0000ff" fill-opacity="0.466667" stroke="#0000ff" stroke-width="2" stroke-opacity="0.466667" points="616.9,-296.48 619,-302.48 621.1,-296.48 616.9,-296.48"/>
</g>
<!-- src/render/scjson -->
<g id="node19" class="node">
<title>src/render/scjson</title>
<g id="a_node19"><a xlink:href="https://github.com/sverweij/state-machine-cat/blob/develop/src/render/scjson" xlink:title="scjson">
<polygon fill="#ccccff" stroke="black" points="645.5,-244 593.5,-244 591.5,-242 591.5,-226 643.5,-226 645.5,-228 645.5,-244"/>
<polyline fill="none" stroke="black" points="643.5,-242 591.5,-242"/>
<polyline fill="none" stroke="black" points="643.5,-242 643.5,-226"/>
<polyline fill="none" stroke="black" points="643.5,-242 645.5,-244"/>
<text text-anchor="start" x="605" y="-232.8" font-family="Helvetica,sans-Serif" font-size="9.00">scjson</text>
</a>
</g>
</g>
<!-- src/render/index&#45;node.mjs&#45;&gt;src/render/scjson -->
<g id="edge26" class="edge">
<title>src/render/index&#45;node.mjs&#45;&gt;src/render/scjson</title>
<path fill="none" stroke="#0000ff" stroke-width="2" stroke-opacity="0.466667" d="M388,-280.59C388,-264.75 388,-234.5 388,-234.5 388,-234.5 582.13,-234.5 582.13,-234.5"/>
<polygon fill="#0000ff" fill-opacity="0.466667" stroke="#0000ff" stroke-width="2" stroke-opacity="0.466667" points="582.13,-236.6 588.13,-234.5 582.13,-232.4 582.13,-236.6"/>
</g>
<!-- src/render/scxml -->
<g id="node20" class="node">
<title>src/render/scxml</title>
<g id="a_node20"><a xlink:href="https://github.com/sverweij/state-machine-cat/blob/develop/src/render/scxml" xlink:title="scxml">
<polygon fill="#ccccff" stroke="black" points="509.5,-258 457.5,-258 455.5,-256 455.5,-240 507.5,-240 509.5,-242 509.5,-258"/>
<polyline fill="none" stroke="black" points="507.5,-256 455.5,-256"/>
<polyline fill="none" stroke="black" points="507.5,-256 507.5,-240"/>
<polyline fill="none" stroke="black" points="507.5,-256 509.5,-258"/>
<text text-anchor="start" x="470.5" y="-246.8" font-family="Helvetica,sans-Serif" font-size="9.00">scxml</text>
</a>
</g>
</g>
<!-- src/render/index&#45;node.mjs&#45;&gt;src/render/scxml -->
<g id="edge27" class="edge">
<title>src/render/index&#45;node.mjs&#45;&gt;src/render/scxml</title>
<path fill="none" stroke="#0000ff" stroke-width="2" stroke-opacity="0.466667" d="M391,-280.54C391,-269.43 391,-252.5 391,-252.5 391,-252.5 446.02,-252.5 446.02,-252.5"/>
<polygon fill="#0000ff" fill-opacity="0.466667" stroke="#0000ff" stroke-width="2" stroke-opacity="0.466667" points="446.02,-254.6 452.02,-252.5 446.02,-250.4 446.02,-254.6"/>
</g>
<!-- src/render/smcat -->
<g id="node21" class="node">
<title>src/render/smcat</title>
<g id="a_node21"><a xlink:href="https://github.com/sverweij/state-machine-cat/blob/develop/src/render/smcat" xlink:title="smcat">
<polygon fill="#ccccff" stroke="black" points="509.5,-288 457.5,-288 455.5,-286 455.5,-270 507.5,-270 509.5,-272 509.5,-288"/>
<polyline fill="none" stroke="black" points="507.5,-286 455.5,-286"/>
<polyline fill="none" stroke="black" points="507.5,-286 507.5,-270"/>
<polyline fill="none" stroke="black" points="507.5,-286 509.5,-288"/>
<text text-anchor="start" x="470" y="-276.8" font-family="Helvetica,sans-Serif" font-size="9.00">smcat</text>
</a>
</g>
</g>
<!-- src/render/index&#45;node.mjs&#45;&gt;src/render/smcat -->
<g id="edge28" class="edge">
<title>src/render/index&#45;node.mjs&#45;&gt;src/render/smcat</title>
<path fill="none" stroke="#0000ff" stroke-width="2" stroke-opacity="0.466667" d="M393.26,-284.5C393.26,-284.5 446.35,-284.5 446.35,-284.5"/>
<polygon fill="#0000ff" fill-opacity="0.466667" stroke="#0000ff" stroke-width="2" stroke-opacity="0.466667" points="446.35,-286.6 452.35,-284.5 446.35,-282.4 446.35,-286.6"/>
</g>
<!-- src/state&#45;machine&#45;model.mjs -->
<g id="node17" class="node">
<title>src/state&#45;machine&#45;model.mjs</title>
<g id="a_node17"><a xlink:href="https://github.com/sverweij/state-machine-cat/blob/develop/src/state-machine-model.mjs" xlink:title="state&#45;machine&#45;model.mjs">
<path fill="#ffffcc" stroke="black" d="M814,-207C814,-207 707,-207 707,-207 704,-207 701,-204 701,-201 701,-201 701,-195 701,-195 701,-192 704,-189 707,-189 707,-189 814,-189 814,-189 817,-189 820,-192 820,-195 820,-195 820,-201 820,-201 820,-204 817,-207 814,-207"/>
<text text-anchor="start" x="709" y="-195.8" font-family="Helvetica,sans-Serif" font-size="9.00">state&#45;machine&#45;model.mjs</text>
</a>
</g>
</g>
<!-- src/transform&#45;&gt;src/state&#45;machine&#45;model.mjs -->
<g id="edge39" class="edge">
<title>src/transform&#45;&gt;src/state&#45;machine&#45;model.mjs</title>
<path fill="none" stroke="#000000" stroke-width="2" stroke-opacity="0.200000" d="M646.31,-67C687.78,-67 761,-67 761,-67 761,-67 761,-179.55 761,-179.55"/>
<polygon fill="#000000" fill-opacity="0.200000" stroke="#000000" stroke-width="2" stroke-opacity="0.200000" points="758.9,-179.55 761,-185.55 763.1,-179.55 758.9,-179.55"/>
</g>
<!-- src/index.mjs -->
<g id="node11" class="node">
<title>src/index.mjs</title>
<g id="a_node11"><a xlink:href="https://github.com/sverweij/state-machine-cat/blob/develop/src/index.mjs" xlink:title="index.mjs">
<path fill="#ffffcc" stroke="black" d="M259,-62C259,-62 215,-62 215,-62 212,-62 209,-59 209,-56 209,-56 209,-50 209,-50 209,-47 212,-44 215,-44 215,-44 259,-44 259,-44 262,-44 265,-47 265,-50 265,-50 265,-56 265,-56 265,-59 262,-62 259,-62"/>
<text text-anchor="start" x="217" y="-50.8" font-family="Helvetica,sans-Serif" font-size="9.00">index.mjs</text>
</a>
</g>
</g>
<!-- src/index.mjs&#45;&gt;src/options.mjs -->
<g id="edge10" class="edge">
<title>src/index.mjs&#45;&gt;src/options.mjs</title>
<path fill="none" stroke="#000000" stroke-width="2" stroke-opacity="0.200000" d="M223,-62.1C223,-91.1 223,-179.5 223,-179.5 223,-179.5 677,-179.5 677,-179.5 677,-179.5 677,-320.5 677,-320.5 677,-320.5 719.91,-320.5 719.91,-320.5"/>
<polygon fill="#000000" fill-opacity="0.200000" stroke="#000000" stroke-width="2" stroke-opacity="0.200000" points="719.91,-322.6 725.91,-320.5 719.91,-318.4 719.91,-322.6"/>
</g>
<!-- src/index.mjs&#45;&gt;src/parse/index.mjs -->
<g id="edge11" class="edge">
<title>src/index.mjs&#45;&gt;src/parse/index.mjs</title>
<path fill="none" stroke="#ff00ff" stroke-width="2" stroke-opacity="0.466667" d="M251,-62.29C251,-85.29 251,-143 251,-143 251,-143 315.56,-143 315.56,-143"/>
<polygon fill="#ff00ff" fill-opacity="0.466667" stroke="#ff00ff" stroke-width="2" stroke-opacity="0.466667" points="315.56,-145.1 321.56,-143 315.56,-140.9 315.56,-145.1"/>
</g>
<!-- src/index.mjs&#45;&gt;src/transform -->
<g id="edge13" class="edge">
<title>src/index.mjs&#45;&gt;src/transform</title>
<path fill="none" stroke="#000000" stroke-width="2" stroke-opacity="0.200000" d="M237,-62.35C237,-64.15 237,-65.5 237,-65.5 237,-65.5 581.73,-65.5 581.73,-65.5"/>
<polygon fill="#000000" fill-opacity="0.200000" stroke="#000000" stroke-width="2" stroke-opacity="0.200000" points="581.73,-67.6 587.73,-65.5 581.73,-63.4 581.73,-67.6"/>
</g>
<!-- src/index.mjs&#45;&gt;src/version.mjs -->
<g id="edge14" class="edge">
<title>src/index.mjs&#45;&gt;src/version.mjs</title>
<path fill="none" stroke="#000000" stroke-width="2" stroke-opacity="0.200000" d="M265.38,-48.5C265.38,-48.5 312.21,-48.5 312.21,-48.5"/>
<polygon fill="#000000" fill-opacity="0.200000" stroke="#000000" stroke-width="2" stroke-opacity="0.200000" points="312.21,-50.6 318.21,-48.5 312.21,-46.4 312.21,-50.6"/>
</g>
<!-- src/render/index.mjs -->
<g id="node12" class="node">
<title>src/render/index.mjs</title>
<g id="a_node12"><a xlink:href="https://github.com/sverweij/state-machine-cat/blob/develop/src/render/index.mjs" xlink:title="index.mjs">
<path fill="#ccccff" stroke="black" d="M375,-247C375,-247 331,-247 331,-247 328,-247 325,-244 325,-241 325,-241 325,-235 325,-235 325,-232 328,-229 331,-229 331,-229 375,-229 375,-229 378,-229 381,-232 381,-235 381,-235 381,-241 381,-241 381,-244 378,-247 375,-247"/>
<text text-anchor="start" x="333" y="-235.8" font-family="Helvetica,sans-Serif" font-size="9.00">index.mjs</text>
</a>
</g>
</g>
<!-- src/index.mjs&#45;&gt;src/render/index.mjs -->
<g id="edge12" class="edge">
<title>src/index.mjs&#45;&gt;src/render/index.mjs</title>
<path fill="none" stroke="#0000ff" stroke-width="2" stroke-opacity="0.466667" d="M265.32,-53C280.04,-53 295,-53 295,-53 295,-53 295,-238 295,-238 295,-238 315.65,-238 315.65,-238"/>
<polygon fill="#0000ff" fill-opacity="0.466667" stroke="#0000ff" stroke-width="2" stroke-opacity="0.466667" points="315.65,-240.1 321.65,-238 315.65,-235.9 315.65,-240.1"/>
</g>
<!-- src/render/index.mjs&#45;&gt;src/render/vector -->
<g id="edge34" class="edge">
<title>src/render/index.mjs&#45;&gt;src/render/vector</title>
<path fill="none" stroke="#0000ff" stroke-width="2" stroke-opacity="0.466667" d="M381.43,-245.25C393.57,-245.25 405,-245.25 405,-245.25 405,-245.25 405,-334 405,-334 405,-334 446.37,-334 446.37,-334"/>
<polygon fill="#0000ff" fill-opacity="0.466667" stroke="#0000ff" stroke-width="2" stroke-opacity="0.466667" points="446.37,-336.1 452.37,-334 446.37,-331.9 446.37,-336.1"/>
</g>
<!-- src/render/index.mjs&#45;&gt;src/render/dot -->
<g id="edge30" class="edge">
<title>src/render/index.mjs&#45;&gt;src/render/dot</title>
<path fill="none" stroke="#0000ff" stroke-width="2" stroke-opacity="0.466667" d="M381.26,-243.5C398.4,-243.5 417,-243.5 417,-243.5 417,-243.5 417,-315 417,-315 417,-315 582.3,-315 582.3,-315"/>
<polygon fill="#0000ff" fill-opacity="0.466667" stroke="#0000ff" stroke-width="2" stroke-opacity="0.466667" points="582.3,-317.1 588.3,-315 582.3,-312.9 582.3,-317.1"/>
</g>
<!-- src/render/index.mjs&#45;&gt;src/render/scjson -->
<g id="edge31" class="edge">
<title>src/render/index.mjs&#45;&gt;src/render/scjson</title>
<path fill="none" stroke="#0000ff" stroke-width="2" stroke-opacity="0.466667" d="M381.41,-231.75C381.41,-231.75 582.06,-231.75 582.06,-231.75"/>
<polygon fill="#0000ff" fill-opacity="0.466667" stroke="#0000ff" stroke-width="2" stroke-opacity="0.466667" points="582.06,-233.85 588.06,-231.75 582.06,-229.65 582.06,-233.85"/>
</g>
<!-- src/render/index.mjs&#45;&gt;src/render/scxml -->
<g id="edge32" class="edge">
<title>src/render/index.mjs&#45;&gt;src/render/scxml</title>
<path fill="none" stroke="#0000ff" stroke-width="2" stroke-opacity="0.466667" d="M381.42,-241.75C381.42,-241.75 446.01,-241.75 446.01,-241.75"/>
<polygon fill="#0000ff" fill-opacity="0.466667" stroke="#0000ff" stroke-width="2" stroke-opacity="0.466667" points="446.01,-243.85 452.01,-241.75 446.01,-239.65 446.01,-243.85"/>
</g>
<!-- src/render/index.mjs&#45;&gt;src/render/smcat -->
<g id="edge33" class="edge">
<title>src/render/index.mjs&#45;&gt;src/render/smcat</title>
<path fill="none" stroke="#0000ff" stroke-width="2" stroke-opacity="0.466667" d="M353,-247.46C353,-258.57 353,-275.5 353,-275.5 353,-275.5 446.01,-275.5 446.01,-275.5"/>
<polygon fill="#0000ff" fill-opacity="0.466667" stroke="#0000ff" stroke-width="2" stroke-opacity="0.466667" points="446.01,-277.6 452.01,-275.5 446.01,-273.4 446.01,-277.6"/>
</g>
<!-- src/parse/scxml&#45;&gt;src/transform -->
<g id="edge20" class="edge">
<title>src/parse/scxml&#45;&gt;src/transform</title>
<path fill="none" stroke="#000000" stroke-width="2" stroke-opacity="0.200000" d="M483,-91.67C483,-83.36 483,-72.5 483,-72.5 483,-72.5 581.73,-72.5 581.73,-72.5"/>
<polygon fill="#000000" fill-opacity="0.200000" stroke="#000000" stroke-width="2" stroke-opacity="0.200000" points="581.73,-74.6 587.73,-72.5 581.73,-70.4 581.73,-74.6"/>
</g>
<!-- src/parse/parser&#45;helpers.mjs -->
<g id="node16" class="node">
<title>src/parse/parser&#45;helpers.mjs</title>
<g id="a_node16"><a xlink:href="https://github.com/sverweij/state-machine-cat/blob/develop/src/parse/parser-helpers.mjs" xlink:title="parser&#45;helpers.mjs">
<path fill="#ffccff" stroke="black" d="M659,-170C659,-170 578,-170 578,-170 575,-170 572,-167 572,-164 572,-164 572,-158 572,-158 572,-155 575,-152 578,-152 578,-152 659,-152 659,-152 662,-152 665,-155 665,-158 665,-158 665,-164 665,-164 665,-167 662,-170 659,-170"/>
<text text-anchor="start" x="580" y="-158.8" font-family="Helvetica,sans-Serif" font-size="9.00">parser&#45;helpers.mjs</text>
</a>
</g>
</g>
<!-- src/parse/scxml&#45;&gt;src/parse/parser&#45;helpers.mjs -->
<g id="edge21" class="edge">
<title>src/parse/scxml&#45;&gt;src/parse/parser&#45;helpers.mjs</title>
<path fill="none" stroke="#ff00ff" stroke-width="2" stroke-opacity="0.466667" d="M509.95,-101C539.4,-101 582,-101 582,-101 582,-101 582,-142.6 582,-142.6"/>
<polygon fill="#ff00ff" fill-opacity="0.466667" stroke="#ff00ff" stroke-width="2" stroke-opacity="0.466667" points="579.9,-142.6 582,-148.6 584.1,-142.6 579.9,-142.6"/>
</g>
<!-- src/parse/smcat&#45;&gt;src/parse/parser&#45;helpers.mjs -->
<g id="edge22" class="edge">
<title>src/parse/smcat&#45;&gt;src/parse/parser&#45;helpers.mjs</title>
<path fill="none" stroke="#ff00ff" stroke-width="2" stroke-opacity="0.466667" d="M509.69,-161C509.69,-161 562.49,-161 562.49,-161"/>
<polygon fill="#ff00ff" fill-opacity="0.466667" stroke="#ff00ff" stroke-width="2" stroke-opacity="0.466667" points="562.49,-163.1 568.49,-161 562.49,-158.9 562.49,-163.1"/>
</g>
<!-- src/parse/parser&#45;helpers.mjs&#45;&gt;src/state&#45;machine&#45;model.mjs -->
<g id="edge19" class="edge">
<title>src/parse/parser&#45;helpers.mjs&#45;&gt;src/state&#45;machine&#45;model.mjs</title>
<path fill="none" stroke="#000000" stroke-width="2" stroke-opacity="0.200000" d="M656,-170.34C656,-181.3 656,-198 656,-198 656,-198 691.59,-198 691.59,-198"/>
<polygon fill="#000000" fill-opacity="0.200000" stroke="#000000" stroke-width="2" stroke-opacity="0.200000" points="691.59,-200.1 697.59,-198 691.59,-195.9 691.59,-200.1"/>
</g>
<!-- src/render/dot&#45;&gt;src/options.mjs -->
<g id="edge23" class="edge">
<title>src/render/dot&#45;&gt;src/options.mjs</title>
<path fill="none" stroke="#000000" stroke-width="2" stroke-opacity="0.200000" d="M645.88,-322.25C645.88,-322.25 719.72,-322.25 719.72,-322.25"/>
<polygon fill="#000000" fill-opacity="0.200000" stroke="#000000" stroke-width="2" stroke-opacity="0.200000" points="719.72,-324.35 725.72,-322.25 719.72,-320.15 719.72,-324.35"/>
</g>
<!-- src/render/dot&#45;&gt;src/state&#45;machine&#45;model.mjs -->
<g id="edge24" class="edge">
<title>src/render/dot&#45;&gt;src/state&#45;machine&#45;model.mjs</title>
<path fill="none" stroke="#000000" stroke-width="2" stroke-opacity="0.200000" d="M645.97,-311.5C676.03,-311.5 720,-311.5 720,-311.5 720,-311.5 720,-216.32 720,-216.32"/>
<polygon fill="#000000" fill-opacity="0.200000" stroke="#000000" stroke-width="2" stroke-opacity="0.200000" points="722.1,-216.32 720,-210.32 717.9,-216.32 722.1,-216.32"/>
</g>
<!-- src/render/scjson&#45;&gt;src/state&#45;machine&#45;model.mjs -->
<g id="edge35" class="edge">
<title>src/render/scjson&#45;&gt;src/state&#45;machine&#45;model.mjs</title>
<path fill="none" stroke="#000000" stroke-width="2" stroke-opacity="0.200000" d="M645.75,-235C673.04,-235 711,-235 711,-235 711,-235 711,-216.36 711,-216.36"/>
<polygon fill="#000000" fill-opacity="0.200000" stroke="#000000" stroke-width="2" stroke-opacity="0.200000" points="713.1,-216.36 711,-210.36 708.9,-216.36 713.1,-216.36"/>
</g>
<!-- src/render/scxml&#45;&gt;src/render/scjson -->
<g id="edge36" class="edge">
<title>src/render/scxml&#45;&gt;src/render/scjson</title>
<path fill="none" stroke="#0000ff" stroke-width="2" stroke-opacity="0.466667" d="M483,-239.52C483,-238.18 483,-237.25 483,-237.25 483,-237.25 582.05,-237.25 582.05,-237.25"/>
<polygon fill="#0000ff" fill-opacity="0.466667" stroke="#0000ff" stroke-width="2" stroke-opacity="0.466667" points="582.05,-239.35 588.05,-237.25 582.05,-235.15 582.05,-239.35"/>
</g>
</g>
</svg>
