<?xml version="1.0" encoding="UTF-8" standalone="no"?>
<!DOCTYPE svg PUBLIC "-//W3C//DTD SVG 1.1//EN"
 "http://www.w3.org/Graphics/SVG/1.1/DTD/svg11.dtd">
<!-- Generated by graphviz version 2.47.3 (20210619.1520)
 -->
<!-- Title: dependency&#45;cruiser output Pages: 1 -->
<svg width="827pt" height="448pt"
 viewBox="0.00 0.00 827.00 448.00" xmlns="http://www.w3.org/2000/svg" xmlns:xlink="http://www.w3.org/1999/xlink">
<g id="graph0" class="graph" transform="scale(1 1) rotate(0) translate(4 444)">
<title>dependency&#45;cruiser output</title>
<polygon fill="white" stroke="transparent" points="-4,4 -4,-444 823,-444 823,4 -4,4"/>
<g id="clust1" class="cluster">
<title>cluster_src</title>
<path fill="#ffffff" stroke="black" stroke-width="2" d="M94,-8C94,-8 799,-8 799,-8 805,-8 811,-14 811,-20 811,-20 811,-420 811,-420 811,-426 805,-432 799,-432 799,-432 94,-432 94,-432 88,-432 82,-426 82,-420 82,-420 82,-20 82,-20 82,-14 88,-8 94,-8"/>
<text text-anchor="middle" x="446.5" y="-420.8" font-family="Helvetica,sans-Serif" font-weight="bold" font-size="9.00">src</text>
</g>
<g id="clust2" class="cluster">
<title>cluster_src/parse</title>
<path fill="#ffffff" stroke="black" stroke-width="2" d="M312,-294C312,-294 644,-294 644,-294 650,-294 656,-300 656,-306 656,-306 656,-394 656,-394 656,-400 650,-406 644,-406 644,-406 312,-406 312,-406 306,-406 300,-400 300,-394 300,-394 300,-306 300,-306 300,-300 306,-294 312,-294"/>
<text text-anchor="middle" x="478" y="-394.8" font-family="Helvetica,sans-Serif" font-weight="bold" font-size="9.00">parse</text>
</g>
<g id="clust3" class="cluster">
<title>cluster_src/render</title>
<path fill="#ffffff" stroke="black" stroke-width="2" d="M300,-70C300,-70 624.5,-70 624.5,-70 630.5,-70 636.5,-76 636.5,-82 636.5,-82 636.5,-226 636.5,-226 636.5,-232 630.5,-238 624.5,-238 624.5,-238 300,-238 300,-238 294,-238 288,-232 288,-226 288,-226 288,-82 288,-82 288,-76 294,-70 300,-70"/>
<text text-anchor="middle" x="462.25" y="-226.8" font-family="Helvetica,sans-Serif" font-weight="bold" font-size="9.00">render</text>
</g>
<!-- bin -->
<g id="node1" class="node">
<title>bin</title>
<g id="a_node1"><a xlink:href="https://github.com/sverweij/state-machine-cat/blob/develop/bin" xlink:title="bin">
<polygon fill="#ffffcc" stroke="black" points="54,-105 2,-105 0,-103 0,-87 52,-87 54,-89 54,-105"/>
<polyline fill="none" stroke="black" points="52,-103 0,-103 "/>
<polyline fill="none" stroke="black" points="52,-103 52,-87 "/>
<polyline fill="none" stroke="black" points="52,-103 54,-105 "/>
<text text-anchor="middle" x="27" y="-93.8" font-family="Helvetica,sans-Serif" font-size="9.00">bin</text>
</a>
</g>
</g>
<!-- src/cli -->
<g id="node2" class="node">
<title>src/cli</title>
<g id="a_node2"><a xlink:href="https://github.com/sverweij/state-machine-cat/blob/develop/src/cli" xlink:title="cli">
<polygon fill="#ccffcc" stroke="black" points="144,-105 92,-105 90,-103 90,-87 142,-87 144,-89 144,-105"/>
<polyline fill="none" stroke="black" points="142,-103 90,-103 "/>
<polyline fill="none" stroke="black" points="142,-103 142,-87 "/>
<polyline fill="none" stroke="black" points="142,-103 144,-105 "/>
<text text-anchor="middle" x="117" y="-93.8" font-family="Helvetica,sans-Serif" font-size="9.00">cli</text>
</a>
</g>
</g>
<!-- bin&#45;&gt;src/cli -->
<g id="edge1" class="edge">
<title>bin&#45;&gt;src/cli</title>
<path fill="none" stroke="#007700" stroke-width="2" stroke-opacity="0.466667" d="M54,-96C54,-96 83.71,-96 83.71,-96"/>
<polygon fill="#007700" fill-opacity="0.466667" stroke="#007700" stroke-width="2" stroke-opacity="0.466667" points="83.71,-98.1 89.71,-96 83.7,-93.9 83.71,-98.1"/>
</g>
<!-- src/index&#45;node.mjs -->
<g id="node3" class="node">
<title>src/index&#45;node.mjs</title>
<g id="a_node3"><a xlink:href="https://github.com/sverweij/state-machine-cat/blob/develop/src/index-node.mjs" xlink:title="index&#45;node.mjs">
<path fill="#ffffcc" stroke="black" d="M254,-221C254,-221 186,-221 186,-221 183,-221 180,-218 180,-215 180,-215 180,-209 180,-209 180,-206 183,-203 186,-203 186,-203 254,-203 254,-203 257,-203 260,-206 260,-209 260,-209 260,-215 260,-215 260,-218 257,-221 254,-221"/>
<text text-anchor="middle" x="220" y="-209.8" font-family="Helvetica,sans-Serif" font-size="9.00">index&#45;node.mjs</text>
</a>
</g>
</g>
<!-- src/cli&#45;&gt;src/index&#45;node.mjs -->
<g id="edge2" class="edge">
<title>src/cli&#45;&gt;src/index&#45;node.mjs</title>
<path fill="none" stroke="#000000" stroke-width="2" stroke-opacity="0.200000" d="M144.27,-89.25C163.56,-89.25 186,-89.25 186,-89.25 186,-89.25 186,-196.77 186,-196.77"/>
<polygon fill="#000000" fill-opacity="0.200000" stroke="#000000" stroke-width="2" stroke-opacity="0.200000" points="183.9,-196.77 186,-202.77 188.1,-196.77 183.9,-196.77"/>
</g>
<!-- src/options.mjs -->
<g id="node4" class="node">
<title>src/options.mjs</title>
<g id="a_node4"><a xlink:href="https://github.com/sverweij/state-machine-cat/blob/develop/src/options.mjs" xlink:title="options.mjs">
<path fill="#ffffcc" stroke="black" d="M769,-107C769,-107 718,-107 718,-107 715,-107 712,-104 712,-101 712,-101 712,-95 712,-95 712,-92 715,-89 718,-89 718,-89 769,-89 769,-89 772,-89 775,-92 775,-95 775,-95 775,-101 775,-101 775,-104 772,-107 769,-107"/>
<text text-anchor="middle" x="743.5" y="-95.8" font-family="Helvetica,sans-Serif" font-size="9.00">options.mjs</text>
</a>
</g>
</g>
<!-- src/cli&#45;&gt;src/options.mjs -->
<g id="edge3" class="edge">
<title>src/cli&#45;&gt;src/options.mjs</title>
<path fill="none" stroke="#000000" stroke-width="2" stroke-opacity="0.200000" d="M117,-86.93C117,-78.53 117,-67.33 117,-67.33 117,-67.33 754,-67.33 754,-67.33 754,-67.33 754,-82.96 754,-82.96"/>
<polygon fill="#000000" fill-opacity="0.200000" stroke="#000000" stroke-width="2" stroke-opacity="0.200000" points="751.9,-82.96 754,-88.96 756.1,-82.96 751.9,-82.96"/>
</g>
<!-- src/index&#45;node.mjs&#45;&gt;src/options.mjs -->
<g id="edge4" class="edge">
<title>src/index&#45;node.mjs&#45;&gt;src/options.mjs</title>
<path fill="none" stroke="#000000" stroke-width="2" stroke-opacity="0.200000" d="M260.25,-208.2C381.19,-208.2 733,-208.2 733,-208.2 733,-208.2 733,-113.02 733,-113.02"/>
<polygon fill="#000000" fill-opacity="0.200000" stroke="#000000" stroke-width="2" stroke-opacity="0.200000" points="735.1,-113.02 733,-107.02 730.9,-113.02 735.1,-113.02"/>
</g>
<!-- src/parse/index.mjs -->
<g id="node5" class="node">
<title>src/parse/index.mjs</title>
<g id="a_node5"><a xlink:href="https://github.com/sverweij/state-machine-cat/blob/develop/src/parse/index.mjs" xlink:title="index.mjs">
<path fill="#ffccff" stroke="black" d="M358,-320C358,-320 314,-320 314,-320 311,-320 308,-317 308,-314 308,-314 308,-308 308,-308 308,-305 311,-302 314,-302 314,-302 358,-302 358,-302 361,-302 364,-305 364,-308 364,-308 364,-314 364,-314 364,-317 361,-320 358,-320"/>
<text text-anchor="middle" x="336" y="-308.8" font-family="Helvetica,sans-Serif" font-size="9.00">index.mjs</text>
</a>
</g>
</g>
<!-- src/index&#45;node.mjs&#45;&gt;src/parse/index.mjs -->
<g id="edge5" class="edge">
<title>src/index&#45;node.mjs&#45;&gt;src/parse/index.mjs</title>
<path fill="none" stroke="#ff00ff" stroke-width="2" stroke-opacity="0.466667" d="M260.15,-217.8C290.51,-217.8 327,-217.8 327,-217.8 327,-217.8 327,-295.72 327,-295.72"/>
<polygon fill="#ff00ff" fill-opacity="0.466667" stroke="#ff00ff" stroke-width="2" stroke-opacity="0.466667" points="324.9,-295.72 327,-301.72 329.1,-295.72 324.9,-295.72"/>
</g>
<!-- src/render/index&#45;node.mjs -->
<g id="node6" class="node">
<title>src/render/index&#45;node.mjs</title>
<g id="a_node6"><a xlink:href="https://github.com/sverweij/state-machine-cat/blob/develop/src/render/index-node.mjs" xlink:title="index&#45;node.mjs">
<path fill="#ccccff" stroke="black" d="M370,-187C370,-187 302,-187 302,-187 299,-187 296,-184 296,-181 296,-181 296,-175 296,-175 296,-172 299,-169 302,-169 302,-169 370,-169 370,-169 373,-169 376,-172 376,-175 376,-175 376,-181 376,-181 376,-184 373,-187 370,-187"/>
<text text-anchor="middle" x="336" y="-175.8" font-family="Helvetica,sans-Serif" font-size="9.00">index&#45;node.mjs</text>
</a>
</g>
</g>
<!-- src/index&#45;node.mjs&#45;&gt;src/render/index&#45;node.mjs -->
<g id="edge6" class="edge">
<title>src/index&#45;node.mjs&#45;&gt;src/render/index&#45;node.mjs</title>
<path fill="none" stroke="#0000ff" stroke-width="2" stroke-opacity="0.466667" d="M256,-202.71C256,-192.64 256,-178 256,-178 256,-178 289.53,-178 289.53,-178"/>
<polygon fill="#0000ff" fill-opacity="0.466667" stroke="#0000ff" stroke-width="2" stroke-opacity="0.466667" points="289.53,-180.1 295.53,-178 289.53,-175.9 289.53,-180.1"/>
</g>
<!-- src/transform -->
<g id="node7" class="node">
<title>src/transform</title>
<g id="a_node7"><a xlink:href="https://github.com/sverweij/state-machine-cat/blob/develop/src/transform" xlink:title="transform">
<polygon fill="#ffffcc" stroke="black" points="629,-278 576,-278 574,-276 574,-260 627,-260 629,-262 629,-278"/>
<polyline fill="none" stroke="black" points="627,-276 574,-276 "/>
<polyline fill="none" stroke="black" points="627,-276 627,-260 "/>
<polyline fill="none" stroke="black" points="627,-276 629,-278 "/>
<text text-anchor="middle" x="601.5" y="-266.8" font-family="Helvetica,sans-Serif" font-size="9.00">transform</text>
</a>
</g>
</g>
<!-- src/index&#45;node.mjs&#45;&gt;src/transform -->
<g id="edge7" class="edge">
<title>src/index&#45;node.mjs&#45;&gt;src/transform</title>
<path fill="none" stroke="#000000" stroke-width="2" stroke-opacity="0.200000" d="M260.27,-214.6C356.72,-214.6 593,-214.6 593,-214.6 593,-214.6 593,-253.52 593,-253.52"/>
<polygon fill="#000000" fill-opacity="0.200000" stroke="#000000" stroke-width="2" stroke-opacity="0.200000" points="590.9,-253.52 593,-259.52 595.1,-253.52 590.9,-253.52"/>
</g>
<!-- src/version.mjs -->
<g id="node8" class="node">
<title>src/version.mjs</title>
<g id="a_node8"><a xlink:href="https://github.com/sverweij/state-machine-cat/blob/develop/src/version.mjs" xlink:title="version.mjs">
<path fill="#ffffcc" stroke="black" d="M361.5,-62C361.5,-62 310.5,-62 310.5,-62 307.5,-62 304.5,-59 304.5,-56 304.5,-56 304.5,-50 304.5,-50 304.5,-47 307.5,-44 310.5,-44 310.5,-44 361.5,-44 361.5,-44 364.5,-44 367.5,-47 367.5,-50 367.5,-50 367.5,-56 367.5,-56 367.5,-59 364.5,-62 361.5,-62"/>
<text text-anchor="middle" x="336" y="-50.8" font-family="Helvetica,sans-Serif" font-size="9.00">version.mjs</text>
</a>
</g>
</g>
<!-- src/index&#45;node.mjs&#45;&gt;src/version.mjs -->
<g id="edge8" class="edge">
<title>src/index&#45;node.mjs&#45;&gt;src/version.mjs</title>
<path fill="none" stroke="#000000" stroke-width="2" stroke-opacity="0.200000" d="M252,-202.71C252,-169.12 252,-56 252,-56 252,-56 298.24,-56 298.24,-56"/>
<polygon fill="#000000" fill-opacity="0.200000" stroke="#000000" stroke-width="2" stroke-opacity="0.200000" points="298.24,-58.1 304.24,-56 298.24,-53.9 298.24,-58.1"/>
</g>
<!-- src/parse/index.mjs&#45;&gt;src/options.mjs -->
<g id="edge14" class="edge">
<title>src/parse/index.mjs&#45;&gt;src/options.mjs</title>
<path fill="none" stroke="#000000" stroke-width="2" stroke-opacity="0.200000" d="M346,-301.81C346,-277.15 346,-211.4 346,-211.4 346,-211.4 754,-211.4 754,-211.4 754,-211.4 754,-113.28 754,-113.28"/>
<polygon fill="#000000" fill-opacity="0.200000" stroke="#000000" stroke-width="2" stroke-opacity="0.200000" points="756.1,-113.28 754,-107.28 751.9,-113.28 756.1,-113.28"/>
</g>
<!-- src/parse/scxml -->
<g id="node11" class="node">
<title>src/parse/scxml</title>
<g id="a_node11"><a xlink:href="https://github.com/sverweij/state-machine-cat/blob/develop/src/parse/scxml" xlink:title="scxml">
<polygon fill="#ffccff" stroke="black" points="492.5,-350 440.5,-350 438.5,-348 438.5,-332 490.5,-332 492.5,-334 492.5,-350"/>
<polyline fill="none" stroke="black" points="490.5,-348 438.5,-348 "/>
<polyline fill="none" stroke="black" points="490.5,-348 490.5,-332 "/>
<polyline fill="none" stroke="black" points="490.5,-348 492.5,-350 "/>
<text text-anchor="middle" x="465.5" y="-338.8" font-family="Helvetica,sans-Serif" font-size="9.00">scxml</text>
</a>
</g>
</g>
<!-- src/parse/index.mjs&#45;&gt;src/parse/scxml -->
<g id="edge15" class="edge">
<title>src/parse/index.mjs&#45;&gt;src/parse/scxml</title>
<path fill="none" stroke="#ff00ff" stroke-width="2" stroke-opacity="0.466667" d="M346,-320.16C346,-328.99 346,-341 346,-341 346,-341 432.38,-341 432.38,-341"/>
<polygon fill="#ff00ff" fill-opacity="0.466667" stroke="#ff00ff" stroke-width="2" stroke-opacity="0.466667" points="432.38,-343.1 438.38,-341 432.38,-338.9 432.38,-343.1"/>
</g>
<!-- src/parse/smcat&#45;ast.schema.mjs -->
<g id="node12" class="node">
<title>src/parse/smcat&#45;ast.schema.mjs</title>
<g id="a_node12"><a xlink:href="https://github.com/sverweij/state-machine-cat/blob/develop/src/parse/smcat-ast.schema.mjs" xlink:title="smcat&#45;ast.schema.mjs">
<path fill="#ffccff" stroke="black" d="M513,-320C513,-320 418,-320 418,-320 415,-320 412,-317 412,-314 412,-314 412,-308 412,-308 412,-305 415,-302 418,-302 418,-302 513,-302 513,-302 516,-302 519,-305 519,-308 519,-308 519,-314 519,-314 519,-317 516,-320 513,-320"/>
<text text-anchor="middle" x="465.5" y="-308.8" font-family="Helvetica,sans-Serif" font-size="9.00">smcat&#45;ast.schema.mjs</text>
</a>
</g>
</g>
<!-- src/parse/index.mjs&#45;&gt;src/parse/smcat&#45;ast.schema.mjs -->
<g id="edge16" class="edge">
<title>src/parse/index.mjs&#45;&gt;src/parse/smcat&#45;ast.schema.mjs</title>
<path fill="none" stroke="#ff00ff" stroke-width="2" stroke-opacity="0.466667" d="M364.1,-311C364.1,-311 405.88,-311 405.88,-311"/>
<polygon fill="#ff00ff" fill-opacity="0.466667" stroke="#ff00ff" stroke-width="2" stroke-opacity="0.466667" points="405.88,-313.1 411.88,-311 405.88,-308.9 405.88,-313.1"/>
</g>
<!-- src/parse/smcat -->
<g id="node13" class="node">
<title>src/parse/smcat</title>
<g id="a_node13"><a xlink:href="https://github.com/sverweij/state-machine-cat/blob/develop/src/parse/smcat" xlink:title="smcat">
<polygon fill="#ffccff" stroke="black" points="492.5,-380 440.5,-380 438.5,-378 438.5,-362 490.5,-362 492.5,-364 492.5,-380"/>
<polyline fill="none" stroke="black" points="490.5,-378 438.5,-378 "/>
<polyline fill="none" stroke="black" points="490.5,-378 490.5,-362 "/>
<polyline fill="none" stroke="black" points="490.5,-378 492.5,-380 "/>
<text text-anchor="middle" x="465.5" y="-368.8" font-family="Helvetica,sans-Serif" font-size="9.00">smcat</text>
</a>
</g>
</g>
<!-- src/parse/index.mjs&#45;&gt;src/parse/smcat -->
<g id="edge17" class="edge">
<title>src/parse/index.mjs&#45;&gt;src/parse/smcat</title>
<path fill="none" stroke="#ff00ff" stroke-width="2" stroke-opacity="0.466667" d="M327,-320.11C327,-336.9 327,-371 327,-371 327,-371 432.47,-371 432.47,-371"/>
<polygon fill="#ff00ff" fill-opacity="0.466667" stroke="#ff00ff" stroke-width="2" stroke-opacity="0.466667" points="432.47,-373.1 438.47,-371 432.47,-368.9 432.47,-373.1"/>
</g>
<!-- src/render/dot -->
<g id="node16" class="node">
<title>src/render/dot</title>
<g id="a_node16"><a xlink:href="https://github.com/sverweij/state-machine-cat/blob/develop/src/render/dot" xlink:title="dot">
<polygon fill="#ccccff" stroke="black" points="628.5,-118 576.5,-118 574.5,-116 574.5,-100 626.5,-100 628.5,-102 628.5,-118"/>
<polyline fill="none" stroke="black" points="626.5,-116 574.5,-116 "/>
<polyline fill="none" stroke="black" points="626.5,-116 626.5,-100 "/>
<polyline fill="none" stroke="black" points="626.5,-116 628.5,-118 "/>
<text text-anchor="middle" x="601.5" y="-106.8" font-family="Helvetica,sans-Serif" font-size="9.00">dot</text>
</a>
</g>
</g>
<!-- src/render/index&#45;node.mjs&#45;&gt;src/render/dot -->
<g id="edge24" class="edge">
<title>src/render/index&#45;node.mjs&#45;&gt;src/render/dot</title>
<path fill="none" stroke="#0000ff" stroke-width="2" stroke-opacity="0.466667" d="M372,-168.96C372,-150.68 372,-111 372,-111 372,-111 568.27,-111 568.27,-111"/>
<polygon fill="#0000ff" fill-opacity="0.466667" stroke="#0000ff" stroke-width="2" stroke-opacity="0.466667" points="568.27,-113.1 574.27,-111 568.27,-108.9 568.27,-113.1"/>
</g>
<!-- src/render/scjson -->
<g id="node17" class="node">
<title>src/render/scjson</title>
<g id="a_node17"><a xlink:href="https://github.com/sverweij/state-machine-cat/blob/develop/src/render/scjson" xlink:title="scjson">
<polygon fill="#ccccff" stroke="black" points="628.5,-205 576.5,-205 574.5,-203 574.5,-187 626.5,-187 628.5,-189 628.5,-205"/>
<polyline fill="none" stroke="black" points="626.5,-203 574.5,-203 "/>
<polyline fill="none" stroke="black" points="626.5,-203 626.5,-187 "/>
<polyline fill="none" stroke="black" points="626.5,-203 628.5,-205 "/>
<text text-anchor="middle" x="601.5" y="-193.8" font-family="Helvetica,sans-Serif" font-size="9.00">scjson</text>
</a>
</g>
</g>
<!-- src/render/index&#45;node.mjs&#45;&gt;src/render/scjson -->
<g id="edge25" class="edge">
<title>src/render/index&#45;node.mjs&#45;&gt;src/render/scjson</title>
<path fill="none" stroke="#0000ff" stroke-width="2" stroke-opacity="0.466667" d="M376.16,-174.5C448.44,-174.5 593,-174.5 593,-174.5 593,-174.5 593,-180.76 593,-180.76"/>
<polygon fill="#0000ff" fill-opacity="0.466667" stroke="#0000ff" stroke-width="2" stroke-opacity="0.466667" points="590.9,-180.76 593,-186.76 595.1,-180.76 590.9,-180.76"/>
</g>
<!-- src/render/scxml -->
<g id="node18" class="node">
<title>src/render/scxml</title>
<g id="a_node18"><a xlink:href="https://github.com/sverweij/state-machine-cat/blob/develop/src/render/scxml" xlink:title="scxml">
<polygon fill="#ccccff" stroke="black" points="492.5,-198 440.5,-198 438.5,-196 438.5,-180 490.5,-180 492.5,-182 492.5,-198"/>
<polyline fill="none" stroke="black" points="490.5,-196 438.5,-196 "/>
<polyline fill="none" stroke="black" points="490.5,-196 490.5,-180 "/>
<polyline fill="none" stroke="black" points="490.5,-196 492.5,-198 "/>
<text text-anchor="middle" x="465.5" y="-186.8" font-family="Helvetica,sans-Serif" font-size="9.00">scxml</text>
</a>
</g>
</g>
<!-- src/render/index&#45;node.mjs&#45;&gt;src/render/scxml -->
<g id="edge26" class="edge">
<title>src/render/index&#45;node.mjs&#45;&gt;src/render/scxml</title>
<path fill="none" stroke="#0000ff" stroke-width="2" stroke-opacity="0.466667" d="M376.26,-184.67C376.26,-184.67 432.37,-184.67 432.37,-184.67"/>
<polygon fill="#0000ff" fill-opacity="0.466667" stroke="#0000ff" stroke-width="2" stroke-opacity="0.466667" points="432.37,-186.77 438.37,-184.67 432.37,-182.57 432.37,-186.77"/>
</g>
<!-- src/render/smcat -->
<g id="node19" class="node">
<title>src/render/smcat</title>
<g id="a_node19"><a xlink:href="https://github.com/sverweij/state-machine-cat/blob/develop/src/render/smcat" xlink:title="smcat">
<polygon fill="#ccccff" stroke="black" points="492.5,-154 440.5,-154 438.5,-152 438.5,-136 490.5,-136 492.5,-138 492.5,-154"/>
<polyline fill="none" stroke="black" points="490.5,-152 438.5,-152 "/>
<polyline fill="none" stroke="black" points="490.5,-152 490.5,-136 "/>
<polyline fill="none" stroke="black" points="490.5,-152 492.5,-154 "/>
<text text-anchor="middle" x="465.5" y="-142.8" font-family="Helvetica,sans-Serif" font-size="9.00">smcat</text>
</a>
</g>
</g>
<!-- src/render/index&#45;node.mjs&#45;&gt;src/render/smcat -->
<g id="edge27" class="edge">
<title>src/render/index&#45;node.mjs&#45;&gt;src/render/smcat</title>
<path fill="none" stroke="#0000ff" stroke-width="2" stroke-opacity="0.466667" d="M374,-168.98C374,-159.21 374,-145 374,-145 374,-145 432.05,-145 432.05,-145"/>
<polygon fill="#0000ff" fill-opacity="0.466667" stroke="#0000ff" stroke-width="2" stroke-opacity="0.466667" points="432.05,-147.1 438.05,-145 432.05,-142.9 432.05,-147.1"/>
</g>
<!-- src/render/vector -->
<g id="node20" class="node">
<title>src/render/vector</title>
<g id="a_node20"><a xlink:href="https://github.com/sverweij/state-machine-cat/blob/develop/src/render/vector" xlink:title="vector">
<polygon fill="#ccccff" stroke="black" points="492.5,-96 440.5,-96 438.5,-94 438.5,-78 490.5,-78 492.5,-80 492.5,-96"/>
<polyline fill="none" stroke="black" points="490.5,-94 438.5,-94 "/>
<polyline fill="none" stroke="black" points="490.5,-94 490.5,-78 "/>
<polyline fill="none" stroke="black" points="490.5,-94 492.5,-96 "/>
<text text-anchor="middle" x="465.5" y="-84.8" font-family="Helvetica,sans-Serif" font-size="9.00">vector</text>
</a>
</g>
</g>
<!-- src/render/index&#45;node.mjs&#45;&gt;src/render/vector -->
<g id="edge28" class="edge">
<title>src/render/index&#45;node.mjs&#45;&gt;src/render/vector</title>
<path fill="none" stroke="#0000ff" stroke-width="2" stroke-opacity="0.466667" d="M370,-168.98C370,-147.25 370,-93.75 370,-93.75 370,-93.75 432.39,-93.75 432.39,-93.75"/>
<polygon fill="#0000ff" fill-opacity="0.466667" stroke="#0000ff" stroke-width="2" stroke-opacity="0.466667" points="432.39,-95.85 438.39,-93.75 432.39,-91.65 432.39,-95.85"/>
</g>
<!-- src/state&#45;machine&#45;model.mjs -->
<g id="node15" class="node">
<title>src/state&#45;machine&#45;model.mjs</title>
<g id="a_node15"><a xlink:href="https://github.com/sverweij/state-machine-cat/blob/develop/src/state-machine-model.mjs" xlink:title="state&#45;machine&#45;model.mjs">
<path fill="#ffffcc" stroke="black" d="M797,-245C797,-245 690,-245 690,-245 687,-245 684,-242 684,-239 684,-239 684,-233 684,-233 684,-230 687,-227 690,-227 690,-227 797,-227 797,-227 800,-227 803,-230 803,-233 803,-233 803,-239 803,-239 803,-242 800,-245 797,-245"/>
<text text-anchor="middle" x="743.5" y="-233.8" font-family="Helvetica,sans-Serif" font-size="9.00">state&#45;machine&#45;model.mjs</text>
</a>
</g>
</g>
<!-- src/transform&#45;&gt;src/state&#45;machine&#45;model.mjs -->
<g id="edge38" class="edge">
<title>src/transform&#45;&gt;src/state&#45;machine&#45;model.mjs</title>
<path fill="none" stroke="#000000" stroke-width="2" stroke-opacity="0.200000" d="M611,-259.92C611,-249.25 611,-233 611,-233 611,-233 677.84,-233 677.84,-233"/>
<polygon fill="#000000" fill-opacity="0.200000" stroke="#000000" stroke-width="2" stroke-opacity="0.200000" points="677.84,-235.1 683.84,-233 677.84,-230.9 677.84,-235.1"/>
</g>
<!-- src/index.mjs -->
<g id="node9" class="node">
<title>src/index.mjs</title>
<g id="a_node9"><a xlink:href="https://github.com/sverweij/state-machine-cat/blob/develop/src/index.mjs" xlink:title="index.mjs">
<path fill="#ffffcc" stroke="black" d="M242,-132C242,-132 198,-132 198,-132 195,-132 192,-129 192,-126 192,-126 192,-120 192,-120 192,-117 195,-114 198,-114 198,-114 242,-114 242,-114 245,-114 248,-117 248,-120 248,-120 248,-126 248,-126 248,-129 245,-132 242,-132"/>
<text text-anchor="middle" x="220" y="-120.8" font-family="Helvetica,sans-Serif" font-size="9.00">index.mjs</text>
</a>
</g>
</g>
<!-- src/index.mjs&#45;&gt;src/options.mjs -->
<g id="edge9" class="edge">
<title>src/index.mjs&#45;&gt;src/options.mjs</title>
<path fill="none" stroke="#000000" stroke-width="2" stroke-opacity="0.200000" d="M230,-113.77C230,-99.24 230,-72.67 230,-72.67 230,-72.67 733,-72.67 733,-72.67 733,-72.67 733,-82.85 733,-82.85"/>
<polygon fill="#000000" fill-opacity="0.200000" stroke="#000000" stroke-width="2" stroke-opacity="0.200000" points="730.9,-82.85 733,-88.85 735.1,-82.85 730.9,-82.85"/>
</g>
<!-- src/index.mjs&#45;&gt;src/parse/index.mjs -->
<g id="edge10" class="edge">
<title>src/index.mjs&#45;&gt;src/parse/index.mjs</title>
<path fill="none" stroke="#ff00ff" stroke-width="2" stroke-opacity="0.466667" d="M248.13,-127.5C260.38,-127.5 272,-127.5 272,-127.5 272,-127.5 272,-311 272,-311 272,-311 301.74,-311 301.74,-311"/>
<polygon fill="#ff00ff" fill-opacity="0.466667" stroke="#ff00ff" stroke-width="2" stroke-opacity="0.466667" points="301.74,-313.1 307.74,-311 301.74,-308.9 301.74,-313.1"/>
</g>
<!-- src/index.mjs&#45;&gt;src/transform -->
<g id="edge12" class="edge">
<title>src/index.mjs&#45;&gt;src/transform</title>
<path fill="none" stroke="#000000" stroke-width="2" stroke-opacity="0.200000" d="M248.26,-123C265.4,-123 284,-123 284,-123 284,-123 284,-266 284,-266 284,-266 567.88,-266 567.88,-266"/>
<polygon fill="#000000" fill-opacity="0.200000" stroke="#000000" stroke-width="2" stroke-opacity="0.200000" points="567.88,-268.1 573.88,-266 567.88,-263.9 567.88,-268.1"/>
</g>
<!-- src/index.mjs&#45;&gt;src/version.mjs -->
<g id="edge13" class="edge">
<title>src/index.mjs&#45;&gt;src/version.mjs</title>
<path fill="none" stroke="#000000" stroke-width="2" stroke-opacity="0.200000" d="M211,-113.75C211,-94.11 211,-50 211,-50 211,-50 298.46,-50 298.46,-50"/>
<polygon fill="#000000" fill-opacity="0.200000" stroke="#000000" stroke-width="2" stroke-opacity="0.200000" points="298.46,-52.1 304.46,-50 298.46,-47.9 298.46,-52.1"/>
</g>
<!-- src/render/index.mjs -->
<g id="node10" class="node">
<title>src/render/index.mjs</title>
<g id="a_node10"><a xlink:href="https://github.com/sverweij/state-machine-cat/blob/develop/src/render/index.mjs" xlink:title="index.mjs">
<path fill="#ccccff" stroke="black" d="M358,-132C358,-132 314,-132 314,-132 311,-132 308,-129 308,-126 308,-126 308,-120 308,-120 308,-117 311,-114 314,-114 314,-114 358,-114 358,-114 361,-114 364,-117 364,-120 364,-120 364,-126 364,-126 364,-129 361,-132 358,-132"/>
<text text-anchor="middle" x="336" y="-120.8" font-family="Helvetica,sans-Serif" font-size="9.00">index.mjs</text>
</a>
</g>
</g>
<!-- src/index.mjs&#45;&gt;src/render/index.mjs -->
<g id="edge11" class="edge">
<title>src/index.mjs&#45;&gt;src/render/index.mjs</title>
<path fill="none" stroke="#0000ff" stroke-width="2" stroke-opacity="0.466667" d="M248.08,-118.5C248.08,-118.5 301.78,-118.5 301.78,-118.5"/>
<polygon fill="#0000ff" fill-opacity="0.466667" stroke="#0000ff" stroke-width="2" stroke-opacity="0.466667" points="301.78,-120.6 307.78,-118.5 301.78,-116.4 301.78,-120.6"/>
</g>
<!-- src/render/index.mjs&#45;&gt;src/render/dot -->
<g id="edge29" class="edge">
<title>src/render/index.mjs&#45;&gt;src/render/dot</title>
<path fill="none" stroke="#0000ff" stroke-width="2" stroke-opacity="0.466667" d="M327,-113.76C327,-110.67 327,-108 327,-108 327,-108 568.18,-108 568.18,-108"/>
<polygon fill="#0000ff" fill-opacity="0.466667" stroke="#0000ff" stroke-width="2" stroke-opacity="0.466667" points="568.18,-110.1 574.18,-108 568.18,-105.9 568.18,-110.1"/>
</g>
<!-- src/render/index.mjs&#45;&gt;src/render/scjson -->
<g id="edge30" class="edge">
<title>src/render/index.mjs&#45;&gt;src/render/scjson</title>
<path fill="none" stroke="#0000ff" stroke-width="2" stroke-opacity="0.466667" d="M364.14,-121.5C434.23,-121.5 611,-121.5 611,-121.5 611,-121.5 611,-180.86 611,-180.86"/>
<polygon fill="#0000ff" fill-opacity="0.466667" stroke="#0000ff" stroke-width="2" stroke-opacity="0.466667" points="608.9,-180.86 611,-186.86 613.1,-180.86 608.9,-180.86"/>
</g>
<!-- src/render/index.mjs&#45;&gt;src/render/scxml -->
<g id="edge31" class="edge">
<title>src/render/index.mjs&#45;&gt;src/render/scxml</title>
<path fill="none" stroke="#0000ff" stroke-width="2" stroke-opacity="0.466667" d="M364.32,-128.5C379.04,-128.5 394,-128.5 394,-128.5 394,-128.5 394,-182.33 394,-182.33 394,-182.33 432.47,-182.33 432.47,-182.33"/>
<polygon fill="#0000ff" fill-opacity="0.466667" stroke="#0000ff" stroke-width="2" stroke-opacity="0.466667" points="432.47,-184.43 438.47,-182.33 432.47,-180.23 432.47,-184.43"/>
</g>
<!-- src/render/index.mjs&#45;&gt;src/render/smcat -->
<g id="edge32" class="edge">
<title>src/render/index.mjs&#45;&gt;src/render/smcat</title>
<path fill="none" stroke="#0000ff" stroke-width="2" stroke-opacity="0.466667" d="M364.21,-125C402.44,-125 466,-125 466,-125 466,-125 466,-129.94 466,-129.94"/>
<polygon fill="#0000ff" fill-opacity="0.466667" stroke="#0000ff" stroke-width="2" stroke-opacity="0.466667" points="463.9,-129.94 466,-135.94 468.1,-129.94 463.9,-129.94"/>
</g>
<!-- src/render/index.mjs&#45;&gt;src/render/vector -->
<g id="edge33" class="edge">
<title>src/render/index.mjs&#45;&gt;src/render/vector</title>
<path fill="none" stroke="#0000ff" stroke-width="2" stroke-opacity="0.466667" d="M346,-113.72C346,-104.43 346,-91.5 346,-91.5 346,-91.5 432.38,-91.5 432.38,-91.5"/>
<polygon fill="#0000ff" fill-opacity="0.466667" stroke="#0000ff" stroke-width="2" stroke-opacity="0.466667" points="432.38,-93.6 438.38,-91.5 432.38,-89.4 432.38,-93.6"/>
</g>
<!-- src/parse/scxml&#45;&gt;src/transform -->
<g id="edge19" class="edge">
<title>src/parse/scxml&#45;&gt;src/transform</title>
<path fill="none" stroke="#000000" stroke-width="2" stroke-opacity="0.200000" d="M492.53,-338C512.78,-338 537,-338 537,-338 537,-338 537,-272 537,-272 537,-272 567.77,-272 567.77,-272"/>
<polygon fill="#000000" fill-opacity="0.200000" stroke="#000000" stroke-width="2" stroke-opacity="0.200000" points="567.77,-274.1 573.77,-272 567.77,-269.9 567.77,-274.1"/>
</g>
<!-- src/parse/parser&#45;helpers.mjs -->
<g id="node14" class="node">
<title>src/parse/parser&#45;helpers.mjs</title>
<g id="a_node14"><a xlink:href="https://github.com/sverweij/state-machine-cat/blob/develop/src/parse/parser-helpers.mjs" xlink:title="parser&#45;helpers.mjs">
<path fill="#ffccff" stroke="black" d="M642,-350C642,-350 561,-350 561,-350 558,-350 555,-347 555,-344 555,-344 555,-338 555,-338 555,-335 558,-332 561,-332 561,-332 642,-332 642,-332 645,-332 648,-335 648,-338 648,-338 648,-344 648,-344 648,-347 645,-350 642,-350"/>
<text text-anchor="middle" x="601.5" y="-338.8" font-family="Helvetica,sans-Serif" font-size="9.00">parser&#45;helpers.mjs</text>
</a>
</g>
</g>
<!-- src/parse/scxml&#45;&gt;src/parse/parser&#45;helpers.mjs -->
<g id="edge20" class="edge">
<title>src/parse/scxml&#45;&gt;src/parse/parser&#45;helpers.mjs</title>
<path fill="none" stroke="#ff00ff" stroke-width="2" stroke-opacity="0.466667" d="M492.69,-344C492.69,-344 548.79,-344 548.79,-344"/>
<polygon fill="#ff00ff" fill-opacity="0.466667" stroke="#ff00ff" stroke-width="2" stroke-opacity="0.466667" points="548.79,-346.1 554.79,-344 548.79,-341.9 548.79,-346.1"/>
</g>
<!-- src/parse/smcat&#45;&gt;src/parse/parser&#45;helpers.mjs -->
<g id="edge21" class="edge">
<title>src/parse/smcat&#45;&gt;src/parse/parser&#45;helpers.mjs</title>
<path fill="none" stroke="#ff00ff" stroke-width="2" stroke-opacity="0.466667" d="M492.79,-371C532.63,-371 602,-371 602,-371 602,-371 602,-356.16 602,-356.16"/>
<polygon fill="#ff00ff" fill-opacity="0.466667" stroke="#ff00ff" stroke-width="2" stroke-opacity="0.466667" points="604.1,-356.16 602,-350.16 599.9,-356.16 604.1,-356.16"/>
</g>
<!-- src/parse/parser&#45;helpers.mjs&#45;&gt;src/state&#45;machine&#45;model.mjs -->
<g id="edge18" class="edge">
<title>src/parse/parser&#45;helpers.mjs&#45;&gt;src/state&#45;machine&#45;model.mjs</title>
<path fill="none" stroke="#000000" stroke-width="2" stroke-opacity="0.200000" d="M639,-331.95C639,-306.98 639,-239 639,-239 639,-239 677.92,-239 677.92,-239"/>
<polygon fill="#000000" fill-opacity="0.200000" stroke="#000000" stroke-width="2" stroke-opacity="0.200000" points="677.92,-241.1 683.92,-239 677.92,-236.9 677.92,-241.1"/>
</g>
<!-- src/render/dot&#45;&gt;src/options.mjs -->
<g id="edge22" class="edge">
<title>src/render/dot&#45;&gt;src/options.mjs</title>
<path fill="none" stroke="#000000" stroke-width="2" stroke-opacity="0.200000" d="M628.54,-103.5C628.54,-103.5 705.85,-103.5 705.85,-103.5"/>
<polygon fill="#000000" fill-opacity="0.200000" stroke="#000000" stroke-width="2" stroke-opacity="0.200000" points="705.85,-105.6 711.85,-103.5 705.85,-101.4 705.85,-105.6"/>
</g>
<!-- src/render/dot&#45;&gt;src/state&#45;machine&#45;model.mjs -->
<g id="edge23" class="edge">
<title>src/render/dot&#45;&gt;src/state&#45;machine&#45;model.mjs</title>
<path fill="none" stroke="#000000" stroke-width="2" stroke-opacity="0.200000" d="M628.7,-112.5C658.77,-112.5 703,-112.5 703,-112.5 703,-112.5 703,-220.72 703,-220.72"/>
<polygon fill="#000000" fill-opacity="0.200000" stroke="#000000" stroke-width="2" stroke-opacity="0.200000" points="700.9,-220.72 703,-226.72 705.1,-220.72 700.9,-220.72"/>
</g>
<!-- src/render/scjson&#45;&gt;src/state&#45;machine&#45;model.mjs -->
<g id="edge34" class="edge">
<title>src/render/scjson&#45;&gt;src/state&#45;machine&#45;model.mjs</title>
<path fill="none" stroke="#000000" stroke-width="2" stroke-opacity="0.200000" d="M628.75,-196C656.04,-196 694,-196 694,-196 694,-196 694,-220.72 694,-220.72"/>
<polygon fill="#000000" fill-opacity="0.200000" stroke="#000000" stroke-width="2" stroke-opacity="0.200000" points="691.9,-220.72 694,-226.72 696.1,-220.72 691.9,-220.72"/>
</g>
<!-- src/render/scxml&#45;&gt;src/render/scjson -->
<g id="edge35" class="edge">
<title>src/render/scxml&#45;&gt;src/render/scjson</title>
<path fill="none" stroke="#0000ff" stroke-width="2" stroke-opacity="0.466667" d="M492.69,-192.5C492.69,-192.5 568.35,-192.5 568.35,-192.5"/>
<polygon fill="#0000ff" fill-opacity="0.466667" stroke="#0000ff" stroke-width="2" stroke-opacity="0.466667" points="568.35,-194.6 574.35,-192.5 568.35,-190.4 568.35,-194.6"/>
</g>
<!-- src/render/vector&#45;&gt;src/options.mjs -->
<g id="edge36" class="edge">
<title>src/render/vector&#45;&gt;src/options.mjs</title>
<path fill="none" stroke="#000000" stroke-width="2" stroke-opacity="0.200000" d="M492.66,-91.33C492.66,-91.33 706,-91.33 706,-91.33"/>
<polygon fill="#000000" fill-opacity="0.200000" stroke="#000000" stroke-width="2" stroke-opacity="0.200000" points="706,-93.43 712,-91.33 706,-89.23 706,-93.43"/>
</g>
<!-- src/render/vector&#45;&gt;src/render/dot -->
<g id="edge37" class="edge">
<title>src/render/vector&#45;&gt;src/render/dot</title>
<path fill="none" stroke="#0000ff" stroke-width="2" stroke-opacity="0.466667" d="M492.79,-93.67C532.63,-93.67 602,-93.67 602,-93.67 602,-93.67 602,-94.29 602,-94.29"/>
<polygon fill="#0000ff" fill-opacity="0.466667" stroke="#0000ff" stroke-width="2" stroke-opacity="0.466667" points="599.9,-93.9 602,-99.9 604.1,-93.9 599.9,-93.9"/>
</g>
</g>
</svg>
