<?xml version="1.0" encoding="UTF-8" standalone="no"?>
<!DOCTYPE svg PUBLIC "-//W3C//DTD SVG 1.1//EN"
 "http://www.w3.org/Graphics/SVG/1.1/DTD/svg11.dtd">
<!-- Generated by graphviz version 3.0.0 (20220226.1711)
 -->
<!-- Title: dependency&#45;cruiser output Pages: 1 -->
<svg width="844pt" height="444pt"
 viewBox="0.00 0.00 844.00 444.00" xmlns="http://www.w3.org/2000/svg" xmlns:xlink="http://www.w3.org/1999/xlink">
<g id="graph0" class="graph" transform="scale(1 1) rotate(0) translate(4 440)">
<title>dependency&#45;cruiser output</title>
<polygon fill="white" stroke="transparent" points="-4,4 -4,-440 840,-440 840,4 -4,4"/>
<g id="clust1" class="cluster">
<title>cluster_src</title>
<path fill="#ffffff" stroke="black" stroke-width="2" d="M111,-8C111,-8 816,-8 816,-8 822,-8 828,-14 828,-20 828,-20 828,-416 828,-416 828,-422 822,-428 816,-428 816,-428 111,-428 111,-428 105,-428 99,-422 99,-416 99,-416 99,-20 99,-20 99,-14 105,-8 111,-8"/>
<text text-anchor="middle" x="463.5" y="-416.8" font-family="Helvetica,sans-Serif" font-weight="bold" font-size="9.00">src</text>
</g>
<g id="clust3" class="cluster">
<title>cluster_src/render</title>
<path fill="#ffffff" stroke="black" stroke-width="2" d="M317,-40C317,-40 641.5,-40 641.5,-40 647.5,-40 653.5,-46 653.5,-52 653.5,-52 653.5,-196 653.5,-196 653.5,-202 647.5,-208 641.5,-208 641.5,-208 317,-208 317,-208 311,-208 305,-202 305,-196 305,-196 305,-52 305,-52 305,-46 311,-40 317,-40"/>
<text text-anchor="middle" x="479.25" y="-196.8" font-family="Helvetica,sans-Serif" font-weight="bold" font-size="9.00">render</text>
</g>
<g id="clust2" class="cluster">
<title>cluster_src/parse</title>
<path fill="#ffffff" stroke="black" stroke-width="2" d="M329,-222C329,-222 661,-222 661,-222 667,-222 673,-228 673,-234 673,-234 673,-322 673,-322 673,-328 667,-334 661,-334 661,-334 329,-334 329,-334 323,-334 317,-328 317,-322 317,-322 317,-234 317,-234 317,-228 323,-222 329,-222"/>
<text text-anchor="middle" x="495" y="-322.8" font-family="Helvetica,sans-Serif" font-weight="bold" font-size="9.00">parse</text>
</g>
<!-- bin -->
<g id="node1" class="node">
<title>bin</title>
<g id="a_node1"><a xlink:href="https://github.com/sverweij/state-machine-cat/blob/develop/bin" xlink:title="bin">
<polygon fill="#ffffcc" stroke="black" points="62.5,-66 10.5,-66 8.5,-64 8.5,-48 60.5,-48 62.5,-50 62.5,-66"/>
<polyline fill="none" stroke="black" points="60.5,-64 8.5,-64 "/>
<polyline fill="none" stroke="black" points="60.5,-64 60.5,-48 "/>
<polyline fill="none" stroke="black" points="60.5,-64 62.5,-66 "/>
<text text-anchor="middle" x="35.5" y="-54.8" font-family="Helvetica,sans-Serif" font-size="9.00">bin</text>
</a>
</g>
</g>
<!-- src/cli -->
<g id="node2" class="node">
<title>src/cli</title>
<g id="a_node2"><a xlink:href="https://github.com/sverweij/state-machine-cat/blob/develop/src/cli" xlink:title="cli">
<polygon fill="#ccffcc" stroke="black" points="161,-66 109,-66 107,-64 107,-48 159,-48 161,-50 161,-66"/>
<polyline fill="none" stroke="black" points="159,-64 107,-64 "/>
<polyline fill="none" stroke="black" points="159,-64 159,-48 "/>
<polyline fill="none" stroke="black" points="159,-64 161,-66 "/>
<text text-anchor="start" x="129" y="-54.8" font-family="Helvetica,sans-Serif" font-size="9.00">cli</text>
</a>
</g>
</g>
<!-- bin&#45;&gt;src/cli -->
<g id="edge1" class="edge">
<title>bin&#45;&gt;src/cli</title>
<path fill="none" stroke="#007700" stroke-width="2" stroke-opacity="0.466667" d="M62.68,-57C62.68,-57 100.91,-57 100.91,-57"/>
<polygon fill="#007700" fill-opacity="0.466667" stroke="#007700" stroke-width="2" stroke-opacity="0.466667" points="100.91,-59.1 106.91,-57 100.91,-54.9 100.91,-59.1"/>
</g>
<!-- src/index&#45;node.mjs -->
<g id="node4" class="node">
<title>src/index&#45;node.mjs</title>
<g id="a_node4"><a xlink:href="https://github.com/sverweij/state-machine-cat/blob/develop/src/index-node.mjs" xlink:title="index&#45;node.mjs">
<path fill="#ffffcc" stroke="black" d="M271,-341C271,-341 203,-341 203,-341 200,-341 197,-338 197,-335 197,-335 197,-329 197,-329 197,-326 200,-323 203,-323 203,-323 271,-323 271,-323 274,-323 277,-326 277,-329 277,-329 277,-335 277,-335 277,-338 274,-341 271,-341"/>
<text text-anchor="start" x="205" y="-329.8" font-family="Helvetica,sans-Serif" font-size="9.00">index&#45;node.mjs</text>
</a>
</g>
</g>
<!-- src/cli&#45;&gt;src/index&#45;node.mjs -->
<g id="edge2" class="edge">
<title>src/cli&#45;&gt;src/index&#45;node.mjs</title>
<path fill="none" stroke="#000000" stroke-width="2" stroke-opacity="0.200000" d="M161.27,-57C180.56,-57 203,-57 203,-57 203,-57 203,-316.85 203,-316.85"/>
<polygon fill="#000000" fill-opacity="0.200000" stroke="#000000" stroke-width="2" stroke-opacity="0.200000" points="200.9,-316.85 203,-322.85 205.1,-316.85 200.9,-316.85"/>
</g>
<!-- src/render/vector -->
<g id="node5" class="node">
<title>src/render/vector</title>
<g id="a_node5"><a xlink:href="https://github.com/sverweij/state-machine-cat/blob/develop/src/render/vector" xlink:title="vector">
<polygon fill="#ccccff" stroke="black" points="509.5,-66 457.5,-66 455.5,-64 455.5,-48 507.5,-48 509.5,-50 509.5,-66"/>
<polyline fill="none" stroke="black" points="507.5,-64 455.5,-64 "/>
<polyline fill="none" stroke="black" points="507.5,-64 507.5,-48 "/>
<polyline fill="none" stroke="black" points="507.5,-64 509.5,-66 "/>
<text text-anchor="start" x="470" y="-54.8" font-family="Helvetica,sans-Serif" font-size="9.00">vector</text>
</a>
</g>
</g>
<!-- src/cli&#45;&gt;src/render/vector -->
<g id="edge3" class="edge">
<title>src/cli&#45;&gt;src/render/vector</title>
<path fill="none" stroke="#0000ff" stroke-width="2" stroke-opacity="0.466667" d="M161.06,-52.5C161.06,-52.5 449.22,-52.5 449.22,-52.5"/>
<polygon fill="#0000ff" fill-opacity="0.466667" stroke="#0000ff" stroke-width="2" stroke-opacity="0.466667" points="449.22,-54.6 455.22,-52.5 449.22,-50.4 449.22,-54.6"/>
</g>
<!-- src/options.mjs -->
<g id="node6" class="node">
<title>src/options.mjs</title>
<g id="a_node6"><a xlink:href="https://github.com/sverweij/state-machine-cat/blob/develop/src/options.mjs" xlink:title="options.mjs">
<path fill="#ffffcc" stroke="black" d="M786,-77C786,-77 735,-77 735,-77 732,-77 729,-74 729,-71 729,-71 729,-65 729,-65 729,-62 732,-59 735,-59 735,-59 786,-59 786,-59 789,-59 792,-62 792,-65 792,-65 792,-71 792,-71 792,-74 789,-77 786,-77"/>
<text text-anchor="start" x="737" y="-65.8" font-family="Helvetica,sans-Serif" font-size="9.00">options.mjs</text>
</a>
</g>
</g>
<!-- src/cli&#45;&gt;src/options.mjs -->
<g id="edge4" class="edge">
<title>src/cli&#45;&gt;src/options.mjs</title>
<path fill="none" stroke="#000000" stroke-width="2" stroke-opacity="0.200000" d="M134,-66.06C134,-76.29 134,-91.5 134,-91.5 134,-91.5 745,-91.5 745,-91.5 745,-91.5 745,-83.02 745,-83.02"/>
<polygon fill="#000000" fill-opacity="0.200000" stroke="#000000" stroke-width="2" stroke-opacity="0.200000" points="747.1,-83.02 745,-77.02 742.9,-83.02 747.1,-83.02"/>
</g>
<!-- package.json -->
<g id="node3" class="node">
<title>package.json</title>
<g id="a_node3"><a xlink:href="https://github.com/sverweij/state-machine-cat/blob/develop/package.json" xlink:title="package.json">
<path fill="#ffee44" stroke="black" d="M71,-100.02C71,-101.25 55.09,-102.25 35.5,-102.25 15.91,-102.25 0,-101.25 0,-100.02 0,-100.02 0,-79.98 0,-79.98 0,-78.75 15.91,-77.75 35.5,-77.75 55.09,-77.75 71,-78.75 71,-79.98 71,-79.98 71,-100.02 71,-100.02"/>
<path fill="none" stroke="black" d="M71,-100.02C71,-98.79 55.09,-97.8 35.5,-97.8 15.91,-97.8 0,-98.79 0,-100.02"/>
<text text-anchor="middle" x="35.5" y="-87.8" font-family="Helvetica,sans-Serif" font-size="9.00">package.json</text>
</a>
</g>
</g>
<!-- src/index&#45;node.mjs&#45;&gt;src/options.mjs -->
<g id="edge5" class="edge">
<title>src/index&#45;node.mjs&#45;&gt;src/options.mjs</title>
<path fill="none" stroke="#000000" stroke-width="2" stroke-opacity="0.200000" d="M277.37,-330.2C387.15,-330.2 683,-330.2 683,-330.2 683,-330.2 683,-74.67 683,-74.67 683,-74.67 722.98,-74.67 722.98,-74.67"/>
<polygon fill="#000000" fill-opacity="0.200000" stroke="#000000" stroke-width="2" stroke-opacity="0.200000" points="722.98,-76.77 728.98,-74.67 722.98,-72.57 722.98,-76.77"/>
</g>
<!-- src/parse/index.mjs -->
<g id="node7" class="node">
<title>src/parse/index.mjs</title>
<g id="a_node7"><a xlink:href="https://github.com/sverweij/state-machine-cat/blob/develop/src/parse/index.mjs" xlink:title="index.mjs">
<path fill="#ffccff" stroke="black" d="M375,-278C375,-278 331,-278 331,-278 328,-278 325,-275 325,-272 325,-272 325,-266 325,-266 325,-263 328,-260 331,-260 331,-260 375,-260 375,-260 378,-260 381,-263 381,-266 381,-266 381,-272 381,-272 381,-275 378,-278 375,-278"/>
<text text-anchor="start" x="333" y="-266.8" font-family="Helvetica,sans-Serif" font-size="9.00">index.mjs</text>
</a>
</g>
</g>
<!-- src/index&#45;node.mjs&#45;&gt;src/parse/index.mjs -->
<g id="edge6" class="edge">
<title>src/index&#45;node.mjs&#45;&gt;src/parse/index.mjs</title>
<path fill="none" stroke="#ff00ff" stroke-width="2" stroke-opacity="0.466667" d="M271,-322.75C271,-306.46 271,-274.4 271,-274.4 271,-274.4 318.78,-274.4 318.78,-274.4"/>
<polygon fill="#ff00ff" fill-opacity="0.466667" stroke="#ff00ff" stroke-width="2" stroke-opacity="0.466667" points="318.78,-276.5 324.78,-274.4 318.78,-272.3 318.78,-276.5"/>
</g>
<!-- src/render/index&#45;node.mjs -->
<g id="node8" class="node">
<title>src/render/index&#45;node.mjs</title>
<g id="a_node8"><a xlink:href="https://github.com/sverweij/state-machine-cat/blob/develop/src/render/index-node.mjs" xlink:title="index&#45;node.mjs">
<path fill="#ccccff" stroke="black" d="M387,-165C387,-165 319,-165 319,-165 316,-165 313,-162 313,-159 313,-159 313,-153 313,-153 313,-150 316,-147 319,-147 319,-147 387,-147 387,-147 390,-147 393,-150 393,-153 393,-153 393,-159 393,-159 393,-162 390,-165 387,-165"/>
<text text-anchor="start" x="321" y="-153.8" font-family="Helvetica,sans-Serif" font-size="9.00">index&#45;node.mjs</text>
</a>
</g>
</g>
<!-- src/index&#45;node.mjs&#45;&gt;src/render/index&#45;node.mjs -->
<g id="edge7" class="edge">
<title>src/index&#45;node.mjs&#45;&gt;src/render/index&#45;node.mjs</title>
<path fill="none" stroke="#0000ff" stroke-width="2" stroke-opacity="0.466667" d="M277.03,-326.6C297.43,-326.6 318,-326.6 318,-326.6 318,-326.6 318,-171.17 318,-171.17"/>
<polygon fill="#0000ff" fill-opacity="0.466667" stroke="#0000ff" stroke-width="2" stroke-opacity="0.466667" points="320.1,-171.17 318,-165.17 315.9,-171.17 320.1,-171.17"/>
</g>
<!-- src/transform -->
<g id="node9" class="node">
<title>src/transform</title>
<g id="a_node9"><a xlink:href="https://github.com/sverweij/state-machine-cat/blob/develop/src/transform" xlink:title="transform">
<polygon fill="#ffffcc" stroke="black" points="646,-360 593,-360 591,-358 591,-342 644,-342 646,-344 646,-360"/>
<polyline fill="none" stroke="black" points="644,-358 591,-358 "/>
<polyline fill="none" stroke="black" points="644,-358 644,-342 "/>
<polyline fill="none" stroke="black" points="644,-358 646,-360 "/>
<text text-anchor="start" x="599" y="-348.8" font-family="Helvetica,sans-Serif" font-size="9.00">transform</text>
</a>
</g>
</g>
<!-- src/index&#45;node.mjs&#45;&gt;src/transform -->
<g id="edge8" class="edge">
<title>src/index&#45;node.mjs&#45;&gt;src/transform</title>
<path fill="none" stroke="#000000" stroke-width="2" stroke-opacity="0.200000" d="M277.27,-333.8C373.72,-333.8 610,-333.8 610,-333.8 610,-333.8 610,-336 610,-336"/>
<polygon fill="#000000" fill-opacity="0.200000" stroke="#000000" stroke-width="2" stroke-opacity="0.200000" points="607.9,-336 610,-342 612.1,-336 607.9,-336"/>
</g>
<!-- src/version.mjs -->
<g id="node10" class="node">
<title>src/version.mjs</title>
<g id="a_node10"><a xlink:href="https://github.com/sverweij/state-machine-cat/blob/develop/src/version.mjs" xlink:title="version.mjs">
<path fill="#ffffcc" stroke="black" d="M378.5,-374C378.5,-374 327.5,-374 327.5,-374 324.5,-374 321.5,-371 321.5,-368 321.5,-368 321.5,-362 321.5,-362 321.5,-359 324.5,-356 327.5,-356 327.5,-356 378.5,-356 378.5,-356 381.5,-356 384.5,-359 384.5,-362 384.5,-362 384.5,-368 384.5,-368 384.5,-371 381.5,-374 378.5,-374"/>
<text text-anchor="start" x="329.5" y="-362.8" font-family="Helvetica,sans-Serif" font-size="9.00">version.mjs</text>
</a>
</g>
</g>
<!-- src/index&#45;node.mjs&#45;&gt;src/version.mjs -->
<g id="edge9" class="edge">
<title>src/index&#45;node.mjs&#45;&gt;src/version.mjs</title>
<path fill="none" stroke="#000000" stroke-width="2" stroke-opacity="0.200000" d="M277.25,-337.4C310.75,-337.4 353,-337.4 353,-337.4 353,-337.4 353,-349.96 353,-349.96"/>
<polygon fill="#000000" fill-opacity="0.200000" stroke="#000000" stroke-width="2" stroke-opacity="0.200000" points="350.9,-349.96 353,-355.96 355.1,-349.96 350.9,-349.96"/>
</g>
<!-- src/render/vector&#45;&gt;src/options.mjs -->
<g id="edge37" class="edge">
<title>src/render/vector&#45;&gt;src/options.mjs</title>
<path fill="none" stroke="#000000" stroke-width="2" stroke-opacity="0.200000" d="M509.66,-61.33C509.66,-61.33 723,-61.33 723,-61.33"/>
<polygon fill="#000000" fill-opacity="0.200000" stroke="#000000" stroke-width="2" stroke-opacity="0.200000" points="723,-63.43 729,-61.33 723,-59.23 723,-63.43"/>
</g>
<!-- src/render/dot -->
<g id="node18" class="node">
<title>src/render/dot</title>
<g id="a_node18"><a xlink:href="https://github.com/sverweij/state-machine-cat/blob/develop/src/render/dot" xlink:title="dot">
<polygon fill="#ccccff" stroke="black" points="645.5,-88 593.5,-88 591.5,-86 591.5,-70 643.5,-70 645.5,-72 645.5,-88"/>
<polyline fill="none" stroke="black" points="643.5,-86 591.5,-86 "/>
<polyline fill="none" stroke="black" points="643.5,-86 643.5,-70 "/>
<polyline fill="none" stroke="black" points="643.5,-86 645.5,-88 "/>
<text text-anchor="start" x="612" y="-76.8" font-family="Helvetica,sans-Serif" font-size="9.00">dot</text>
</a>
</g>
</g>
<!-- src/render/vector&#45;&gt;src/render/dot -->
<g id="edge38" class="edge">
<title>src/render/vector&#45;&gt;src/render/dot</title>
<path fill="none" stroke="#0000ff" stroke-width="2" stroke-opacity="0.466667" d="M509.79,-63.67C549.63,-63.67 619,-63.67 619,-63.67 619,-63.67 619,-64.29 619,-64.29"/>
<polygon fill="#0000ff" fill-opacity="0.466667" stroke="#0000ff" stroke-width="2" stroke-opacity="0.466667" points="616.9,-63.9 619,-69.9 621.1,-63.9 616.9,-63.9"/>
</g>
<!-- src/parse/index.mjs&#45;&gt;src/options.mjs -->
<g id="edge15" class="edge">
<title>src/parse/index.mjs&#45;&gt;src/options.mjs</title>
<path fill="none" stroke="#000000" stroke-width="2" stroke-opacity="0.200000" d="M344,-259.84C344,-238.31 344,-186.33 344,-186.33 344,-186.33 777,-186.33 777,-186.33 777,-186.33 777,-83.29 777,-83.29"/>
<polygon fill="#000000" fill-opacity="0.200000" stroke="#000000" stroke-width="2" stroke-opacity="0.200000" points="779.1,-83.29 777,-77.29 774.9,-83.29 779.1,-83.29"/>
</g>
<!-- src/parse/scxml -->
<g id="node13" class="node">
<title>src/parse/scxml</title>
<g id="a_node13"><a xlink:href="https://github.com/sverweij/state-machine-cat/blob/develop/src/parse/scxml" xlink:title="scxml">
<polygon fill="#ffccff" stroke="black" points="509.5,-278 457.5,-278 455.5,-276 455.5,-260 507.5,-260 509.5,-262 509.5,-278"/>
<polyline fill="none" stroke="black" points="507.5,-276 455.5,-276 "/>
<polyline fill="none" stroke="black" points="507.5,-276 507.5,-260 "/>
<polyline fill="none" stroke="black" points="507.5,-276 509.5,-278 "/>
<text text-anchor="start" x="470.5" y="-266.8" font-family="Helvetica,sans-Serif" font-size="9.00">scxml</text>
</a>
</g>
</g>
<!-- src/parse/index.mjs&#45;&gt;src/parse/scxml -->
<g id="edge16" class="edge">
<title>src/parse/index.mjs&#45;&gt;src/parse/scxml</title>
<path fill="none" stroke="#ff00ff" stroke-width="2" stroke-opacity="0.466667" d="M381.1,-266C381.1,-266 449.34,-266 449.34,-266"/>
<polygon fill="#ff00ff" fill-opacity="0.466667" stroke="#ff00ff" stroke-width="2" stroke-opacity="0.466667" points="449.34,-268.1 455.34,-266 449.34,-263.9 449.34,-268.1"/>
</g>
<!-- src/parse/smcat&#45;ast.schema.mjs -->
<g id="node14" class="node">
<title>src/parse/smcat&#45;ast.schema.mjs</title>
<g id="a_node14"><a xlink:href="https://github.com/sverweij/state-machine-cat/blob/develop/src/parse/smcat-ast.schema.mjs" xlink:title="smcat&#45;ast.schema.mjs">
<path fill="#ffccff" stroke="black" d="M530,-308C530,-308 435,-308 435,-308 432,-308 429,-305 429,-302 429,-302 429,-296 429,-296 429,-293 432,-290 435,-290 435,-290 530,-290 530,-290 533,-290 536,-293 536,-296 536,-296 536,-302 536,-302 536,-305 533,-308 530,-308"/>
<text text-anchor="start" x="437" y="-296.8" font-family="Helvetica,sans-Serif" font-size="9.00">smcat&#45;ast.schema.mjs</text>
</a>
</g>
</g>
<!-- src/parse/index.mjs&#45;&gt;src/parse/smcat&#45;ast.schema.mjs -->
<g id="edge17" class="edge">
<title>src/parse/index.mjs&#45;&gt;src/parse/smcat&#45;ast.schema.mjs</title>
<path fill="none" stroke="#ff00ff" stroke-width="2" stroke-opacity="0.466667" d="M381.48,-272C407.84,-272 443,-272 443,-272 443,-272 443,-283.86 443,-283.86"/>
<polygon fill="#ff00ff" fill-opacity="0.466667" stroke="#ff00ff" stroke-width="2" stroke-opacity="0.466667" points="440.9,-283.86 443,-289.86 445.1,-283.86 440.9,-283.86"/>
</g>
<!-- src/parse/smcat -->
<g id="node15" class="node">
<title>src/parse/smcat</title>
<g id="a_node15"><a xlink:href="https://github.com/sverweij/state-machine-cat/blob/develop/src/parse/smcat" xlink:title="smcat">
<polygon fill="#ffccff" stroke="black" points="509.5,-248 457.5,-248 455.5,-246 455.5,-230 507.5,-230 509.5,-232 509.5,-248"/>
<polyline fill="none" stroke="black" points="507.5,-246 455.5,-246 "/>
<polyline fill="none" stroke="black" points="507.5,-246 507.5,-230 "/>
<polyline fill="none" stroke="black" points="507.5,-246 509.5,-248 "/>
<text text-anchor="start" x="470" y="-236.8" font-family="Helvetica,sans-Serif" font-size="9.00">smcat</text>
</a>
</g>
</g>
<!-- src/parse/index.mjs&#45;&gt;src/parse/smcat -->
<g id="edge18" class="edge">
<title>src/parse/index.mjs&#45;&gt;src/parse/smcat</title>
<path fill="none" stroke="#ff00ff" stroke-width="2" stroke-opacity="0.466667" d="M363,-259.84C363,-251.01 363,-239 363,-239 363,-239 449.38,-239 449.38,-239"/>
<polygon fill="#ff00ff" fill-opacity="0.466667" stroke="#ff00ff" stroke-width="2" stroke-opacity="0.466667" points="449.38,-241.1 455.38,-239 449.38,-236.9 449.38,-241.1"/>
</g>
<!-- src/render/index&#45;node.mjs&#45;&gt;src/render/vector -->
<g id="edge29" class="edge">
<title>src/render/index&#45;node.mjs&#45;&gt;src/render/vector</title>
<path fill="none" stroke="#0000ff" stroke-width="2" stroke-opacity="0.466667" d="M384,-146.94C384,-123.29 384,-61.5 384,-61.5 384,-61.5 449.32,-61.5 449.32,-61.5"/>
<polygon fill="#0000ff" fill-opacity="0.466667" stroke="#0000ff" stroke-width="2" stroke-opacity="0.466667" points="449.32,-63.6 455.32,-61.5 449.32,-59.4 449.32,-63.6"/>
</g>
<!-- src/render/index&#45;node.mjs&#45;&gt;src/render/dot -->
<g id="edge25" class="edge">
<title>src/render/index&#45;node.mjs&#45;&gt;src/render/dot</title>
<path fill="none" stroke="#0000ff" stroke-width="2" stroke-opacity="0.466667" d="M387,-146.73C387,-127.04 387,-82.81 387,-82.81 387,-82.81 585.49,-82.81 585.49,-82.81"/>
<polygon fill="#0000ff" fill-opacity="0.466667" stroke="#0000ff" stroke-width="2" stroke-opacity="0.466667" points="585.49,-84.91 591.49,-82.81 585.49,-80.71 585.49,-84.91"/>
</g>
<!-- src/render/scjson -->
<g id="node19" class="node">
<title>src/render/scjson</title>
<g id="a_node19"><a xlink:href="https://github.com/sverweij/state-machine-cat/blob/develop/src/render/scjson" xlink:title="scjson">
<polygon fill="#ccccff" stroke="black" points="645.5,-153 593.5,-153 591.5,-151 591.5,-135 643.5,-135 645.5,-137 645.5,-153"/>
<polyline fill="none" stroke="black" points="643.5,-151 591.5,-151 "/>
<polyline fill="none" stroke="black" points="643.5,-151 643.5,-135 "/>
<polyline fill="none" stroke="black" points="643.5,-151 645.5,-153 "/>
<text text-anchor="start" x="605" y="-141.8" font-family="Helvetica,sans-Serif" font-size="9.00">scjson</text>
</a>
</g>
</g>
<!-- src/render/index&#45;node.mjs&#45;&gt;src/render/scjson -->
<g id="edge26" class="edge">
<title>src/render/index&#45;node.mjs&#45;&gt;src/render/scjson</title>
<path fill="none" stroke="#0000ff" stroke-width="2" stroke-opacity="0.466667" d="M393.11,-159.5C467.42,-159.5 619,-159.5 619,-159.5 619,-159.5 619,-158.87 619,-158.87"/>
<polygon fill="#0000ff" fill-opacity="0.466667" stroke="#0000ff" stroke-width="2" stroke-opacity="0.466667" points="621.1,-159.2 619,-153.2 616.9,-159.2 621.1,-159.2"/>
</g>
<!-- src/render/scxml -->
<g id="node20" class="node">
<title>src/render/scxml</title>
<g id="a_node20"><a xlink:href="https://github.com/sverweij/state-machine-cat/blob/develop/src/render/scxml" xlink:title="scxml">
<polygon fill="#ccccff" stroke="black" points="509.5,-124 457.5,-124 455.5,-122 455.5,-106 507.5,-106 509.5,-108 509.5,-124"/>
<polyline fill="none" stroke="black" points="507.5,-122 455.5,-122 "/>
<polyline fill="none" stroke="black" points="507.5,-122 507.5,-106 "/>
<polyline fill="none" stroke="black" points="507.5,-122 509.5,-124 "/>
<text text-anchor="start" x="470.5" y="-112.8" font-family="Helvetica,sans-Serif" font-size="9.00">scxml</text>
</a>
</g>
</g>
<!-- src/render/index&#45;node.mjs&#45;&gt;src/render/scxml -->
<g id="edge27" class="edge">
<title>src/render/index&#45;node.mjs&#45;&gt;src/render/scxml</title>
<path fill="none" stroke="#0000ff" stroke-width="2" stroke-opacity="0.466667" d="M390,-146.92C390,-135.82 390,-118.5 390,-118.5 390,-118.5 449.25,-118.5 449.25,-118.5"/>
<polygon fill="#0000ff" fill-opacity="0.466667" stroke="#0000ff" stroke-width="2" stroke-opacity="0.466667" points="449.25,-120.6 455.25,-118.5 449.25,-116.4 449.25,-120.6"/>
</g>
<!-- src/render/smcat -->
<g id="node21" class="node">
<title>src/render/smcat</title>
<g id="a_node21"><a xlink:href="https://github.com/sverweij/state-machine-cat/blob/develop/src/render/smcat" xlink:title="smcat">
<polygon fill="#ccccff" stroke="black" points="509.5,-154 457.5,-154 455.5,-152 455.5,-136 507.5,-136 509.5,-138 509.5,-154"/>
<polyline fill="none" stroke="black" points="507.5,-152 455.5,-152 "/>
<polyline fill="none" stroke="black" points="507.5,-152 507.5,-136 "/>
<polyline fill="none" stroke="black" points="507.5,-152 509.5,-154 "/>
<text text-anchor="start" x="470" y="-142.8" font-family="Helvetica,sans-Serif" font-size="9.00">smcat</text>
</a>
</g>
</g>
<!-- src/render/index&#45;node.mjs&#45;&gt;src/render/smcat -->
<g id="edge28" class="edge">
<title>src/render/index&#45;node.mjs&#45;&gt;src/render/smcat</title>
<path fill="none" stroke="#0000ff" stroke-width="2" stroke-opacity="0.466667" d="M393.26,-150.5C393.26,-150.5 449.37,-150.5 449.37,-150.5"/>
<polygon fill="#0000ff" fill-opacity="0.466667" stroke="#0000ff" stroke-width="2" stroke-opacity="0.466667" points="449.37,-152.6 455.37,-150.5 449.37,-148.4 449.37,-152.6"/>
</g>
<!-- src/state&#45;machine&#45;model.mjs -->
<g id="node17" class="node">
<title>src/state&#45;machine&#45;model.mjs</title>
<g id="a_node17"><a xlink:href="https://github.com/sverweij/state-machine-cat/blob/develop/src/state-machine-model.mjs" xlink:title="state&#45;machine&#45;model.mjs">
<path fill="#ffffcc" stroke="black" d="M814,-215C814,-215 707,-215 707,-215 704,-215 701,-212 701,-209 701,-209 701,-203 701,-203 701,-200 704,-197 707,-197 707,-197 814,-197 814,-197 817,-197 820,-200 820,-203 820,-203 820,-209 820,-209 820,-212 817,-215 814,-215"/>
<text text-anchor="start" x="709" y="-203.8" font-family="Helvetica,sans-Serif" font-size="9.00">state&#45;machine&#45;model.mjs</text>
</a>
</g>
</g>
<!-- src/transform&#45;&gt;src/state&#45;machine&#45;model.mjs -->
<g id="edge39" class="edge">
<title>src/transform&#45;&gt;src/state&#45;machine&#45;model.mjs</title>
<path fill="none" stroke="#000000" stroke-width="2" stroke-opacity="0.200000" d="M646.31,-351C687.78,-351 761,-351 761,-351 761,-351 761,-221.07 761,-221.07"/>
<polygon fill="#000000" fill-opacity="0.200000" stroke="#000000" stroke-width="2" stroke-opacity="0.200000" points="763.1,-221.07 761,-215.07 758.9,-221.07 763.1,-221.07"/>
</g>
<!-- src/index.mjs -->
<g id="node11" class="node">
<title>src/index.mjs</title>
<g id="a_node11"><a xlink:href="https://github.com/sverweij/state-machine-cat/blob/develop/src/index.mjs" xlink:title="index.mjs">
<path fill="#ffffcc" stroke="black" d="M259,-278C259,-278 215,-278 215,-278 212,-278 209,-275 209,-272 209,-272 209,-266 209,-266 209,-263 212,-260 215,-260 215,-260 259,-260 259,-260 262,-260 265,-263 265,-266 265,-266 265,-272 265,-272 265,-275 262,-278 259,-278"/>
<text text-anchor="start" x="217" y="-266.8" font-family="Helvetica,sans-Serif" font-size="9.00">index.mjs</text>
</a>
</g>
</g>
<!-- src/index.mjs&#45;&gt;src/options.mjs -->
<g id="edge10" class="edge">
<title>src/index.mjs&#45;&gt;src/options.mjs</title>
<path fill="none" stroke="#000000" stroke-width="2" stroke-opacity="0.200000" d="M247,-259.71C247,-236.1 247,-175.67 247,-175.67 247,-175.67 761,-175.67 761,-175.67 761,-175.67 761,-83.18 761,-83.18"/>
<polygon fill="#000000" fill-opacity="0.200000" stroke="#000000" stroke-width="2" stroke-opacity="0.200000" points="763.1,-83.18 761,-77.18 758.9,-83.18 763.1,-83.18"/>
</g>
<!-- src/index.mjs&#45;&gt;src/parse/index.mjs -->
<g id="edge11" class="edge">
<title>src/index.mjs&#45;&gt;src/parse/index.mjs</title>
<path fill="none" stroke="#ff00ff" stroke-width="2" stroke-opacity="0.466667" d="M265.08,-263.6C265.08,-263.6 318.78,-263.6 318.78,-263.6"/>
<polygon fill="#ff00ff" fill-opacity="0.466667" stroke="#ff00ff" stroke-width="2" stroke-opacity="0.466667" points="318.78,-265.7 324.78,-263.6 318.78,-261.5 318.78,-265.7"/>
</g>
<!-- src/index.mjs&#45;&gt;src/transform -->
<g id="edge13" class="edge">
<title>src/index.mjs&#45;&gt;src/transform</title>
<path fill="none" stroke="#000000" stroke-width="2" stroke-opacity="0.200000" d="M265.26,-267.2C282.4,-267.2 301,-267.2 301,-267.2 301,-267.2 301,-349 301,-349 301,-349 584.88,-349 584.88,-349"/>
<polygon fill="#000000" fill-opacity="0.200000" stroke="#000000" stroke-width="2" stroke-opacity="0.200000" points="584.88,-351.1 590.88,-349 584.88,-346.9 584.88,-351.1"/>
</g>
<!-- src/index.mjs&#45;&gt;src/version.mjs -->
<g id="edge14" class="edge">
<title>src/index.mjs&#45;&gt;src/version.mjs</title>
<path fill="none" stroke="#000000" stroke-width="2" stroke-opacity="0.200000" d="M265.13,-270.8C277.38,-270.8 289,-270.8 289,-270.8 289,-270.8 289,-365 289,-365 289,-365 315.37,-365 315.37,-365"/>
<polygon fill="#000000" fill-opacity="0.200000" stroke="#000000" stroke-width="2" stroke-opacity="0.200000" points="315.38,-367.1 321.37,-365 315.37,-362.9 315.38,-367.1"/>
</g>
<!-- src/render/index.mjs -->
<g id="node12" class="node">
<title>src/render/index.mjs</title>
<g id="a_node12"><a xlink:href="https://github.com/sverweij/state-machine-cat/blob/develop/src/render/index.mjs" xlink:title="index.mjs">
<path fill="#ccccff" stroke="black" d="M375,-113C375,-113 331,-113 331,-113 328,-113 325,-110 325,-107 325,-107 325,-101 325,-101 325,-98 328,-95 331,-95 331,-95 375,-95 375,-95 378,-95 381,-98 381,-101 381,-101 381,-107 381,-107 381,-110 378,-113 375,-113"/>
<text text-anchor="start" x="333" y="-101.8" font-family="Helvetica,sans-Serif" font-size="9.00">index.mjs</text>
</a>
</g>
</g>
<!-- src/index.mjs&#45;&gt;src/render/index.mjs -->
<g id="edge12" class="edge">
<title>src/index.mjs&#45;&gt;src/render/index.mjs</title>
<path fill="none" stroke="#0000ff" stroke-width="2" stroke-opacity="0.466667" d="M228,-259.86C228,-225.74 228,-107.69 228,-107.69 228,-107.69 318.95,-107.69 318.95,-107.69"/>
<polygon fill="#0000ff" fill-opacity="0.466667" stroke="#0000ff" stroke-width="2" stroke-opacity="0.466667" points="318.95,-109.79 324.95,-107.69 318.95,-105.59 318.95,-109.79"/>
</g>
<!-- src/render/index.mjs&#45;&gt;src/render/vector -->
<g id="edge34" class="edge">
<title>src/render/index.mjs&#45;&gt;src/render/vector</title>
<path fill="none" stroke="#0000ff" stroke-width="2" stroke-opacity="0.466667" d="M381.21,-97.75C419.44,-97.75 483,-97.75 483,-97.75 483,-97.75 483,-72.04 483,-72.04"/>
<polygon fill="#0000ff" fill-opacity="0.466667" stroke="#0000ff" stroke-width="2" stroke-opacity="0.466667" points="485.1,-72.04 483,-66.04 480.9,-72.04 485.1,-72.04"/>
</g>
<!-- src/render/index.mjs&#45;&gt;src/render/dot -->
<g id="edge30" class="edge">
<title>src/render/index.mjs&#45;&gt;src/render/dot</title>
<path fill="none" stroke="#0000ff" stroke-width="2" stroke-opacity="0.466667" d="M381.42,-100.5C447.32,-100.5 605,-100.5 605,-100.5 605,-100.5 605,-94.24 605,-94.24"/>
<polygon fill="#0000ff" fill-opacity="0.466667" stroke="#0000ff" stroke-width="2" stroke-opacity="0.466667" points="607.1,-94.24 605,-88.24 602.9,-94.24 607.1,-94.24"/>
</g>
<!-- src/render/index.mjs&#45;&gt;src/render/scjson -->
<g id="edge31" class="edge">
<title>src/render/index.mjs&#45;&gt;src/render/scjson</title>
<path fill="none" stroke="#0000ff" stroke-width="2" stroke-opacity="0.466667" d="M381.03,-103.25C451.78,-103.25 632,-103.25 632,-103.25 632,-103.25 632,-128.96 632,-128.96"/>
<polygon fill="#0000ff" fill-opacity="0.466667" stroke="#0000ff" stroke-width="2" stroke-opacity="0.466667" points="629.9,-128.96 632,-134.96 634.1,-128.96 629.9,-128.96"/>
</g>
<!-- src/render/index.mjs&#45;&gt;src/render/scxml -->
<g id="edge32" class="edge">
<title>src/render/index.mjs&#45;&gt;src/render/scxml</title>
<path fill="none" stroke="#0000ff" stroke-width="2" stroke-opacity="0.466667" d="M381.1,-109.5C381.1,-109.5 449.34,-109.5 449.34,-109.5"/>
<polygon fill="#0000ff" fill-opacity="0.466667" stroke="#0000ff" stroke-width="2" stroke-opacity="0.466667" points="449.34,-111.6 455.34,-109.5 449.34,-107.4 449.34,-111.6"/>
</g>
<!-- src/render/index.mjs&#45;&gt;src/render/smcat -->
<g id="edge33" class="edge">
<title>src/render/index.mjs&#45;&gt;src/render/smcat</title>
<path fill="none" stroke="#0000ff" stroke-width="2" stroke-opacity="0.466667" d="M353,-113.08C353,-124.18 353,-141.5 353,-141.5 353,-141.5 449.35,-141.5 449.35,-141.5"/>
<polygon fill="#0000ff" fill-opacity="0.466667" stroke="#0000ff" stroke-width="2" stroke-opacity="0.466667" points="449.35,-143.6 455.35,-141.5 449.35,-139.4 449.35,-143.6"/>
</g>
<!-- src/parse/scxml&#45;&gt;src/transform -->
<g id="edge20" class="edge">
<title>src/parse/scxml&#45;&gt;src/transform</title>
<path fill="none" stroke="#000000" stroke-width="2" stroke-opacity="0.200000" d="M509.53,-272C551.6,-272 628,-272 628,-272 628,-272 628,-335.94 628,-335.94"/>
<polygon fill="#000000" fill-opacity="0.200000" stroke="#000000" stroke-width="2" stroke-opacity="0.200000" points="625.9,-335.94 628,-341.94 630.1,-335.94 625.9,-335.94"/>
</g>
<!-- src/parse/parser&#45;helpers.mjs -->
<g id="node16" class="node">
<title>src/parse/parser&#45;helpers.mjs</title>
<g id="a_node16"><a xlink:href="https://github.com/sverweij/state-machine-cat/blob/develop/src/parse/parser-helpers.mjs" xlink:title="parser&#45;helpers.mjs">
<path fill="#ffccff" stroke="black" d="M659,-248C659,-248 578,-248 578,-248 575,-248 572,-245 572,-242 572,-242 572,-236 572,-236 572,-233 575,-230 578,-230 578,-230 659,-230 659,-230 662,-230 665,-233 665,-236 665,-236 665,-242 665,-242 665,-245 662,-248 659,-248"/>
<text text-anchor="start" x="580" y="-236.8" font-family="Helvetica,sans-Serif" font-size="9.00">parser&#45;helpers.mjs</text>
</a>
</g>
</g>
<!-- src/parse/scxml&#45;&gt;src/parse/parser&#45;helpers.mjs -->
<g id="edge21" class="edge">
<title>src/parse/scxml&#45;&gt;src/parse/parser&#45;helpers.mjs</title>
<path fill="none" stroke="#ff00ff" stroke-width="2" stroke-opacity="0.466667" d="M509.69,-266C539.15,-266 582,-266 582,-266 582,-266 582,-254.14 582,-254.14"/>
<polygon fill="#ff00ff" fill-opacity="0.466667" stroke="#ff00ff" stroke-width="2" stroke-opacity="0.466667" points="584.1,-254.14 582,-248.14 579.9,-254.14 584.1,-254.14"/>
</g>
<!-- src/parse/smcat&#45;&gt;src/parse/parser&#45;helpers.mjs -->
<g id="edge22" class="edge">
<title>src/parse/smcat&#45;&gt;src/parse/parser&#45;helpers.mjs</title>
<path fill="none" stroke="#ff00ff" stroke-width="2" stroke-opacity="0.466667" d="M509.69,-239C509.69,-239 565.79,-239 565.79,-239"/>
<polygon fill="#ff00ff" fill-opacity="0.466667" stroke="#ff00ff" stroke-width="2" stroke-opacity="0.466667" points="565.79,-241.1 571.79,-239 565.79,-236.9 565.79,-241.1"/>
</g>
<!-- src/parse/parser&#45;helpers.mjs&#45;&gt;src/state&#45;machine&#45;model.mjs -->
<g id="edge19" class="edge">
<title>src/parse/parser&#45;helpers.mjs&#45;&gt;src/state&#45;machine&#45;model.mjs</title>
<path fill="none" stroke="#000000" stroke-width="2" stroke-opacity="0.200000" d="M656,-229.98C656,-220.21 656,-206 656,-206 656,-206 694.92,-206 694.92,-206"/>
<polygon fill="#000000" fill-opacity="0.200000" stroke="#000000" stroke-width="2" stroke-opacity="0.200000" points="694.92,-208.1 700.92,-206 694.92,-203.9 694.92,-208.1"/>
</g>
<!-- src/render/dot&#45;&gt;src/options.mjs -->
<g id="edge23" class="edge">
<title>src/render/dot&#45;&gt;src/options.mjs</title>
<path fill="none" stroke="#000000" stroke-width="2" stroke-opacity="0.200000" d="M645.54,-72.33C645.54,-72.33 722.85,-72.33 722.85,-72.33"/>
<polygon fill="#000000" fill-opacity="0.200000" stroke="#000000" stroke-width="2" stroke-opacity="0.200000" points="722.85,-74.43 728.85,-72.33 722.85,-70.23 722.85,-74.43"/>
</g>
<!-- src/render/dot&#45;&gt;src/state&#45;machine&#45;model.mjs -->
<g id="edge24" class="edge">
<title>src/render/dot&#45;&gt;src/state&#45;machine&#45;model.mjs</title>
<path fill="none" stroke="#000000" stroke-width="2" stroke-opacity="0.200000" d="M645.7,-82.5C675.77,-82.5 720,-82.5 720,-82.5 720,-82.5 720,-190.72 720,-190.72"/>
<polygon fill="#000000" fill-opacity="0.200000" stroke="#000000" stroke-width="2" stroke-opacity="0.200000" points="717.9,-190.72 720,-196.72 722.1,-190.72 717.9,-190.72"/>
</g>
<!-- src/render/scjson&#45;&gt;src/state&#45;machine&#45;model.mjs -->
<g id="edge35" class="edge">
<title>src/render/scjson&#45;&gt;src/state&#45;machine&#45;model.mjs</title>
<path fill="none" stroke="#000000" stroke-width="2" stroke-opacity="0.200000" d="M645.75,-144C673.04,-144 711,-144 711,-144 711,-144 711,-190.85 711,-190.85"/>
<polygon fill="#000000" fill-opacity="0.200000" stroke="#000000" stroke-width="2" stroke-opacity="0.200000" points="708.9,-190.85 711,-196.85 713.1,-190.85 708.9,-190.85"/>
</g>
<!-- src/render/scxml&#45;&gt;src/render/scjson -->
<g id="edge36" class="edge">
<title>src/render/scxml&#45;&gt;src/render/scjson</title>
<path fill="none" stroke="#0000ff" stroke-width="2" stroke-opacity="0.466667" d="M509.79,-115C549.63,-115 619,-115 619,-115 619,-115 619,-128.82 619,-128.82"/>
<polygon fill="#0000ff" fill-opacity="0.466667" stroke="#0000ff" stroke-width="2" stroke-opacity="0.466667" points="616.9,-128.82 619,-134.82 621.1,-128.82 616.9,-128.82"/>
</g>
</g>
</svg>
