<?xml version="1.0" encoding="UTF-8" standalone="no"?>
<!DOCTYPE svg PUBLIC "-//W3C//DTD SVG 1.1//EN"
 "http://www.w3.org/Graphics/SVG/1.1/DTD/svg11.dtd">
<!-- Generated by graphviz version 2.47.3 (20210619.1520)
 -->
<!-- Title: dependency&#45;cruiser output Pages: 1 -->
<svg width="789pt" height="448pt"
 viewBox="0.00 0.00 789.00 448.00" xmlns="http://www.w3.org/2000/svg" xmlns:xlink="http://www.w3.org/1999/xlink">
<g id="graph0" class="graph" transform="scale(1 1) rotate(0) translate(4 444)">
<title>dependency&#45;cruiser output</title>
<polygon fill="white" stroke="transparent" points="-4,4 -4,-444 785,-444 785,4 -4,4"/>
<g id="clust1" class="cluster">
<title>cluster_src</title>
<path fill="#ffffff" stroke="black" stroke-width="2" d="M94,-8C94,-8 761,-8 761,-8 767,-8 773,-14 773,-20 773,-20 773,-420 773,-420 773,-426 767,-432 761,-432 761,-432 94,-432 94,-432 88,-432 82,-426 82,-420 82,-420 82,-20 82,-20 82,-14 88,-8 94,-8"/>
<text text-anchor="middle" x="427.5" y="-420.8" font-family="Helvetica,sans-Serif" font-weight="bold" font-size="9.00">src</text>
</g>
<g id="clust2" class="cluster">
<title>cluster_src/parse</title>
<path fill="#ffffff" stroke="black" stroke-width="2" d="M301,-294C301,-294 613,-294 613,-294 619,-294 625,-300 625,-306 625,-306 625,-394 625,-394 625,-400 619,-406 613,-406 613,-406 301,-406 301,-406 295,-406 289,-400 289,-394 289,-394 289,-306 289,-306 289,-300 295,-294 301,-294"/>
<text text-anchor="middle" x="457" y="-394.8" font-family="Helvetica,sans-Serif" font-weight="bold" font-size="9.00">parse</text>
</g>
<g id="clust3" class="cluster">
<title>cluster_src/render</title>
<path fill="#ffffff" stroke="black" stroke-width="2" d="M292,-70C292,-70 597,-70 597,-70 603,-70 609,-76 609,-82 609,-82 609,-226 609,-226 609,-232 603,-238 597,-238 597,-238 292,-238 292,-238 286,-238 280,-232 280,-226 280,-226 280,-82 280,-82 280,-76 286,-70 292,-70"/>
<text text-anchor="middle" x="444.5" y="-226.8" font-family="Helvetica,sans-Serif" font-weight="bold" font-size="9.00">render</text>
</g>
<!-- bin -->
<g id="node1" class="node">
<title>bin</title>
<g id="a_node1"><a xlink:href="https://github.com/sverweij/state-machine-cat/blob/develop/bin" xlink:title="bin">
<polygon fill="#ffffcc" stroke="black" points="54,-105 2,-105 0,-103 0,-87 52,-87 54,-89 54,-105"/>
<polyline fill="none" stroke="black" points="52,-103 0,-103 "/>
<polyline fill="none" stroke="black" points="52,-103 52,-87 "/>
<polyline fill="none" stroke="black" points="52,-103 54,-105 "/>
<text text-anchor="middle" x="27" y="-93.8" font-family="Helvetica,sans-Serif" font-size="9.00">bin</text>
</a>
</g>
</g>
<!-- src/cli -->
<g id="node2" class="node">
<title>src/cli</title>
<g id="a_node2"><a xlink:href="https://github.com/sverweij/state-machine-cat/blob/develop/src/cli" xlink:title="cli">
<polygon fill="#ccffcc" stroke="black" points="144,-105 92,-105 90,-103 90,-87 142,-87 144,-89 144,-105"/>
<polyline fill="none" stroke="black" points="142,-103 90,-103 "/>
<polyline fill="none" stroke="black" points="142,-103 142,-87 "/>
<polyline fill="none" stroke="black" points="142,-103 144,-105 "/>
<text text-anchor="middle" x="117" y="-93.8" font-family="Helvetica,sans-Serif" font-size="9.00">cli</text>
</a>
</g>
</g>
<!-- bin&#45;&gt;src/cli -->
<g id="edge1" class="edge">
<title>bin&#45;&gt;src/cli</title>
<path fill="none" stroke="#007700" stroke-width="2" stroke-opacity="0.466667" d="M54,-96C54,-96 83.71,-96 83.71,-96"/>
<polygon fill="#007700" fill-opacity="0.466667" stroke="#007700" stroke-width="2" stroke-opacity="0.466667" points="83.71,-98.1 89.71,-96 83.7,-93.9 83.71,-98.1"/>
</g>
<!-- src/index&#45;node.js -->
<g id="node3" class="node">
<title>src/index&#45;node.js</title>
<g id="a_node3"><a xlink:href="https://github.com/sverweij/state-machine-cat/blob/develop/src/index-node.js" xlink:title="index&#45;node.js">
<path fill="#ffffcc" stroke="black" d="M246,-221C246,-221 186,-221 186,-221 183,-221 180,-218 180,-215 180,-215 180,-209 180,-209 180,-206 183,-203 186,-203 186,-203 246,-203 246,-203 249,-203 252,-206 252,-209 252,-209 252,-215 252,-215 252,-218 249,-221 246,-221"/>
<text text-anchor="middle" x="216" y="-209.8" font-family="Helvetica,sans-Serif" font-size="9.00">index&#45;node.js</text>
</a>
</g>
</g>
<!-- src/cli&#45;&gt;src/index&#45;node.js -->
<g id="edge2" class="edge">
<title>src/cli&#45;&gt;src/index&#45;node.js</title>
<path fill="none" stroke="#000000" stroke-width="2" stroke-opacity="0.200000" d="M144.27,-89.25C163.18,-89.25 185,-89.25 185,-89.25 185,-89.25 185,-196.77 185,-196.77"/>
<polygon fill="#000000" fill-opacity="0.200000" stroke="#000000" stroke-width="2" stroke-opacity="0.200000" points="182.9,-196.77 185,-202.77 187.1,-196.77 182.9,-196.77"/>
</g>
<!-- src/options.js -->
<g id="node4" class="node">
<title>src/options.js</title>
<g id="a_node4"><a xlink:href="https://github.com/sverweij/state-machine-cat/blob/develop/src/options.js" xlink:title="options.js">
<path fill="#ffffcc" stroke="black" d="M731,-107C731,-107 687,-107 687,-107 684,-107 681,-104 681,-101 681,-101 681,-95 681,-95 681,-92 684,-89 687,-89 687,-89 731,-89 731,-89 734,-89 737,-92 737,-95 737,-95 737,-101 737,-101 737,-104 734,-107 731,-107"/>
<text text-anchor="middle" x="709" y="-95.8" font-family="Helvetica,sans-Serif" font-size="9.00">options.js</text>
</a>
</g>
</g>
<!-- src/cli&#45;&gt;src/options.js -->
<g id="edge3" class="edge">
<title>src/cli&#45;&gt;src/options.js</title>
<path fill="none" stroke="#000000" stroke-width="2" stroke-opacity="0.200000" d="M117,-86.93C117,-78.53 117,-67.33 117,-67.33 117,-67.33 719,-67.33 719,-67.33 719,-67.33 719,-82.96 719,-82.96"/>
<polygon fill="#000000" fill-opacity="0.200000" stroke="#000000" stroke-width="2" stroke-opacity="0.200000" points="716.9,-82.96 719,-88.96 721.1,-82.96 716.9,-82.96"/>
</g>
<!-- src/index&#45;node.js&#45;&gt;src/options.js -->
<g id="edge4" class="edge">
<title>src/index&#45;node.js&#45;&gt;src/options.js</title>
<path fill="none" stroke="#000000" stroke-width="2" stroke-opacity="0.200000" d="M252.38,-208.2C364.94,-208.2 700,-208.2 700,-208.2 700,-208.2 700,-113.02 700,-113.02"/>
<polygon fill="#000000" fill-opacity="0.200000" stroke="#000000" stroke-width="2" stroke-opacity="0.200000" points="702.1,-113.02 700,-107.02 697.9,-113.02 702.1,-113.02"/>
</g>
<!-- src/parse/index.js -->
<g id="node5" class="node">
<title>src/parse/index.js</title>
<g id="a_node5"><a xlink:href="https://github.com/sverweij/state-machine-cat/blob/develop/src/parse/index.js" xlink:title="index.js">
<path fill="#ffccff" stroke="black" d="M345,-320C345,-320 303,-320 303,-320 300,-320 297,-317 297,-314 297,-314 297,-308 297,-308 297,-305 300,-302 303,-302 303,-302 345,-302 345,-302 348,-302 351,-305 351,-308 351,-308 351,-314 351,-314 351,-317 348,-320 345,-320"/>
<text text-anchor="middle" x="324" y="-308.8" font-family="Helvetica,sans-Serif" font-size="9.00">index.js</text>
</a>
</g>
</g>
<!-- src/index&#45;node.js&#45;&gt;src/parse/index.js -->
<g id="edge5" class="edge">
<title>src/index&#45;node.js&#45;&gt;src/parse/index.js</title>
<path fill="none" stroke="#ff00ff" stroke-width="2" stroke-opacity="0.466667" d="M252.02,-217.8C280.33,-217.8 315,-217.8 315,-217.8 315,-217.8 315,-295.72 315,-295.72"/>
<polygon fill="#ff00ff" fill-opacity="0.466667" stroke="#ff00ff" stroke-width="2" stroke-opacity="0.466667" points="312.9,-295.72 315,-301.72 317.1,-295.72 312.9,-295.72"/>
</g>
<!-- src/render/index&#45;node.js -->
<g id="node6" class="node">
<title>src/render/index&#45;node.js</title>
<g id="a_node6"><a xlink:href="https://github.com/sverweij/state-machine-cat/blob/develop/src/render/index-node.js" xlink:title="index&#45;node.js">
<path fill="#ccccff" stroke="black" d="M354,-187C354,-187 294,-187 294,-187 291,-187 288,-184 288,-181 288,-181 288,-175 288,-175 288,-172 291,-169 294,-169 294,-169 354,-169 354,-169 357,-169 360,-172 360,-175 360,-175 360,-181 360,-181 360,-184 357,-187 354,-187"/>
<text text-anchor="middle" x="324" y="-175.8" font-family="Helvetica,sans-Serif" font-size="9.00">index&#45;node.js</text>
</a>
</g>
</g>
<!-- src/index&#45;node.js&#45;&gt;src/render/index&#45;node.js -->
<g id="edge6" class="edge">
<title>src/index&#45;node.js&#45;&gt;src/render/index&#45;node.js</title>
<path fill="none" stroke="#0000ff" stroke-width="2" stroke-opacity="0.466667" d="M249,-202.71C249,-192.64 249,-178 249,-178 249,-178 281.82,-178 281.82,-178"/>
<polygon fill="#0000ff" fill-opacity="0.466667" stroke="#0000ff" stroke-width="2" stroke-opacity="0.466667" points="281.82,-180.1 287.82,-178 281.82,-175.9 281.82,-180.1"/>
</g>
<!-- src/transform -->
<g id="node7" class="node">
<title>src/transform</title>
<g id="a_node7"><a xlink:href="https://github.com/sverweij/state-machine-cat/blob/develop/src/transform" xlink:title="transform">
<polygon fill="#ffffcc" stroke="black" points="601.5,-278 548.5,-278 546.5,-276 546.5,-260 599.5,-260 601.5,-262 601.5,-278"/>
<polyline fill="none" stroke="black" points="599.5,-276 546.5,-276 "/>
<polyline fill="none" stroke="black" points="599.5,-276 599.5,-260 "/>
<polyline fill="none" stroke="black" points="599.5,-276 601.5,-278 "/>
<text text-anchor="middle" x="574" y="-266.8" font-family="Helvetica,sans-Serif" font-size="9.00">transform</text>
</a>
</g>
</g>
<!-- src/index&#45;node.js&#45;&gt;src/transform -->
<g id="edge7" class="edge">
<title>src/index&#45;node.js&#45;&gt;src/transform</title>
<path fill="none" stroke="#000000" stroke-width="2" stroke-opacity="0.200000" d="M252.03,-214.6C341.2,-214.6 565,-214.6 565,-214.6 565,-214.6 565,-253.52 565,-253.52"/>
<polygon fill="#000000" fill-opacity="0.200000" stroke="#000000" stroke-width="2" stroke-opacity="0.200000" points="562.9,-253.52 565,-259.52 567.1,-253.52 562.9,-253.52"/>
</g>
<!-- src/version.js -->
<g id="node8" class="node">
<title>src/version.js</title>
<g id="a_node8"><a xlink:href="https://github.com/sverweij/state-machine-cat/blob/develop/src/version.js" xlink:title="version.js">
<polygon fill="#ffffcc" stroke="gray" points="352,-62 296,-62 296,-44 352,-44 352,-62"/>
<text text-anchor="middle" x="324" y="-50.8" font-family="Helvetica,sans-Serif" font-size="9.00">version.js</text>
</a>
</g>
</g>
<!-- src/index&#45;node.js&#45;&gt;src/version.js -->
<g id="edge8" class="edge">
<title>src/index&#45;node.js&#45;&gt;src/version.js</title>
<path fill="none" stroke="#000000" stroke-width="2" stroke-opacity="0.200000" d="M246,-202.71C246,-169.12 246,-56 246,-56 246,-56 289.84,-56 289.84,-56"/>
<polygon fill="#000000" fill-opacity="0.200000" stroke="#000000" stroke-width="2" stroke-opacity="0.200000" points="289.84,-58.1 295.84,-56 289.84,-53.9 289.84,-58.1"/>
</g>
<!-- src/parse/index.js&#45;&gt;src/options.js -->
<g id="edge14" class="edge">
<title>src/parse/index.js&#45;&gt;src/options.js</title>
<path fill="none" stroke="#000000" stroke-width="2" stroke-opacity="0.200000" d="M333,-301.81C333,-277.15 333,-211.4 333,-211.4 333,-211.4 719,-211.4 719,-211.4 719,-211.4 719,-113.28 719,-113.28"/>
<polygon fill="#000000" fill-opacity="0.200000" stroke="#000000" stroke-width="2" stroke-opacity="0.200000" points="721.1,-113.28 719,-107.28 716.9,-113.28 721.1,-113.28"/>
</g>
<!-- src/parse/scxml -->
<g id="node11" class="node">
<title>src/parse/scxml</title>
<g id="a_node11"><a xlink:href="https://github.com/sverweij/state-machine-cat/blob/develop/src/parse/scxml" xlink:title="scxml">
<polygon fill="#ffccff" stroke="black" points="472.5,-350 420.5,-350 418.5,-348 418.5,-332 470.5,-332 472.5,-334 472.5,-350"/>
<polyline fill="none" stroke="black" points="470.5,-348 418.5,-348 "/>
<polyline fill="none" stroke="black" points="470.5,-348 470.5,-332 "/>
<polyline fill="none" stroke="black" points="470.5,-348 472.5,-350 "/>
<text text-anchor="middle" x="445.5" y="-338.8" font-family="Helvetica,sans-Serif" font-size="9.00">scxml</text>
</a>
</g>
</g>
<!-- src/parse/index.js&#45;&gt;src/parse/scxml -->
<g id="edge15" class="edge">
<title>src/parse/index.js&#45;&gt;src/parse/scxml</title>
<path fill="none" stroke="#ff00ff" stroke-width="2" stroke-opacity="0.466667" d="M333,-320.16C333,-328.99 333,-341 333,-341 333,-341 412.27,-341 412.27,-341"/>
<polygon fill="#ff00ff" fill-opacity="0.466667" stroke="#ff00ff" stroke-width="2" stroke-opacity="0.466667" points="412.27,-343.1 418.27,-341 412.27,-338.9 412.27,-343.1"/>
</g>
<!-- src/parse/smcat&#45;ast.schema.js -->
<g id="node12" class="node">
<title>src/parse/smcat&#45;ast.schema.js</title>
<g id="a_node12"><a xlink:href="https://github.com/sverweij/state-machine-cat/blob/develop/src/parse/smcat-ast.schema.js" xlink:title="smcat&#45;ast.schema.js">
<polygon fill="#ffccff" stroke="gray" points="495,-320 396,-320 396,-302 495,-302 495,-320"/>
<text text-anchor="middle" x="445.5" y="-308.8" font-family="Helvetica,sans-Serif" font-size="9.00">smcat&#45;ast.schema.js</text>
</a>
</g>
</g>
<!-- src/parse/index.js&#45;&gt;src/parse/smcat&#45;ast.schema.js -->
<g id="edge16" class="edge">
<title>src/parse/index.js&#45;&gt;src/parse/smcat&#45;ast.schema.js</title>
<path fill="none" stroke="#ff00ff" stroke-width="2" stroke-opacity="0.466667" d="M351.27,-311C351.27,-311 389.85,-311 389.85,-311"/>
<polygon fill="#ff00ff" fill-opacity="0.466667" stroke="#ff00ff" stroke-width="2" stroke-opacity="0.466667" points="389.85,-313.1 395.85,-311 389.85,-308.9 389.85,-313.1"/>
</g>
<!-- src/parse/smcat -->
<g id="node13" class="node">
<title>src/parse/smcat</title>
<g id="a_node13"><a xlink:href="https://github.com/sverweij/state-machine-cat/blob/develop/src/parse/smcat" xlink:title="smcat">
<polygon fill="#ffccff" stroke="black" points="472.5,-380 420.5,-380 418.5,-378 418.5,-362 470.5,-362 472.5,-364 472.5,-380"/>
<polyline fill="none" stroke="black" points="470.5,-378 418.5,-378 "/>
<polyline fill="none" stroke="black" points="470.5,-378 470.5,-362 "/>
<polyline fill="none" stroke="black" points="470.5,-378 472.5,-380 "/>
<text text-anchor="middle" x="445.5" y="-368.8" font-family="Helvetica,sans-Serif" font-size="9.00">smcat</text>
</a>
</g>
</g>
<!-- src/parse/index.js&#45;&gt;src/parse/smcat -->
<g id="edge17" class="edge">
<title>src/parse/index.js&#45;&gt;src/parse/smcat</title>
<path fill="none" stroke="#ff00ff" stroke-width="2" stroke-opacity="0.466667" d="M315,-320.11C315,-336.9 315,-371 315,-371 315,-371 412.46,-371 412.46,-371"/>
<polygon fill="#ff00ff" fill-opacity="0.466667" stroke="#ff00ff" stroke-width="2" stroke-opacity="0.466667" points="412.46,-373.1 418.46,-371 412.46,-368.9 412.46,-373.1"/>
</g>
<!-- src/render/dot -->
<g id="node16" class="node">
<title>src/render/dot</title>
<g id="a_node16"><a xlink:href="https://github.com/sverweij/state-machine-cat/blob/develop/src/render/dot" xlink:title="dot">
<polygon fill="#ccccff" stroke="black" points="601,-118 549,-118 547,-116 547,-100 599,-100 601,-102 601,-118"/>
<polyline fill="none" stroke="black" points="599,-116 547,-116 "/>
<polyline fill="none" stroke="black" points="599,-116 599,-100 "/>
<polyline fill="none" stroke="black" points="599,-116 601,-118 "/>
<text text-anchor="middle" x="574" y="-106.8" font-family="Helvetica,sans-Serif" font-size="9.00">dot</text>
</a>
</g>
</g>
<!-- src/render/index&#45;node.js&#45;&gt;src/render/dot -->
<g id="edge24" class="edge">
<title>src/render/index&#45;node.js&#45;&gt;src/render/dot</title>
<path fill="none" stroke="#0000ff" stroke-width="2" stroke-opacity="0.466667" d="M356,-168.96C356,-150.68 356,-111 356,-111 356,-111 540.83,-111 540.83,-111"/>
<polygon fill="#0000ff" fill-opacity="0.466667" stroke="#0000ff" stroke-width="2" stroke-opacity="0.466667" points="540.83,-113.1 546.83,-111 540.83,-108.9 540.83,-113.1"/>
</g>
<!-- src/render/scjson -->
<g id="node17" class="node">
<title>src/render/scjson</title>
<g id="a_node17"><a xlink:href="https://github.com/sverweij/state-machine-cat/blob/develop/src/render/scjson" xlink:title="scjson">
<polygon fill="#ccccff" stroke="black" points="601,-205 549,-205 547,-203 547,-187 599,-187 601,-189 601,-205"/>
<polyline fill="none" stroke="black" points="599,-203 547,-203 "/>
<polyline fill="none" stroke="black" points="599,-203 599,-187 "/>
<polyline fill="none" stroke="black" points="599,-203 601,-205 "/>
<text text-anchor="middle" x="574" y="-193.8" font-family="Helvetica,sans-Serif" font-size="9.00">scjson</text>
</a>
</g>
</g>
<!-- src/render/index&#45;node.js&#45;&gt;src/render/scjson -->
<g id="edge25" class="edge">
<title>src/render/index&#45;node.js&#45;&gt;src/render/scjson</title>
<path fill="none" stroke="#0000ff" stroke-width="2" stroke-opacity="0.466667" d="M360.08,-174.5C427.31,-174.5 565,-174.5 565,-174.5 565,-174.5 565,-180.76 565,-180.76"/>
<polygon fill="#0000ff" fill-opacity="0.466667" stroke="#0000ff" stroke-width="2" stroke-opacity="0.466667" points="562.9,-180.76 565,-186.76 567.1,-180.76 562.9,-180.76"/>
</g>
<!-- src/render/scxml -->
<g id="node18" class="node">
<title>src/render/scxml</title>
<g id="a_node18"><a xlink:href="https://github.com/sverweij/state-machine-cat/blob/develop/src/render/scxml" xlink:title="scxml">
<polygon fill="#ccccff" stroke="black" points="472.5,-198 420.5,-198 418.5,-196 418.5,-180 470.5,-180 472.5,-182 472.5,-198"/>
<polyline fill="none" stroke="black" points="470.5,-196 418.5,-196 "/>
<polyline fill="none" stroke="black" points="470.5,-196 470.5,-180 "/>
<polyline fill="none" stroke="black" points="470.5,-196 472.5,-198 "/>
<text text-anchor="middle" x="445.5" y="-186.8" font-family="Helvetica,sans-Serif" font-size="9.00">scxml</text>
</a>
</g>
</g>
<!-- src/render/index&#45;node.js&#45;&gt;src/render/scxml -->
<g id="edge26" class="edge">
<title>src/render/index&#45;node.js&#45;&gt;src/render/scxml</title>
<path fill="none" stroke="#0000ff" stroke-width="2" stroke-opacity="0.466667" d="M360.13,-184.67C360.13,-184.67 412.2,-184.67 412.2,-184.67"/>
<polygon fill="#0000ff" fill-opacity="0.466667" stroke="#0000ff" stroke-width="2" stroke-opacity="0.466667" points="412.2,-186.77 418.2,-184.67 412.2,-182.57 412.2,-186.77"/>
</g>
<!-- src/render/smcat -->
<g id="node19" class="node">
<title>src/render/smcat</title>
<g id="a_node19"><a xlink:href="https://github.com/sverweij/state-machine-cat/blob/develop/src/render/smcat" xlink:title="smcat">
<polygon fill="#ccccff" stroke="black" points="472.5,-154 420.5,-154 418.5,-152 418.5,-136 470.5,-136 472.5,-138 472.5,-154"/>
<polyline fill="none" stroke="black" points="470.5,-152 418.5,-152 "/>
<polyline fill="none" stroke="black" points="470.5,-152 470.5,-136 "/>
<polyline fill="none" stroke="black" points="470.5,-152 472.5,-154 "/>
<text text-anchor="middle" x="445.5" y="-142.8" font-family="Helvetica,sans-Serif" font-size="9.00">smcat</text>
</a>
</g>
</g>
<!-- src/render/index&#45;node.js&#45;&gt;src/render/smcat -->
<g id="edge27" class="edge">
<title>src/render/index&#45;node.js&#45;&gt;src/render/smcat</title>
<path fill="none" stroke="#0000ff" stroke-width="2" stroke-opacity="0.466667" d="M358,-168.98C358,-159.21 358,-145 358,-145 358,-145 412.29,-145 412.29,-145"/>
<polygon fill="#0000ff" fill-opacity="0.466667" stroke="#0000ff" stroke-width="2" stroke-opacity="0.466667" points="412.29,-147.1 418.29,-145 412.29,-142.9 412.29,-147.1"/>
</g>
<!-- src/render/vector -->
<g id="node20" class="node">
<title>src/render/vector</title>
<g id="a_node20"><a xlink:href="https://github.com/sverweij/state-machine-cat/blob/develop/src/render/vector" xlink:title="vector">
<polygon fill="#ccccff" stroke="black" points="472.5,-96 420.5,-96 418.5,-94 418.5,-78 470.5,-78 472.5,-80 472.5,-96"/>
<polyline fill="none" stroke="black" points="470.5,-94 418.5,-94 "/>
<polyline fill="none" stroke="black" points="470.5,-94 470.5,-78 "/>
<polyline fill="none" stroke="black" points="470.5,-94 472.5,-96 "/>
<text text-anchor="middle" x="445.5" y="-84.8" font-family="Helvetica,sans-Serif" font-size="9.00">vector</text>
</a>
</g>
</g>
<!-- src/render/index&#45;node.js&#45;&gt;src/render/vector -->
<g id="edge28" class="edge">
<title>src/render/index&#45;node.js&#45;&gt;src/render/vector</title>
<path fill="none" stroke="#0000ff" stroke-width="2" stroke-opacity="0.466667" d="M354,-168.98C354,-147.25 354,-93.75 354,-93.75 354,-93.75 412.05,-93.75 412.05,-93.75"/>
<polygon fill="#0000ff" fill-opacity="0.466667" stroke="#0000ff" stroke-width="2" stroke-opacity="0.466667" points="412.05,-95.85 418.05,-93.75 412.05,-91.65 412.05,-95.85"/>
</g>
<!-- src/state&#45;machine&#45;model.js -->
<g id="node15" class="node">
<title>src/state&#45;machine&#45;model.js</title>
<g id="a_node15"><a xlink:href="https://github.com/sverweij/state-machine-cat/blob/develop/src/state-machine-model.js" xlink:title="state&#45;machine&#45;model.js">
<path fill="#ffffcc" stroke="black" d="M759,-245C759,-245 659,-245 659,-245 656,-245 653,-242 653,-239 653,-239 653,-233 653,-233 653,-230 656,-227 659,-227 659,-227 759,-227 759,-227 762,-227 765,-230 765,-233 765,-233 765,-239 765,-239 765,-242 762,-245 759,-245"/>
<text text-anchor="middle" x="709" y="-233.8" font-family="Helvetica,sans-Serif" font-size="9.00">state&#45;machine&#45;model.js</text>
</a>
</g>
</g>
<!-- src/transform&#45;&gt;src/state&#45;machine&#45;model.js -->
<g id="edge38" class="edge">
<title>src/transform&#45;&gt;src/state&#45;machine&#45;model.js</title>
<path fill="none" stroke="#000000" stroke-width="2" stroke-opacity="0.200000" d="M583,-259.92C583,-249.25 583,-233 583,-233 583,-233 646.63,-233 646.63,-233"/>
<polygon fill="#000000" fill-opacity="0.200000" stroke="#000000" stroke-width="2" stroke-opacity="0.200000" points="646.63,-235.1 652.63,-233 646.63,-230.9 646.63,-235.1"/>
</g>
<!-- src/index.js -->
<g id="node9" class="node">
<title>src/index.js</title>
<g id="a_node9"><a xlink:href="https://github.com/sverweij/state-machine-cat/blob/develop/src/index.js" xlink:title="index.js">
<path fill="#ffffcc" stroke="black" d="M237,-132C237,-132 195,-132 195,-132 192,-132 189,-129 189,-126 189,-126 189,-120 189,-120 189,-117 192,-114 195,-114 195,-114 237,-114 237,-114 240,-114 243,-117 243,-120 243,-120 243,-126 243,-126 243,-129 240,-132 237,-132"/>
<text text-anchor="middle" x="216" y="-120.8" font-family="Helvetica,sans-Serif" font-size="9.00">index.js</text>
</a>
</g>
</g>
<!-- src/index.js&#45;&gt;src/options.js -->
<g id="edge9" class="edge">
<title>src/index.js&#45;&gt;src/options.js</title>
<path fill="none" stroke="#000000" stroke-width="2" stroke-opacity="0.200000" d="M225,-113.77C225,-99.24 225,-72.67 225,-72.67 225,-72.67 700,-72.67 700,-72.67 700,-72.67 700,-82.85 700,-82.85"/>
<polygon fill="#000000" fill-opacity="0.200000" stroke="#000000" stroke-width="2" stroke-opacity="0.200000" points="697.9,-82.85 700,-88.85 702.1,-82.85 697.9,-82.85"/>
</g>
<!-- src/index.js&#45;&gt;src/parse/index.js -->
<g id="edge10" class="edge">
<title>src/index.js&#45;&gt;src/parse/index.js</title>
<path fill="none" stroke="#ff00ff" stroke-width="2" stroke-opacity="0.466667" d="M243.09,-127.5C253.97,-127.5 264,-127.5 264,-127.5 264,-127.5 264,-311 264,-311 264,-311 290.81,-311 290.81,-311"/>
<polygon fill="#ff00ff" fill-opacity="0.466667" stroke="#ff00ff" stroke-width="2" stroke-opacity="0.466667" points="290.81,-313.1 296.81,-311 290.81,-308.9 290.81,-313.1"/>
</g>
<!-- src/index.js&#45;&gt;src/transform -->
<g id="edge12" class="edge">
<title>src/index.js&#45;&gt;src/transform</title>
<path fill="none" stroke="#000000" stroke-width="2" stroke-opacity="0.200000" d="M243.19,-123C259.07,-123 276,-123 276,-123 276,-123 276,-266 276,-266 276,-266 540.5,-266 540.5,-266"/>
<polygon fill="#000000" fill-opacity="0.200000" stroke="#000000" stroke-width="2" stroke-opacity="0.200000" points="540.5,-268.1 546.5,-266 540.5,-263.9 540.5,-268.1"/>
</g>
<!-- src/index.js&#45;&gt;src/version.js -->
<g id="edge13" class="edge">
<title>src/index.js&#45;&gt;src/version.js</title>
<path fill="none" stroke="#000000" stroke-width="2" stroke-opacity="0.200000" d="M207,-113.75C207,-94.11 207,-50 207,-50 207,-50 289.98,-50 289.98,-50"/>
<polygon fill="#000000" fill-opacity="0.200000" stroke="#000000" stroke-width="2" stroke-opacity="0.200000" points="289.98,-52.1 295.98,-50 289.98,-47.9 289.98,-52.1"/>
</g>
<!-- src/render/index.js -->
<g id="node10" class="node">
<title>src/render/index.js</title>
<g id="a_node10"><a xlink:href="https://github.com/sverweij/state-machine-cat/blob/develop/src/render/index.js" xlink:title="index.js">
<path fill="#ccccff" stroke="black" d="M345,-132C345,-132 303,-132 303,-132 300,-132 297,-129 297,-126 297,-126 297,-120 297,-120 297,-117 300,-114 303,-114 303,-114 345,-114 345,-114 348,-114 351,-117 351,-120 351,-120 351,-126 351,-126 351,-129 348,-132 345,-132"/>
<text text-anchor="middle" x="324" y="-120.8" font-family="Helvetica,sans-Serif" font-size="9.00">index.js</text>
</a>
</g>
</g>
<!-- src/index.js&#45;&gt;src/render/index.js -->
<g id="edge11" class="edge">
<title>src/index.js&#45;&gt;src/render/index.js</title>
<path fill="none" stroke="#0000ff" stroke-width="2" stroke-opacity="0.466667" d="M243.25,-118.5C243.25,-118.5 290.76,-118.5 290.76,-118.5"/>
<polygon fill="#0000ff" fill-opacity="0.466667" stroke="#0000ff" stroke-width="2" stroke-opacity="0.466667" points="290.76,-120.6 296.76,-118.5 290.76,-116.4 290.76,-120.6"/>
</g>
<!-- src/render/index.js&#45;&gt;src/render/dot -->
<g id="edge29" class="edge">
<title>src/render/index.js&#45;&gt;src/render/dot</title>
<path fill="none" stroke="#0000ff" stroke-width="2" stroke-opacity="0.466667" d="M315,-113.76C315,-110.67 315,-108 315,-108 315,-108 540.77,-108 540.77,-108"/>
<polygon fill="#0000ff" fill-opacity="0.466667" stroke="#0000ff" stroke-width="2" stroke-opacity="0.466667" points="540.77,-110.1 546.77,-108 540.77,-105.9 540.77,-110.1"/>
</g>
<!-- src/render/index.js&#45;&gt;src/render/scjson -->
<g id="edge30" class="edge">
<title>src/render/index.js&#45;&gt;src/render/scjson</title>
<path fill="none" stroke="#0000ff" stroke-width="2" stroke-opacity="0.466667" d="M351.23,-121.5C417.73,-121.5 583,-121.5 583,-121.5 583,-121.5 583,-180.86 583,-180.86"/>
<polygon fill="#0000ff" fill-opacity="0.466667" stroke="#0000ff" stroke-width="2" stroke-opacity="0.466667" points="580.9,-180.86 583,-186.86 585.1,-180.86 580.9,-180.86"/>
</g>
<!-- src/render/index.js&#45;&gt;src/render/scxml -->
<g id="edge31" class="edge">
<title>src/render/index.js&#45;&gt;src/render/scxml</title>
<path fill="none" stroke="#0000ff" stroke-width="2" stroke-opacity="0.466667" d="M351.32,-128.5C364.71,-128.5 378,-128.5 378,-128.5 378,-128.5 378,-182.33 378,-182.33 378,-182.33 412.43,-182.33 412.43,-182.33"/>
<polygon fill="#0000ff" fill-opacity="0.466667" stroke="#0000ff" stroke-width="2" stroke-opacity="0.466667" points="412.43,-184.43 418.43,-182.33 412.43,-180.23 412.43,-184.43"/>
</g>
<!-- src/render/index.js&#45;&gt;src/render/smcat -->
<g id="edge32" class="edge">
<title>src/render/index.js&#45;&gt;src/render/smcat</title>
<path fill="none" stroke="#0000ff" stroke-width="2" stroke-opacity="0.466667" d="M351.08,-125C387.02,-125 446,-125 446,-125 446,-125 446,-129.94 446,-129.94"/>
<polygon fill="#0000ff" fill-opacity="0.466667" stroke="#0000ff" stroke-width="2" stroke-opacity="0.466667" points="443.9,-129.94 446,-135.94 448.1,-129.94 443.9,-129.94"/>
</g>
<!-- src/render/index.js&#45;&gt;src/render/vector -->
<g id="edge33" class="edge">
<title>src/render/index.js&#45;&gt;src/render/vector</title>
<path fill="none" stroke="#0000ff" stroke-width="2" stroke-opacity="0.466667" d="M333,-113.72C333,-104.43 333,-91.5 333,-91.5 333,-91.5 412.27,-91.5 412.27,-91.5"/>
<polygon fill="#0000ff" fill-opacity="0.466667" stroke="#0000ff" stroke-width="2" stroke-opacity="0.466667" points="412.27,-93.6 418.27,-91.5 412.27,-89.4 412.27,-93.6"/>
</g>
<!-- src/parse/scxml&#45;&gt;src/transform -->
<g id="edge19" class="edge">
<title>src/parse/scxml&#45;&gt;src/transform</title>
<path fill="none" stroke="#000000" stroke-width="2" stroke-opacity="0.200000" d="M472.57,-338C491.34,-338 513,-338 513,-338 513,-338 513,-272 513,-272 513,-272 540.36,-272 540.36,-272"/>
<polygon fill="#000000" fill-opacity="0.200000" stroke="#000000" stroke-width="2" stroke-opacity="0.200000" points="540.36,-274.1 546.36,-272 540.36,-269.9 540.36,-274.1"/>
</g>
<!-- src/parse/parser&#45;helpers.js -->
<g id="node14" class="node">
<title>src/parse/parser&#45;helpers.js</title>
<g id="a_node14"><a xlink:href="https://github.com/sverweij/state-machine-cat/blob/develop/src/parse/parser-helpers.js" xlink:title="parser&#45;helpers.js">
<path fill="#ffccff" stroke="black" d="M611,-350C611,-350 537,-350 537,-350 534,-350 531,-347 531,-344 531,-344 531,-338 531,-338 531,-335 534,-332 537,-332 537,-332 611,-332 611,-332 614,-332 617,-335 617,-338 617,-338 617,-344 617,-344 617,-347 614,-350 611,-350"/>
<text text-anchor="middle" x="574" y="-338.8" font-family="Helvetica,sans-Serif" font-size="9.00">parser&#45;helpers.js</text>
</a>
</g>
</g>
<!-- src/parse/scxml&#45;&gt;src/parse/parser&#45;helpers.js -->
<g id="edge20" class="edge">
<title>src/parse/scxml&#45;&gt;src/parse/parser&#45;helpers.js</title>
<path fill="none" stroke="#ff00ff" stroke-width="2" stroke-opacity="0.466667" d="M472.75,-344C472.75,-344 524.86,-344 524.86,-344"/>
<polygon fill="#ff00ff" fill-opacity="0.466667" stroke="#ff00ff" stroke-width="2" stroke-opacity="0.466667" points="524.86,-346.1 530.86,-344 524.86,-341.9 524.86,-346.1"/>
</g>
<!-- src/parse/smcat&#45;&gt;src/parse/parser&#45;helpers.js -->
<g id="edge21" class="edge">
<title>src/parse/smcat&#45;&gt;src/parse/parser&#45;helpers.js</title>
<path fill="none" stroke="#ff00ff" stroke-width="2" stroke-opacity="0.466667" d="M472.75,-371C510.47,-371 574,-371 574,-371 574,-371 574,-356.16 574,-356.16"/>
<polygon fill="#ff00ff" fill-opacity="0.466667" stroke="#ff00ff" stroke-width="2" stroke-opacity="0.466667" points="576.1,-356.16 574,-350.16 571.9,-356.16 576.1,-356.16"/>
</g>
<!-- src/parse/parser&#45;helpers.js&#45;&gt;src/state&#45;machine&#45;model.js -->
<g id="edge18" class="edge">
<title>src/parse/parser&#45;helpers.js&#45;&gt;src/state&#45;machine&#45;model.js</title>
<path fill="none" stroke="#000000" stroke-width="2" stroke-opacity="0.200000" d="M610,-331.95C610,-306.98 610,-239 610,-239 610,-239 646.85,-239 646.85,-239"/>
<polygon fill="#000000" fill-opacity="0.200000" stroke="#000000" stroke-width="2" stroke-opacity="0.200000" points="646.85,-241.1 652.85,-239 646.85,-236.9 646.85,-241.1"/>
</g>
<!-- src/render/dot&#45;&gt;src/options.js -->
<g id="edge22" class="edge">
<title>src/render/dot&#45;&gt;src/options.js</title>
<path fill="none" stroke="#000000" stroke-width="2" stroke-opacity="0.200000" d="M601.32,-103.5C601.32,-103.5 674.79,-103.5 674.79,-103.5"/>
<polygon fill="#000000" fill-opacity="0.200000" stroke="#000000" stroke-width="2" stroke-opacity="0.200000" points="674.79,-105.6 680.79,-103.5 674.79,-101.4 674.79,-105.6"/>
</g>
<!-- src/render/dot&#45;&gt;src/state&#45;machine&#45;model.js -->
<g id="edge23" class="edge">
<title>src/render/dot&#45;&gt;src/state&#45;machine&#45;model.js</title>
<path fill="none" stroke="#000000" stroke-width="2" stroke-opacity="0.200000" d="M601.04,-112.5C630.05,-112.5 672,-112.5 672,-112.5 672,-112.5 672,-220.72 672,-220.72"/>
<polygon fill="#000000" fill-opacity="0.200000" stroke="#000000" stroke-width="2" stroke-opacity="0.200000" points="669.9,-220.72 672,-226.72 674.1,-220.72 669.9,-220.72"/>
</g>
<!-- src/render/scjson&#45;&gt;src/state&#45;machine&#45;model.js -->
<g id="edge34" class="edge">
<title>src/render/scjson&#45;&gt;src/state&#45;machine&#45;model.js</title>
<path fill="none" stroke="#000000" stroke-width="2" stroke-opacity="0.200000" d="M601.19,-196C627.36,-196 663,-196 663,-196 663,-196 663,-220.72 663,-220.72"/>
<polygon fill="#000000" fill-opacity="0.200000" stroke="#000000" stroke-width="2" stroke-opacity="0.200000" points="660.9,-220.72 663,-226.72 665.1,-220.72 660.9,-220.72"/>
</g>
<!-- src/render/scxml&#45;&gt;src/render/scjson -->
<g id="edge35" class="edge">
<title>src/render/scxml&#45;&gt;src/render/scjson</title>
<path fill="none" stroke="#0000ff" stroke-width="2" stroke-opacity="0.466667" d="M472.75,-192.5C472.75,-192.5 540.79,-192.5 540.79,-192.5"/>
<polygon fill="#0000ff" fill-opacity="0.466667" stroke="#0000ff" stroke-width="2" stroke-opacity="0.466667" points="540.79,-194.6 546.79,-192.5 540.79,-190.4 540.79,-194.6"/>
</g>
<!-- src/render/vector&#45;&gt;src/options.js -->
<g id="edge36" class="edge">
<title>src/render/vector&#45;&gt;src/options.js</title>
<path fill="none" stroke="#000000" stroke-width="2" stroke-opacity="0.200000" d="M472.71,-91.33C472.71,-91.33 674.75,-91.33 674.75,-91.33"/>
<polygon fill="#000000" fill-opacity="0.200000" stroke="#000000" stroke-width="2" stroke-opacity="0.200000" points="674.75,-93.43 680.75,-91.33 674.75,-89.23 674.75,-93.43"/>
</g>
<!-- src/render/vector&#45;&gt;src/render/dot -->
<g id="edge37" class="edge">
<title>src/render/vector&#45;&gt;src/render/dot</title>
<path fill="none" stroke="#0000ff" stroke-width="2" stroke-opacity="0.466667" d="M472.75,-93.67C510.47,-93.67 574,-93.67 574,-93.67 574,-93.67 574,-94.29 574,-94.29"/>
<polygon fill="#0000ff" fill-opacity="0.466667" stroke="#0000ff" stroke-width="2" stroke-opacity="0.466667" points="571.9,-93.9 574,-99.9 576.1,-93.9 571.9,-93.9"/>
</g>
</g>
</svg>
