<?xml version="1.0" encoding="UTF-8" standalone="no"?>
<!DOCTYPE svg PUBLIC "-//W3C//DTD SVG 1.1//EN"
 "http://www.w3.org/Graphics/SVG/1.1/DTD/svg11.dtd">
<!-- Generated by graphviz version 8.1.0 (20230707.0739)
 -->
<!-- Title: dependency&#45;cruiser output Pages: 1 -->
<svg width="749pt" height="472pt"
 viewBox="0.00 0.00 749.25 471.88" xmlns="http://www.w3.org/2000/svg" xmlns:xlink="http://www.w3.org/1999/xlink">
<g id="graph0" class="graph" transform="scale(1 1) rotate(0) translate(4 467.88)">
<title>dependency&#45;cruiser output</title>
<polygon fill="white" stroke="none" points="-4,4 -4,-467.88 745.25,-467.88 745.25,4 -4,4"/>
<g id="clust1" class="cluster">
<title>cluster_src</title>
<path fill="#ffffff" stroke="black" stroke-width="2" d="M20,-25.88C20,-25.88 721.25,-25.88 721.25,-25.88 727.25,-25.88 733.25,-31.88 733.25,-37.88 733.25,-37.88 733.25,-443.88 733.25,-443.88 733.25,-449.88 727.25,-455.88 721.25,-455.88 721.25,-455.88 20,-455.88 20,-455.88 14,-455.88 8,-449.88 8,-443.88 8,-443.88 8,-37.88 8,-37.88 8,-31.88 14,-25.88 20,-25.88"/>
<text text-anchor="middle" x="370.62" y="-443.32" font-family="Helvetica,sans-Serif" font-weight="bold" font-size="9.00">src</text>
</g>
<g id="clust2" class="cluster">
<title>cluster_src/parse</title>
<path fill="#ffffff" stroke="black" stroke-width="2" d="M237,-317.88C237,-317.88 566.5,-317.88 566.5,-317.88 572.5,-317.88 578.5,-323.88 578.5,-329.88 578.5,-329.88 578.5,-417.88 578.5,-417.88 578.5,-423.88 572.5,-429.88 566.5,-429.88 566.5,-429.88 237,-429.88 237,-429.88 231,-429.88 225,-423.88 225,-417.88 225,-417.88 225,-329.88 225,-329.88 225,-323.88 231,-317.88 237,-317.88"/>
<text text-anchor="middle" x="401.75" y="-417.32" font-family="Helvetica,sans-Serif" font-weight="bold" font-size="9.00">parse</text>
</g>
<g id="clust3" class="cluster">
<title>cluster_src/render</title>
<path fill="#ffffff" stroke="black" stroke-width="2" d="M225,-101.88C225,-101.88 547.25,-101.88 547.25,-101.88 553.25,-101.88 559.25,-107.88 559.25,-113.88 559.25,-113.88 559.25,-257.88 559.25,-257.88 559.25,-263.88 553.25,-269.88 547.25,-269.88 547.25,-269.88 225,-269.88 225,-269.88 219,-269.88 213,-263.88 213,-257.88 213,-257.88 213,-113.88 213,-113.88 213,-107.88 219,-101.88 225,-101.88"/>
<text text-anchor="middle" x="386.12" y="-257.32" font-family="Helvetica,sans-Serif" font-weight="bold" font-size="9.00">render</text>
</g>
<!-- bin -->
<g id="node1" class="node">
<title>bin</title>
<g id="a_node1"><a xlink:href="https://github.com/sverweij/state-machine-cat/blob/main/bin" xlink:title="no&#45;orphans">
<polygon fill="#ccffcc" stroke="orange" points="70,-17.75 17.97,-17.75 16,-15.78 16,0 68.03,0 70,-1.97 70,-17.75"/>
<polyline fill="none" stroke="orange" points="68.03,-15.78 16,-15.78"/>
<polyline fill="none" stroke="orange" points="68.03,-15.78 68.03,0"/>
<polyline fill="none" stroke="orange" points="68.03,-15.78 70,-17.75"/>
<text text-anchor="middle" x="43" y="-5.2" font-family="Helvetica,sans-Serif" font-size="9.00" fill="orange">bin</text>
</a>
</g>
</g>
<!-- src/cli -->
<g id="node2" class="node">
<title>src/cli</title>
<g id="a_node2"><a xlink:href="https://github.com/sverweij/state-machine-cat/blob/main/src/cli" xlink:title="cli">
<polygon fill="#ccffcc" stroke="black" points="70,-126.75 17.97,-126.75 16,-124.78 16,-109 68.03,-109 70,-110.97 70,-126.75"/>
<polyline fill="none" stroke="black" points="68.03,-124.78 16,-124.78"/>
<polyline fill="none" stroke="black" points="68.03,-124.78 68.03,-109"/>
<polyline fill="none" stroke="black" points="68.03,-124.78 70,-126.75"/>
<text text-anchor="start" x="38.5" y="-114.2" font-family="Helvetica,sans-Serif" font-size="9.00">cli</text>
</a>
</g>
</g>
<!-- src/index&#45;node.mts -->
<g id="node3" class="node">
<title>src/index&#45;node.mts</title>
<g id="a_node3"><a xlink:href="https://github.com/sverweij/state-machine-cat/blob/main/src/index-node.mts" xlink:title="index&#45;node.mts">
<path fill="#ffffcc" stroke="black" d="M179.08,-208.75C179.08,-208.75 111.92,-208.75 111.92,-208.75 108.96,-208.75 106,-205.79 106,-202.83 106,-202.83 106,-196.92 106,-196.92 106,-193.96 108.96,-191 111.92,-191 111.92,-191 179.08,-191 179.08,-191 182.04,-191 185,-193.96 185,-196.92 185,-196.92 185,-202.83 185,-202.83 185,-205.79 182.04,-208.75 179.08,-208.75"/>
<text text-anchor="start" x="114" y="-196.2" font-family="Helvetica,sans-Serif" font-size="9.00">index&#45;node.mts</text>
</a>
</g>
</g>
<!-- src/cli&#45;&gt;src/index&#45;node.mts -->
<g id="edge1" class="edge">
<title>src/cli&#45;&gt;src/index&#45;node.mts</title>
<path fill="none" stroke="#000000" stroke-width="2" stroke-opacity="0.200000" d="M70.37,-122.56C89.73,-122.56 112.25,-122.56 112.25,-122.56 112.25,-122.56 112.25,-181.7 112.25,-181.7"/>
<polygon fill="#000000" fill-opacity="0.200000" stroke="#000000" stroke-width="2" stroke-opacity="0.200000" points="110.15,-181.7 112.25,-187.7 114.35,-181.7 110.15,-181.7"/>
</g>
<!-- src/options.mts -->
<g id="node4" class="node">
<title>src/options.mts</title>
<g id="a_node4"><a xlink:href="https://github.com/sverweij/state-machine-cat/blob/main/src/options.mts" xlink:title="options.mts">
<path fill="#ffffcc" stroke="black" d="M691.21,-121.75C691.21,-121.75 640.54,-121.75 640.54,-121.75 637.58,-121.75 634.62,-118.79 634.62,-115.83 634.62,-115.83 634.62,-109.92 634.62,-109.92 634.62,-106.96 637.58,-104 640.54,-104 640.54,-104 691.21,-104 691.21,-104 694.17,-104 697.12,-106.96 697.12,-109.92 697.12,-109.92 697.12,-115.83 697.12,-115.83 697.12,-118.79 694.17,-121.75 691.21,-121.75"/>
<text text-anchor="start" x="642.62" y="-109.2" font-family="Helvetica,sans-Serif" font-size="9.00">options.mts</text>
</a>
</g>
</g>
<!-- src/cli&#45;&gt;src/options.mts -->
<g id="edge2" class="edge">
<title>src/cli&#45;&gt;src/options.mts</title>
<path fill="none" stroke="#000000" stroke-width="2" stroke-opacity="0.200000" d="M43.25,-108.78C43.25,-101.28 43.25,-91.88 43.25,-91.88 43.25,-91.88 666.25,-91.88 666.25,-91.88 666.25,-91.88 666.25,-94.85 666.25,-94.85"/>
<polygon fill="#000000" fill-opacity="0.200000" stroke="#000000" stroke-width="2" stroke-opacity="0.200000" points="664.15,-94.85 666.25,-100.85 668.35,-94.85 664.15,-94.85"/>
</g>
<!-- src/index&#45;node.mts&#45;&gt;src/options.mts -->
<g id="edge3" class="edge">
<title>src/index&#45;node.mts&#45;&gt;src/options.mts</title>
<path fill="none" stroke="#000000" stroke-width="2" stroke-opacity="0.200000" d="M181.25,-190.85C181.25,-175.34 181.25,-145.25 181.25,-145.25 181.25,-145.25 675.25,-145.25 675.25,-145.25 675.25,-145.25 675.25,-131.07 675.25,-131.07"/>
<polygon fill="#000000" fill-opacity="0.200000" stroke="#000000" stroke-width="2" stroke-opacity="0.200000" points="677.35,-131.07 675.25,-125.07 673.15,-131.07 677.35,-131.07"/>
</g>
<!-- src/parse/index.mts -->
<g id="node5" class="node">
<title>src/parse/index.mts</title>
<g id="a_node5"><a xlink:href="https://github.com/sverweij/state-machine-cat/blob/main/src/parse/index.mts" xlink:title="index.mts">
<path fill="#ffccff" stroke="black" d="M282.08,-343.75C282.08,-343.75 238.92,-343.75 238.92,-343.75 235.96,-343.75 233,-340.79 233,-337.83 233,-337.83 233,-331.92 233,-331.92 233,-328.96 235.96,-326 238.92,-326 238.92,-326 282.08,-326 282.08,-326 285.04,-326 288,-328.96 288,-331.92 288,-331.92 288,-337.83 288,-337.83 288,-340.79 285.04,-343.75 282.08,-343.75"/>
<text text-anchor="start" x="241" y="-331.2" font-family="Helvetica,sans-Serif" font-size="9.00">index.mts</text>
</a>
</g>
</g>
<!-- src/index&#45;node.mts&#45;&gt;src/parse/index.mts -->
<g id="edge4" class="edge">
<title>src/index&#45;node.mts&#45;&gt;src/parse/index.mts</title>
<path fill="none" stroke="#ff00ff" stroke-width="2" stroke-opacity="0.466667" d="M133.25,-208.93C133.25,-239.62 133.25,-337.83 133.25,-337.83 133.25,-337.83 223.57,-337.83 223.57,-337.83"/>
<polygon fill="#ff00ff" fill-opacity="0.466667" stroke="#ff00ff" stroke-width="2" stroke-opacity="0.466667" points="223.57,-339.93 229.57,-337.83 223.57,-335.73 223.57,-339.93"/>
</g>
<!-- src/render/index&#45;node.mts -->
<g id="node6" class="node">
<title>src/render/index&#45;node.mts</title>
<g id="a_node6"><a xlink:href="https://github.com/sverweij/state-machine-cat/blob/main/src/render/index-node.mts" xlink:title="index&#45;node.mts">
<path fill="#ccccff" stroke="black" d="M294.08,-211.75C294.08,-211.75 226.92,-211.75 226.92,-211.75 223.96,-211.75 221,-208.79 221,-205.83 221,-205.83 221,-199.92 221,-199.92 221,-196.96 223.96,-194 226.92,-194 226.92,-194 294.08,-194 294.08,-194 297.04,-194 300,-196.96 300,-199.92 300,-199.92 300,-205.83 300,-205.83 300,-208.79 297.04,-211.75 294.08,-211.75"/>
<text text-anchor="start" x="229" y="-199.2" font-family="Helvetica,sans-Serif" font-size="9.00">index&#45;node.mts</text>
</a>
</g>
</g>
<!-- src/index&#45;node.mts&#45;&gt;src/render/index&#45;node.mts -->
<g id="edge5" class="edge">
<title>src/index&#45;node.mts&#45;&gt;src/render/index&#45;node.mts</title>
<path fill="none" stroke="#0000ff" stroke-width="2" stroke-opacity="0.466667" d="M185.4,-201.38C185.4,-201.38 211.67,-201.38 211.67,-201.38"/>
<polygon fill="#0000ff" fill-opacity="0.466667" stroke="#0000ff" stroke-width="2" stroke-opacity="0.466667" points="211.67,-203.48 217.67,-201.38 211.67,-199.28 211.67,-203.48"/>
</g>
<!-- src/transform -->
<g id="node7" class="node">
<title>src/transform</title>
<g id="a_node7"><a xlink:href="https://github.com/sverweij/state-machine-cat/blob/main/src/transform" xlink:title="transform">
<polygon fill="#ffffcc" stroke="black" points="551.38,-309.75 499.1,-309.75 497.12,-307.78 497.12,-292 549.4,-292 551.38,-293.97 551.38,-309.75"/>
<polyline fill="none" stroke="black" points="549.4,-307.78 497.12,-307.78"/>
<polyline fill="none" stroke="black" points="549.4,-307.78 549.4,-292"/>
<polyline fill="none" stroke="black" points="549.4,-307.78 551.38,-309.75"/>
<text text-anchor="start" x="505.12" y="-297.2" font-family="Helvetica,sans-Serif" font-size="9.00">transform</text>
</a>
</g>
</g>
<!-- src/index&#45;node.mts&#45;&gt;src/transform -->
<g id="edge6" class="edge">
<title>src/index&#45;node.mts&#45;&gt;src/transform</title>
<path fill="none" stroke="#000000" stroke-width="2" stroke-opacity="0.200000" d="M159.25,-209.2C159.25,-234.2 159.25,-300.88 159.25,-300.88 159.25,-300.88 487.82,-300.88 487.82,-300.88"/>
<polygon fill="#000000" fill-opacity="0.200000" stroke="#000000" stroke-width="2" stroke-opacity="0.200000" points="487.82,-302.98 493.82,-300.88 487.82,-298.78 487.82,-302.98"/>
</g>
<!-- src/version.mts -->
<g id="node8" class="node">
<title>src/version.mts</title>
<g id="a_node8"><a xlink:href="https://github.com/sverweij/state-machine-cat/blob/main/src/version.mts" xlink:title="version.mts">
<path fill="#ffffcc" stroke="black" d="M285.83,-79.75C285.83,-79.75 235.17,-79.75 235.17,-79.75 232.21,-79.75 229.25,-76.79 229.25,-73.83 229.25,-73.83 229.25,-67.92 229.25,-67.92 229.25,-64.96 232.21,-62 235.17,-62 235.17,-62 285.83,-62 285.83,-62 288.79,-62 291.75,-64.96 291.75,-67.92 291.75,-67.92 291.75,-73.83 291.75,-73.83 291.75,-76.79 288.79,-79.75 285.83,-79.75"/>
<text text-anchor="start" x="237.25" y="-67.2" font-family="Helvetica,sans-Serif" font-size="9.00">version.mts</text>
</a>
</g>
</g>
<!-- src/index&#45;node.mts&#45;&gt;src/version.mts -->
<g id="edge7" class="edge">
<title>src/index&#45;node.mts&#45;&gt;src/version.mts</title>
<path fill="none" stroke="#000000" stroke-width="2" stroke-opacity="0.200000" d="M177.25,-190.81C177.25,-161.91 177.25,-73.83 177.25,-73.83 177.25,-73.83 220.03,-73.83 220.03,-73.83"/>
<polygon fill="#000000" fill-opacity="0.200000" stroke="#000000" stroke-width="2" stroke-opacity="0.200000" points="220.03,-75.93 226.03,-73.83 220.03,-71.73 220.03,-75.93"/>
</g>
<!-- src/parse/index.mts&#45;&gt;src/options.mts -->
<g id="edge13" class="edge">
<title>src/parse/index.mts&#45;&gt;src/options.mts</title>
<path fill="none" stroke="#000000" stroke-width="2" stroke-opacity="0.200000" d="M261.25,-325.58C261.25,-321.61 261.25,-317.88 261.25,-317.88 261.25,-317.88 434.25,-317.88 434.25,-317.88 434.25,-317.88 434.25,-114.7 434.25,-114.7 434.25,-114.7 625.15,-114.7 625.15,-114.7"/>
<polygon fill="#000000" fill-opacity="0.200000" stroke="#000000" stroke-width="2" stroke-opacity="0.200000" points="625.15,-116.8 631.15,-114.7 625.15,-112.6 625.15,-116.8"/>
</g>
<!-- src/parse/scxml -->
<g id="node11" class="node">
<title>src/parse/scxml</title>
<g id="a_node11"><a xlink:href="https://github.com/sverweij/state-machine-cat/blob/main/src/parse/scxml" xlink:title="scxml">
<polygon fill="#ffccff" stroke="black" points="416,-343.75 363.97,-343.75 362,-341.78 362,-326 414.03,-326 416,-327.97 416,-343.75"/>
<polyline fill="none" stroke="black" points="414.03,-341.78 362,-341.78"/>
<polyline fill="none" stroke="black" points="414.03,-341.78 414.03,-326"/>
<polyline fill="none" stroke="black" points="414.03,-341.78 416,-343.75"/>
<text text-anchor="start" x="377.38" y="-331.2" font-family="Helvetica,sans-Serif" font-size="9.00">scxml</text>
</a>
</g>
</g>
<!-- src/parse/index.mts&#45;&gt;src/parse/scxml -->
<g id="edge14" class="edge">
<title>src/parse/index.mts&#45;&gt;src/parse/scxml</title>
<path fill="none" stroke="#ff00ff" stroke-width="2" stroke-opacity="0.466667" d="M288.38,-331.92C288.38,-331.92 352.61,-331.92 352.61,-331.92"/>
<polygon fill="#ff00ff" fill-opacity="0.466667" stroke="#ff00ff" stroke-width="2" stroke-opacity="0.466667" points="352.61,-334.02 358.61,-331.92 352.61,-329.82 352.61,-334.02"/>
</g>
<!-- src/parse/smcat&#45;ast.schema.mts -->
<g id="node12" class="node">
<title>src/parse/smcat&#45;ast.schema.mts</title>
<g id="a_node12"><a xlink:href="https://github.com/sverweij/state-machine-cat/blob/main/src/parse/smcat-ast.schema.mts" xlink:title="smcat&#45;ast.schema.mts">
<path fill="#ffccff" stroke="black" d="M436.08,-403.75C436.08,-403.75 341.92,-403.75 341.92,-403.75 338.96,-403.75 336,-400.79 336,-397.83 336,-397.83 336,-391.92 336,-391.92 336,-388.96 338.96,-386 341.92,-386 341.92,-386 436.08,-386 436.08,-386 439.04,-386 442,-388.96 442,-391.92 442,-391.92 442,-397.83 442,-397.83 442,-400.79 439.04,-403.75 436.08,-403.75"/>
<text text-anchor="start" x="344" y="-391.2" font-family="Helvetica,sans-Serif" font-size="9.00">smcat&#45;ast.schema.mts</text>
</a>
</g>
</g>
<!-- src/parse/index.mts&#45;&gt;src/parse/smcat&#45;ast.schema.mts -->
<g id="edge15" class="edge">
<title>src/parse/index.mts&#45;&gt;src/parse/smcat&#45;ast.schema.mts</title>
<path fill="none" stroke="#ff00ff" stroke-width="2" stroke-opacity="0.466667" d="M288.09,-337.83C314.15,-337.83 349.25,-337.83 349.25,-337.83 349.25,-337.83 349.25,-376.71 349.25,-376.71"/>
<polygon fill="#ff00ff" fill-opacity="0.466667" stroke="#ff00ff" stroke-width="2" stroke-opacity="0.466667" points="347.15,-376.71 349.25,-382.71 351.35,-376.71 347.15,-376.71"/>
</g>
<!-- src/parse/smcat -->
<g id="node13" class="node">
<title>src/parse/smcat</title>
<g id="a_node13"><a xlink:href="https://github.com/sverweij/state-machine-cat/blob/main/src/parse/smcat" xlink:title="smcat">
<polygon fill="#ffccff" stroke="black" points="416,-373.75 363.97,-373.75 362,-371.78 362,-356 414.03,-356 416,-357.97 416,-373.75"/>
<polyline fill="none" stroke="black" points="414.03,-371.78 362,-371.78"/>
<polyline fill="none" stroke="black" points="414.03,-371.78 414.03,-356"/>
<polyline fill="none" stroke="black" points="414.03,-371.78 416,-373.75"/>
<text text-anchor="start" x="377" y="-361.2" font-family="Helvetica,sans-Serif" font-size="9.00">smcat</text>
</a>
</g>
</g>
<!-- src/parse/index.mts&#45;&gt;src/parse/smcat -->
<g id="edge16" class="edge">
<title>src/parse/index.mts&#45;&gt;src/parse/smcat</title>
<path fill="none" stroke="#ff00ff" stroke-width="2" stroke-opacity="0.466667" d="M261.25,-344.04C261.25,-352.86 261.25,-364.88 261.25,-364.88 261.25,-364.88 352.59,-364.88 352.59,-364.88"/>
<polygon fill="#ff00ff" fill-opacity="0.466667" stroke="#ff00ff" stroke-width="2" stroke-opacity="0.466667" points="352.59,-366.98 358.59,-364.88 352.59,-362.78 352.59,-366.98"/>
</g>
<!-- src/render/dot -->
<g id="node16" class="node">
<title>src/render/dot</title>
<g id="a_node16"><a xlink:href="https://github.com/sverweij/state-machine-cat/blob/main/src/render/dot" xlink:title="dot">
<polygon fill="#ccccff" stroke="black" points="551.25,-171.75 499.22,-171.75 497.25,-169.78 497.25,-154 549.28,-154 551.25,-155.97 551.25,-171.75"/>
<polyline fill="none" stroke="black" points="549.28,-169.78 497.25,-169.78"/>
<polyline fill="none" stroke="black" points="549.28,-169.78 549.28,-154"/>
<polyline fill="none" stroke="black" points="549.28,-169.78 551.25,-171.75"/>
<text text-anchor="start" x="517.88" y="-159.2" font-family="Helvetica,sans-Serif" font-size="9.00">dot</text>
</a>
</g>
</g>
<!-- src/render/index&#45;node.mts&#45;&gt;src/render/dot -->
<g id="edge24" class="edge">
<title>src/render/index&#45;node.mts&#45;&gt;src/render/dot</title>
<path fill="none" stroke="#0000ff" stroke-width="2" stroke-opacity="0.466667" d="M270.25,-193.73C270.25,-189.16 270.25,-184.58 270.25,-184.58 270.25,-184.58 533.25,-184.58 533.25,-184.58 533.25,-184.58 533.25,-181.21 533.25,-181.21"/>
<polygon fill="#0000ff" fill-opacity="0.466667" stroke="#0000ff" stroke-width="2" stroke-opacity="0.466667" points="535.35,-181.21 533.25,-175.21 531.15,-181.21 535.35,-181.21"/>
</g>
<!-- src/render/scjson -->
<g id="node18" class="node">
<title>src/render/scjson</title>
<g id="a_node18"><a xlink:href="https://github.com/sverweij/state-machine-cat/blob/main/src/render/scjson" xlink:title="scjson">
<polygon fill="#ccccff" stroke="black" points="551.25,-229.75 499.22,-229.75 497.25,-227.78 497.25,-212 549.28,-212 551.25,-213.97 551.25,-229.75"/>
<polyline fill="none" stroke="black" points="549.28,-227.78 497.25,-227.78"/>
<polyline fill="none" stroke="black" points="549.28,-227.78 549.28,-212"/>
<polyline fill="none" stroke="black" points="549.28,-227.78 551.25,-229.75"/>
<text text-anchor="start" x="511.12" y="-217.2" font-family="Helvetica,sans-Serif" font-size="9.00">scjson</text>
</a>
</g>
</g>
<!-- src/render/index&#45;node.mts&#45;&gt;src/render/scjson -->
<g id="edge25" class="edge">
<title>src/render/index&#45;node.mts&#45;&gt;src/render/scjson</title>
<path fill="none" stroke="#0000ff" stroke-width="2" stroke-opacity="0.466667" d="M294.25,-212.11C294.25,-218.65 294.25,-226.25 294.25,-226.25 294.25,-226.25 487.96,-226.25 487.96,-226.25"/>
<polygon fill="#0000ff" fill-opacity="0.466667" stroke="#0000ff" stroke-width="2" stroke-opacity="0.466667" points="487.96,-228.35 493.96,-226.25 487.96,-224.15 487.96,-228.35"/>
</g>
<!-- src/render/scxml -->
<g id="node19" class="node">
<title>src/render/scxml</title>
<g id="a_node19"><a xlink:href="https://github.com/sverweij/state-machine-cat/blob/main/src/render/scxml" xlink:title="scxml">
<polygon fill="#ccccff" stroke="black" points="416,-215.75 363.97,-215.75 362,-213.78 362,-198 414.03,-198 416,-199.97 416,-215.75"/>
<polyline fill="none" stroke="black" points="414.03,-213.78 362,-213.78"/>
<polyline fill="none" stroke="black" points="414.03,-213.78 414.03,-198"/>
<polyline fill="none" stroke="black" points="414.03,-213.78 416,-215.75"/>
<text text-anchor="start" x="377.38" y="-203.2" font-family="Helvetica,sans-Serif" font-size="9.00">scxml</text>
</a>
</g>
</g>
<!-- src/render/index&#45;node.mts&#45;&gt;src/render/scxml -->
<g id="edge26" class="edge">
<title>src/render/index&#45;node.mts&#45;&gt;src/render/scxml</title>
<path fill="none" stroke="#0000ff" stroke-width="2" stroke-opacity="0.466667" d="M300.45,-207.17C300.45,-207.17 352.69,-207.17 352.69,-207.17"/>
<polygon fill="#0000ff" fill-opacity="0.466667" stroke="#0000ff" stroke-width="2" stroke-opacity="0.466667" points="352.69,-209.27 358.69,-207.17 352.69,-205.07 352.69,-209.27"/>
</g>
<!-- src/render/smcat -->
<g id="node20" class="node">
<title>src/render/smcat</title>
<g id="a_node20"><a xlink:href="https://github.com/sverweij/state-machine-cat/blob/main/src/render/smcat" xlink:title="smcat">
<polygon fill="#ccccff" stroke="black" points="416,-127.75 363.97,-127.75 362,-125.78 362,-110 414.03,-110 416,-111.97 416,-127.75"/>
<polyline fill="none" stroke="black" points="414.03,-125.78 362,-125.78"/>
<polyline fill="none" stroke="black" points="414.03,-125.78 414.03,-110"/>
<polyline fill="none" stroke="black" points="414.03,-125.78 416,-127.75"/>
<text text-anchor="start" x="377" y="-115.2" font-family="Helvetica,sans-Serif" font-size="9.00">smcat</text>
</a>
</g>
</g>
<!-- src/render/index&#45;node.mts&#45;&gt;src/render/smcat -->
<g id="edge27" class="edge">
<title>src/render/index&#45;node.mts&#45;&gt;src/render/smcat</title>
<path fill="none" stroke="#0000ff" stroke-width="2" stroke-opacity="0.466667" d="M295.25,-193.51C295.25,-171.51 295.25,-118.38 295.25,-118.38 295.25,-118.38 352.63,-118.38 352.63,-118.38"/>
<polygon fill="#0000ff" fill-opacity="0.466667" stroke="#0000ff" stroke-width="2" stroke-opacity="0.466667" points="352.63,-120.48 358.63,-118.38 352.63,-116.28 352.63,-120.48"/>
</g>
<!-- src/render/vector -->
<g id="node21" class="node">
<title>src/render/vector</title>
<g id="a_node21"><a xlink:href="https://github.com/sverweij/state-machine-cat/blob/main/src/render/vector" xlink:title="vector">
<polygon fill="#ccccff" stroke="black" points="416,-171.75 363.97,-171.75 362,-169.78 362,-154 414.03,-154 416,-155.97 416,-171.75"/>
<polyline fill="none" stroke="black" points="414.03,-169.78 362,-169.78"/>
<polyline fill="none" stroke="black" points="414.03,-169.78 414.03,-154"/>
<polyline fill="none" stroke="black" points="414.03,-169.78 416,-171.75"/>
<text text-anchor="start" x="376.62" y="-159.2" font-family="Helvetica,sans-Serif" font-size="9.00">vector</text>
</a>
</g>
</g>
<!-- src/render/index&#45;node.mts&#45;&gt;src/render/vector -->
<g id="edge28" class="edge">
<title>src/render/index&#45;node.mts&#45;&gt;src/render/vector</title>
<path fill="none" stroke="#0000ff" stroke-width="2" stroke-opacity="0.466667" d="M297.25,-193.76C297.25,-183.49 297.25,-168.2 297.25,-168.2 297.25,-168.2 352.97,-168.2 352.97,-168.2"/>
<polygon fill="#0000ff" fill-opacity="0.466667" stroke="#0000ff" stroke-width="2" stroke-opacity="0.466667" points="352.97,-170.3 358.97,-168.2 352.97,-166.1 352.97,-170.3"/>
</g>
<!-- src/state&#45;machine&#45;model.mts -->
<g id="node15" class="node">
<title>src/state&#45;machine&#45;model.mts</title>
<g id="a_node15"><a xlink:href="https://github.com/sverweij/state-machine-cat/blob/main/src/state-machine-model.mts" xlink:title="state&#45;machine&#45;model.mts">
<path fill="#ffffcc" stroke="black" d="M719.33,-276.75C719.33,-276.75 612.42,-276.75 612.42,-276.75 609.46,-276.75 606.5,-273.79 606.5,-270.83 606.5,-270.83 606.5,-264.92 606.5,-264.92 606.5,-261.96 609.46,-259 612.42,-259 612.42,-259 719.33,-259 719.33,-259 722.29,-259 725.25,-261.96 725.25,-264.92 725.25,-264.92 725.25,-270.83 725.25,-270.83 725.25,-273.79 722.29,-276.75 719.33,-276.75"/>
<text text-anchor="start" x="614.5" y="-264.2" font-family="Helvetica,sans-Serif" font-size="9.00">state&#45;machine&#45;model.mts</text>
</a>
</g>
</g>
<!-- src/transform&#45;&gt;src/state&#45;machine&#45;model.mts -->
<g id="edge39" class="edge">
<title>src/transform&#45;&gt;src/state&#45;machine&#45;model.mts</title>
<path fill="none" stroke="#000000" stroke-width="2" stroke-opacity="0.200000" d="M524.25,-291.8C524.25,-281.15 524.25,-264.92 524.25,-264.92 524.25,-264.92 597.22,-264.92 597.22,-264.92"/>
<polygon fill="#000000" fill-opacity="0.200000" stroke="#000000" stroke-width="2" stroke-opacity="0.200000" points="597.22,-267.02 603.22,-264.92 597.22,-262.82 597.22,-267.02"/>
</g>
<!-- src/utl.mts -->
<g id="node17" class="node">
<title>src/utl.mts</title>
<g id="a_node17"><a xlink:href="https://github.com/sverweij/state-machine-cat/blob/main/src/utl.mts" xlink:title="utl.mts">
<path fill="#ffffcc" stroke="black" d="M686.96,-171.75C686.96,-171.75 644.79,-171.75 644.79,-171.75 641.83,-171.75 638.88,-168.79 638.88,-165.83 638.88,-165.83 638.88,-159.92 638.88,-159.92 638.88,-156.96 641.83,-154 644.79,-154 644.79,-154 686.96,-154 686.96,-154 689.92,-154 692.88,-156.96 692.88,-159.92 692.88,-159.92 692.88,-165.83 692.88,-165.83 692.88,-168.79 689.92,-171.75 686.96,-171.75"/>
<text text-anchor="start" x="652.75" y="-159.2" font-family="Helvetica,sans-Serif" font-size="9.00">utl.mts</text>
</a>
</g>
</g>
<!-- src/transform&#45;&gt;src/utl.mts -->
<g id="edge40" class="edge">
<title>src/transform&#45;&gt;src/utl.mts</title>
<path fill="none" stroke="#000000" stroke-width="2" stroke-opacity="0.200000" d="M551.5,-300.88C571.52,-300.88 595.25,-300.88 595.25,-300.88 595.25,-300.88 595.25,-164.65 595.25,-164.65 595.25,-164.65 629.77,-164.65 629.77,-164.65"/>
<polygon fill="#000000" fill-opacity="0.200000" stroke="#000000" stroke-width="2" stroke-opacity="0.200000" points="629.77,-166.75 635.77,-164.65 629.77,-162.55 629.77,-166.75"/>
</g>
<!-- src/index.mts -->
<g id="node9" class="node">
<title>src/index.mts</title>
<g id="a_node9"><a xlink:href="https://github.com/sverweij/state-machine-cat/blob/main/src/index.mts" xlink:title="index.mts">
<path fill="#ffffcc" stroke="black" d="M167.08,-171.75C167.08,-171.75 123.92,-171.75 123.92,-171.75 120.96,-171.75 118,-168.79 118,-165.83 118,-165.83 118,-159.92 118,-159.92 118,-156.96 120.96,-154 123.92,-154 123.92,-154 167.08,-154 167.08,-154 170.04,-154 173,-156.96 173,-159.92 173,-159.92 173,-165.83 173,-165.83 173,-168.79 170.04,-171.75 167.08,-171.75"/>
<text text-anchor="start" x="126" y="-159.2" font-family="Helvetica,sans-Serif" font-size="9.00">index.mts</text>
</a>
</g>
</g>
<!-- src/index.mts&#45;&gt;src/options.mts -->
<g id="edge8" class="edge">
<title>src/index.mts&#45;&gt;src/options.mts</title>
<path fill="none" stroke="#000000" stroke-width="2" stroke-opacity="0.200000" d="M137.25,-153.65C137.25,-146.04 137.25,-136.5 137.25,-136.5 137.25,-136.5 657.25,-136.5 657.25,-136.5 657.25,-136.5 657.25,-131.21 657.25,-131.21"/>
<polygon fill="#000000" fill-opacity="0.200000" stroke="#000000" stroke-width="2" stroke-opacity="0.200000" points="659.35,-131.21 657.25,-125.21 655.15,-131.21 659.35,-131.21"/>
</g>
<!-- src/index.mts&#45;&gt;src/parse/index.mts -->
<g id="edge9" class="edge">
<title>src/index.mts&#45;&gt;src/parse/index.mts</title>
<path fill="none" stroke="#ff00ff" stroke-width="2" stroke-opacity="0.466667" d="M173.5,-167.31C185.69,-167.31 197.25,-167.31 197.25,-167.31 197.25,-167.31 197.25,-331.92 197.25,-331.92 197.25,-331.92 223.57,-331.92 223.57,-331.92"/>
<polygon fill="#ff00ff" fill-opacity="0.466667" stroke="#ff00ff" stroke-width="2" stroke-opacity="0.466667" points="223.57,-334.02 229.57,-331.92 223.57,-329.82 223.57,-334.02"/>
</g>
<!-- src/index.mts&#45;&gt;src/transform -->
<g id="edge11" class="edge">
<title>src/index.mts&#45;&gt;src/transform</title>
<path fill="none" stroke="#000000" stroke-width="2" stroke-opacity="0.200000" d="M173.28,-162.88C190.46,-162.88 209.25,-162.88 209.25,-162.88 209.25,-162.88 209.25,-296.44 209.25,-296.44 209.25,-296.44 487.85,-296.44 487.85,-296.44"/>
<polygon fill="#000000" fill-opacity="0.200000" stroke="#000000" stroke-width="2" stroke-opacity="0.200000" points="487.85,-298.54 493.85,-296.44 487.85,-294.34 487.85,-298.54"/>
</g>
<!-- src/index.mts&#45;&gt;src/version.mts -->
<g id="edge12" class="edge">
<title>src/index.mts&#45;&gt;src/version.mts</title>
<path fill="none" stroke="#000000" stroke-width="2" stroke-opacity="0.200000" d="M155.25,-153.77C155.25,-130 155.25,-67.92 155.25,-67.92 155.25,-67.92 219.92,-67.92 219.92,-67.92"/>
<polygon fill="#000000" fill-opacity="0.200000" stroke="#000000" stroke-width="2" stroke-opacity="0.200000" points="219.92,-70.02 225.92,-67.92 219.92,-65.82 219.92,-70.02"/>
</g>
<!-- src/render/index.mts -->
<g id="node10" class="node">
<title>src/render/index.mts</title>
<g id="a_node10"><a xlink:href="https://github.com/sverweij/state-machine-cat/blob/main/src/render/index.mts" xlink:title="index.mts">
<path fill="#ccccff" stroke="black" d="M282.08,-171.75C282.08,-171.75 238.92,-171.75 238.92,-171.75 235.96,-171.75 233,-168.79 233,-165.83 233,-165.83 233,-159.92 233,-159.92 233,-156.96 235.96,-154 238.92,-154 238.92,-154 282.08,-154 282.08,-154 285.04,-154 288,-156.96 288,-159.92 288,-159.92 288,-165.83 288,-165.83 288,-168.79 285.04,-171.75 282.08,-171.75"/>
<text text-anchor="start" x="241" y="-159.2" font-family="Helvetica,sans-Serif" font-size="9.00">index.mts</text>
</a>
</g>
</g>
<!-- src/index.mts&#45;&gt;src/render/index.mts -->
<g id="edge10" class="edge">
<title>src/index.mts&#45;&gt;src/render/index.mts</title>
<path fill="none" stroke="#0000ff" stroke-width="2" stroke-opacity="0.466667" d="M173.34,-158.44C173.34,-158.44 223.52,-158.44 223.52,-158.44"/>
<polygon fill="#0000ff" fill-opacity="0.466667" stroke="#0000ff" stroke-width="2" stroke-opacity="0.466667" points="223.52,-160.54 229.52,-158.44 223.52,-156.34 223.52,-160.54"/>
</g>
<!-- src/render/index.mts&#45;&gt;src/render/dot -->
<g id="edge29" class="edge">
<title>src/render/index.mts&#45;&gt;src/render/dot</title>
<path fill="none" stroke="#0000ff" stroke-width="2" stroke-opacity="0.466667" d="M252.25,-171.95C252.25,-175.24 252.25,-178.17 252.25,-178.17 252.25,-178.17 515.25,-178.17 515.25,-178.17 515.25,-178.17 515.25,-177.54 515.25,-177.54"/>
<polygon fill="#0000ff" fill-opacity="0.466667" stroke="#0000ff" stroke-width="2" stroke-opacity="0.466667" points="517.35,-180.95 515.25,-174.95 513.15,-180.95 517.35,-180.95"/>
</g>
<!-- src/render/index.mts&#45;&gt;src/render/scjson -->
<g id="edge30" class="edge">
<title>src/render/index.mts&#45;&gt;src/render/scjson</title>
<path fill="none" stroke="#0000ff" stroke-width="2" stroke-opacity="0.466667" d="M288.5,-164.65C300.69,-164.65 312.25,-164.65 312.25,-164.65 312.25,-164.65 312.25,-222.75 312.25,-222.75 312.25,-222.75 487.97,-222.75 487.97,-222.75"/>
<polygon fill="#0000ff" fill-opacity="0.466667" stroke="#0000ff" stroke-width="2" stroke-opacity="0.466667" points="487.97,-224.85 493.97,-222.75 487.97,-220.65 487.97,-224.85"/>
</g>
<!-- src/render/index.mts&#45;&gt;src/render/scxml -->
<g id="edge31" class="edge">
<title>src/render/index.mts&#45;&gt;src/render/scxml</title>
<path fill="none" stroke="#0000ff" stroke-width="2" stroke-opacity="0.466667" d="M288.28,-161.1C305.46,-161.1 324.25,-161.1 324.25,-161.1 324.25,-161.1 324.25,-202.58 324.25,-202.58 324.25,-202.58 352.54,-202.58 352.54,-202.58"/>
<polygon fill="#0000ff" fill-opacity="0.466667" stroke="#0000ff" stroke-width="2" stroke-opacity="0.466667" points="352.54,-204.68 358.54,-202.58 352.54,-200.48 352.54,-204.68"/>
</g>
<!-- src/render/index.mts&#45;&gt;src/render/smcat -->
<g id="edge32" class="edge">
<title>src/render/index.mts&#45;&gt;src/render/smcat</title>
<path fill="none" stroke="#0000ff" stroke-width="2" stroke-opacity="0.466667" d="M261.25,-153.94C261.25,-139.89 261.25,-114.19 261.25,-114.19 261.25,-114.19 352.59,-114.19 352.59,-114.19"/>
<polygon fill="#0000ff" fill-opacity="0.466667" stroke="#0000ff" stroke-width="2" stroke-opacity="0.466667" points="352.59,-116.29 358.59,-114.19 352.59,-112.09 352.59,-116.29"/>
</g>
<!-- src/render/index.mts&#45;&gt;src/render/vector -->
<g id="edge33" class="edge">
<title>src/render/index.mts&#45;&gt;src/render/vector</title>
<path fill="none" stroke="#0000ff" stroke-width="2" stroke-opacity="0.466667" d="M288.38,-157.55C288.38,-157.55 352.61,-157.55 352.61,-157.55"/>
<polygon fill="#0000ff" fill-opacity="0.466667" stroke="#0000ff" stroke-width="2" stroke-opacity="0.466667" points="352.61,-159.65 358.61,-157.55 352.61,-155.45 352.61,-159.65"/>
</g>
<!-- src/parse/scxml&#45;&gt;src/transform -->
<g id="edge18" class="edge">
<title>src/parse/scxml&#45;&gt;src/transform</title>
<path fill="none" stroke="#000000" stroke-width="2" stroke-opacity="0.200000" d="M380.25,-325.52C380.25,-316.86 380.25,-305.31 380.25,-305.31 380.25,-305.31 487.83,-305.31 487.83,-305.31"/>
<polygon fill="#000000" fill-opacity="0.200000" stroke="#000000" stroke-width="2" stroke-opacity="0.200000" points="487.83,-307.41 493.83,-305.31 487.83,-303.21 487.83,-307.41"/>
</g>
<!-- src/parse/parser&#45;helpers.mts -->
<g id="node14" class="node">
<title>src/parse/parser&#45;helpers.mts</title>
<g id="a_node14"><a xlink:href="https://github.com/sverweij/state-machine-cat/blob/main/src/parse/parser-helpers.mts" xlink:title="parser&#45;helpers.mts">
<path fill="#ffccff" stroke="black" d="M564.58,-343.75C564.58,-343.75 483.92,-343.75 483.92,-343.75 480.96,-343.75 478,-340.79 478,-337.83 478,-337.83 478,-331.92 478,-331.92 478,-328.96 480.96,-326 483.92,-326 483.92,-326 564.58,-326 564.58,-326 567.54,-326 570.5,-328.96 570.5,-331.92 570.5,-331.92 570.5,-337.83 570.5,-337.83 570.5,-340.79 567.54,-343.75 564.58,-343.75"/>
<text text-anchor="start" x="486" y="-331.2" font-family="Helvetica,sans-Serif" font-size="9.00">parser&#45;helpers.mts</text>
</a>
</g>
</g>
<!-- src/parse/scxml&#45;&gt;src/parse/parser&#45;helpers.mts -->
<g id="edge19" class="edge">
<title>src/parse/scxml&#45;&gt;src/parse/parser&#45;helpers.mts</title>
<path fill="none" stroke="#ff00ff" stroke-width="2" stroke-opacity="0.466667" d="M416.37,-334.88C416.37,-334.88 468.74,-334.88 468.74,-334.88"/>
<polygon fill="#ff00ff" fill-opacity="0.466667" stroke="#ff00ff" stroke-width="2" stroke-opacity="0.466667" points="468.74,-336.98 474.74,-334.88 468.74,-332.78 468.74,-336.98"/>
</g>
<!-- src/parse/smcat&#45;&gt;src/parse/parser&#45;helpers.mts -->
<g id="edge20" class="edge">
<title>src/parse/smcat&#45;&gt;src/parse/parser&#45;helpers.mts</title>
<path fill="none" stroke="#ff00ff" stroke-width="2" stroke-opacity="0.466667" d="M416.37,-364.88C455.89,-364.88 524.25,-364.88 524.25,-364.88 524.25,-364.88 524.25,-353.04 524.25,-353.04"/>
<polygon fill="#ff00ff" fill-opacity="0.466667" stroke="#ff00ff" stroke-width="2" stroke-opacity="0.466667" points="526.35,-353.04 524.25,-347.04 522.15,-353.04 526.35,-353.04"/>
</g>
<!-- src/parse/parser&#45;helpers.mts&#45;&gt;src/state&#45;machine&#45;model.mts -->
<g id="edge17" class="edge">
<title>src/parse/parser&#45;helpers.mts&#45;&gt;src/state&#45;machine&#45;model.mts</title>
<path fill="none" stroke="#000000" stroke-width="2" stroke-opacity="0.200000" d="M561.25,-325.7C561.25,-307.99 561.25,-270.83 561.25,-270.83 561.25,-270.83 597.23,-270.83 597.23,-270.83"/>
<polygon fill="#000000" fill-opacity="0.200000" stroke="#000000" stroke-width="2" stroke-opacity="0.200000" points="597.23,-272.93 603.23,-270.83 597.23,-268.73 597.23,-272.93"/>
</g>
<!-- src/render/dot&#45;&gt;src/options.mts -->
<g id="edge21" class="edge">
<title>src/render/dot&#45;&gt;src/options.mts</title>
<path fill="none" stroke="#000000" stroke-width="2" stroke-opacity="0.200000" d="M524.25,-153.66C524.25,-140.89 524.25,-119.4 524.25,-119.4 524.25,-119.4 625.44,-119.4 625.44,-119.4"/>
<polygon fill="#000000" fill-opacity="0.200000" stroke="#000000" stroke-width="2" stroke-opacity="0.200000" points="625.44,-121.5 631.44,-119.4 625.44,-117.3 625.44,-121.5"/>
</g>
<!-- src/render/dot&#45;&gt;src/state&#45;machine&#45;model.mts -->
<g id="edge22" class="edge">
<title>src/render/dot&#45;&gt;src/state&#45;machine&#45;model.mts</title>
<path fill="none" stroke="#000000" stroke-width="2" stroke-opacity="0.200000" d="M551.58,-168.2C581.49,-168.2 625.25,-168.2 625.25,-168.2 625.25,-168.2 625.25,-249.68 625.25,-249.68"/>
<polygon fill="#000000" fill-opacity="0.200000" stroke="#000000" stroke-width="2" stroke-opacity="0.200000" points="623.15,-249.68 625.25,-255.68 627.35,-249.68 623.15,-249.68"/>
</g>
<!-- src/render/dot&#45;&gt;src/utl.mts -->
<g id="edge23" class="edge">
<title>src/render/dot&#45;&gt;src/utl.mts</title>
<path fill="none" stroke="#000000" stroke-width="2" stroke-opacity="0.200000" d="M551.56,-161.1C551.56,-161.1 629.65,-161.1 629.65,-161.1"/>
<polygon fill="#000000" fill-opacity="0.200000" stroke="#000000" stroke-width="2" stroke-opacity="0.200000" points="629.65,-163.2 635.65,-161.1 629.65,-159 629.65,-163.2"/>
</g>
<!-- src/render/scjson&#45;&gt;src/state&#45;machine&#45;model.mts -->
<g id="edge34" class="edge">
<title>src/render/scjson&#45;&gt;src/state&#45;machine&#45;model.mts</title>
<path fill="none" stroke="#000000" stroke-width="2" stroke-opacity="0.200000" d="M551.36,-220.88C578.49,-220.88 616.25,-220.88 616.25,-220.88 616.25,-220.88 616.25,-249.81 616.25,-249.81"/>
<polygon fill="#000000" fill-opacity="0.200000" stroke="#000000" stroke-width="2" stroke-opacity="0.200000" points="614.15,-249.81 616.25,-255.81 618.35,-249.81 614.15,-249.81"/>
</g>
<!-- src/render/scxml&#45;&gt;src/render/scjson -->
<g id="edge35" class="edge">
<title>src/render/scxml&#45;&gt;src/render/scjson</title>
<path fill="none" stroke="#0000ff" stroke-width="2" stroke-opacity="0.466667" d="M398.25,-216.13C398.25,-217.92 398.25,-219.25 398.25,-219.25 398.25,-219.25 487.91,-219.25 487.91,-219.25"/>
<polygon fill="#0000ff" fill-opacity="0.466667" stroke="#0000ff" stroke-width="2" stroke-opacity="0.466667" points="487.91,-221.35 493.91,-219.25 487.91,-217.15 487.91,-221.35"/>
</g>
<!-- src/render/smcat&#45;&gt;src/utl.mts -->
<g id="edge36" class="edge">
<title>src/render/smcat&#45;&gt;src/utl.mts</title>
<path fill="none" stroke="#000000" stroke-width="2" stroke-opacity="0.200000" d="M416.42,-117.05C469.96,-117.05 583.25,-117.05 583.25,-117.05 583.25,-117.05 583.25,-157.55 583.25,-157.55 583.25,-157.55 629.82,-157.55 629.82,-157.55"/>
<polygon fill="#000000" fill-opacity="0.200000" stroke="#000000" stroke-width="2" stroke-opacity="0.200000" points="629.82,-159.65 635.82,-157.55 629.82,-155.45 629.82,-159.65"/>
</g>
<!-- src/render/vector&#45;&gt;src/options.mts -->
<g id="edge37" class="edge">
<title>src/render/vector&#45;&gt;src/options.mts</title>
<path fill="none" stroke="#000000" stroke-width="2" stroke-opacity="0.200000" d="M416.47,-159.92C421.53,-159.92 425.25,-159.92 425.25,-159.92 425.25,-159.92 425.25,-112.35 425.25,-112.35 425.25,-112.35 625.42,-112.35 625.42,-112.35"/>
<polygon fill="#000000" fill-opacity="0.200000" stroke="#000000" stroke-width="2" stroke-opacity="0.200000" points="625.42,-114.45 631.42,-112.35 625.42,-110.25 625.42,-114.45"/>
</g>
<!-- src/render/vector&#45;&gt;src/render/dot -->
<g id="edge38" class="edge">
<title>src/render/vector&#45;&gt;src/render/dot</title>
<path fill="none" stroke="#0000ff" stroke-width="2" stroke-opacity="0.466667" d="M416.37,-165.83C416.37,-165.83 487.92,-165.83 487.92,-165.83"/>
<polygon fill="#0000ff" fill-opacity="0.466667" stroke="#0000ff" stroke-width="2" stroke-opacity="0.466667" points="487.92,-167.93 493.92,-165.83 487.92,-163.73 487.92,-167.93"/>
</g>
</g>
</svg>
