<?xml version="1.0" encoding="UTF-8" standalone="no"?>
<!DOCTYPE svg PUBLIC "-//W3C//DTD SVG 1.1//EN"
 "http://www.w3.org/Graphics/SVG/1.1/DTD/svg11.dtd">
<!-- Generated by graphviz version 13.1.2 (20250808.2320)
 -->
<!-- Title: dependency&#45;cruiser output Pages: 1 -->
<svg width="749pt" height="454pt"
 viewBox="0.00 0.00 749.00 454.00" xmlns="http://www.w3.org/2000/svg" xmlns:xlink="http://www.w3.org/1999/xlink">
<g id="graph0" class="graph" transform="scale(1 1) rotate(0) translate(4 450)">
<title>dependency&#45;cruiser output</title>
<polygon fill="white" stroke="none" points="-4,4 -4,-450 745.25,-450 745.25,4 -4,4"/>
<g id="clust1" class="cluster">
<title>cluster_src</title>
<path fill="#ffffff" stroke="black" stroke-width="2" d="M20,-8C20,-8 721.25,-8 721.25,-8 727.25,-8 733.25,-14 733.25,-20 733.25,-20 733.25,-426 733.25,-426 733.25,-432 727.25,-438 721.25,-438 721.25,-438 20,-438 20,-438 14,-438 8,-432 8,-426 8,-426 8,-20 8,-20 8,-14 14,-8 20,-8"/>
<text xml:space="preserve" text-anchor="middle" x="370.62" y="-425.45" font-family="Helvetica,sans-Serif" font-weight="bold" font-size="9.00">src</text>
</g>
<g id="clust2" class="cluster">
<title>cluster_src/parse</title>
<path fill="#ffffff" stroke="black" stroke-width="2" d="M237,-300C237,-300 566.5,-300 566.5,-300 572.5,-300 578.5,-306 578.5,-312 578.5,-312 578.5,-400 578.5,-400 578.5,-406 572.5,-412 566.5,-412 566.5,-412 237,-412 237,-412 231,-412 225,-406 225,-400 225,-400 225,-312 225,-312 225,-306 231,-300 237,-300"/>
<text xml:space="preserve" text-anchor="middle" x="401.75" y="-399.45" font-family="Helvetica,sans-Serif" font-weight="bold" font-size="9.00">parse</text>
</g>
<g id="clust3" class="cluster">
<title>cluster_src/render</title>
<path fill="#ffffff" stroke="black" stroke-width="2" d="M225,-70C225,-70 547.25,-70 547.25,-70 553.25,-70 559.25,-76 559.25,-82 559.25,-82 559.25,-226 559.25,-226 559.25,-232 553.25,-238 547.25,-238 547.25,-238 225,-238 225,-238 219,-238 213,-232 213,-226 213,-226 213,-82 213,-82 213,-76 219,-70 225,-70"/>
<text xml:space="preserve" text-anchor="middle" x="386.12" y="-225.45" font-family="Helvetica,sans-Serif" font-weight="bold" font-size="9.00">render</text>
</g>
<!-- src/cli -->
<g id="node1" class="node">
<title>src/cli</title>
<g id="a_node1"><a xlink:href="https://github.com/sverweij/state-machine-cat/blob/main/src/cli" xlink:title="cli">
<polygon fill="#ccffcc" stroke="black" points="70,-61.88 17.97,-61.88 16,-59.9 16,-44.12 68.03,-44.12 70,-46.1 70,-61.88"/>
<polyline fill="none" stroke="black" points="68.03,-59.9 16,-59.9"/>
<polyline fill="none" stroke="black" points="68.03,-59.9 68.03,-44.12"/>
<polyline fill="none" stroke="black" points="68.03,-59.9 70,-61.88"/>
<text xml:space="preserve" text-anchor="start" x="38.5" y="-49.33" font-family="Helvetica,sans-Serif" font-size="9.00">cli</text>
</a>
</g>
</g>
<!-- src/index&#45;node.mts -->
<g id="node2" class="node">
<title>src/index&#45;node.mts</title>
<g id="a_node2"><a xlink:href="https://github.com/sverweij/state-machine-cat/blob/main/src/index-node.mts" xlink:title="index&#45;node.mts">
<path fill="#ddfeff" stroke="black" d="M179.08,-96.88C179.08,-96.88 111.92,-96.88 111.92,-96.88 108.96,-96.88 106,-93.92 106,-90.96 106,-90.96 106,-85.04 106,-85.04 106,-82.08 108.96,-79.12 111.92,-79.12 111.92,-79.12 179.08,-79.12 179.08,-79.12 182.04,-79.12 185,-82.08 185,-85.04 185,-85.04 185,-90.96 185,-90.96 185,-93.92 182.04,-96.88 179.08,-96.88"/>
<text xml:space="preserve" text-anchor="start" x="114" y="-84.33" font-family="Helvetica,sans-Serif" font-size="9.00">index&#45;node.mts</text>
</a>
</g>
</g>
<!-- src/cli&#45;&gt;src/index&#45;node.mts -->
<g id="edge1" class="edge">
<title>src/cli&#45;&gt;src/index&#45;node.mts</title>
<path fill="none" stroke="#000000" stroke-width="2" stroke-opacity="0.200000" d="M52.25,-62.2C52.25,-72.57 52.25,-88 52.25,-88 52.25,-88 96.66,-88 96.66,-88"/>
<polygon fill="#000000" fill-opacity="0.200000" stroke="#000000" stroke-width="2" stroke-opacity="0.200000" points="96.66,-90.1 102.66,-88 96.66,-85.9 96.66,-90.1"/>
</g>
<!-- src/version.mts -->
<g id="node3" class="node">
<title>src/version.mts</title>
<g id="a_node3"><a xlink:href="https://github.com/sverweij/state-machine-cat/blob/main/src/version.mts" xlink:title="version.mts">
<path fill="#ddfeff" stroke="black" d="M285.83,-61.88C285.83,-61.88 235.17,-61.88 235.17,-61.88 232.21,-61.88 229.25,-58.92 229.25,-55.96 229.25,-55.96 229.25,-50.04 229.25,-50.04 229.25,-47.08 232.21,-44.12 235.17,-44.12 235.17,-44.12 285.83,-44.12 285.83,-44.12 288.79,-44.12 291.75,-47.08 291.75,-50.04 291.75,-50.04 291.75,-55.96 291.75,-55.96 291.75,-58.92 288.79,-61.88 285.83,-61.88"/>
<text xml:space="preserve" text-anchor="start" x="237.25" y="-49.33" font-family="Helvetica,sans-Serif" font-size="9.00">version.mts</text>
</a>
</g>
</g>
<!-- src/cli&#45;&gt;src/version.mts -->
<g id="edge2" class="edge">
<title>src/cli&#45;&gt;src/version.mts</title>
<path fill="none" stroke="#000000" stroke-width="2" stroke-opacity="0.200000" d="M70.11,-50.04C70.11,-50.04 219.79,-50.04 219.79,-50.04"/>
<polygon fill="#000000" fill-opacity="0.200000" stroke="#000000" stroke-width="2" stroke-opacity="0.200000" points="219.79,-52.14 225.79,-50.04 219.79,-47.94 219.79,-52.14"/>
</g>
<!-- src/options.mts -->
<g id="node4" class="node">
<title>src/options.mts</title>
<g id="a_node4"><a xlink:href="https://github.com/sverweij/state-machine-cat/blob/main/src/options.mts" xlink:title="options.mts">
<path fill="#ddfeff" stroke="black" d="M691.21,-120.88C691.21,-120.88 640.54,-120.88 640.54,-120.88 637.58,-120.88 634.62,-117.92 634.62,-114.96 634.62,-114.96 634.62,-109.04 634.62,-109.04 634.62,-106.08 637.58,-103.12 640.54,-103.12 640.54,-103.12 691.21,-103.12 691.21,-103.12 694.17,-103.12 697.12,-106.08 697.12,-109.04 697.12,-109.04 697.12,-114.96 697.12,-114.96 697.12,-117.92 694.17,-120.88 691.21,-120.88"/>
<text xml:space="preserve" text-anchor="start" x="642.62" y="-108.33" font-family="Helvetica,sans-Serif" font-size="9.00">options.mts</text>
</a>
</g>
</g>
<!-- src/cli&#45;&gt;src/options.mts -->
<g id="edge3" class="edge">
<title>src/cli&#45;&gt;src/options.mts</title>
<path fill="none" stroke="#000000" stroke-width="2" stroke-opacity="0.200000" d="M34.25,-62.16C34.25,-66.39 34.25,-70.5 34.25,-70.5 34.25,-70.5 666.25,-70.5 666.25,-70.5 666.25,-70.5 666.25,-93.76 666.25,-93.76"/>
<polygon fill="#000000" fill-opacity="0.200000" stroke="#000000" stroke-width="2" stroke-opacity="0.200000" points="664.15,-93.76 666.25,-99.76 668.35,-93.76 664.15,-93.76"/>
</g>
<!-- src/index&#45;node.mts&#45;&gt;src/version.mts -->
<g id="edge8" class="edge">
<title>src/index&#45;node.mts&#45;&gt;src/version.mts</title>
<path fill="none" stroke="#000000" stroke-width="2" stroke-opacity="0.200000" d="M185.31,-81.72C218.45,-81.72 260.25,-81.72 260.25,-81.72 260.25,-81.72 260.25,-71.12 260.25,-71.12"/>
<polygon fill="#000000" fill-opacity="0.200000" stroke="#000000" stroke-width="2" stroke-opacity="0.200000" points="262.35,-71.12 260.25,-65.12 258.15,-71.12 262.35,-71.12"/>
</g>
<!-- src/index&#45;node.mts&#45;&gt;src/options.mts -->
<g id="edge4" class="edge">
<title>src/index&#45;node.mts&#45;&gt;src/options.mts</title>
<path fill="none" stroke="#000000" stroke-width="2" stroke-opacity="0.200000" d="M185.11,-84.33C304.1,-84.33 650.25,-84.33 650.25,-84.33 650.25,-84.33 650.25,-93.6 650.25,-93.6"/>
<polygon fill="#000000" fill-opacity="0.200000" stroke="#000000" stroke-width="2" stroke-opacity="0.200000" points="648.15,-93.6 650.25,-99.6 652.35,-93.6 648.15,-93.6"/>
</g>
<!-- src/parse/index.mts -->
<g id="node6" class="node">
<title>src/parse/index.mts</title>
<g id="a_node6"><a xlink:href="https://github.com/sverweij/state-machine-cat/blob/main/src/parse/index.mts" xlink:title="index.mts">
<path fill="#ffccff" stroke="black" d="M282.08,-325.88C282.08,-325.88 238.92,-325.88 238.92,-325.88 235.96,-325.88 233,-322.92 233,-319.96 233,-319.96 233,-314.04 233,-314.04 233,-311.08 235.96,-308.12 238.92,-308.12 238.92,-308.12 282.08,-308.12 282.08,-308.12 285.04,-308.12 288,-311.08 288,-314.04 288,-314.04 288,-319.96 288,-319.96 288,-322.92 285.04,-325.88 282.08,-325.88"/>
<text xml:space="preserve" text-anchor="start" x="241" y="-313.32" font-family="Helvetica,sans-Serif" font-size="9.00">index.mts</text>
</a>
</g>
</g>
<!-- src/index&#45;node.mts&#45;&gt;src/parse/index.mts -->
<g id="edge5" class="edge">
<title>src/index&#45;node.mts&#45;&gt;src/parse/index.mts</title>
<path fill="none" stroke="#ff00ff" stroke-width="2" stroke-opacity="0.466667" d="M177.25,-97.14C177.25,-139.43 177.25,-314.04 177.25,-314.04 177.25,-314.04 223.75,-314.04 223.75,-314.04"/>
<polygon fill="#ff00ff" fill-opacity="0.466667" stroke="#ff00ff" stroke-width="2" stroke-opacity="0.466667" points="223.75,-316.14 229.75,-314.04 223.75,-311.94 223.75,-316.14"/>
</g>
<!-- src/render/index&#45;node.mts -->
<g id="node7" class="node">
<title>src/render/index&#45;node.mts</title>
<g id="a_node7"><a xlink:href="https://github.com/sverweij/state-machine-cat/blob/main/src/render/index-node.mts" xlink:title="index&#45;node.mts">
<path fill="#ccccff" stroke="black" d="M294.08,-120.88C294.08,-120.88 226.92,-120.88 226.92,-120.88 223.96,-120.88 221,-117.92 221,-114.96 221,-114.96 221,-109.04 221,-109.04 221,-106.08 223.96,-103.12 226.92,-103.12 226.92,-103.12 294.08,-103.12 294.08,-103.12 297.04,-103.12 300,-106.08 300,-109.04 300,-109.04 300,-114.96 300,-114.96 300,-117.92 297.04,-120.88 294.08,-120.88"/>
<text xml:space="preserve" text-anchor="start" x="229" y="-108.33" font-family="Helvetica,sans-Serif" font-size="9.00">index&#45;node.mts</text>
</a>
</g>
</g>
<!-- src/index&#45;node.mts&#45;&gt;src/render/index&#45;node.mts -->
<g id="edge6" class="edge">
<title>src/index&#45;node.mts&#45;&gt;src/render/index&#45;node.mts</title>
<path fill="none" stroke="#0000ff" stroke-width="2" stroke-opacity="0.466667" d="M185.38,-89.53C205.31,-89.53 225.25,-89.53 225.25,-89.53 225.25,-89.53 225.25,-93.83 225.25,-93.83"/>
<polygon fill="#0000ff" fill-opacity="0.466667" stroke="#0000ff" stroke-width="2" stroke-opacity="0.466667" points="223.15,-93.83 225.25,-99.83 227.35,-93.83 223.15,-93.83"/>
</g>
<!-- src/transform -->
<g id="node8" class="node">
<title>src/transform</title>
<g id="a_node8"><a xlink:href="https://github.com/sverweij/state-machine-cat/blob/main/src/transform" xlink:title="transform">
<polygon fill="#ffffcc" stroke="black" points="551.38,-291.88 499.1,-291.88 497.12,-289.9 497.12,-274.12 549.4,-274.12 551.38,-276.1 551.38,-291.88"/>
<polyline fill="none" stroke="black" points="549.4,-289.9 497.12,-289.9"/>
<polyline fill="none" stroke="black" points="549.4,-289.9 549.4,-274.12"/>
<polyline fill="none" stroke="black" points="549.4,-289.9 551.38,-291.88"/>
<text xml:space="preserve" text-anchor="start" x="505.12" y="-279.32" font-family="Helvetica,sans-Serif" font-size="9.00">transform</text>
</a>
</g>
</g>
<!-- src/index&#45;node.mts&#45;&gt;src/transform -->
<g id="edge7" class="edge">
<title>src/index&#45;node.mts&#45;&gt;src/transform</title>
<path fill="none" stroke="#000000" stroke-width="2" stroke-opacity="0.200000" d="M181.25,-97.26C181.25,-135.62 181.25,-280.04 181.25,-280.04 181.25,-280.04 487.73,-280.04 487.73,-280.04"/>
<polygon fill="#000000" fill-opacity="0.200000" stroke="#000000" stroke-width="2" stroke-opacity="0.200000" points="487.73,-282.14 493.73,-280.04 487.73,-277.94 487.73,-282.14"/>
</g>
<!-- src/counter.mts -->
<g id="node5" class="node">
<title>src/counter.mts</title>
<g id="a_node5"><a xlink:href="https://github.com/sverweij/state-machine-cat/blob/main/src/counter.mts" xlink:title="counter.mts">
<path fill="#ddfeff" stroke="black" d="M691.58,-347.88C691.58,-347.88 640.17,-347.88 640.17,-347.88 637.21,-347.88 634.25,-344.92 634.25,-341.96 634.25,-341.96 634.25,-336.04 634.25,-336.04 634.25,-333.08 637.21,-330.12 640.17,-330.12 640.17,-330.12 691.58,-330.12 691.58,-330.12 694.54,-330.12 697.5,-333.08 697.5,-336.04 697.5,-336.04 697.5,-341.96 697.5,-341.96 697.5,-344.92 694.54,-347.88 691.58,-347.88"/>
<text xml:space="preserve" text-anchor="start" x="642.25" y="-335.32" font-family="Helvetica,sans-Serif" font-size="9.00">counter.mts</text>
</a>
</g>
</g>
<!-- src/parse/index.mts&#45;&gt;src/options.mts -->
<g id="edge14" class="edge">
<title>src/parse/index.mts&#45;&gt;src/options.mts</title>
<path fill="none" stroke="#000000" stroke-width="2" stroke-opacity="0.200000" d="M269.25,-307.78C269.25,-284.35 269.25,-224.38 269.25,-224.38 269.25,-224.38 681.25,-224.38 681.25,-224.38 681.25,-224.38 681.25,-130.22 681.25,-130.22"/>
<polygon fill="#000000" fill-opacity="0.200000" stroke="#000000" stroke-width="2" stroke-opacity="0.200000" points="683.35,-130.22 681.25,-124.22 679.15,-130.22 683.35,-130.22"/>
</g>
<!-- src/parse/scxml -->
<g id="node11" class="node">
<title>src/parse/scxml</title>
<g id="a_node11"><a xlink:href="https://github.com/sverweij/state-machine-cat/blob/main/src/parse/scxml" xlink:title="scxml">
<polygon fill="#ffccff" stroke="black" points="416,-325.88 363.97,-325.88 362,-323.9 362,-308.12 414.03,-308.12 416,-310.1 416,-325.88"/>
<polyline fill="none" stroke="black" points="414.03,-323.9 362,-323.9"/>
<polyline fill="none" stroke="black" points="414.03,-323.9 414.03,-308.12"/>
<polyline fill="none" stroke="black" points="414.03,-323.9 416,-325.88"/>
<text xml:space="preserve" text-anchor="start" x="377.38" y="-313.32" font-family="Helvetica,sans-Serif" font-size="9.00">scxml</text>
</a>
</g>
</g>
<!-- src/parse/index.mts&#45;&gt;src/parse/scxml -->
<g id="edge15" class="edge">
<title>src/parse/index.mts&#45;&gt;src/parse/scxml</title>
<path fill="none" stroke="#ff00ff" stroke-width="2" stroke-opacity="0.466667" d="M288.38,-314.04C288.38,-314.04 352.59,-314.04 352.59,-314.04"/>
<polygon fill="#ff00ff" fill-opacity="0.466667" stroke="#ff00ff" stroke-width="2" stroke-opacity="0.466667" points="352.59,-316.14 358.59,-314.04 352.59,-311.94 352.59,-316.14"/>
</g>
<!-- src/parse/smcat&#45;ast.schema.mts -->
<g id="node12" class="node">
<title>src/parse/smcat&#45;ast.schema.mts</title>
<g id="a_node12"><a xlink:href="https://github.com/sverweij/state-machine-cat/blob/main/src/parse/smcat-ast.schema.mts" xlink:title="smcat&#45;ast.schema.mts">
<path fill="#ffccff" stroke="black" d="M436.08,-385.88C436.08,-385.88 341.92,-385.88 341.92,-385.88 338.96,-385.88 336,-382.92 336,-379.96 336,-379.96 336,-374.04 336,-374.04 336,-371.08 338.96,-368.12 341.92,-368.12 341.92,-368.12 436.08,-368.12 436.08,-368.12 439.04,-368.12 442,-371.08 442,-374.04 442,-374.04 442,-379.96 442,-379.96 442,-382.92 439.04,-385.88 436.08,-385.88"/>
<text xml:space="preserve" text-anchor="start" x="344" y="-373.32" font-family="Helvetica,sans-Serif" font-size="9.00">smcat&#45;ast.schema.mts</text>
</a>
</g>
</g>
<!-- src/parse/index.mts&#45;&gt;src/parse/smcat&#45;ast.schema.mts -->
<g id="edge16" class="edge">
<title>src/parse/index.mts&#45;&gt;src/parse/smcat&#45;ast.schema.mts</title>
<path fill="none" stroke="#ff00ff" stroke-width="2" stroke-opacity="0.466667" d="M288.26,-319.96C313.97,-319.96 348.25,-319.96 348.25,-319.96 348.25,-319.96 348.25,-358.81 348.25,-358.81"/>
<polygon fill="#ff00ff" fill-opacity="0.466667" stroke="#ff00ff" stroke-width="2" stroke-opacity="0.466667" points="346.15,-358.81 348.25,-364.81 350.35,-358.81 346.15,-358.81"/>
</g>
<!-- src/parse/smcat -->
<g id="node13" class="node">
<title>src/parse/smcat</title>
<g id="a_node13"><a xlink:href="https://github.com/sverweij/state-machine-cat/blob/main/src/parse/smcat" xlink:title="smcat">
<polygon fill="#ffccff" stroke="black" points="416,-355.88 363.97,-355.88 362,-353.9 362,-338.12 414.03,-338.12 416,-340.1 416,-355.88"/>
<polyline fill="none" stroke="black" points="414.03,-353.9 362,-353.9"/>
<polyline fill="none" stroke="black" points="414.03,-353.9 414.03,-338.12"/>
<polyline fill="none" stroke="black" points="414.03,-353.9 416,-355.88"/>
<text xml:space="preserve" text-anchor="start" x="377" y="-343.32" font-family="Helvetica,sans-Serif" font-size="9.00">smcat</text>
</a>
</g>
</g>
<!-- src/parse/index.mts&#45;&gt;src/parse/smcat -->
<g id="edge17" class="edge">
<title>src/parse/index.mts&#45;&gt;src/parse/smcat</title>
<path fill="none" stroke="#ff00ff" stroke-width="2" stroke-opacity="0.466667" d="M260.25,-326.16C260.25,-334.99 260.25,-347 260.25,-347 260.25,-347 352.67,-347 352.67,-347"/>
<polygon fill="#ff00ff" fill-opacity="0.466667" stroke="#ff00ff" stroke-width="2" stroke-opacity="0.466667" points="352.67,-349.1 358.67,-347 352.67,-344.9 352.67,-349.1"/>
</g>
<!-- src/render/dot -->
<g id="node16" class="node">
<title>src/render/dot</title>
<g id="a_node16"><a xlink:href="https://github.com/sverweij/state-machine-cat/blob/main/src/render/dot" xlink:title="dot">
<polygon fill="#ccccff" stroke="black" points="551.25,-131.88 499.22,-131.88 497.25,-129.9 497.25,-114.12 549.28,-114.12 551.25,-116.1 551.25,-131.88"/>
<polyline fill="none" stroke="black" points="549.28,-129.9 497.25,-129.9"/>
<polyline fill="none" stroke="black" points="549.28,-129.9 549.28,-114.12"/>
<polyline fill="none" stroke="black" points="549.28,-129.9 551.25,-131.88"/>
<text xml:space="preserve" text-anchor="start" x="517.88" y="-119.33" font-family="Helvetica,sans-Serif" font-size="9.00">dot</text>
</a>
</g>
</g>
<!-- src/render/index&#45;node.mts&#45;&gt;src/render/dot -->
<g id="edge26" class="edge">
<title>src/render/index&#45;node.mts&#45;&gt;src/render/dot</title>
<path fill="none" stroke="#0000ff" stroke-width="2" stroke-opacity="0.466667" d="M293.25,-121.36C293.25,-125.36 293.25,-129.12 293.25,-129.12 293.25,-129.12 487.82,-129.12 487.82,-129.12"/>
<polygon fill="#0000ff" fill-opacity="0.466667" stroke="#0000ff" stroke-width="2" stroke-opacity="0.466667" points="487.82,-131.23 493.82,-129.13 487.82,-127.03 487.82,-131.23"/>
</g>
<!-- src/render/scjson -->
<g id="node17" class="node">
<title>src/render/scjson</title>
<g id="a_node17"><a xlink:href="https://github.com/sverweij/state-machine-cat/blob/main/src/render/scjson" xlink:title="scjson">
<polygon fill="#ccccff" stroke="black" points="551.25,-204.88 499.22,-204.88 497.25,-202.9 497.25,-187.12 549.28,-187.12 551.25,-189.1 551.25,-204.88"/>
<polyline fill="none" stroke="black" points="549.28,-202.9 497.25,-202.9"/>
<polyline fill="none" stroke="black" points="549.28,-202.9 549.28,-187.12"/>
<polyline fill="none" stroke="black" points="549.28,-202.9 551.25,-204.88"/>
<text xml:space="preserve" text-anchor="start" x="511.12" y="-192.32" font-family="Helvetica,sans-Serif" font-size="9.00">scjson</text>
</a>
</g>
</g>
<!-- src/render/index&#45;node.mts&#45;&gt;src/render/scjson -->
<g id="edge27" class="edge">
<title>src/render/index&#45;node.mts&#45;&gt;src/render/scjson</title>
<path fill="none" stroke="#0000ff" stroke-width="2" stroke-opacity="0.466667" d="M290.25,-121.23C290.25,-144.06 290.25,-201.38 290.25,-201.38 290.25,-201.38 487.92,-201.38 487.92,-201.38"/>
<polygon fill="#0000ff" fill-opacity="0.466667" stroke="#0000ff" stroke-width="2" stroke-opacity="0.466667" points="487.92,-203.48 493.92,-201.38 487.92,-199.28 487.92,-203.48"/>
</g>
<!-- src/render/scxml -->
<g id="node18" class="node">
<title>src/render/scxml</title>
<g id="a_node18"><a xlink:href="https://github.com/sverweij/state-machine-cat/blob/main/src/render/scxml" xlink:title="scxml">
<polygon fill="#ccccff" stroke="black" points="416,-197.88 363.97,-197.88 362,-195.9 362,-180.12 414.03,-180.12 416,-182.1 416,-197.88"/>
<polyline fill="none" stroke="black" points="414.03,-195.9 362,-195.9"/>
<polyline fill="none" stroke="black" points="414.03,-195.9 414.03,-180.12"/>
<polyline fill="none" stroke="black" points="414.03,-195.9 416,-197.88"/>
<text xml:space="preserve" text-anchor="start" x="377.38" y="-185.32" font-family="Helvetica,sans-Serif" font-size="9.00">scxml</text>
</a>
</g>
</g>
<!-- src/render/index&#45;node.mts&#45;&gt;src/render/scxml -->
<g id="edge28" class="edge">
<title>src/render/index&#45;node.mts&#45;&gt;src/render/scxml</title>
<path fill="none" stroke="#0000ff" stroke-width="2" stroke-opacity="0.466667" d="M295.25,-121.22C295.25,-142.33 295.25,-192.38 295.25,-192.38 295.25,-192.38 352.6,-192.38 352.6,-192.38"/>
<polygon fill="#0000ff" fill-opacity="0.466667" stroke="#0000ff" stroke-width="2" stroke-opacity="0.466667" points="352.6,-194.48 358.6,-192.38 352.6,-190.28 352.6,-194.48"/>
</g>
<!-- src/render/smcat.mts -->
<g id="node19" class="node">
<title>src/render/smcat.mts</title>
<g id="a_node19"><a xlink:href="https://github.com/sverweij/state-machine-cat/blob/main/src/render/smcat.mts" xlink:title="smcat.mts">
<path fill="#ccccff" stroke="black" d="M411.33,-153.88C411.33,-153.88 366.67,-153.88 366.67,-153.88 363.71,-153.88 360.75,-150.92 360.75,-147.96 360.75,-147.96 360.75,-142.04 360.75,-142.04 360.75,-139.08 363.71,-136.12 366.67,-136.12 366.67,-136.12 411.33,-136.12 411.33,-136.12 414.29,-136.12 417.25,-139.08 417.25,-142.04 417.25,-142.04 417.25,-147.96 417.25,-147.96 417.25,-150.92 414.29,-153.88 411.33,-153.88"/>
<text xml:space="preserve" text-anchor="start" x="368.75" y="-141.32" font-family="Helvetica,sans-Serif" font-size="9.00">smcat.mts</text>
</a>
</g>
</g>
<!-- src/render/index&#45;node.mts&#45;&gt;src/render/smcat.mts -->
<g id="edge29" class="edge">
<title>src/render/index&#45;node.mts&#45;&gt;src/render/smcat.mts</title>
<path fill="none" stroke="#0000ff" stroke-width="2" stroke-opacity="0.466667" d="M297.25,-121.37C297.25,-131.12 297.25,-145 297.25,-145 297.25,-145 351.45,-145 351.45,-145"/>
<polygon fill="#0000ff" fill-opacity="0.466667" stroke="#0000ff" stroke-width="2" stroke-opacity="0.466667" points="351.45,-147.1 357.45,-145 351.45,-142.9 351.45,-147.1"/>
</g>
<!-- src/render/vector -->
<g id="node20" class="node">
<title>src/render/vector</title>
<g id="a_node20"><a xlink:href="https://github.com/sverweij/state-machine-cat/blob/main/src/render/vector" xlink:title="vector">
<polygon fill="#ccccff" stroke="black" points="416,-109.88 363.97,-109.88 362,-107.9 362,-92.12 414.03,-92.12 416,-94.1 416,-109.88"/>
<polyline fill="none" stroke="black" points="414.03,-107.9 362,-107.9"/>
<polyline fill="none" stroke="black" points="414.03,-107.9 414.03,-92.12"/>
<polyline fill="none" stroke="black" points="414.03,-107.9 416,-109.88"/>
<text xml:space="preserve" text-anchor="start" x="376.62" y="-97.33" font-family="Helvetica,sans-Serif" font-size="9.00">vector</text>
</a>
</g>
</g>
<!-- src/render/index&#45;node.mts&#45;&gt;src/render/vector -->
<g id="edge30" class="edge">
<title>src/render/index&#45;node.mts&#45;&gt;src/render/vector</title>
<path fill="none" stroke="#0000ff" stroke-width="2" stroke-opacity="0.466667" d="M296.25,-102.66C296.25,-95.53 296.25,-86.92 296.25,-86.92 296.25,-86.92 389.25,-86.92 389.25,-86.92 389.25,-86.92 389.25,-87.4 389.25,-87.4"/>
<polygon fill="#0000ff" fill-opacity="0.466667" stroke="#0000ff" stroke-width="2" stroke-opacity="0.466667" points="387.15,-82.66 389.25,-88.66 391.35,-82.66 387.15,-82.66"/>
</g>
<!-- src/transform&#45;&gt;src/counter.mts -->
<g id="edge40" class="edge">
<title>src/transform&#45;&gt;src/counter.mts</title>
<path fill="none" stroke="#000000" stroke-width="2" stroke-opacity="0.200000" d="M551.63,-285.96C592.89,-285.96 666.25,-285.96 666.25,-285.96 666.25,-285.96 666.25,-320.73 666.25,-320.73"/>
<polygon fill="#000000" fill-opacity="0.200000" stroke="#000000" stroke-width="2" stroke-opacity="0.200000" points="664.15,-320.73 666.25,-326.73 668.35,-320.73 664.15,-320.73"/>
</g>
<!-- src/state&#45;machine&#45;model.mts -->
<g id="node15" class="node">
<title>src/state&#45;machine&#45;model.mts</title>
<g id="a_node15"><a xlink:href="https://github.com/sverweij/state-machine-cat/blob/main/src/state-machine-model.mts" xlink:title="state&#45;machine&#45;model.mts">
<path fill="#ddfeff" stroke="black" d="M719.33,-251.88C719.33,-251.88 612.42,-251.88 612.42,-251.88 609.46,-251.88 606.5,-248.92 606.5,-245.96 606.5,-245.96 606.5,-240.04 606.5,-240.04 606.5,-237.08 609.46,-234.12 612.42,-234.12 612.42,-234.12 719.33,-234.12 719.33,-234.12 722.29,-234.12 725.25,-237.08 725.25,-240.04 725.25,-240.04 725.25,-245.96 725.25,-245.96 725.25,-248.92 722.29,-251.88 719.33,-251.88"/>
<text xml:space="preserve" text-anchor="start" x="614.5" y="-239.32" font-family="Helvetica,sans-Serif" font-size="9.00">state&#45;machine&#45;model.mts</text>
</a>
</g>
</g>
<!-- src/transform&#45;&gt;src/state&#45;machine&#45;model.mts -->
<g id="edge41" class="edge">
<title>src/transform&#45;&gt;src/state&#45;machine&#45;model.mts</title>
<path fill="none" stroke="#000000" stroke-width="2" stroke-opacity="0.200000" d="M551.76,-280.04C580.13,-280.04 620.25,-280.04 620.25,-280.04 620.25,-280.04 620.25,-261.37 620.25,-261.37"/>
<polygon fill="#000000" fill-opacity="0.200000" stroke="#000000" stroke-width="2" stroke-opacity="0.200000" points="622.35,-261.37 620.25,-255.37 618.15,-261.37 622.35,-261.37"/>
</g>
<!-- src/index.mts -->
<g id="node9" class="node">
<title>src/index.mts</title>
<g id="a_node9"><a xlink:href="https://github.com/sverweij/state-machine-cat/blob/main/src/index.mts" xlink:title="index.mts">
<path fill="#ddfeff" stroke="black" d="M167.08,-269.88C167.08,-269.88 123.92,-269.88 123.92,-269.88 120.96,-269.88 118,-266.92 118,-263.96 118,-263.96 118,-258.04 118,-258.04 118,-255.08 120.96,-252.12 123.92,-252.12 123.92,-252.12 167.08,-252.12 167.08,-252.12 170.04,-252.12 173,-255.08 173,-258.04 173,-258.04 173,-263.96 173,-263.96 173,-266.92 170.04,-269.88 167.08,-269.88"/>
<text xml:space="preserve" text-anchor="start" x="126" y="-257.32" font-family="Helvetica,sans-Serif" font-size="9.00">index.mts</text>
</a>
</g>
</g>
<!-- src/index.mts&#45;&gt;src/version.mts -->
<g id="edge13" class="edge">
<title>src/index.mts&#45;&gt;src/version.mts</title>
<path fill="none" stroke="#000000" stroke-width="2" stroke-opacity="0.200000" d="M173.36,-256.56C188.13,-256.56 203.25,-256.56 203.25,-256.56 203.25,-256.56 203.25,-55.96 203.25,-55.96 203.25,-55.96 219.83,-55.96 219.83,-55.96"/>
<polygon fill="#000000" fill-opacity="0.200000" stroke="#000000" stroke-width="2" stroke-opacity="0.200000" points="219.83,-58.06 225.83,-55.96 219.83,-53.86 219.83,-58.06"/>
</g>
<!-- src/index.mts&#45;&gt;src/options.mts -->
<g id="edge9" class="edge">
<title>src/index.mts&#45;&gt;src/options.mts</title>
<path fill="none" stroke="#000000" stroke-width="2" stroke-opacity="0.200000" d="M145.25,-252.06C145.25,-238.58 145.25,-214.62 145.25,-214.62 145.25,-214.62 666.25,-214.62 666.25,-214.62 666.25,-214.62 666.25,-130.13 666.25,-130.13"/>
<polygon fill="#000000" fill-opacity="0.200000" stroke="#000000" stroke-width="2" stroke-opacity="0.200000" points="668.35,-130.13 666.25,-124.13 664.15,-130.13 668.35,-130.13"/>
</g>
<!-- src/index.mts&#45;&gt;src/parse/index.mts -->
<g id="edge10" class="edge">
<title>src/index.mts&#45;&gt;src/parse/index.mts</title>
<path fill="none" stroke="#ff00ff" stroke-width="2" stroke-opacity="0.466667" d="M145.25,-270.21C145.25,-286.79 145.25,-319.96 145.25,-319.96 145.25,-319.96 223.57,-319.96 223.57,-319.96"/>
<polygon fill="#ff00ff" fill-opacity="0.466667" stroke="#ff00ff" stroke-width="2" stroke-opacity="0.466667" points="223.57,-322.06 229.57,-319.96 223.57,-317.86 223.57,-322.06"/>
</g>
<!-- src/index.mts&#45;&gt;src/transform -->
<g id="edge12" class="edge">
<title>src/index.mts&#45;&gt;src/transform</title>
<path fill="none" stroke="#000000" stroke-width="2" stroke-opacity="0.200000" d="M173.35,-265.44C260.82,-265.44 524.25,-265.44 524.25,-265.44 524.25,-265.44 524.25,-266.27 524.25,-266.27"/>
<polygon fill="#000000" fill-opacity="0.200000" stroke="#000000" stroke-width="2" stroke-opacity="0.200000" points="522.15,-264.78 524.25,-270.78 526.35,-264.78 522.15,-264.78"/>
</g>
<!-- src/render/index.mts -->
<g id="node10" class="node">
<title>src/render/index.mts</title>
<g id="a_node10"><a xlink:href="https://github.com/sverweij/state-machine-cat/blob/main/src/render/index.mts" xlink:title="index.mts">
<path fill="#ccccff" stroke="black" d="M282.08,-186.88C282.08,-186.88 238.92,-186.88 238.92,-186.88 235.96,-186.88 233,-183.92 233,-180.96 233,-180.96 233,-175.04 233,-175.04 233,-172.08 235.96,-169.12 238.92,-169.12 238.92,-169.12 282.08,-169.12 282.08,-169.12 285.04,-169.12 288,-172.08 288,-175.04 288,-175.04 288,-180.96 288,-180.96 288,-183.92 285.04,-186.88 282.08,-186.88"/>
<text xml:space="preserve" text-anchor="start" x="241" y="-174.32" font-family="Helvetica,sans-Serif" font-size="9.00">index.mts</text>
</a>
</g>
</g>
<!-- src/index.mts&#45;&gt;src/render/index.mts -->
<g id="edge11" class="edge">
<title>src/index.mts&#45;&gt;src/render/index.mts</title>
<path fill="none" stroke="#0000ff" stroke-width="2" stroke-opacity="0.466667" d="M173.28,-261C204.62,-261 251.25,-261 251.25,-261 251.25,-261 251.25,-196.23 251.25,-196.23"/>
<polygon fill="#0000ff" fill-opacity="0.466667" stroke="#0000ff" stroke-width="2" stroke-opacity="0.466667" points="253.35,-196.23 251.25,-190.23 249.15,-196.23 253.35,-196.23"/>
</g>
<!-- src/render/index.mts&#45;&gt;src/render/dot -->
<g id="edge31" class="edge">
<title>src/render/index.mts&#45;&gt;src/render/dot</title>
<path fill="none" stroke="#0000ff" stroke-width="2" stroke-opacity="0.466667" d="M288.25,-173.53C354.27,-173.53 515.25,-173.53 515.25,-173.53 515.25,-173.53 515.25,-141.29 515.25,-141.29"/>
<polygon fill="#0000ff" fill-opacity="0.466667" stroke="#0000ff" stroke-width="2" stroke-opacity="0.466667" points="517.35,-141.29 515.25,-135.29 513.15,-141.29 517.35,-141.29"/>
</g>
<!-- src/render/index.mts&#45;&gt;src/render/scjson -->
<g id="edge32" class="edge">
<title>src/render/index.mts&#45;&gt;src/render/scjson</title>
<path fill="none" stroke="#0000ff" stroke-width="2" stroke-opacity="0.466667" d="M288.41,-175.72C357.92,-175.72 533.25,-175.72 533.25,-175.72 533.25,-175.72 533.25,-177.78 533.25,-177.78"/>
<polygon fill="#0000ff" fill-opacity="0.466667" stroke="#0000ff" stroke-width="2" stroke-opacity="0.466667" points="531.15,-177.78 533.25,-183.78 535.35,-177.78 531.15,-177.78"/>
</g>
<!-- src/render/index.mts&#45;&gt;src/render/scxml -->
<g id="edge33" class="edge">
<title>src/render/index.mts&#45;&gt;src/render/scxml</title>
<path fill="none" stroke="#0000ff" stroke-width="2" stroke-opacity="0.466667" d="M288.38,-177.93C328.63,-177.93 398.25,-177.93 398.25,-177.93 398.25,-177.93 398.25,-178.1 398.25,-178.1"/>
<polygon fill="#0000ff" fill-opacity="0.466667" stroke="#0000ff" stroke-width="2" stroke-opacity="0.466667" points="396.15,-170.63 398.25,-176.63 400.35,-170.63 396.15,-170.63"/>
</g>
<!-- src/render/index.mts&#45;&gt;src/render/smcat.mts -->
<g id="edge34" class="edge">
<title>src/render/index.mts&#45;&gt;src/render/smcat.mts</title>
<path fill="none" stroke="#0000ff" stroke-width="2" stroke-opacity="0.466667" d="M288.27,-171.32C323.65,-171.32 380.25,-171.32 380.25,-171.32 380.25,-171.32 380.25,-163.23 380.25,-163.23"/>
<polygon fill="#0000ff" fill-opacity="0.466667" stroke="#0000ff" stroke-width="2" stroke-opacity="0.466667" points="382.35,-163.23 380.25,-157.23 378.15,-163.23 382.35,-163.23"/>
</g>
<!-- src/render/index.mts&#45;&gt;src/render/vector -->
<g id="edge35" class="edge">
<title>src/render/index.mts&#45;&gt;src/render/vector</title>
<path fill="none" stroke="#0000ff" stroke-width="2" stroke-opacity="0.466667" d="M260.25,-169.02C260.25,-153.58 260.25,-123.62 260.25,-123.62 260.25,-123.62 380.25,-123.62 380.25,-123.62 380.25,-123.62 380.25,-119.23 380.25,-119.23"/>
<polygon fill="#0000ff" fill-opacity="0.466667" stroke="#0000ff" stroke-width="2" stroke-opacity="0.466667" points="382.35,-119.23 380.25,-113.23 378.15,-119.23 382.35,-119.23"/>
</g>
<!-- src/parse/scxml&#45;&gt;src/counter.mts -->
<g id="edge19" class="edge">
<title>src/parse/scxml&#45;&gt;src/counter.mts</title>
<path fill="none" stroke="#000000" stroke-width="2" stroke-opacity="0.200000" d="M389.25,-326.36C389.25,-330.36 389.25,-334.12 389.25,-334.12 389.25,-334.12 624.85,-334.12 624.85,-334.12"/>
<polygon fill="#000000" fill-opacity="0.200000" stroke="#000000" stroke-width="2" stroke-opacity="0.200000" points="624.85,-336.23 630.85,-334.13 624.85,-332.03 624.85,-336.23"/>
</g>
<!-- src/parse/scxml&#45;&gt;src/transform -->
<g id="edge20" class="edge">
<title>src/parse/scxml&#45;&gt;src/transform</title>
<path fill="none" stroke="#000000" stroke-width="2" stroke-opacity="0.200000" d="M389.25,-307.85C389.25,-298.7 389.25,-285.96 389.25,-285.96 389.25,-285.96 487.9,-285.96 487.9,-285.96"/>
<polygon fill="#000000" fill-opacity="0.200000" stroke="#000000" stroke-width="2" stroke-opacity="0.200000" points="487.9,-288.06 493.9,-285.96 487.9,-283.86 487.9,-288.06"/>
</g>
<!-- src/parse/parser&#45;helpers.mts -->
<g id="node14" class="node">
<title>src/parse/parser&#45;helpers.mts</title>
<g id="a_node14"><a xlink:href="https://github.com/sverweij/state-machine-cat/blob/main/src/parse/parser-helpers.mts" xlink:title="parser&#45;helpers.mts">
<path fill="#ffccff" stroke="black" d="M564.58,-325.88C564.58,-325.88 483.92,-325.88 483.92,-325.88 480.96,-325.88 478,-322.92 478,-319.96 478,-319.96 478,-314.04 478,-314.04 478,-311.08 480.96,-308.12 483.92,-308.12 483.92,-308.12 564.58,-308.12 564.58,-308.12 567.54,-308.12 570.5,-311.08 570.5,-314.04 570.5,-314.04 570.5,-319.96 570.5,-319.96 570.5,-322.92 567.54,-325.88 564.58,-325.88"/>
<text xml:space="preserve" text-anchor="start" x="486" y="-313.32" font-family="Helvetica,sans-Serif" font-size="9.00">parser&#45;helpers.mts</text>
</a>
</g>
</g>
<!-- src/parse/scxml&#45;&gt;src/parse/parser&#45;helpers.mts -->
<g id="edge21" class="edge">
<title>src/parse/scxml&#45;&gt;src/parse/parser&#45;helpers.mts</title>
<path fill="none" stroke="#ff00ff" stroke-width="2" stroke-opacity="0.466667" d="M416.37,-317C416.37,-317 468.71,-317 468.71,-317"/>
<polygon fill="#ff00ff" fill-opacity="0.466667" stroke="#ff00ff" stroke-width="2" stroke-opacity="0.466667" points="468.71,-319.1 474.71,-317 468.71,-314.9 468.71,-319.1"/>
</g>
<!-- src/parse/smcat&#45;&gt;src/counter.mts -->
<g id="edge22" class="edge">
<title>src/parse/smcat&#45;&gt;src/counter.mts</title>
<path fill="none" stroke="#000000" stroke-width="2" stroke-opacity="0.200000" d="M416.31,-344.62C416.31,-344.62 625.11,-344.62 625.11,-344.62"/>
<polygon fill="#000000" fill-opacity="0.200000" stroke="#000000" stroke-width="2" stroke-opacity="0.200000" points="625.11,-346.73 631.11,-344.63 625.11,-342.53 625.11,-346.73"/>
</g>
<!-- src/parse/smcat&#45;&gt;src/parse/parser&#45;helpers.mts -->
<g id="edge23" class="edge">
<title>src/parse/smcat&#45;&gt;src/parse/parser&#45;helpers.mts</title>
<path fill="none" stroke="#ff00ff" stroke-width="2" stroke-opacity="0.466667" d="M416.37,-341.38C455.89,-341.38 524.25,-341.38 524.25,-341.38 524.25,-341.38 524.25,-335.38 524.25,-335.38"/>
<polygon fill="#ff00ff" fill-opacity="0.466667" stroke="#ff00ff" stroke-width="2" stroke-opacity="0.466667" points="526.35,-335.38 524.25,-329.38 522.15,-335.38 526.35,-335.38"/>
</g>
<!-- src/parse/parser&#45;helpers.mts&#45;&gt;src/state&#45;machine&#45;model.mts -->
<g id="edge18" class="edge">
<title>src/parse/parser&#45;helpers.mts&#45;&gt;src/state&#45;machine&#45;model.mts</title>
<path fill="none" stroke="#000000" stroke-width="2" stroke-opacity="0.200000" d="M561.25,-307.63C561.25,-287.72 561.25,-243 561.25,-243 561.25,-243 597.2,-243 597.2,-243"/>
<polygon fill="#000000" fill-opacity="0.200000" stroke="#000000" stroke-width="2" stroke-opacity="0.200000" points="597.2,-245.1 603.2,-243 597.2,-240.9 597.2,-245.1"/>
</g>
<!-- src/render/dot&#45;&gt;src/options.mts -->
<g id="edge24" class="edge">
<title>src/render/dot&#45;&gt;src/options.mts</title>
<path fill="none" stroke="#000000" stroke-width="2" stroke-opacity="0.200000" d="M551.59,-124.54C588.65,-124.54 650.25,-124.54 650.25,-124.54 650.25,-124.54 650.25,-124.2 650.25,-124.2"/>
<polygon fill="#000000" fill-opacity="0.200000" stroke="#000000" stroke-width="2" stroke-opacity="0.200000" points="652.35,-130.14 650.25,-124.14 648.15,-130.14 652.35,-130.14"/>
</g>
<!-- src/render/dot&#45;&gt;src/state&#45;machine&#45;model.mts -->
<g id="edge25" class="edge">
<title>src/render/dot&#45;&gt;src/state&#45;machine&#45;model.mts</title>
<path fill="none" stroke="#000000" stroke-width="2" stroke-opacity="0.200000" d="M551.58,-128.21C581.49,-128.21 625.25,-128.21 625.25,-128.21 625.25,-128.21 625.25,-224.97 625.25,-224.97"/>
<polygon fill="#000000" fill-opacity="0.200000" stroke="#000000" stroke-width="2" stroke-opacity="0.200000" points="623.15,-224.97 625.25,-230.97 627.35,-224.97 623.15,-224.97"/>
</g>
<!-- src/render/scjson&#45;&gt;src/state&#45;machine&#45;model.mts -->
<g id="edge36" class="edge">
<title>src/render/scjson&#45;&gt;src/state&#45;machine&#45;model.mts</title>
<path fill="none" stroke="#000000" stroke-width="2" stroke-opacity="0.200000" d="M551.36,-196C578.49,-196 616.25,-196 616.25,-196 616.25,-196 616.25,-224.91 616.25,-224.91"/>
<polygon fill="#000000" fill-opacity="0.200000" stroke="#000000" stroke-width="2" stroke-opacity="0.200000" points="614.15,-224.91 616.25,-230.91 618.35,-224.91 614.15,-224.91"/>
</g>
<!-- src/render/scxml&#45;&gt;src/render/scjson -->
<g id="edge37" class="edge">
<title>src/render/scxml&#45;&gt;src/render/scjson</title>
<path fill="none" stroke="#0000ff" stroke-width="2" stroke-opacity="0.466667" d="M416.37,-192.5C416.37,-192.5 487.89,-192.5 487.89,-192.5"/>
<polygon fill="#0000ff" fill-opacity="0.466667" stroke="#0000ff" stroke-width="2" stroke-opacity="0.466667" points="487.89,-194.6 493.89,-192.5 487.89,-190.4 487.89,-194.6"/>
</g>
<!-- src/render/vector&#45;&gt;src/options.mts -->
<g id="edge38" class="edge">
<title>src/render/vector&#45;&gt;src/options.mts</title>
<path fill="none" stroke="#000000" stroke-width="2" stroke-opacity="0.200000" d="M416.49,-97.62C489.25,-97.62 681.25,-97.62 681.25,-97.62 681.25,-97.62 681.25,-98.14 681.25,-98.14"/>
<polygon fill="#000000" fill-opacity="0.200000" stroke="#000000" stroke-width="2" stroke-opacity="0.200000" points="679.15,-93.79 681.25,-99.79 683.35,-93.79 679.15,-93.79"/>
</g>
<!-- src/render/vector&#45;&gt;src/render/dot -->
<g id="edge39" class="edge">
<title>src/render/vector&#45;&gt;src/render/dot</title>
<path fill="none" stroke="#0000ff" stroke-width="2" stroke-opacity="0.466667" d="M398.25,-110.16C398.25,-117.43 398.25,-126.38 398.25,-126.38 398.25,-126.38 487.88,-126.38 487.88,-126.38"/>
<polygon fill="#0000ff" fill-opacity="0.466667" stroke="#0000ff" stroke-width="2" stroke-opacity="0.466667" points="487.88,-128.48 493.88,-126.38 487.88,-124.28 487.88,-128.48"/>
</g>
</g>
</svg>
