<?xml version="1.0" encoding="UTF-8" standalone="no"?>
<!DOCTYPE svg PUBLIC "-//W3C//DTD SVG 1.1//EN"
 "http://www.w3.org/Graphics/SVG/1.1/DTD/svg11.dtd">
<!-- Generated by graphviz version 2.49.3 (20211023.0002)
 -->
<!-- Title: dependency&#45;cruiser output Pages: 1 -->
<svg width="818pt" height="444pt"
 viewBox="0.00 0.00 818.00 444.00" xmlns="http://www.w3.org/2000/svg" xmlns:xlink="http://www.w3.org/1999/xlink">
<g id="graph0" class="graph" transform="scale(1 1) rotate(0) translate(4 440)">
<title>dependency&#45;cruiser output</title>
<polygon fill="white" stroke="transparent" points="-4,4 -4,-440 814,-440 814,4 -4,4"/>
<g id="clust1" class="cluster">
<title>cluster_src</title>
<path fill="#ffffff" stroke="black" stroke-width="2" d="M94,-8C94,-8 790,-8 790,-8 796,-8 802,-14 802,-20 802,-20 802,-416 802,-416 802,-422 796,-428 790,-428 790,-428 94,-428 94,-428 88,-428 82,-422 82,-416 82,-416 82,-20 82,-20 82,-14 88,-8 94,-8"/>
<text text-anchor="middle" x="442" y="-416.8" font-family="Helvetica,sans-Serif" font-weight="bold" font-size="9.00">src</text>
</g>
<g id="clust2" class="cluster">
<title>cluster_src/parse</title>
<path fill="#ffffff" stroke="black" stroke-width="2" d="M309.5,-222C309.5,-222 637,-222 637,-222 643,-222 649,-228 649,-234 649,-234 649,-322 649,-322 649,-328 643,-334 637,-334 637,-334 309.5,-334 309.5,-334 303.5,-334 297.5,-328 297.5,-322 297.5,-322 297.5,-234 297.5,-234 297.5,-228 303.5,-222 309.5,-222"/>
<text text-anchor="middle" x="473.25" y="-322.8" font-family="Helvetica,sans-Serif" font-weight="bold" font-size="9.00">parse</text>
</g>
<g id="clust3" class="cluster">
<title>cluster_src/render</title>
<path fill="#ffffff" stroke="black" stroke-width="2" d="M298,-40C298,-40 618.5,-40 618.5,-40 624.5,-40 630.5,-46 630.5,-52 630.5,-52 630.5,-196 630.5,-196 630.5,-202 624.5,-208 618.5,-208 618.5,-208 298,-208 298,-208 292,-208 286,-202 286,-196 286,-196 286,-52 286,-52 286,-46 292,-40 298,-40"/>
<text text-anchor="middle" x="458.25" y="-196.8" font-family="Helvetica,sans-Serif" font-weight="bold" font-size="9.00">render</text>
</g>
<!-- bin -->
<g id="node1" class="node">
<title>bin</title>
<g id="a_node1"><a xlink:href="https://github.com/sverweij/state-machine-cat/blob/develop/bin" xlink:title="bin">
<polygon fill="#ffffcc" stroke="black" points="54,-66 2,-66 0,-64 0,-48 52,-48 54,-50 54,-66"/>
<polyline fill="none" stroke="black" points="52,-64 0,-64 "/>
<polyline fill="none" stroke="black" points="52,-64 52,-48 "/>
<polyline fill="none" stroke="black" points="52,-64 54,-66 "/>
<text text-anchor="middle" x="27" y="-54.8" font-family="Helvetica,sans-Serif" font-size="9.00">bin</text>
</a>
</g>
</g>
<!-- src/cli -->
<g id="node2" class="node">
<title>src/cli</title>
<g id="a_node2"><a xlink:href="https://github.com/sverweij/state-machine-cat/blob/develop/src/cli" xlink:title="cli">
<polygon fill="#ccffcc" stroke="black" points="144,-66 92,-66 90,-64 90,-48 142,-48 144,-50 144,-66"/>
<polyline fill="none" stroke="black" points="142,-64 90,-64 "/>
<polyline fill="none" stroke="black" points="142,-64 142,-48 "/>
<polyline fill="none" stroke="black" points="142,-64 144,-66 "/>
<text text-anchor="middle" x="117" y="-54.8" font-family="Helvetica,sans-Serif" font-size="9.00">cli</text>
</a>
</g>
</g>
<!-- bin&#45;&gt;src/cli -->
<g id="edge1" class="edge">
<title>bin&#45;&gt;src/cli</title>
<path fill="none" stroke="#007700" stroke-width="2" stroke-opacity="0.466667" d="M54,-57C54,-57 83.71,-57 83.71,-57"/>
<polygon fill="#007700" fill-opacity="0.466667" stroke="#007700" stroke-width="2" stroke-opacity="0.466667" points="83.71,-59.1 89.71,-57 83.7,-54.9 83.71,-59.1"/>
</g>
<!-- src/index&#45;node.mjs -->
<g id="node3" class="node">
<title>src/index&#45;node.mjs</title>
<g id="a_node3"><a xlink:href="https://github.com/sverweij/state-machine-cat/blob/develop/src/index-node.mjs" xlink:title="index&#45;node.mjs">
<path fill="#ffffcc" stroke="black" d="M252,-341C252,-341 186,-341 186,-341 183,-341 180,-338 180,-335 180,-335 180,-329 180,-329 180,-326 183,-323 186,-323 186,-323 252,-323 252,-323 255,-323 258,-326 258,-329 258,-329 258,-335 258,-335 258,-338 255,-341 252,-341"/>
<text text-anchor="middle" x="219" y="-329.8" font-family="Helvetica,sans-Serif" font-size="9.00">index&#45;node.mjs</text>
</a>
</g>
</g>
<!-- src/cli&#45;&gt;src/index&#45;node.mjs -->
<g id="edge2" class="edge">
<title>src/cli&#45;&gt;src/index&#45;node.mjs</title>
<path fill="none" stroke="#000000" stroke-width="2" stroke-opacity="0.200000" d="M144.27,-57C163.56,-57 186,-57 186,-57 186,-57 186,-316.85 186,-316.85"/>
<polygon fill="#000000" fill-opacity="0.200000" stroke="#000000" stroke-width="2" stroke-opacity="0.200000" points="183.9,-316.85 186,-322.85 188.1,-316.85 183.9,-316.85"/>
</g>
<!-- src/render/vector -->
<g id="node4" class="node">
<title>src/render/vector</title>
<g id="a_node4"><a xlink:href="https://github.com/sverweij/state-machine-cat/blob/develop/src/render/vector" xlink:title="vector">
<polygon fill="#ccccff" stroke="black" points="488,-66 436,-66 434,-64 434,-48 486,-48 488,-50 488,-66"/>
<polyline fill="none" stroke="black" points="486,-64 434,-64 "/>
<polyline fill="none" stroke="black" points="486,-64 486,-48 "/>
<polyline fill="none" stroke="black" points="486,-64 488,-66 "/>
<text text-anchor="middle" x="461" y="-54.8" font-family="Helvetica,sans-Serif" font-size="9.00">vector</text>
</a>
</g>
</g>
<!-- src/cli&#45;&gt;src/render/vector -->
<g id="edge3" class="edge">
<title>src/cli&#45;&gt;src/render/vector</title>
<path fill="none" stroke="#0000ff" stroke-width="2" stroke-opacity="0.466667" d="M144.28,-52.5C144.28,-52.5 427.72,-52.5 427.72,-52.5"/>
<polygon fill="#0000ff" fill-opacity="0.466667" stroke="#0000ff" stroke-width="2" stroke-opacity="0.466667" points="427.72,-54.6 433.72,-52.5 427.72,-50.4 427.72,-54.6"/>
</g>
<!-- src/options.mjs -->
<g id="node5" class="node">
<title>src/options.mjs</title>
<g id="a_node5"><a xlink:href="https://github.com/sverweij/state-machine-cat/blob/develop/src/options.mjs" xlink:title="options.mjs">
<path fill="#ffffcc" stroke="black" d="M760.5,-77C760.5,-77 710.5,-77 710.5,-77 707.5,-77 704.5,-74 704.5,-71 704.5,-71 704.5,-65 704.5,-65 704.5,-62 707.5,-59 710.5,-59 710.5,-59 760.5,-59 760.5,-59 763.5,-59 766.5,-62 766.5,-65 766.5,-65 766.5,-71 766.5,-71 766.5,-74 763.5,-77 760.5,-77"/>
<text text-anchor="middle" x="735.5" y="-65.8" font-family="Helvetica,sans-Serif" font-size="9.00">options.mjs</text>
</a>
</g>
</g>
<!-- src/cli&#45;&gt;src/options.mjs -->
<g id="edge4" class="edge">
<title>src/cli&#45;&gt;src/options.mjs</title>
<path fill="none" stroke="#000000" stroke-width="2" stroke-opacity="0.200000" d="M117,-66.06C117,-76.29 117,-91.5 117,-91.5 117,-91.5 720,-91.5 720,-91.5 720,-91.5 720,-83.02 720,-83.02"/>
<polygon fill="#000000" fill-opacity="0.200000" stroke="#000000" stroke-width="2" stroke-opacity="0.200000" points="722.1,-83.02 720,-77.02 717.9,-83.02 722.1,-83.02"/>
</g>
<!-- src/index&#45;node.mjs&#45;&gt;src/options.mjs -->
<g id="edge5" class="edge">
<title>src/index&#45;node.mjs&#45;&gt;src/options.mjs</title>
<path fill="none" stroke="#000000" stroke-width="2" stroke-opacity="0.200000" d="M258.05,-330.2C365.73,-330.2 659,-330.2 659,-330.2 659,-330.2 659,-74.67 659,-74.67 659,-74.67 698.38,-74.67 698.38,-74.67"/>
<polygon fill="#000000" fill-opacity="0.200000" stroke="#000000" stroke-width="2" stroke-opacity="0.200000" points="698.38,-76.77 704.38,-74.67 698.38,-72.57 698.38,-76.77"/>
</g>
<!-- src/parse/index.mjs -->
<g id="node6" class="node">
<title>src/parse/index.mjs</title>
<g id="a_node6"><a xlink:href="https://github.com/sverweij/state-machine-cat/blob/develop/src/parse/index.mjs" xlink:title="index.mjs">
<path fill="#ffccff" stroke="black" d="M354.5,-278C354.5,-278 311.5,-278 311.5,-278 308.5,-278 305.5,-275 305.5,-272 305.5,-272 305.5,-266 305.5,-266 305.5,-263 308.5,-260 311.5,-260 311.5,-260 354.5,-260 354.5,-260 357.5,-260 360.5,-263 360.5,-266 360.5,-266 360.5,-272 360.5,-272 360.5,-275 357.5,-278 354.5,-278"/>
<text text-anchor="middle" x="333" y="-266.8" font-family="Helvetica,sans-Serif" font-size="9.00">index.mjs</text>
</a>
</g>
</g>
<!-- src/index&#45;node.mjs&#45;&gt;src/parse/index.mjs -->
<g id="edge6" class="edge">
<title>src/index&#45;node.mjs&#45;&gt;src/parse/index.mjs</title>
<path fill="none" stroke="#ff00ff" stroke-width="2" stroke-opacity="0.466667" d="M253,-322.75C253,-306.46 253,-274.4 253,-274.4 253,-274.4 299.47,-274.4 299.47,-274.4"/>
<polygon fill="#ff00ff" fill-opacity="0.466667" stroke="#ff00ff" stroke-width="2" stroke-opacity="0.466667" points="299.47,-276.5 305.47,-274.4 299.47,-272.3 299.47,-276.5"/>
</g>
<!-- src/render/index&#45;node.mjs -->
<g id="node7" class="node">
<title>src/render/index&#45;node.mjs</title>
<g id="a_node7"><a xlink:href="https://github.com/sverweij/state-machine-cat/blob/develop/src/render/index-node.mjs" xlink:title="index&#45;node.mjs">
<path fill="#ccccff" stroke="black" d="M366,-165C366,-165 300,-165 300,-165 297,-165 294,-162 294,-159 294,-159 294,-153 294,-153 294,-150 297,-147 300,-147 300,-147 366,-147 366,-147 369,-147 372,-150 372,-153 372,-153 372,-159 372,-159 372,-162 369,-165 366,-165"/>
<text text-anchor="middle" x="333" y="-153.8" font-family="Helvetica,sans-Serif" font-size="9.00">index&#45;node.mjs</text>
</a>
</g>
</g>
<!-- src/index&#45;node.mjs&#45;&gt;src/render/index&#45;node.mjs -->
<g id="edge7" class="edge">
<title>src/index&#45;node.mjs&#45;&gt;src/render/index&#45;node.mjs</title>
<path fill="none" stroke="#0000ff" stroke-width="2" stroke-opacity="0.466667" d="M258.04,-326.6C277.94,-326.6 298,-326.6 298,-326.6 298,-326.6 298,-171.17 298,-171.17"/>
<polygon fill="#0000ff" fill-opacity="0.466667" stroke="#0000ff" stroke-width="2" stroke-opacity="0.466667" points="300.1,-171.17 298,-165.17 295.9,-171.17 300.1,-171.17"/>
</g>
<!-- src/transform -->
<g id="node8" class="node">
<title>src/transform</title>
<g id="a_node8"><a xlink:href="https://github.com/sverweij/state-machine-cat/blob/develop/src/transform" xlink:title="transform">
<polygon fill="#ffffcc" stroke="black" points="623,-360 570,-360 568,-358 568,-342 621,-342 623,-344 623,-360"/>
<polyline fill="none" stroke="black" points="621,-358 568,-358 "/>
<polyline fill="none" stroke="black" points="621,-358 621,-342 "/>
<polyline fill="none" stroke="black" points="621,-358 623,-360 "/>
<text text-anchor="middle" x="595.5" y="-348.8" font-family="Helvetica,sans-Serif" font-size="9.00">transform</text>
</a>
</g>
</g>
<!-- src/index&#45;node.mjs&#45;&gt;src/transform -->
<g id="edge8" class="edge">
<title>src/index&#45;node.mjs&#45;&gt;src/transform</title>
<path fill="none" stroke="#000000" stroke-width="2" stroke-opacity="0.200000" d="M258.03,-333.8C352.74,-333.8 587,-333.8 587,-333.8 587,-333.8 587,-336 587,-336"/>
<polygon fill="#000000" fill-opacity="0.200000" stroke="#000000" stroke-width="2" stroke-opacity="0.200000" points="584.9,-336 587,-342 589.1,-336 584.9,-336"/>
</g>
<!-- src/version.mjs -->
<g id="node9" class="node">
<title>src/version.mjs</title>
<g id="a_node9"><a xlink:href="https://github.com/sverweij/state-machine-cat/blob/develop/src/version.mjs" xlink:title="version.mjs">
<path fill="#ffffcc" stroke="black" d="M358,-374C358,-374 308,-374 308,-374 305,-374 302,-371 302,-368 302,-368 302,-362 302,-362 302,-359 305,-356 308,-356 308,-356 358,-356 358,-356 361,-356 364,-359 364,-362 364,-362 364,-368 364,-368 364,-371 361,-374 358,-374"/>
<text text-anchor="middle" x="333" y="-362.8" font-family="Helvetica,sans-Serif" font-size="9.00">version.mjs</text>
</a>
</g>
</g>
<!-- src/index&#45;node.mjs&#45;&gt;src/version.mjs -->
<g id="edge9" class="edge">
<title>src/index&#45;node.mjs&#45;&gt;src/version.mjs</title>
<path fill="none" stroke="#000000" stroke-width="2" stroke-opacity="0.200000" d="M258.23,-337.4C291.21,-337.4 333,-337.4 333,-337.4 333,-337.4 333,-349.96 333,-349.96"/>
<polygon fill="#000000" fill-opacity="0.200000" stroke="#000000" stroke-width="2" stroke-opacity="0.200000" points="330.9,-349.96 333,-355.96 335.1,-349.96 330.9,-349.96"/>
</g>
<!-- src/render/vector&#45;&gt;src/options.mjs -->
<g id="edge37" class="edge">
<title>src/render/vector&#45;&gt;src/options.mjs</title>
<path fill="none" stroke="#000000" stroke-width="2" stroke-opacity="0.200000" d="M488.32,-61.33C488.32,-61.33 698.1,-61.33 698.1,-61.33"/>
<polygon fill="#000000" fill-opacity="0.200000" stroke="#000000" stroke-width="2" stroke-opacity="0.200000" points="698.1,-63.43 704.1,-61.33 698.1,-59.23 698.1,-63.43"/>
</g>
<!-- src/render/dot -->
<g id="node17" class="node">
<title>src/render/dot</title>
<g id="a_node17"><a xlink:href="https://github.com/sverweij/state-machine-cat/blob/develop/src/render/dot" xlink:title="dot">
<polygon fill="#ccccff" stroke="black" points="622.5,-88 570.5,-88 568.5,-86 568.5,-70 620.5,-70 622.5,-72 622.5,-88"/>
<polyline fill="none" stroke="black" points="620.5,-86 568.5,-86 "/>
<polyline fill="none" stroke="black" points="620.5,-86 620.5,-70 "/>
<polyline fill="none" stroke="black" points="620.5,-86 622.5,-88 "/>
<text text-anchor="middle" x="595.5" y="-76.8" font-family="Helvetica,sans-Serif" font-size="9.00">dot</text>
</a>
</g>
</g>
<!-- src/render/vector&#45;&gt;src/render/dot -->
<g id="edge38" class="edge">
<title>src/render/vector&#45;&gt;src/render/dot</title>
<path fill="none" stroke="#0000ff" stroke-width="2" stroke-opacity="0.466667" d="M488.32,-63.67C527.77,-63.67 596,-63.67 596,-63.67 596,-63.67 596,-64.29 596,-64.29"/>
<polygon fill="#0000ff" fill-opacity="0.466667" stroke="#0000ff" stroke-width="2" stroke-opacity="0.466667" points="593.9,-63.9 596,-69.9 598.1,-63.9 593.9,-63.9"/>
</g>
<!-- src/parse/index.mjs&#45;&gt;src/options.mjs -->
<g id="edge15" class="edge">
<title>src/parse/index.mjs&#45;&gt;src/options.mjs</title>
<path fill="none" stroke="#000000" stroke-width="2" stroke-opacity="0.200000" d="M324,-259.84C324,-238.31 324,-186.33 324,-186.33 324,-186.33 751,-186.33 751,-186.33 751,-186.33 751,-83.29 751,-83.29"/>
<polygon fill="#000000" fill-opacity="0.200000" stroke="#000000" stroke-width="2" stroke-opacity="0.200000" points="753.1,-83.29 751,-77.29 748.9,-83.29 753.1,-83.29"/>
</g>
<!-- src/parse/scxml -->
<g id="node12" class="node">
<title>src/parse/scxml</title>
<g id="a_node12"><a xlink:href="https://github.com/sverweij/state-machine-cat/blob/develop/src/parse/scxml" xlink:title="scxml">
<polygon fill="#ffccff" stroke="black" points="488,-278 436,-278 434,-276 434,-260 486,-260 488,-262 488,-278"/>
<polyline fill="none" stroke="black" points="486,-276 434,-276 "/>
<polyline fill="none" stroke="black" points="486,-276 486,-260 "/>
<polyline fill="none" stroke="black" points="486,-276 488,-278 "/>
<text text-anchor="middle" x="461" y="-266.8" font-family="Helvetica,sans-Serif" font-size="9.00">scxml</text>
</a>
</g>
</g>
<!-- src/parse/index.mjs&#45;&gt;src/parse/scxml -->
<g id="edge16" class="edge">
<title>src/parse/index.mjs&#45;&gt;src/parse/scxml</title>
<path fill="none" stroke="#ff00ff" stroke-width="2" stroke-opacity="0.466667" d="M360.77,-266C360.77,-266 427.72,-266 427.72,-266"/>
<polygon fill="#ff00ff" fill-opacity="0.466667" stroke="#ff00ff" stroke-width="2" stroke-opacity="0.466667" points="427.72,-268.1 433.72,-266 427.72,-263.9 427.72,-268.1"/>
</g>
<!-- src/parse/smcat&#45;ast.schema.mjs -->
<g id="node13" class="node">
<title>src/parse/smcat&#45;ast.schema.mjs</title>
<g id="a_node13"><a xlink:href="https://github.com/sverweij/state-machine-cat/blob/develop/src/parse/smcat-ast.schema.mjs" xlink:title="smcat&#45;ast.schema.mjs">
<path fill="#ffccff" stroke="black" d="M508,-308C508,-308 414,-308 414,-308 411,-308 408,-305 408,-302 408,-302 408,-296 408,-296 408,-293 411,-290 414,-290 414,-290 508,-290 508,-290 511,-290 514,-293 514,-296 514,-296 514,-302 514,-302 514,-305 511,-308 508,-308"/>
<text text-anchor="middle" x="461" y="-296.8" font-family="Helvetica,sans-Serif" font-size="9.00">smcat&#45;ast.schema.mjs</text>
</a>
</g>
</g>
<!-- src/parse/index.mjs&#45;&gt;src/parse/smcat&#45;ast.schema.mjs -->
<g id="edge17" class="edge">
<title>src/parse/index.mjs&#45;&gt;src/parse/smcat&#45;ast.schema.mjs</title>
<path fill="none" stroke="#ff00ff" stroke-width="2" stroke-opacity="0.466667" d="M360.84,-272C386.62,-272 421,-272 421,-272 421,-272 421,-283.86 421,-283.86"/>
<polygon fill="#ff00ff" fill-opacity="0.466667" stroke="#ff00ff" stroke-width="2" stroke-opacity="0.466667" points="418.9,-283.86 421,-289.86 423.1,-283.86 418.9,-283.86"/>
</g>
<!-- src/parse/smcat -->
<g id="node14" class="node">
<title>src/parse/smcat</title>
<g id="a_node14"><a xlink:href="https://github.com/sverweij/state-machine-cat/blob/develop/src/parse/smcat" xlink:title="smcat">
<polygon fill="#ffccff" stroke="black" points="488,-248 436,-248 434,-246 434,-230 486,-230 488,-232 488,-248"/>
<polyline fill="none" stroke="black" points="486,-246 434,-246 "/>
<polyline fill="none" stroke="black" points="486,-246 486,-230 "/>
<polyline fill="none" stroke="black" points="486,-246 488,-248 "/>
<text text-anchor="middle" x="461" y="-236.8" font-family="Helvetica,sans-Serif" font-size="9.00">smcat</text>
</a>
</g>
</g>
<!-- src/parse/index.mjs&#45;&gt;src/parse/smcat -->
<g id="edge18" class="edge">
<title>src/parse/index.mjs&#45;&gt;src/parse/smcat</title>
<path fill="none" stroke="#ff00ff" stroke-width="2" stroke-opacity="0.466667" d="M343,-259.84C343,-251.01 343,-239 343,-239 343,-239 427.93,-239 427.93,-239"/>
<polygon fill="#ff00ff" fill-opacity="0.466667" stroke="#ff00ff" stroke-width="2" stroke-opacity="0.466667" points="427.93,-241.1 433.93,-239 427.93,-236.9 427.93,-241.1"/>
</g>
<!-- src/render/index&#45;node.mjs&#45;&gt;src/render/vector -->
<g id="edge29" class="edge">
<title>src/render/index&#45;node.mjs&#45;&gt;src/render/vector</title>
<path fill="none" stroke="#0000ff" stroke-width="2" stroke-opacity="0.466667" d="M364,-146.94C364,-123.29 364,-61.5 364,-61.5 364,-61.5 427.98,-61.5 427.98,-61.5"/>
<polygon fill="#0000ff" fill-opacity="0.466667" stroke="#0000ff" stroke-width="2" stroke-opacity="0.466667" points="427.98,-63.6 433.98,-61.5 427.98,-59.4 427.98,-63.6"/>
</g>
<!-- src/render/index&#45;node.mjs&#45;&gt;src/render/dot -->
<g id="edge25" class="edge">
<title>src/render/index&#45;node.mjs&#45;&gt;src/render/dot</title>
<path fill="none" stroke="#0000ff" stroke-width="2" stroke-opacity="0.466667" d="M367,-146.86C367,-126.47 367,-79 367,-79 367,-79 562.39,-79 562.39,-79"/>
<polygon fill="#0000ff" fill-opacity="0.466667" stroke="#0000ff" stroke-width="2" stroke-opacity="0.466667" points="562.39,-81.1 568.39,-79 562.39,-76.9 562.39,-81.1"/>
</g>
<!-- src/render/scjson -->
<g id="node18" class="node">
<title>src/render/scjson</title>
<g id="a_node18"><a xlink:href="https://github.com/sverweij/state-machine-cat/blob/develop/src/render/scjson" xlink:title="scjson">
<polygon fill="#ccccff" stroke="black" points="622.5,-153 570.5,-153 568.5,-151 568.5,-135 620.5,-135 622.5,-137 622.5,-153"/>
<polyline fill="none" stroke="black" points="620.5,-151 568.5,-151 "/>
<polyline fill="none" stroke="black" points="620.5,-151 620.5,-135 "/>
<polyline fill="none" stroke="black" points="620.5,-151 622.5,-153 "/>
<text text-anchor="middle" x="595.5" y="-141.8" font-family="Helvetica,sans-Serif" font-size="9.00">scjson</text>
</a>
</g>
</g>
<!-- src/render/index&#45;node.mjs&#45;&gt;src/render/scjson -->
<g id="edge26" class="edge">
<title>src/render/index&#45;node.mjs&#45;&gt;src/render/scjson</title>
<path fill="none" stroke="#0000ff" stroke-width="2" stroke-opacity="0.466667" d="M372.09,-159.5C445.35,-159.5 596,-159.5 596,-159.5 596,-159.5 596,-158.87 596,-158.87"/>
<polygon fill="#0000ff" fill-opacity="0.466667" stroke="#0000ff" stroke-width="2" stroke-opacity="0.466667" points="598.1,-159.2 596,-153.2 593.9,-159.2 598.1,-159.2"/>
</g>
<!-- src/render/scxml -->
<g id="node19" class="node">
<title>src/render/scxml</title>
<g id="a_node19"><a xlink:href="https://github.com/sverweij/state-machine-cat/blob/develop/src/render/scxml" xlink:title="scxml">
<polygon fill="#ccccff" stroke="black" points="488,-124 436,-124 434,-122 434,-106 486,-106 488,-108 488,-124"/>
<polyline fill="none" stroke="black" points="486,-122 434,-122 "/>
<polyline fill="none" stroke="black" points="486,-122 486,-106 "/>
<polyline fill="none" stroke="black" points="486,-122 488,-124 "/>
<text text-anchor="middle" x="461" y="-112.8" font-family="Helvetica,sans-Serif" font-size="9.00">scxml</text>
</a>
</g>
</g>
<!-- src/render/index&#45;node.mjs&#45;&gt;src/render/scxml -->
<g id="edge27" class="edge">
<title>src/render/index&#45;node.mjs&#45;&gt;src/render/scxml</title>
<path fill="none" stroke="#0000ff" stroke-width="2" stroke-opacity="0.466667" d="M370,-146.92C370,-135.82 370,-118.5 370,-118.5 370,-118.5 427.7,-118.5 427.7,-118.5"/>
<polygon fill="#0000ff" fill-opacity="0.466667" stroke="#0000ff" stroke-width="2" stroke-opacity="0.466667" points="427.7,-120.6 433.7,-118.5 427.7,-116.4 427.7,-120.6"/>
</g>
<!-- src/render/smcat -->
<g id="node20" class="node">
<title>src/render/smcat</title>
<g id="a_node20"><a xlink:href="https://github.com/sverweij/state-machine-cat/blob/develop/src/render/smcat" xlink:title="smcat">
<polygon fill="#ccccff" stroke="black" points="488,-154 436,-154 434,-152 434,-136 486,-136 488,-138 488,-154"/>
<polyline fill="none" stroke="black" points="486,-152 434,-152 "/>
<polyline fill="none" stroke="black" points="486,-152 486,-136 "/>
<polyline fill="none" stroke="black" points="486,-152 488,-154 "/>
<text text-anchor="middle" x="461" y="-142.8" font-family="Helvetica,sans-Serif" font-size="9.00">smcat</text>
</a>
</g>
</g>
<!-- src/render/index&#45;node.mjs&#45;&gt;src/render/smcat -->
<g id="edge28" class="edge">
<title>src/render/index&#45;node.mjs&#45;&gt;src/render/smcat</title>
<path fill="none" stroke="#0000ff" stroke-width="2" stroke-opacity="0.466667" d="M372.1,-150.5C372.1,-150.5 427.89,-150.5 427.89,-150.5"/>
<polygon fill="#0000ff" fill-opacity="0.466667" stroke="#0000ff" stroke-width="2" stroke-opacity="0.466667" points="427.89,-152.6 433.89,-150.5 427.89,-148.4 427.89,-152.6"/>
</g>
<!-- src/state&#45;machine&#45;model.mjs -->
<g id="node16" class="node">
<title>src/state&#45;machine&#45;model.mjs</title>
<g id="a_node16"><a xlink:href="https://github.com/sverweij/state-machine-cat/blob/develop/src/state-machine-model.mjs" xlink:title="state&#45;machine&#45;model.mjs">
<path fill="#ffffcc" stroke="black" d="M788,-215C788,-215 683,-215 683,-215 680,-215 677,-212 677,-209 677,-209 677,-203 677,-203 677,-200 680,-197 683,-197 683,-197 788,-197 788,-197 791,-197 794,-200 794,-203 794,-203 794,-209 794,-209 794,-212 791,-215 788,-215"/>
<text text-anchor="middle" x="735.5" y="-203.8" font-family="Helvetica,sans-Serif" font-size="9.00">state&#45;machine&#45;model.mjs</text>
</a>
</g>
</g>
<!-- src/transform&#45;&gt;src/state&#45;machine&#45;model.mjs -->
<g id="edge39" class="edge">
<title>src/transform&#45;&gt;src/state&#45;machine&#45;model.mjs</title>
<path fill="none" stroke="#000000" stroke-width="2" stroke-opacity="0.200000" d="M623.26,-351C664.2,-351 736,-351 736,-351 736,-351 736,-221.07 736,-221.07"/>
<polygon fill="#000000" fill-opacity="0.200000" stroke="#000000" stroke-width="2" stroke-opacity="0.200000" points="738.1,-221.07 736,-215.07 733.9,-221.07 738.1,-221.07"/>
</g>
<!-- src/index.mjs -->
<g id="node10" class="node">
<title>src/index.mjs</title>
<g id="a_node10"><a xlink:href="https://github.com/sverweij/state-machine-cat/blob/develop/src/index.mjs" xlink:title="index.mjs">
<path fill="#ffffcc" stroke="black" d="M240.5,-278C240.5,-278 197.5,-278 197.5,-278 194.5,-278 191.5,-275 191.5,-272 191.5,-272 191.5,-266 191.5,-266 191.5,-263 194.5,-260 197.5,-260 197.5,-260 240.5,-260 240.5,-260 243.5,-260 246.5,-263 246.5,-266 246.5,-266 246.5,-272 246.5,-272 246.5,-275 243.5,-278 240.5,-278"/>
<text text-anchor="middle" x="219" y="-266.8" font-family="Helvetica,sans-Serif" font-size="9.00">index.mjs</text>
</a>
</g>
</g>
<!-- src/index.mjs&#45;&gt;src/options.mjs -->
<g id="edge10" class="edge">
<title>src/index.mjs&#45;&gt;src/options.mjs</title>
<path fill="none" stroke="#000000" stroke-width="2" stroke-opacity="0.200000" d="M229,-259.71C229,-236.1 229,-175.67 229,-175.67 229,-175.67 736,-175.67 736,-175.67 736,-175.67 736,-83.18 736,-83.18"/>
<polygon fill="#000000" fill-opacity="0.200000" stroke="#000000" stroke-width="2" stroke-opacity="0.200000" points="738.1,-83.18 736,-77.18 733.9,-83.18 738.1,-83.18"/>
</g>
<!-- src/index.mjs&#45;&gt;src/parse/index.mjs -->
<g id="edge11" class="edge">
<title>src/index.mjs&#45;&gt;src/parse/index.mjs</title>
<path fill="none" stroke="#ff00ff" stroke-width="2" stroke-opacity="0.466667" d="M246.6,-263.6C246.6,-263.6 299.26,-263.6 299.26,-263.6"/>
<polygon fill="#ff00ff" fill-opacity="0.466667" stroke="#ff00ff" stroke-width="2" stroke-opacity="0.466667" points="299.26,-265.7 305.26,-263.6 299.26,-261.5 299.26,-265.7"/>
</g>
<!-- src/index.mjs&#45;&gt;src/transform -->
<g id="edge13" class="edge">
<title>src/index.mjs&#45;&gt;src/transform</title>
<path fill="none" stroke="#000000" stroke-width="2" stroke-opacity="0.200000" d="M246.82,-267.2C263.69,-267.2 282,-267.2 282,-267.2 282,-267.2 282,-349 282,-349 282,-349 561.95,-349 561.95,-349"/>
<polygon fill="#000000" fill-opacity="0.200000" stroke="#000000" stroke-width="2" stroke-opacity="0.200000" points="561.95,-351.1 567.95,-349 561.95,-346.9 561.95,-351.1"/>
</g>
<!-- src/index.mjs&#45;&gt;src/version.mjs -->
<g id="edge14" class="edge">
<title>src/index.mjs&#45;&gt;src/version.mjs</title>
<path fill="none" stroke="#000000" stroke-width="2" stroke-opacity="0.200000" d="M246.59,-270.8C258.61,-270.8 270,-270.8 270,-270.8 270,-270.8 270,-365 270,-365 270,-365 295.87,-365 295.87,-365"/>
<polygon fill="#000000" fill-opacity="0.200000" stroke="#000000" stroke-width="2" stroke-opacity="0.200000" points="295.87,-367.1 301.87,-365 295.87,-362.9 295.87,-367.1"/>
</g>
<!-- src/render/index.mjs -->
<g id="node11" class="node">
<title>src/render/index.mjs</title>
<g id="a_node11"><a xlink:href="https://github.com/sverweij/state-machine-cat/blob/develop/src/render/index.mjs" xlink:title="index.mjs">
<path fill="#ccccff" stroke="black" d="M354.5,-113C354.5,-113 311.5,-113 311.5,-113 308.5,-113 305.5,-110 305.5,-107 305.5,-107 305.5,-101 305.5,-101 305.5,-98 308.5,-95 311.5,-95 311.5,-95 354.5,-95 354.5,-95 357.5,-95 360.5,-98 360.5,-101 360.5,-101 360.5,-107 360.5,-107 360.5,-110 357.5,-113 354.5,-113"/>
<text text-anchor="middle" x="333" y="-101.8" font-family="Helvetica,sans-Serif" font-size="9.00">index.mjs</text>
</a>
</g>
</g>
<!-- src/index.mjs&#45;&gt;src/render/index.mjs -->
<g id="edge12" class="edge">
<title>src/index.mjs&#45;&gt;src/render/index.mjs</title>
<path fill="none" stroke="#0000ff" stroke-width="2" stroke-opacity="0.466667" d="M210,-259.66C210,-224.75 210,-104 210,-104 210,-104 299.4,-104 299.4,-104"/>
<polygon fill="#0000ff" fill-opacity="0.466667" stroke="#0000ff" stroke-width="2" stroke-opacity="0.466667" points="299.4,-106.1 305.4,-104 299.4,-101.9 299.4,-106.1"/>
</g>
<!-- src/render/index.mjs&#45;&gt;src/render/vector -->
<g id="edge34" class="edge">
<title>src/render/index.mjs&#45;&gt;src/render/vector</title>
<path fill="none" stroke="#0000ff" stroke-width="2" stroke-opacity="0.466667" d="M360.77,-97.75C398.42,-97.75 461,-97.75 461,-97.75 461,-97.75 461,-72.04 461,-72.04"/>
<polygon fill="#0000ff" fill-opacity="0.466667" stroke="#0000ff" stroke-width="2" stroke-opacity="0.466667" points="463.1,-72.04 461,-66.04 458.9,-72.04 463.1,-72.04"/>
</g>
<!-- src/render/index.mjs&#45;&gt;src/render/dot -->
<g id="edge30" class="edge">
<title>src/render/index.mjs&#45;&gt;src/render/dot</title>
<path fill="none" stroke="#0000ff" stroke-width="2" stroke-opacity="0.466667" d="M360.6,-100.5C425.43,-100.5 582,-100.5 582,-100.5 582,-100.5 582,-94.24 582,-94.24"/>
<polygon fill="#0000ff" fill-opacity="0.466667" stroke="#0000ff" stroke-width="2" stroke-opacity="0.466667" points="584.1,-94.24 582,-88.24 579.9,-94.24 584.1,-94.24"/>
</g>
<!-- src/render/index.mjs&#45;&gt;src/render/scjson -->
<g id="edge31" class="edge">
<title>src/render/index.mjs&#45;&gt;src/render/scjson</title>
<path fill="none" stroke="#0000ff" stroke-width="2" stroke-opacity="0.466667" d="M360.73,-103.25C430.72,-103.25 609,-103.25 609,-103.25 609,-103.25 609,-128.96 609,-128.96"/>
<polygon fill="#0000ff" fill-opacity="0.466667" stroke="#0000ff" stroke-width="2" stroke-opacity="0.466667" points="606.9,-128.96 609,-134.96 611.1,-128.96 606.9,-128.96"/>
</g>
<!-- src/render/index.mjs&#45;&gt;src/render/scxml -->
<g id="edge32" class="edge">
<title>src/render/index.mjs&#45;&gt;src/render/scxml</title>
<path fill="none" stroke="#0000ff" stroke-width="2" stroke-opacity="0.466667" d="M360.77,-109.5C360.77,-109.5 427.72,-109.5 427.72,-109.5"/>
<polygon fill="#0000ff" fill-opacity="0.466667" stroke="#0000ff" stroke-width="2" stroke-opacity="0.466667" points="427.72,-111.6 433.72,-109.5 427.72,-107.4 427.72,-111.6"/>
</g>
<!-- src/render/index.mjs&#45;&gt;src/render/smcat -->
<g id="edge33" class="edge">
<title>src/render/index.mjs&#45;&gt;src/render/smcat</title>
<path fill="none" stroke="#0000ff" stroke-width="2" stroke-opacity="0.466667" d="M333,-113.08C333,-124.18 333,-141.5 333,-141.5 333,-141.5 427.85,-141.5 427.85,-141.5"/>
<polygon fill="#0000ff" fill-opacity="0.466667" stroke="#0000ff" stroke-width="2" stroke-opacity="0.466667" points="427.85,-143.6 433.85,-141.5 427.85,-139.4 427.85,-143.6"/>
</g>
<!-- src/parse/scxml&#45;&gt;src/transform -->
<g id="edge20" class="edge">
<title>src/parse/scxml&#45;&gt;src/transform</title>
<path fill="none" stroke="#000000" stroke-width="2" stroke-opacity="0.200000" d="M488.09,-272C529.8,-272 605,-272 605,-272 605,-272 605,-335.94 605,-335.94"/>
<polygon fill="#000000" fill-opacity="0.200000" stroke="#000000" stroke-width="2" stroke-opacity="0.200000" points="602.9,-335.94 605,-341.94 607.1,-335.94 602.9,-335.94"/>
</g>
<!-- src/parse/parser&#45;helpers.mjs -->
<g id="node15" class="node">
<title>src/parse/parser&#45;helpers.mjs</title>
<g id="a_node15"><a xlink:href="https://github.com/sverweij/state-machine-cat/blob/develop/src/parse/parser-helpers.mjs" xlink:title="parser&#45;helpers.mjs">
<path fill="#ffccff" stroke="black" d="M635,-248C635,-248 556,-248 556,-248 553,-248 550,-245 550,-242 550,-242 550,-236 550,-236 550,-233 553,-230 556,-230 556,-230 635,-230 635,-230 638,-230 641,-233 641,-236 641,-236 641,-242 641,-242 641,-245 638,-248 635,-248"/>
<text text-anchor="middle" x="595.5" y="-236.8" font-family="Helvetica,sans-Serif" font-size="9.00">parser&#45;helpers.mjs</text>
</a>
</g>
</g>
<!-- src/parse/scxml&#45;&gt;src/parse/parser&#45;helpers.mjs -->
<g id="edge21" class="edge">
<title>src/parse/scxml&#45;&gt;src/parse/parser&#45;helpers.mjs</title>
<path fill="none" stroke="#ff00ff" stroke-width="2" stroke-opacity="0.466667" d="M488.04,-266C517.05,-266 559,-266 559,-266 559,-266 559,-254.14 559,-254.14"/>
<polygon fill="#ff00ff" fill-opacity="0.466667" stroke="#ff00ff" stroke-width="2" stroke-opacity="0.466667" points="561.1,-254.14 559,-248.14 556.9,-254.14 561.1,-254.14"/>
</g>
<!-- src/parse/smcat&#45;&gt;src/parse/parser&#45;helpers.mjs -->
<g id="edge22" class="edge">
<title>src/parse/smcat&#45;&gt;src/parse/parser&#45;helpers.mjs</title>
<path fill="none" stroke="#ff00ff" stroke-width="2" stroke-opacity="0.466667" d="M488.22,-239C488.22,-239 543.78,-239 543.78,-239"/>
<polygon fill="#ff00ff" fill-opacity="0.466667" stroke="#ff00ff" stroke-width="2" stroke-opacity="0.466667" points="543.78,-241.1 549.78,-239 543.78,-236.9 543.78,-241.1"/>
</g>
<!-- src/parse/parser&#45;helpers.mjs&#45;&gt;src/state&#45;machine&#45;model.mjs -->
<g id="edge19" class="edge">
<title>src/parse/parser&#45;helpers.mjs&#45;&gt;src/state&#45;machine&#45;model.mjs</title>
<path fill="none" stroke="#000000" stroke-width="2" stroke-opacity="0.200000" d="M632,-229.98C632,-220.21 632,-206 632,-206 632,-206 670.79,-206 670.79,-206"/>
<polygon fill="#000000" fill-opacity="0.200000" stroke="#000000" stroke-width="2" stroke-opacity="0.200000" points="670.79,-208.1 676.79,-206 670.79,-203.9 670.79,-208.1"/>
</g>
<!-- src/render/dot&#45;&gt;src/options.mjs -->
<g id="edge23" class="edge">
<title>src/render/dot&#45;&gt;src/options.mjs</title>
<path fill="none" stroke="#000000" stroke-width="2" stroke-opacity="0.200000" d="M622.83,-72.33C622.83,-72.33 698.34,-72.33 698.34,-72.33"/>
<polygon fill="#000000" fill-opacity="0.200000" stroke="#000000" stroke-width="2" stroke-opacity="0.200000" points="698.34,-74.43 704.34,-72.33 698.34,-70.23 698.34,-74.43"/>
</g>
<!-- src/render/dot&#45;&gt;src/state&#45;machine&#45;model.mjs -->
<g id="edge24" class="edge">
<title>src/render/dot&#45;&gt;src/state&#45;machine&#45;model.mjs</title>
<path fill="none" stroke="#000000" stroke-width="2" stroke-opacity="0.200000" d="M622.7,-82.5C652.46,-82.5 696,-82.5 696,-82.5 696,-82.5 696,-190.72 696,-190.72"/>
<polygon fill="#000000" fill-opacity="0.200000" stroke="#000000" stroke-width="2" stroke-opacity="0.200000" points="693.9,-190.72 696,-196.72 698.1,-190.72 693.9,-190.72"/>
</g>
<!-- src/render/scjson&#45;&gt;src/state&#45;machine&#45;model.mjs -->
<g id="edge35" class="edge">
<title>src/render/scjson&#45;&gt;src/state&#45;machine&#45;model.mjs</title>
<path fill="none" stroke="#000000" stroke-width="2" stroke-opacity="0.200000" d="M622.95,-144C649.9,-144 687,-144 687,-144 687,-144 687,-190.85 687,-190.85"/>
<polygon fill="#000000" fill-opacity="0.200000" stroke="#000000" stroke-width="2" stroke-opacity="0.200000" points="684.9,-190.85 687,-196.85 689.1,-190.85 684.9,-190.85"/>
</g>
<!-- src/render/scxml&#45;&gt;src/render/scjson -->
<g id="edge36" class="edge">
<title>src/render/scxml&#45;&gt;src/render/scjson</title>
<path fill="none" stroke="#0000ff" stroke-width="2" stroke-opacity="0.466667" d="M488.32,-115C527.77,-115 596,-115 596,-115 596,-115 596,-128.82 596,-128.82"/>
<polygon fill="#0000ff" fill-opacity="0.466667" stroke="#0000ff" stroke-width="2" stroke-opacity="0.466667" points="593.9,-128.82 596,-134.82 598.1,-128.82 593.9,-128.82"/>
</g>
</g>
</svg>
