<?xml version="1.0" encoding="UTF-8" standalone="no"?>
<!DOCTYPE svg PUBLIC "-//W3C//DTD SVG 1.1//EN"
 "http://www.w3.org/Graphics/SVG/1.1/DTD/svg11.dtd">
<!-- Generated by graphviz version 12.2.1 (20241206.2353)
 -->
<!-- Title: dependency&#45;cruiser output Pages: 1 -->
<svg width="749pt" height="450pt"
 viewBox="0.00 0.00 749.25 450.00" xmlns="http://www.w3.org/2000/svg" xmlns:xlink="http://www.w3.org/1999/xlink">
<g id="graph0" class="graph" transform="scale(1 1) rotate(0) translate(4 446)">
<title>dependency&#45;cruiser output</title>
<polygon fill="white" stroke="none" points="-4,4 -4,-446 745.25,-446 745.25,4 -4,4"/>
<g id="clust1" class="cluster">
<title>cluster_src</title>
<path fill="#ffffff" stroke="black" stroke-width="2" d="M20,-8C20,-8 721.25,-8 721.25,-8 727.25,-8 733.25,-14 733.25,-20 733.25,-20 733.25,-422 733.25,-422 733.25,-428 727.25,-434 721.25,-434 721.25,-434 20,-434 20,-434 14,-434 8,-428 8,-422 8,-422 8,-20 8,-20 8,-14 14,-8 20,-8"/>
<text text-anchor="middle" x="370.62" y="-421.45" font-family="Helvetica,sans-Serif" font-weight="bold" font-size="9.00">src</text>
</g>
<g id="clust2" class="cluster">
<title>cluster_src/parse</title>
<path fill="#ffffff" stroke="black" stroke-width="2" d="M237,-270C237,-270 566.5,-270 566.5,-270 572.5,-270 578.5,-276 578.5,-282 578.5,-282 578.5,-370 578.5,-370 578.5,-376 572.5,-382 566.5,-382 566.5,-382 237,-382 237,-382 231,-382 225,-376 225,-370 225,-370 225,-282 225,-282 225,-276 231,-270 237,-270"/>
<text text-anchor="middle" x="401.75" y="-369.45" font-family="Helvetica,sans-Serif" font-weight="bold" font-size="9.00">parse</text>
</g>
<g id="clust3" class="cluster">
<title>cluster_src/render</title>
<path fill="#ffffff" stroke="black" stroke-width="2" d="M225,-40C225,-40 547.25,-40 547.25,-40 553.25,-40 559.25,-46 559.25,-52 559.25,-52 559.25,-196 559.25,-196 559.25,-202 553.25,-208 547.25,-208 547.25,-208 225,-208 225,-208 219,-208 213,-202 213,-196 213,-196 213,-52 213,-52 213,-46 219,-40 225,-40"/>
<text text-anchor="middle" x="386.12" y="-195.45" font-family="Helvetica,sans-Serif" font-weight="bold" font-size="9.00">render</text>
</g>
<!-- src/cli -->
<g id="node1" class="node">
<title>src/cli</title>
<g id="a_node1"><a xlink:href="https://github.com/sverweij/state-machine-cat/blob/main/src/cli" xlink:title="cli">
<polygon fill="#ccffcc" stroke="black" points="70,-225.88 17.97,-225.88 16,-223.9 16,-208.12 68.03,-208.12 70,-210.1 70,-225.88"/>
<polyline fill="none" stroke="black" points="68.03,-223.9 16,-223.9"/>
<polyline fill="none" stroke="black" points="68.03,-223.9 68.03,-208.12"/>
<polyline fill="none" stroke="black" points="68.03,-223.9 70,-225.88"/>
<text text-anchor="start" x="38.5" y="-213.32" font-family="Helvetica,sans-Serif" font-size="9.00">cli</text>
</a>
</g>
</g>
<!-- src/index&#45;node.mts -->
<g id="node2" class="node">
<title>src/index&#45;node.mts</title>
<g id="a_node2"><a xlink:href="https://github.com/sverweij/state-machine-cat/blob/main/src/index-node.mts" xlink:title="index&#45;node.mts">
<path fill="#ddfeff" stroke="black" d="M179.08,-225.88C179.08,-225.88 111.92,-225.88 111.92,-225.88 108.96,-225.88 106,-222.92 106,-219.96 106,-219.96 106,-214.04 106,-214.04 106,-211.08 108.96,-208.12 111.92,-208.12 111.92,-208.12 179.08,-208.12 179.08,-208.12 182.04,-208.12 185,-211.08 185,-214.04 185,-214.04 185,-219.96 185,-219.96 185,-222.92 182.04,-225.88 179.08,-225.88"/>
<text text-anchor="start" x="114" y="-213.32" font-family="Helvetica,sans-Serif" font-size="9.00">index&#45;node.mts</text>
</a>
</g>
</g>
<!-- src/cli&#45;&gt;src/index&#45;node.mts -->
<g id="edge1" class="edge">
<title>src/cli&#45;&gt;src/index&#45;node.mts</title>
<path fill="none" stroke="#000000" stroke-width="2" stroke-opacity="0.200000" d="M70.47,-217C70.47,-217 96.59,-217 96.59,-217"/>
<polygon fill="#000000" fill-opacity="0.200000" stroke="#000000" stroke-width="2" stroke-opacity="0.200000" points="96.59,-219.1 102.59,-217 96.59,-214.9 96.59,-219.1"/>
</g>
<!-- src/version.mts -->
<g id="node3" class="node">
<title>src/version.mts</title>
<g id="a_node3"><a xlink:href="https://github.com/sverweij/state-machine-cat/blob/main/src/version.mts" xlink:title="version.mts">
<path fill="#ddfeff" stroke="black" d="M285.83,-407.88C285.83,-407.88 235.17,-407.88 235.17,-407.88 232.21,-407.88 229.25,-404.92 229.25,-401.96 229.25,-401.96 229.25,-396.04 229.25,-396.04 229.25,-393.08 232.21,-390.12 235.17,-390.12 235.17,-390.12 285.83,-390.12 285.83,-390.12 288.79,-390.12 291.75,-393.08 291.75,-396.04 291.75,-396.04 291.75,-401.96 291.75,-401.96 291.75,-404.92 288.79,-407.88 285.83,-407.88"/>
<text text-anchor="start" x="237.25" y="-395.32" font-family="Helvetica,sans-Serif" font-size="9.00">version.mts</text>
</a>
</g>
</g>
<!-- src/cli&#45;&gt;src/version.mts -->
<g id="edge2" class="edge">
<title>src/cli&#45;&gt;src/version.mts</title>
<path fill="none" stroke="#000000" stroke-width="2" stroke-opacity="0.200000" d="M43.25,-226.25C43.25,-263.86 43.25,-403.44 43.25,-403.44 43.25,-403.44 219.88,-403.44 219.88,-403.44"/>
<polygon fill="#000000" fill-opacity="0.200000" stroke="#000000" stroke-width="2" stroke-opacity="0.200000" points="219.88,-405.54 225.88,-403.44 219.88,-401.34 219.88,-405.54"/>
</g>
<!-- src/options.mts -->
<g id="node4" class="node">
<title>src/options.mts</title>
<g id="a_node4"><a xlink:href="https://github.com/sverweij/state-machine-cat/blob/main/src/options.mts" xlink:title="options.mts">
<path fill="#ddfeff" stroke="black" d="M691.21,-90.88C691.21,-90.88 640.54,-90.88 640.54,-90.88 637.58,-90.88 634.62,-87.92 634.62,-84.96 634.62,-84.96 634.62,-79.04 634.62,-79.04 634.62,-76.08 637.58,-73.12 640.54,-73.12 640.54,-73.12 691.21,-73.12 691.21,-73.12 694.17,-73.12 697.12,-76.08 697.12,-79.04 697.12,-79.04 697.12,-84.96 697.12,-84.96 697.12,-87.92 694.17,-90.88 691.21,-90.88"/>
<text text-anchor="start" x="642.62" y="-78.33" font-family="Helvetica,sans-Serif" font-size="9.00">options.mts</text>
</a>
</g>
</g>
<!-- src/cli&#45;&gt;src/options.mts -->
<g id="edge3" class="edge">
<title>src/cli&#45;&gt;src/options.mts</title>
<path fill="none" stroke="#000000" stroke-width="2" stroke-opacity="0.200000" d="M43.25,-207.85C43.25,-197.1 43.25,-180.72 43.25,-180.72 43.25,-180.72 655.25,-180.72 655.25,-180.72 655.25,-180.72 655.25,-100.14 655.25,-100.14"/>
<polygon fill="#000000" fill-opacity="0.200000" stroke="#000000" stroke-width="2" stroke-opacity="0.200000" points="657.35,-100.14 655.25,-94.14 653.15,-100.14 657.35,-100.14"/>
</g>
<!-- src/index&#45;node.mts&#45;&gt;src/version.mts -->
<g id="edge8" class="edge">
<title>src/index&#45;node.mts&#45;&gt;src/version.mts</title>
<path fill="none" stroke="#000000" stroke-width="2" stroke-opacity="0.200000" d="M176.25,-226.05C176.25,-262.23 176.25,-394.56 176.25,-394.56 176.25,-394.56 220.1,-394.56 220.1,-394.56"/>
<polygon fill="#000000" fill-opacity="0.200000" stroke="#000000" stroke-width="2" stroke-opacity="0.200000" points="220.1,-396.66 226.1,-394.56 220.1,-392.46 220.1,-396.66"/>
</g>
<!-- src/index&#45;node.mts&#45;&gt;src/options.mts -->
<g id="edge4" class="edge">
<title>src/index&#45;node.mts&#45;&gt;src/options.mts</title>
<path fill="none" stroke="#000000" stroke-width="2" stroke-opacity="0.200000" d="M145.25,-207.71C145.25,-198.76 145.25,-186.57 145.25,-186.57 145.25,-186.57 666.25,-186.57 666.25,-186.57 666.25,-186.57 666.25,-100.31 666.25,-100.31"/>
<polygon fill="#000000" fill-opacity="0.200000" stroke="#000000" stroke-width="2" stroke-opacity="0.200000" points="668.35,-100.31 666.25,-94.31 664.15,-100.31 668.35,-100.31"/>
</g>
<!-- src/parse/index.mts -->
<g id="node5" class="node">
<title>src/parse/index.mts</title>
<g id="a_node5"><a xlink:href="https://github.com/sverweij/state-machine-cat/blob/main/src/parse/index.mts" xlink:title="index.mts">
<path fill="#ffccff" stroke="black" d="M282.08,-295.88C282.08,-295.88 238.92,-295.88 238.92,-295.88 235.96,-295.88 233,-292.92 233,-289.96 233,-289.96 233,-284.04 233,-284.04 233,-281.08 235.96,-278.12 238.92,-278.12 238.92,-278.12 282.08,-278.12 282.08,-278.12 285.04,-278.12 288,-281.08 288,-284.04 288,-284.04 288,-289.96 288,-289.96 288,-292.92 285.04,-295.88 282.08,-295.88"/>
<text text-anchor="start" x="241" y="-283.32" font-family="Helvetica,sans-Serif" font-size="9.00">index.mts</text>
</a>
</g>
</g>
<!-- src/index&#45;node.mts&#45;&gt;src/parse/index.mts -->
<g id="edge5" class="edge">
<title>src/index&#45;node.mts&#45;&gt;src/parse/index.mts</title>
<path fill="none" stroke="#ff00ff" stroke-width="2" stroke-opacity="0.466667" d="M179.25,-226.32C179.25,-244.74 179.25,-284.04 179.25,-284.04 179.25,-284.04 223.51,-284.04 223.51,-284.04"/>
<polygon fill="#ff00ff" fill-opacity="0.466667" stroke="#ff00ff" stroke-width="2" stroke-opacity="0.466667" points="223.51,-286.14 229.51,-284.04 223.51,-281.94 223.51,-286.14"/>
</g>
<!-- src/render/index&#45;node.mts -->
<g id="node6" class="node">
<title>src/render/index&#45;node.mts</title>
<g id="a_node6"><a xlink:href="https://github.com/sverweij/state-machine-cat/blob/main/src/render/index-node.mts" xlink:title="index&#45;node.mts">
<path fill="#ccccff" stroke="black" d="M294.08,-112.88C294.08,-112.88 226.92,-112.88 226.92,-112.88 223.96,-112.88 221,-109.92 221,-106.96 221,-106.96 221,-101.04 221,-101.04 221,-98.08 223.96,-95.12 226.92,-95.12 226.92,-95.12 294.08,-95.12 294.08,-95.12 297.04,-95.12 300,-98.08 300,-101.04 300,-101.04 300,-106.96 300,-106.96 300,-109.92 297.04,-112.88 294.08,-112.88"/>
<text text-anchor="start" x="229" y="-100.33" font-family="Helvetica,sans-Serif" font-size="9.00">index&#45;node.mts</text>
</a>
</g>
</g>
<!-- src/index&#45;node.mts&#45;&gt;src/render/index&#45;node.mts -->
<g id="edge6" class="edge">
<title>src/index&#45;node.mts&#45;&gt;src/render/index&#45;node.mts</title>
<path fill="none" stroke="#0000ff" stroke-width="2" stroke-opacity="0.466667" d="M185.38,-211.56C205.31,-211.56 225.25,-211.56 225.25,-211.56 225.25,-211.56 225.25,-122.2 225.25,-122.2"/>
<polygon fill="#0000ff" fill-opacity="0.466667" stroke="#0000ff" stroke-width="2" stroke-opacity="0.466667" points="227.35,-122.2 225.25,-116.2 223.15,-122.2 227.35,-122.2"/>
</g>
<!-- src/transform -->
<g id="node7" class="node">
<title>src/transform</title>
<g id="a_node7"><a xlink:href="https://github.com/sverweij/state-machine-cat/blob/main/src/transform" xlink:title="transform">
<polygon fill="#ffffcc" stroke="black" points="551.38,-261.88 499.1,-261.88 497.12,-259.9 497.12,-244.12 549.4,-244.12 551.38,-246.1 551.38,-261.88"/>
<polyline fill="none" stroke="black" points="549.4,-259.9 497.12,-259.9"/>
<polyline fill="none" stroke="black" points="549.4,-259.9 549.4,-244.12"/>
<polyline fill="none" stroke="black" points="549.4,-259.9 551.38,-261.88"/>
<text text-anchor="start" x="505.12" y="-249.32" font-family="Helvetica,sans-Serif" font-size="9.00">transform</text>
</a>
</g>
</g>
<!-- src/index&#45;node.mts&#45;&gt;src/transform -->
<g id="edge7" class="edge">
<title>src/index&#45;node.mts&#45;&gt;src/transform</title>
<path fill="none" stroke="#000000" stroke-width="2" stroke-opacity="0.200000" d="M182.25,-226.35C182.25,-237.32 182.25,-254.04 182.25,-254.04 182.25,-254.04 487.81,-254.04 487.81,-254.04"/>
<polygon fill="#000000" fill-opacity="0.200000" stroke="#000000" stroke-width="2" stroke-opacity="0.200000" points="487.81,-256.14 493.81,-254.04 487.81,-251.94 487.81,-256.14"/>
</g>
<!-- src/parse/index.mts&#45;&gt;src/options.mts -->
<g id="edge14" class="edge">
<title>src/parse/index.mts&#45;&gt;src/options.mts</title>
<path fill="none" stroke="#000000" stroke-width="2" stroke-opacity="0.200000" d="M269.25,-277.84C269.25,-255.17 269.25,-198.28 269.25,-198.28 269.25,-198.28 686.25,-198.28 686.25,-198.28 686.25,-198.28 686.25,-100.15 686.25,-100.15"/>
<polygon fill="#000000" fill-opacity="0.200000" stroke="#000000" stroke-width="2" stroke-opacity="0.200000" points="688.35,-100.15 686.25,-94.15 684.15,-100.15 688.35,-100.15"/>
</g>
<!-- src/parse/scxml -->
<g id="node10" class="node">
<title>src/parse/scxml</title>
<g id="a_node10"><a xlink:href="https://github.com/sverweij/state-machine-cat/blob/main/src/parse/scxml" xlink:title="scxml">
<polygon fill="#ffccff" stroke="black" points="416,-295.88 363.97,-295.88 362,-293.9 362,-278.12 414.03,-278.12 416,-280.1 416,-295.88"/>
<polyline fill="none" stroke="black" points="414.03,-293.9 362,-293.9"/>
<polyline fill="none" stroke="black" points="414.03,-293.9 414.03,-278.12"/>
<polyline fill="none" stroke="black" points="414.03,-293.9 416,-295.88"/>
<text text-anchor="start" x="377.38" y="-283.32" font-family="Helvetica,sans-Serif" font-size="9.00">scxml</text>
</a>
</g>
</g>
<!-- src/parse/index.mts&#45;&gt;src/parse/scxml -->
<g id="edge15" class="edge">
<title>src/parse/index.mts&#45;&gt;src/parse/scxml</title>
<path fill="none" stroke="#ff00ff" stroke-width="2" stroke-opacity="0.466667" d="M288.38,-284.04C288.38,-284.04 352.59,-284.04 352.59,-284.04"/>
<polygon fill="#ff00ff" fill-opacity="0.466667" stroke="#ff00ff" stroke-width="2" stroke-opacity="0.466667" points="352.59,-286.14 358.59,-284.04 352.59,-281.94 352.59,-286.14"/>
</g>
<!-- src/parse/smcat&#45;ast.schema.mts -->
<g id="node11" class="node">
<title>src/parse/smcat&#45;ast.schema.mts</title>
<g id="a_node11"><a xlink:href="https://github.com/sverweij/state-machine-cat/blob/main/src/parse/smcat-ast.schema.mts" xlink:title="smcat&#45;ast.schema.mts">
<path fill="#ffccff" stroke="black" d="M436.08,-355.88C436.08,-355.88 341.92,-355.88 341.92,-355.88 338.96,-355.88 336,-352.92 336,-349.96 336,-349.96 336,-344.04 336,-344.04 336,-341.08 338.96,-338.12 341.92,-338.12 341.92,-338.12 436.08,-338.12 436.08,-338.12 439.04,-338.12 442,-341.08 442,-344.04 442,-344.04 442,-349.96 442,-349.96 442,-352.92 439.04,-355.88 436.08,-355.88"/>
<text text-anchor="start" x="344" y="-343.32" font-family="Helvetica,sans-Serif" font-size="9.00">smcat&#45;ast.schema.mts</text>
</a>
</g>
</g>
<!-- src/parse/index.mts&#45;&gt;src/parse/smcat&#45;ast.schema.mts -->
<g id="edge16" class="edge">
<title>src/parse/index.mts&#45;&gt;src/parse/smcat&#45;ast.schema.mts</title>
<path fill="none" stroke="#ff00ff" stroke-width="2" stroke-opacity="0.466667" d="M288.26,-289.96C313.97,-289.96 348.25,-289.96 348.25,-289.96 348.25,-289.96 348.25,-328.81 348.25,-328.81"/>
<polygon fill="#ff00ff" fill-opacity="0.466667" stroke="#ff00ff" stroke-width="2" stroke-opacity="0.466667" points="346.15,-328.81 348.25,-334.81 350.35,-328.81 346.15,-328.81"/>
</g>
<!-- src/parse/smcat -->
<g id="node12" class="node">
<title>src/parse/smcat</title>
<g id="a_node12"><a xlink:href="https://github.com/sverweij/state-machine-cat/blob/main/src/parse/smcat" xlink:title="smcat">
<polygon fill="#ffccff" stroke="black" points="416,-325.88 363.97,-325.88 362,-323.9 362,-308.12 414.03,-308.12 416,-310.1 416,-325.88"/>
<polyline fill="none" stroke="black" points="414.03,-323.9 362,-323.9"/>
<polyline fill="none" stroke="black" points="414.03,-323.9 414.03,-308.12"/>
<polyline fill="none" stroke="black" points="414.03,-323.9 416,-325.88"/>
<text text-anchor="start" x="377" y="-313.32" font-family="Helvetica,sans-Serif" font-size="9.00">smcat</text>
</a>
</g>
</g>
<!-- src/parse/index.mts&#45;&gt;src/parse/smcat -->
<g id="edge17" class="edge">
<title>src/parse/index.mts&#45;&gt;src/parse/smcat</title>
<path fill="none" stroke="#ff00ff" stroke-width="2" stroke-opacity="0.466667" d="M260.25,-296.16C260.25,-304.99 260.25,-317 260.25,-317 260.25,-317 352.67,-317 352.67,-317"/>
<polygon fill="#ff00ff" fill-opacity="0.466667" stroke="#ff00ff" stroke-width="2" stroke-opacity="0.466667" points="352.67,-319.1 358.67,-317 352.67,-314.9 352.67,-319.1"/>
</g>
<!-- src/render/dot -->
<g id="node15" class="node">
<title>src/render/dot</title>
<g id="a_node15"><a xlink:href="https://github.com/sverweij/state-machine-cat/blob/main/src/render/dot" xlink:title="dot">
<polygon fill="#ccccff" stroke="black" points="551.25,-101.88 499.22,-101.88 497.25,-99.9 497.25,-84.12 549.28,-84.12 551.25,-86.1 551.25,-101.88"/>
<polyline fill="none" stroke="black" points="549.28,-99.9 497.25,-99.9"/>
<polyline fill="none" stroke="black" points="549.28,-99.9 549.28,-84.12"/>
<polyline fill="none" stroke="black" points="549.28,-99.9 551.25,-101.88"/>
<text text-anchor="start" x="517.88" y="-89.33" font-family="Helvetica,sans-Serif" font-size="9.00">dot</text>
</a>
</g>
</g>
<!-- src/render/index&#45;node.mts&#45;&gt;src/render/dot -->
<g id="edge24" class="edge">
<title>src/render/index&#45;node.mts&#45;&gt;src/render/dot</title>
<path fill="none" stroke="#0000ff" stroke-width="2" stroke-opacity="0.466667" d="M247.25,-94.81C247.25,-92 247.25,-89.62 247.25,-89.62 247.25,-89.62 487.91,-89.62 487.91,-89.62"/>
<polygon fill="#0000ff" fill-opacity="0.466667" stroke="#0000ff" stroke-width="2" stroke-opacity="0.466667" points="487.91,-91.73 493.91,-89.63 487.9,-87.53 487.91,-91.73"/>
</g>
<!-- src/render/scjson -->
<g id="node16" class="node">
<title>src/render/scjson</title>
<g id="a_node16"><a xlink:href="https://github.com/sverweij/state-machine-cat/blob/main/src/render/scjson" xlink:title="scjson">
<polygon fill="#ccccff" stroke="black" points="551.25,-174.88 499.22,-174.88 497.25,-172.9 497.25,-157.12 549.28,-157.12 551.25,-159.1 551.25,-174.88"/>
<polyline fill="none" stroke="black" points="549.28,-172.9 497.25,-172.9"/>
<polyline fill="none" stroke="black" points="549.28,-172.9 549.28,-157.12"/>
<polyline fill="none" stroke="black" points="549.28,-172.9 551.25,-174.88"/>
<text text-anchor="start" x="511.12" y="-162.32" font-family="Helvetica,sans-Serif" font-size="9.00">scjson</text>
</a>
</g>
</g>
<!-- src/render/index&#45;node.mts&#45;&gt;src/render/scjson -->
<g id="edge25" class="edge">
<title>src/render/index&#45;node.mts&#45;&gt;src/render/scjson</title>
<path fill="none" stroke="#0000ff" stroke-width="2" stroke-opacity="0.466667" d="M294.25,-113.37C294.25,-131.88 294.25,-171.38 294.25,-171.38 294.25,-171.38 487.94,-171.38 487.94,-171.38"/>
<polygon fill="#0000ff" fill-opacity="0.466667" stroke="#0000ff" stroke-width="2" stroke-opacity="0.466667" points="487.94,-173.48 493.94,-171.38 487.94,-169.28 487.94,-173.48"/>
</g>
<!-- src/render/scxml -->
<g id="node17" class="node">
<title>src/render/scxml</title>
<g id="a_node17"><a xlink:href="https://github.com/sverweij/state-machine-cat/blob/main/src/render/scxml" xlink:title="scxml">
<polygon fill="#ccccff" stroke="black" points="416,-167.88 363.97,-167.88 362,-165.9 362,-150.12 414.03,-150.12 416,-152.1 416,-167.88"/>
<polyline fill="none" stroke="black" points="414.03,-165.9 362,-165.9"/>
<polyline fill="none" stroke="black" points="414.03,-165.9 414.03,-150.12"/>
<polyline fill="none" stroke="black" points="414.03,-165.9 416,-167.88"/>
<text text-anchor="start" x="377.38" y="-155.32" font-family="Helvetica,sans-Serif" font-size="9.00">scxml</text>
</a>
</g>
</g>
<!-- src/render/index&#45;node.mts&#45;&gt;src/render/scxml -->
<g id="edge26" class="edge">
<title>src/render/index&#45;node.mts&#45;&gt;src/render/scxml</title>
<path fill="none" stroke="#0000ff" stroke-width="2" stroke-opacity="0.466667" d="M296.25,-112.97C296.25,-127.73 296.25,-155.5 296.25,-155.5 296.25,-155.5 352.65,-155.5 352.65,-155.5"/>
<polygon fill="#0000ff" fill-opacity="0.466667" stroke="#0000ff" stroke-width="2" stroke-opacity="0.466667" points="352.65,-157.6 358.65,-155.5 352.65,-153.4 352.65,-157.6"/>
</g>
<!-- src/render/smcat.mts -->
<g id="node18" class="node">
<title>src/render/smcat.mts</title>
<g id="a_node18"><a xlink:href="https://github.com/sverweij/state-machine-cat/blob/main/src/render/smcat.mts" xlink:title="smcat.mts">
<path fill="#ccccff" stroke="black" d="M411.33,-123.88C411.33,-123.88 366.67,-123.88 366.67,-123.88 363.71,-123.88 360.75,-120.92 360.75,-117.96 360.75,-117.96 360.75,-112.04 360.75,-112.04 360.75,-109.08 363.71,-106.12 366.67,-106.12 366.67,-106.12 411.33,-106.12 411.33,-106.12 414.29,-106.12 417.25,-109.08 417.25,-112.04 417.25,-112.04 417.25,-117.96 417.25,-117.96 417.25,-120.92 414.29,-123.88 411.33,-123.88"/>
<text text-anchor="start" x="368.75" y="-111.33" font-family="Helvetica,sans-Serif" font-size="9.00">smcat.mts</text>
</a>
</g>
</g>
<!-- src/render/index&#45;node.mts&#45;&gt;src/render/smcat.mts -->
<g id="edge27" class="edge">
<title>src/render/index&#45;node.mts&#45;&gt;src/render/smcat.mts</title>
<path fill="none" stroke="#0000ff" stroke-width="2" stroke-opacity="0.466667" d="M298.25,-113.19C298.25,-116 298.25,-118.38 298.25,-118.38 298.25,-118.38 351.26,-118.38 351.26,-118.38"/>
<polygon fill="#0000ff" fill-opacity="0.466667" stroke="#0000ff" stroke-width="2" stroke-opacity="0.466667" points="351.26,-120.48 357.26,-118.38 351.26,-116.28 351.26,-120.48"/>
</g>
<!-- src/render/vector -->
<g id="node19" class="node">
<title>src/render/vector</title>
<g id="a_node19"><a xlink:href="https://github.com/sverweij/state-machine-cat/blob/main/src/render/vector" xlink:title="vector">
<polygon fill="#ccccff" stroke="black" points="416,-79.88 363.97,-79.88 362,-77.9 362,-62.12 414.03,-62.12 416,-64.1 416,-79.88"/>
<polyline fill="none" stroke="black" points="414.03,-77.9 362,-77.9"/>
<polyline fill="none" stroke="black" points="414.03,-77.9 414.03,-62.12"/>
<polyline fill="none" stroke="black" points="414.03,-77.9 416,-79.88"/>
<text text-anchor="start" x="376.62" y="-67.33" font-family="Helvetica,sans-Serif" font-size="9.00">vector</text>
</a>
</g>
</g>
<!-- src/render/index&#45;node.mts&#45;&gt;src/render/vector -->
<g id="edge28" class="edge">
<title>src/render/index&#45;node.mts&#45;&gt;src/render/vector</title>
<path fill="none" stroke="#0000ff" stroke-width="2" stroke-opacity="0.466667" d="M273.25,-94.93C273.25,-84.27 273.25,-68.04 273.25,-68.04 273.25,-68.04 352.54,-68.04 352.54,-68.04"/>
<polygon fill="#0000ff" fill-opacity="0.466667" stroke="#0000ff" stroke-width="2" stroke-opacity="0.466667" points="352.54,-70.14 358.54,-68.04 352.54,-65.94 352.54,-70.14"/>
</g>
<!-- src/state&#45;machine&#45;model.mts -->
<g id="node14" class="node">
<title>src/state&#45;machine&#45;model.mts</title>
<g id="a_node14"><a xlink:href="https://github.com/sverweij/state-machine-cat/blob/main/src/state-machine-model.mts" xlink:title="state&#45;machine&#45;model.mts">
<path fill="#ddfeff" stroke="black" d="M719.33,-221.88C719.33,-221.88 612.42,-221.88 612.42,-221.88 609.46,-221.88 606.5,-218.92 606.5,-215.96 606.5,-215.96 606.5,-210.04 606.5,-210.04 606.5,-207.08 609.46,-204.12 612.42,-204.12 612.42,-204.12 719.33,-204.12 719.33,-204.12 722.29,-204.12 725.25,-207.08 725.25,-210.04 725.25,-210.04 725.25,-215.96 725.25,-215.96 725.25,-218.92 722.29,-221.88 719.33,-221.88"/>
<text text-anchor="start" x="614.5" y="-209.32" font-family="Helvetica,sans-Serif" font-size="9.00">state&#45;machine&#45;model.mts</text>
</a>
</g>
</g>
<!-- src/transform&#45;&gt;src/state&#45;machine&#45;model.mts -->
<g id="edge38" class="edge">
<title>src/transform&#45;&gt;src/state&#45;machine&#45;model.mts</title>
<path fill="none" stroke="#000000" stroke-width="2" stroke-opacity="0.200000" d="M524.25,-243.8C524.25,-232.56 524.25,-215 524.25,-215 524.25,-215 597.2,-215 597.2,-215"/>
<polygon fill="#000000" fill-opacity="0.200000" stroke="#000000" stroke-width="2" stroke-opacity="0.200000" points="597.2,-217.1 603.2,-215 597.2,-212.9 597.2,-217.1"/>
</g>
<!-- src/index.mts -->
<g id="node8" class="node">
<title>src/index.mts</title>
<g id="a_node8"><a xlink:href="https://github.com/sverweij/state-machine-cat/blob/main/src/index.mts" xlink:title="index.mts">
<path fill="#ddfeff" stroke="black" d="M167.08,-267.88C167.08,-267.88 123.92,-267.88 123.92,-267.88 120.96,-267.88 118,-264.92 118,-261.96 118,-261.96 118,-256.04 118,-256.04 118,-253.08 120.96,-250.12 123.92,-250.12 123.92,-250.12 167.08,-250.12 167.08,-250.12 170.04,-250.12 173,-253.08 173,-256.04 173,-256.04 173,-261.96 173,-261.96 173,-264.92 170.04,-267.88 167.08,-267.88"/>
<text text-anchor="start" x="126" y="-255.32" font-family="Helvetica,sans-Serif" font-size="9.00">index.mts</text>
</a>
</g>
</g>
<!-- src/index.mts&#45;&gt;src/version.mts -->
<g id="edge13" class="edge">
<title>src/index.mts&#45;&gt;src/version.mts</title>
<path fill="none" stroke="#000000" stroke-width="2" stroke-opacity="0.200000" d="M136.25,-268.19C136.25,-299.33 136.25,-399 136.25,-399 136.25,-399 219.8,-399 219.8,-399"/>
<polygon fill="#000000" fill-opacity="0.200000" stroke="#000000" stroke-width="2" stroke-opacity="0.200000" points="219.8,-401.1 225.8,-399 219.8,-396.9 219.8,-401.1"/>
</g>
<!-- src/index.mts&#45;&gt;src/options.mts -->
<g id="edge9" class="edge">
<title>src/index.mts&#45;&gt;src/options.mts</title>
<path fill="none" stroke="#000000" stroke-width="2" stroke-opacity="0.200000" d="M173.36,-252.08C188.13,-252.08 203.25,-252.08 203.25,-252.08 203.25,-252.08 203.25,-192.43 203.25,-192.43 203.25,-192.43 676.25,-192.43 676.25,-192.43 676.25,-192.43 676.25,-100.06 676.25,-100.06"/>
<polygon fill="#000000" fill-opacity="0.200000" stroke="#000000" stroke-width="2" stroke-opacity="0.200000" points="678.35,-100.06 676.25,-94.06 674.15,-100.06 678.35,-100.06"/>
</g>
<!-- src/index.mts&#45;&gt;src/parse/index.mts -->
<g id="edge10" class="edge">
<title>src/index.mts&#45;&gt;src/parse/index.mts</title>
<path fill="none" stroke="#ff00ff" stroke-width="2" stroke-opacity="0.466667" d="M154.25,-268.12C154.25,-277.25 154.25,-289.96 154.25,-289.96 154.25,-289.96 223.56,-289.96 223.56,-289.96"/>
<polygon fill="#ff00ff" fill-opacity="0.466667" stroke="#ff00ff" stroke-width="2" stroke-opacity="0.466667" points="223.56,-292.06 229.56,-289.96 223.56,-287.86 223.56,-292.06"/>
</g>
<!-- src/index.mts&#45;&gt;src/transform -->
<g id="edge12" class="edge">
<title>src/index.mts&#45;&gt;src/transform</title>
<path fill="none" stroke="#000000" stroke-width="2" stroke-opacity="0.200000" d="M173.35,-257.96C173.35,-257.96 487.84,-257.96 487.84,-257.96"/>
<polygon fill="#000000" fill-opacity="0.200000" stroke="#000000" stroke-width="2" stroke-opacity="0.200000" points="487.84,-260.06 493.84,-257.96 487.84,-255.86 487.84,-260.06"/>
</g>
<!-- src/render/index.mts -->
<g id="node9" class="node">
<title>src/render/index.mts</title>
<g id="a_node9"><a xlink:href="https://github.com/sverweij/state-machine-cat/blob/main/src/render/index.mts" xlink:title="index.mts">
<path fill="#ccccff" stroke="black" d="M282.08,-160.88C282.08,-160.88 238.92,-160.88 238.92,-160.88 235.96,-160.88 233,-157.92 233,-154.96 233,-154.96 233,-149.04 233,-149.04 233,-146.08 235.96,-143.12 238.92,-143.12 238.92,-143.12 282.08,-143.12 282.08,-143.12 285.04,-143.12 288,-146.08 288,-149.04 288,-149.04 288,-154.96 288,-154.96 288,-157.92 285.04,-160.88 282.08,-160.88"/>
<text text-anchor="start" x="241" y="-148.32" font-family="Helvetica,sans-Serif" font-size="9.00">index.mts</text>
</a>
</g>
</g>
<!-- src/index.mts&#45;&gt;src/render/index.mts -->
<g id="edge11" class="edge">
<title>src/index.mts&#45;&gt;src/render/index.mts</title>
<path fill="none" stroke="#0000ff" stroke-width="2" stroke-opacity="0.466667" d="M173.28,-256C204.62,-256 251.25,-256 251.25,-256 251.25,-256 251.25,-170.26 251.25,-170.26"/>
<polygon fill="#0000ff" fill-opacity="0.466667" stroke="#0000ff" stroke-width="2" stroke-opacity="0.466667" points="253.35,-170.26 251.25,-164.26 249.15,-170.26 253.35,-170.26"/>
</g>
<!-- src/render/index.mts&#45;&gt;src/render/dot -->
<g id="edge29" class="edge">
<title>src/render/index.mts&#45;&gt;src/render/dot</title>
<path fill="none" stroke="#0000ff" stroke-width="2" stroke-opacity="0.466667" d="M288.28,-152.81C305.46,-152.81 324.25,-152.81 324.25,-152.81 324.25,-152.81 324.25,-92.38 324.25,-92.38 324.25,-92.38 487.83,-92.38 487.83,-92.38"/>
<polygon fill="#0000ff" fill-opacity="0.466667" stroke="#0000ff" stroke-width="2" stroke-opacity="0.466667" points="487.83,-94.48 493.83,-92.38 487.83,-90.28 487.83,-94.48"/>
</g>
<!-- src/render/index.mts&#45;&gt;src/render/scjson -->
<g id="edge30" class="edge">
<title>src/render/index.mts&#45;&gt;src/render/scjson</title>
<path fill="none" stroke="#0000ff" stroke-width="2" stroke-opacity="0.466667" d="M288.23,-148.38C355.94,-148.38 524.25,-148.38 524.25,-148.38 524.25,-148.38 524.25,-149.21 524.25,-149.21"/>
<polygon fill="#0000ff" fill-opacity="0.466667" stroke="#0000ff" stroke-width="2" stroke-opacity="0.466667" points="522.15,-147.75 524.25,-153.75 526.35,-147.75 522.15,-147.75"/>
</g>
<!-- src/render/index.mts&#45;&gt;src/render/scxml -->
<g id="edge31" class="edge">
<title>src/render/index.mts&#45;&gt;src/render/scxml</title>
<path fill="none" stroke="#0000ff" stroke-width="2" stroke-opacity="0.466667" d="M288.38,-158.19C288.38,-158.19 352.59,-158.19 352.59,-158.19"/>
<polygon fill="#0000ff" fill-opacity="0.466667" stroke="#0000ff" stroke-width="2" stroke-opacity="0.466667" points="352.59,-160.29 358.59,-158.19 352.59,-156.09 352.59,-160.29"/>
</g>
<!-- src/render/index.mts&#45;&gt;src/render/smcat.mts -->
<g id="edge32" class="edge">
<title>src/render/index.mts&#45;&gt;src/render/smcat.mts</title>
<path fill="none" stroke="#0000ff" stroke-width="2" stroke-opacity="0.466667" d="M288.44,-146.62C326.3,-146.62 389.25,-146.62 389.25,-146.62 389.25,-146.62 389.25,-133.34 389.25,-133.34"/>
<polygon fill="#0000ff" fill-opacity="0.466667" stroke="#0000ff" stroke-width="2" stroke-opacity="0.466667" points="391.35,-133.34 389.25,-127.34 387.15,-133.34 391.35,-133.34"/>
</g>
<!-- src/render/index.mts&#45;&gt;src/render/vector -->
<g id="edge33" class="edge">
<title>src/render/index.mts&#45;&gt;src/render/vector</title>
<path fill="none" stroke="#0000ff" stroke-width="2" stroke-opacity="0.466667" d="M288.5,-144.88C300.69,-144.88 312.25,-144.88 312.25,-144.88 312.25,-144.88 312.25,-73.96 312.25,-73.96 312.25,-73.96 352.7,-73.96 352.7,-73.96"/>
<polygon fill="#0000ff" fill-opacity="0.466667" stroke="#0000ff" stroke-width="2" stroke-opacity="0.466667" points="352.7,-76.06 358.7,-73.96 352.7,-71.86 352.7,-76.06"/>
</g>
<!-- src/parse/scxml&#45;&gt;src/transform -->
<g id="edge19" class="edge">
<title>src/parse/scxml&#45;&gt;src/transform</title>
<path fill="none" stroke="#000000" stroke-width="2" stroke-opacity="0.200000" d="M389.25,-277.83C389.25,-269.97 389.25,-259.92 389.25,-259.92 389.25,-259.92 487.9,-259.92 487.9,-259.92"/>
<polygon fill="#000000" fill-opacity="0.200000" stroke="#000000" stroke-width="2" stroke-opacity="0.200000" points="487.9,-262.02 493.9,-259.92 487.9,-257.82 487.9,-262.02"/>
</g>
<!-- src/parse/parser&#45;helpers.mts -->
<g id="node13" class="node">
<title>src/parse/parser&#45;helpers.mts</title>
<g id="a_node13"><a xlink:href="https://github.com/sverweij/state-machine-cat/blob/main/src/parse/parser-helpers.mts" xlink:title="parser&#45;helpers.mts">
<path fill="#ffccff" stroke="black" d="M564.58,-295.88C564.58,-295.88 483.92,-295.88 483.92,-295.88 480.96,-295.88 478,-292.92 478,-289.96 478,-289.96 478,-284.04 478,-284.04 478,-281.08 480.96,-278.12 483.92,-278.12 483.92,-278.12 564.58,-278.12 564.58,-278.12 567.54,-278.12 570.5,-281.08 570.5,-284.04 570.5,-284.04 570.5,-289.96 570.5,-289.96 570.5,-292.92 567.54,-295.88 564.58,-295.88"/>
<text text-anchor="start" x="486" y="-283.32" font-family="Helvetica,sans-Serif" font-size="9.00">parser&#45;helpers.mts</text>
</a>
</g>
</g>
<!-- src/parse/scxml&#45;&gt;src/parse/parser&#45;helpers.mts -->
<g id="edge20" class="edge">
<title>src/parse/scxml&#45;&gt;src/parse/parser&#45;helpers.mts</title>
<path fill="none" stroke="#ff00ff" stroke-width="2" stroke-opacity="0.466667" d="M416.37,-287C416.37,-287 468.71,-287 468.71,-287"/>
<polygon fill="#ff00ff" fill-opacity="0.466667" stroke="#ff00ff" stroke-width="2" stroke-opacity="0.466667" points="468.71,-289.1 474.71,-287 468.71,-284.9 468.71,-289.1"/>
</g>
<!-- src/parse/smcat&#45;&gt;src/parse/parser&#45;helpers.mts -->
<g id="edge21" class="edge">
<title>src/parse/smcat&#45;&gt;src/parse/parser&#45;helpers.mts</title>
<path fill="none" stroke="#ff00ff" stroke-width="2" stroke-opacity="0.466667" d="M416.37,-317C455.89,-317 524.25,-317 524.25,-317 524.25,-317 524.25,-305.19 524.25,-305.19"/>
<polygon fill="#ff00ff" fill-opacity="0.466667" stroke="#ff00ff" stroke-width="2" stroke-opacity="0.466667" points="526.35,-305.19 524.25,-299.19 522.15,-305.19 526.35,-305.19"/>
</g>
<!-- src/parse/parser&#45;helpers.mts&#45;&gt;src/state&#45;machine&#45;model.mts -->
<g id="edge18" class="edge">
<title>src/parse/parser&#45;helpers.mts&#45;&gt;src/state&#45;machine&#45;model.mts</title>
<path fill="none" stroke="#000000" stroke-width="2" stroke-opacity="0.200000" d="M561.25,-277.75C561.25,-259.04 561.25,-218.44 561.25,-218.44 561.25,-218.44 597.2,-218.44 597.2,-218.44"/>
<polygon fill="#000000" fill-opacity="0.200000" stroke="#000000" stroke-width="2" stroke-opacity="0.200000" points="597.2,-220.54 603.2,-218.44 597.2,-216.34 597.2,-220.54"/>
</g>
<!-- src/render/dot&#45;&gt;src/options.mts -->
<g id="edge22" class="edge">
<title>src/render/dot&#45;&gt;src/options.mts</title>
<path fill="none" stroke="#000000" stroke-width="2" stroke-opacity="0.200000" d="M551.71,-94.54C587.41,-94.54 645.25,-94.54 645.25,-94.54 645.25,-94.54 645.25,-94.2 645.25,-94.2"/>
<polygon fill="#000000" fill-opacity="0.200000" stroke="#000000" stroke-width="2" stroke-opacity="0.200000" points="647.35,-100.14 645.25,-94.14 643.15,-100.14 647.35,-100.14"/>
</g>
<!-- src/render/dot&#45;&gt;src/state&#45;machine&#45;model.mts -->
<g id="edge23" class="edge">
<title>src/render/dot&#45;&gt;src/state&#45;machine&#45;model.mts</title>
<path fill="none" stroke="#000000" stroke-width="2" stroke-opacity="0.200000" d="M551.58,-98.21C581.49,-98.21 625.25,-98.21 625.25,-98.21 625.25,-98.21 625.25,-194.97 625.25,-194.97"/>
<polygon fill="#000000" fill-opacity="0.200000" stroke="#000000" stroke-width="2" stroke-opacity="0.200000" points="623.15,-194.97 625.25,-200.97 627.35,-194.97 623.15,-194.97"/>
</g>
<!-- src/render/scjson&#45;&gt;src/state&#45;machine&#45;model.mts -->
<g id="edge34" class="edge">
<title>src/render/scjson&#45;&gt;src/state&#45;machine&#45;model.mts</title>
<path fill="none" stroke="#000000" stroke-width="2" stroke-opacity="0.200000" d="M551.36,-166C578.49,-166 616.25,-166 616.25,-166 616.25,-166 616.25,-194.91 616.25,-194.91"/>
<polygon fill="#000000" fill-opacity="0.200000" stroke="#000000" stroke-width="2" stroke-opacity="0.200000" points="614.15,-194.91 616.25,-200.91 618.35,-194.91 614.15,-194.91"/>
</g>
<!-- src/render/scxml&#45;&gt;src/render/scjson -->
<g id="edge35" class="edge">
<title>src/render/scxml&#45;&gt;src/render/scjson</title>
<path fill="none" stroke="#0000ff" stroke-width="2" stroke-opacity="0.466667" d="M416.37,-162.5C416.37,-162.5 487.89,-162.5 487.89,-162.5"/>
<polygon fill="#0000ff" fill-opacity="0.466667" stroke="#0000ff" stroke-width="2" stroke-opacity="0.466667" points="487.89,-164.6 493.89,-162.5 487.89,-160.4 487.89,-164.6"/>
</g>
<!-- src/render/vector&#45;&gt;src/options.mts -->
<g id="edge36" class="edge">
<title>src/render/vector&#45;&gt;src/options.mts</title>
<path fill="none" stroke="#000000" stroke-width="2" stroke-opacity="0.200000" d="M416.34,-67.62C486.29,-67.62 666.25,-67.62 666.25,-67.62 666.25,-67.62 666.25,-68.14 666.25,-68.14"/>
<polygon fill="#000000" fill-opacity="0.200000" stroke="#000000" stroke-width="2" stroke-opacity="0.200000" points="664.15,-63.79 666.25,-69.79 668.35,-63.79 664.15,-63.79"/>
</g>
<!-- src/render/vector&#45;&gt;src/render/dot -->
<g id="edge37" class="edge">
<title>src/render/vector&#45;&gt;src/render/dot</title>
<path fill="none" stroke="#0000ff" stroke-width="2" stroke-opacity="0.466667" d="M389.25,-80.05C389.25,-83.62 389.25,-86.88 389.25,-86.88 389.25,-86.88 487.9,-86.88 487.9,-86.88"/>
<polygon fill="#0000ff" fill-opacity="0.466667" stroke="#0000ff" stroke-width="2" stroke-opacity="0.466667" points="487.9,-88.98 493.9,-86.88 487.9,-84.78 487.9,-88.98"/>
</g>
</g>
</svg>
