<?xml version="1.0" encoding="UTF-8" standalone="no"?>
<!DOCTYPE svg PUBLIC "-//W3C//DTD SVG 1.1//EN"
 "http://www.w3.org/Graphics/SVG/1.1/DTD/svg11.dtd">
<!-- Generated by graphviz version 12.0.0 (20240704.0754)
 -->
<!-- Title: dependency&#45;cruiser output Pages: 1 -->
<svg width="749pt" height="464pt"
 viewBox="0.00 0.00 749.25 463.88" xmlns="http://www.w3.org/2000/svg" xmlns:xlink="http://www.w3.org/1999/xlink">
<g id="graph0" class="graph" transform="scale(1 1) rotate(0) translate(4 459.88)">
<title>dependency&#45;cruiser output</title>
<polygon fill="white" stroke="none" points="-4,4 -4,-459.88 745.25,-459.88 745.25,4 -4,4"/>
<g id="clust1" class="cluster">
<title>cluster_src</title>
<path fill="#ffffff" stroke="black" stroke-width="2" d="M20,-25.88C20,-25.88 721.25,-25.88 721.25,-25.88 727.25,-25.88 733.25,-31.88 733.25,-37.88 733.25,-37.88 733.25,-435.88 733.25,-435.88 733.25,-441.88 727.25,-447.88 721.25,-447.88 721.25,-447.88 20,-447.88 20,-447.88 14,-447.88 8,-441.88 8,-435.88 8,-435.88 8,-37.88 8,-37.88 8,-31.88 14,-25.88 20,-25.88"/>
<text text-anchor="middle" x="370.62" y="-435.32" font-family="Helvetica,sans-Serif" font-weight="bold" font-size="9.00">src</text>
</g>
<g id="clust2" class="cluster">
<title>cluster_src/parse</title>
<path fill="#ffffff" stroke="black" stroke-width="2" d="M237,-283.88C237,-283.88 566.5,-283.88 566.5,-283.88 572.5,-283.88 578.5,-289.88 578.5,-295.88 578.5,-295.88 578.5,-383.88 578.5,-383.88 578.5,-389.88 572.5,-395.88 566.5,-395.88 566.5,-395.88 237,-395.88 237,-395.88 231,-395.88 225,-389.88 225,-383.88 225,-383.88 225,-295.88 225,-295.88 225,-289.88 231,-283.88 237,-283.88"/>
<text text-anchor="middle" x="401.75" y="-383.32" font-family="Helvetica,sans-Serif" font-weight="bold" font-size="9.00">parse</text>
</g>
<g id="clust3" class="cluster">
<title>cluster_src/render</title>
<path fill="#ffffff" stroke="black" stroke-width="2" d="M225,-87.88C225,-87.88 547.25,-87.88 547.25,-87.88 553.25,-87.88 559.25,-93.88 559.25,-99.88 559.25,-99.88 559.25,-243.88 559.25,-243.88 559.25,-249.88 553.25,-255.88 547.25,-255.88 547.25,-255.88 225,-255.88 225,-255.88 219,-255.88 213,-249.88 213,-243.88 213,-243.88 213,-99.88 213,-99.88 213,-93.88 219,-87.88 225,-87.88"/>
<text text-anchor="middle" x="386.12" y="-243.32" font-family="Helvetica,sans-Serif" font-weight="bold" font-size="9.00">render</text>
</g>
<!-- bin -->
<g id="node1" class="node">
<title>bin</title>
<g id="a_node1"><a xlink:href="https://github.com/sverweij/state-machine-cat/blob/main/bin" xlink:title="no&#45;orphans">
<polygon fill="#ccffcc" stroke="orange" points="70,-17.75 17.97,-17.75 16,-15.78 16,0 68.03,0 70,-1.97 70,-17.75"/>
<polyline fill="none" stroke="orange" points="68.03,-15.78 16,-15.78"/>
<polyline fill="none" stroke="orange" points="68.03,-15.78 68.03,0"/>
<polyline fill="none" stroke="orange" points="68.03,-15.78 70,-17.75"/>
<text text-anchor="middle" x="43" y="-5.2" font-family="Helvetica,sans-Serif" font-size="9.00" fill="orange">bin</text>
</a>
</g>
</g>
<!-- src/cli -->
<g id="node2" class="node">
<title>src/cli</title>
<g id="a_node2"><a xlink:href="https://github.com/sverweij/state-machine-cat/blob/main/src/cli" xlink:title="cli">
<polygon fill="#ccffcc" stroke="black" points="70,-65.75 17.97,-65.75 16,-63.78 16,-48 68.03,-48 70,-49.97 70,-65.75"/>
<polyline fill="none" stroke="black" points="68.03,-63.78 16,-63.78"/>
<polyline fill="none" stroke="black" points="68.03,-63.78 68.03,-48"/>
<polyline fill="none" stroke="black" points="68.03,-63.78 70,-65.75"/>
<text text-anchor="start" x="38.5" y="-53.2" font-family="Helvetica,sans-Serif" font-size="9.00">cli</text>
</a>
</g>
</g>
<!-- src/index&#45;node.mts -->
<g id="node3" class="node">
<title>src/index&#45;node.mts</title>
<g id="a_node3"><a xlink:href="https://github.com/sverweij/state-machine-cat/blob/main/src/index-node.mts" xlink:title="index&#45;node.mts">
<path fill="#ddfeff" stroke="black" d="M179.08,-108.75C179.08,-108.75 111.92,-108.75 111.92,-108.75 108.96,-108.75 106,-105.79 106,-102.83 106,-102.83 106,-96.92 106,-96.92 106,-93.96 108.96,-91 111.92,-91 111.92,-91 179.08,-91 179.08,-91 182.04,-91 185,-93.96 185,-96.92 185,-96.92 185,-102.83 185,-102.83 185,-105.79 182.04,-108.75 179.08,-108.75"/>
<text text-anchor="start" x="114" y="-96.2" font-family="Helvetica,sans-Serif" font-size="9.00">index&#45;node.mts</text>
</a>
</g>
</g>
<!-- src/cli&#45;&gt;src/index&#45;node.mts -->
<g id="edge1" class="edge">
<title>src/cli&#45;&gt;src/index&#45;node.mts</title>
<path fill="none" stroke="#000000" stroke-width="2" stroke-opacity="0.200000" d="M43,-65.99C43,-78.62 43,-99.88 43,-99.88 43,-99.88 96.55,-99.88 96.55,-99.88"/>
<polygon fill="#000000" fill-opacity="0.200000" stroke="#000000" stroke-width="2" stroke-opacity="0.200000" points="96.55,-101.98 102.55,-99.88 96.55,-97.78 96.55,-101.98"/>
</g>
<!-- src/options.mts -->
<g id="node4" class="node">
<title>src/options.mts</title>
<g id="a_node4"><a xlink:href="https://github.com/sverweij/state-machine-cat/blob/main/src/options.mts" xlink:title="options.mts">
<path fill="#ddfeff" stroke="black" d="M691.21,-138.75C691.21,-138.75 640.54,-138.75 640.54,-138.75 637.58,-138.75 634.62,-135.79 634.62,-132.83 634.62,-132.83 634.62,-126.92 634.62,-126.92 634.62,-123.96 637.58,-121 640.54,-121 640.54,-121 691.21,-121 691.21,-121 694.17,-121 697.12,-123.96 697.12,-126.92 697.12,-126.92 697.12,-132.83 697.12,-132.83 697.12,-135.79 694.17,-138.75 691.21,-138.75"/>
<text text-anchor="start" x="642.62" y="-126.2" font-family="Helvetica,sans-Serif" font-size="9.00">options.mts</text>
</a>
</g>
</g>
<!-- src/cli&#45;&gt;src/options.mts -->
<g id="edge2" class="edge">
<title>src/cli&#45;&gt;src/options.mts</title>
<path fill="none" stroke="#000000" stroke-width="2" stroke-opacity="0.200000" d="M70.16,-55C190.05,-55 665.88,-55 665.88,-55 665.88,-55 665.88,-111.67 665.88,-111.67"/>
<polygon fill="#000000" fill-opacity="0.200000" stroke="#000000" stroke-width="2" stroke-opacity="0.200000" points="663.78,-111.67 665.88,-117.67 667.98,-111.67 663.78,-111.67"/>
</g>
<!-- src/index&#45;node.mts&#45;&gt;src/options.mts -->
<g id="edge3" class="edge">
<title>src/index&#45;node.mts&#45;&gt;src/options.mts</title>
<path fill="none" stroke="#000000" stroke-width="2" stroke-opacity="0.200000" d="M185.11,-99.88C304.1,-99.88 650.25,-99.88 650.25,-99.88 650.25,-99.88 650.25,-111.68 650.25,-111.68"/>
<polygon fill="#000000" fill-opacity="0.200000" stroke="#000000" stroke-width="2" stroke-opacity="0.200000" points="648.15,-111.68 650.25,-117.68 652.35,-111.68 648.15,-111.68"/>
</g>
<!-- src/parse/index.mts -->
<g id="node5" class="node">
<title>src/parse/index.mts</title>
<g id="a_node5"><a xlink:href="https://github.com/sverweij/state-machine-cat/blob/main/src/parse/index.mts" xlink:title="index.mts">
<path fill="#ffccff" stroke="black" d="M282.08,-309.75C282.08,-309.75 238.92,-309.75 238.92,-309.75 235.96,-309.75 233,-306.79 233,-303.83 233,-303.83 233,-297.92 233,-297.92 233,-294.96 235.96,-292 238.92,-292 238.92,-292 282.08,-292 282.08,-292 285.04,-292 288,-294.96 288,-297.92 288,-297.92 288,-303.83 288,-303.83 288,-306.79 285.04,-309.75 282.08,-309.75"/>
<text text-anchor="start" x="241" y="-297.2" font-family="Helvetica,sans-Serif" font-size="9.00">index.mts</text>
</a>
</g>
</g>
<!-- src/index&#45;node.mts&#45;&gt;src/parse/index.mts -->
<g id="edge4" class="edge">
<title>src/index&#45;node.mts&#45;&gt;src/parse/index.mts</title>
<path fill="none" stroke="#ff00ff" stroke-width="2" stroke-opacity="0.466667" d="M181,-109.16C181,-148.31 181,-297.92 181,-297.92 181,-297.92 223.67,-297.92 223.67,-297.92"/>
<polygon fill="#ff00ff" fill-opacity="0.466667" stroke="#ff00ff" stroke-width="2" stroke-opacity="0.466667" points="223.67,-300.02 229.67,-297.92 223.67,-295.82 223.67,-300.02"/>
</g>
<!-- src/render/index&#45;node.mts -->
<g id="node6" class="node">
<title>src/render/index&#45;node.mts</title>
<g id="a_node6"><a xlink:href="https://github.com/sverweij/state-machine-cat/blob/main/src/render/index-node.mts" xlink:title="index&#45;node.mts">
<path fill="#ccccff" stroke="black" d="M294.08,-138.75C294.08,-138.75 226.92,-138.75 226.92,-138.75 223.96,-138.75 221,-135.79 221,-132.83 221,-132.83 221,-126.92 221,-126.92 221,-123.96 223.96,-121 226.92,-121 226.92,-121 294.08,-121 294.08,-121 297.04,-121 300,-123.96 300,-126.92 300,-126.92 300,-132.83 300,-132.83 300,-135.79 297.04,-138.75 294.08,-138.75"/>
<text text-anchor="start" x="229" y="-126.2" font-family="Helvetica,sans-Serif" font-size="9.00">index&#45;node.mts</text>
</a>
</g>
</g>
<!-- src/index&#45;node.mts&#45;&gt;src/render/index&#45;node.mts -->
<g id="edge5" class="edge">
<title>src/index&#45;node.mts&#45;&gt;src/render/index&#45;node.mts</title>
<path fill="none" stroke="#0000ff" stroke-width="2" stroke-opacity="0.466667" d="M185.31,-104.31C205.22,-104.31 225.12,-104.31 225.12,-104.31 225.12,-104.31 225.12,-111.62 225.12,-111.62"/>
<polygon fill="#0000ff" fill-opacity="0.466667" stroke="#0000ff" stroke-width="2" stroke-opacity="0.466667" points="223.03,-111.62 225.13,-117.62 227.23,-111.62 223.03,-111.62"/>
</g>
<!-- src/transform -->
<g id="node7" class="node">
<title>src/transform</title>
<g id="a_node7"><a xlink:href="https://github.com/sverweij/state-machine-cat/blob/main/src/transform" xlink:title="transform">
<polygon fill="#ffffcc" stroke="black" points="551.38,-421.75 499.1,-421.75 497.12,-419.78 497.12,-404 549.4,-404 551.38,-405.97 551.38,-421.75"/>
<polyline fill="none" stroke="black" points="549.4,-419.78 497.12,-419.78"/>
<polyline fill="none" stroke="black" points="549.4,-419.78 549.4,-404"/>
<polyline fill="none" stroke="black" points="549.4,-419.78 551.38,-421.75"/>
<text text-anchor="start" x="505.12" y="-409.2" font-family="Helvetica,sans-Serif" font-size="9.00">transform</text>
</a>
</g>
</g>
<!-- src/index&#45;node.mts&#45;&gt;src/transform -->
<g id="edge6" class="edge">
<title>src/index&#45;node.mts&#45;&gt;src/transform</title>
<path fill="none" stroke="#000000" stroke-width="2" stroke-opacity="0.200000" d="M177,-109.15C177,-160.74 177,-409.92 177,-409.92 177,-409.92 487.68,-409.92 487.68,-409.92"/>
<polygon fill="#000000" fill-opacity="0.200000" stroke="#000000" stroke-width="2" stroke-opacity="0.200000" points="487.68,-412.02 493.68,-409.92 487.68,-407.82 487.68,-412.02"/>
</g>
<!-- src/version.mts -->
<g id="node8" class="node">
<title>src/version.mts</title>
<g id="a_node8"><a xlink:href="https://github.com/sverweij/state-machine-cat/blob/main/src/version.mts" xlink:title="version.mts">
<path fill="#ddfeff" stroke="black" d="M285.83,-79.75C285.83,-79.75 235.17,-79.75 235.17,-79.75 232.21,-79.75 229.25,-76.79 229.25,-73.83 229.25,-73.83 229.25,-67.92 229.25,-67.92 229.25,-64.96 232.21,-62 235.17,-62 235.17,-62 285.83,-62 285.83,-62 288.79,-62 291.75,-64.96 291.75,-67.92 291.75,-67.92 291.75,-73.83 291.75,-73.83 291.75,-76.79 288.79,-79.75 285.83,-79.75"/>
<text text-anchor="start" x="237.25" y="-67.2" font-family="Helvetica,sans-Serif" font-size="9.00">version.mts</text>
</a>
</g>
</g>
<!-- src/index&#45;node.mts&#45;&gt;src/version.mts -->
<g id="edge7" class="edge">
<title>src/index&#45;node.mts&#45;&gt;src/version.mts</title>
<path fill="none" stroke="#000000" stroke-width="2" stroke-opacity="0.200000" d="M185.4,-95.44C218.61,-95.44 260.5,-95.44 260.5,-95.44 260.5,-95.44 260.5,-89.05 260.5,-89.05"/>
<polygon fill="#000000" fill-opacity="0.200000" stroke="#000000" stroke-width="2" stroke-opacity="0.200000" points="262.6,-89.05 260.5,-83.05 258.4,-89.05 262.6,-89.05"/>
</g>
<!-- src/parse/index.mts&#45;&gt;src/options.mts -->
<g id="edge13" class="edge">
<title>src/parse/index.mts&#45;&gt;src/options.mts</title>
<path fill="none" stroke="#000000" stroke-width="2" stroke-opacity="0.200000" d="M269.67,-291.71C269.67,-275.23 269.67,-242.25 269.67,-242.25 269.67,-242.25 681.5,-242.25 681.5,-242.25 681.5,-242.25 681.5,-148.1 681.5,-148.1"/>
<polygon fill="#000000" fill-opacity="0.200000" stroke="#000000" stroke-width="2" stroke-opacity="0.200000" points="683.6,-148.1 681.5,-142.1 679.4,-148.1 683.6,-148.1"/>
</g>
<!-- src/parse/scxml -->
<g id="node11" class="node">
<title>src/parse/scxml</title>
<g id="a_node11"><a xlink:href="https://github.com/sverweij/state-machine-cat/blob/main/src/parse/scxml" xlink:title="scxml">
<polygon fill="#ffccff" stroke="black" points="416,-339.75 363.97,-339.75 362,-337.78 362,-322 414.03,-322 416,-323.97 416,-339.75"/>
<polyline fill="none" stroke="black" points="414.03,-337.78 362,-337.78"/>
<polyline fill="none" stroke="black" points="414.03,-337.78 414.03,-322"/>
<polyline fill="none" stroke="black" points="414.03,-337.78 416,-339.75"/>
<text text-anchor="start" x="377.38" y="-327.2" font-family="Helvetica,sans-Serif" font-size="9.00">scxml</text>
</a>
</g>
</g>
<!-- src/parse/index.mts&#45;&gt;src/parse/scxml -->
<g id="edge14" class="edge">
<title>src/parse/index.mts&#45;&gt;src/parse/scxml</title>
<path fill="none" stroke="#ff00ff" stroke-width="2" stroke-opacity="0.466667" d="M260.5,-310.04C260.5,-318.86 260.5,-330.88 260.5,-330.88 260.5,-330.88 352.72,-330.88 352.72,-330.88"/>
<polygon fill="#ff00ff" fill-opacity="0.466667" stroke="#ff00ff" stroke-width="2" stroke-opacity="0.466667" points="352.72,-332.98 358.72,-330.88 352.72,-328.78 352.72,-332.98"/>
</g>
<!-- src/parse/smcat&#45;ast.schema.mts -->
<g id="node12" class="node">
<title>src/parse/smcat&#45;ast.schema.mts</title>
<g id="a_node12"><a xlink:href="https://github.com/sverweij/state-machine-cat/blob/main/src/parse/smcat-ast.schema.mts" xlink:title="smcat&#45;ast.schema.mts">
<path fill="#ffccff" stroke="black" d="M436.08,-369.75C436.08,-369.75 341.92,-369.75 341.92,-369.75 338.96,-369.75 336,-366.79 336,-363.83 336,-363.83 336,-357.92 336,-357.92 336,-354.96 338.96,-352 341.92,-352 341.92,-352 436.08,-352 436.08,-352 439.04,-352 442,-354.96 442,-357.92 442,-357.92 442,-363.83 442,-363.83 442,-366.79 439.04,-369.75 436.08,-369.75"/>
<text text-anchor="start" x="344" y="-357.2" font-family="Helvetica,sans-Serif" font-size="9.00">smcat&#45;ast.schema.mts</text>
</a>
</g>
</g>
<!-- src/parse/index.mts&#45;&gt;src/parse/smcat&#45;ast.schema.mts -->
<g id="edge15" class="edge">
<title>src/parse/index.mts&#45;&gt;src/parse/smcat&#45;ast.schema.mts</title>
<path fill="none" stroke="#ff00ff" stroke-width="2" stroke-opacity="0.466667" d="M288.02,-303.83C314,-303.83 349,-303.83 349,-303.83 349,-303.83 349,-342.68 349,-342.68"/>
<polygon fill="#ff00ff" fill-opacity="0.466667" stroke="#ff00ff" stroke-width="2" stroke-opacity="0.466667" points="346.9,-342.68 349,-348.68 351.1,-342.68 346.9,-342.68"/>
</g>
<!-- src/parse/smcat -->
<g id="node13" class="node">
<title>src/parse/smcat</title>
<g id="a_node13"><a xlink:href="https://github.com/sverweij/state-machine-cat/blob/main/src/parse/smcat" xlink:title="smcat">
<polygon fill="#ffccff" stroke="black" points="416,-309.75 363.97,-309.75 362,-307.78 362,-292 414.03,-292 416,-293.97 416,-309.75"/>
<polyline fill="none" stroke="black" points="414.03,-307.78 362,-307.78"/>
<polyline fill="none" stroke="black" points="414.03,-307.78 414.03,-292"/>
<polyline fill="none" stroke="black" points="414.03,-307.78 416,-309.75"/>
<text text-anchor="start" x="377" y="-297.2" font-family="Helvetica,sans-Serif" font-size="9.00">smcat</text>
</a>
</g>
</g>
<!-- src/parse/index.mts&#45;&gt;src/parse/smcat -->
<g id="edge16" class="edge">
<title>src/parse/index.mts&#45;&gt;src/parse/smcat</title>
<path fill="none" stroke="#ff00ff" stroke-width="2" stroke-opacity="0.466667" d="M288.38,-297.92C288.38,-297.92 352.59,-297.92 352.59,-297.92"/>
<polygon fill="#ff00ff" fill-opacity="0.466667" stroke="#ff00ff" stroke-width="2" stroke-opacity="0.466667" points="352.59,-300.02 358.59,-297.92 352.59,-295.82 352.59,-300.02"/>
</g>
<!-- src/render/dot -->
<g id="node16" class="node">
<title>src/render/dot</title>
<g id="a_node16"><a xlink:href="https://github.com/sverweij/state-machine-cat/blob/main/src/render/dot" xlink:title="dot">
<polygon fill="#ccccff" stroke="black" points="551.25,-149.75 499.22,-149.75 497.25,-147.78 497.25,-132 549.28,-132 551.25,-133.97 551.25,-149.75"/>
<polyline fill="none" stroke="black" points="549.28,-147.78 497.25,-147.78"/>
<polyline fill="none" stroke="black" points="549.28,-147.78 549.28,-132"/>
<polyline fill="none" stroke="black" points="549.28,-147.78 551.25,-149.75"/>
<text text-anchor="start" x="517.88" y="-137.2" font-family="Helvetica,sans-Serif" font-size="9.00">dot</text>
</a>
</g>
</g>
<!-- src/render/index&#45;node.mts&#45;&gt;src/render/dot -->
<g id="edge23" class="edge">
<title>src/render/index&#45;node.mts&#45;&gt;src/render/dot</title>
<path fill="none" stroke="#0000ff" stroke-width="2" stroke-opacity="0.466667" d="M292.8,-139.12C292.8,-142.76 292.8,-146.08 292.8,-146.08 292.8,-146.08 487.76,-146.08 487.76,-146.08"/>
<polygon fill="#0000ff" fill-opacity="0.466667" stroke="#0000ff" stroke-width="2" stroke-opacity="0.466667" points="487.76,-148.18 493.76,-146.08 487.76,-143.98 487.76,-148.18"/>
</g>
<!-- src/render/scjson -->
<g id="node17" class="node">
<title>src/render/scjson</title>
<g id="a_node17"><a xlink:href="https://github.com/sverweij/state-machine-cat/blob/main/src/render/scjson" xlink:title="scjson">
<polygon fill="#ccccff" stroke="black" points="551.25,-222.75 499.22,-222.75 497.25,-220.78 497.25,-205 549.28,-205 551.25,-206.97 551.25,-222.75"/>
<polyline fill="none" stroke="black" points="549.28,-220.78 497.25,-220.78"/>
<polyline fill="none" stroke="black" points="549.28,-220.78 549.28,-205"/>
<polyline fill="none" stroke="black" points="549.28,-220.78 551.25,-222.75"/>
<text text-anchor="start" x="511.12" y="-210.2" font-family="Helvetica,sans-Serif" font-size="9.00">scjson</text>
</a>
</g>
</g>
<!-- src/render/index&#45;node.mts&#45;&gt;src/render/scjson -->
<g id="edge24" class="edge">
<title>src/render/index&#45;node.mts&#45;&gt;src/render/scjson</title>
<path fill="none" stroke="#0000ff" stroke-width="2" stroke-opacity="0.466667" d="M290.4,-139.1C290.4,-161.94 290.4,-219.25 290.4,-219.25 290.4,-219.25 487.94,-219.25 487.94,-219.25"/>
<polygon fill="#0000ff" fill-opacity="0.466667" stroke="#0000ff" stroke-width="2" stroke-opacity="0.466667" points="487.94,-221.35 493.94,-219.25 487.94,-217.15 487.94,-221.35"/>
</g>
<!-- src/render/scxml -->
<g id="node18" class="node">
<title>src/render/scxml</title>
<g id="a_node18"><a xlink:href="https://github.com/sverweij/state-machine-cat/blob/main/src/render/scxml" xlink:title="scxml">
<polygon fill="#ccccff" stroke="black" points="416,-215.75 363.97,-215.75 362,-213.78 362,-198 414.03,-198 416,-199.97 416,-215.75"/>
<polyline fill="none" stroke="black" points="414.03,-213.78 362,-213.78"/>
<polyline fill="none" stroke="black" points="414.03,-213.78 414.03,-198"/>
<polyline fill="none" stroke="black" points="414.03,-213.78 416,-215.75"/>
<text text-anchor="start" x="377.38" y="-203.2" font-family="Helvetica,sans-Serif" font-size="9.00">scxml</text>
</a>
</g>
</g>
<!-- src/render/index&#45;node.mts&#45;&gt;src/render/scxml -->
<g id="edge25" class="edge">
<title>src/render/index&#45;node.mts&#45;&gt;src/render/scxml</title>
<path fill="none" stroke="#0000ff" stroke-width="2" stroke-opacity="0.466667" d="M295.2,-139.1C295.2,-160.21 295.2,-210.25 295.2,-210.25 295.2,-210.25 352.59,-210.25 352.59,-210.25"/>
<polygon fill="#0000ff" fill-opacity="0.466667" stroke="#0000ff" stroke-width="2" stroke-opacity="0.466667" points="352.59,-212.35 358.59,-210.25 352.59,-208.15 352.59,-212.35"/>
</g>
<!-- src/render/smcat -->
<g id="node19" class="node">
<title>src/render/smcat</title>
<g id="a_node19"><a xlink:href="https://github.com/sverweij/state-machine-cat/blob/main/src/render/smcat" xlink:title="smcat">
<polygon fill="#ccccff" stroke="black" points="416,-171.75 363.97,-171.75 362,-169.78 362,-154 414.03,-154 416,-155.97 416,-171.75"/>
<polyline fill="none" stroke="black" points="414.03,-169.78 362,-169.78"/>
<polyline fill="none" stroke="black" points="414.03,-169.78 414.03,-154"/>
<polyline fill="none" stroke="black" points="414.03,-169.78 416,-171.75"/>
<text text-anchor="start" x="377" y="-159.2" font-family="Helvetica,sans-Serif" font-size="9.00">smcat</text>
</a>
</g>
</g>
<!-- src/render/index&#45;node.mts&#45;&gt;src/render/smcat -->
<g id="edge26" class="edge">
<title>src/render/index&#45;node.mts&#45;&gt;src/render/smcat</title>
<path fill="none" stroke="#0000ff" stroke-width="2" stroke-opacity="0.466667" d="M297.6,-139.24C297.6,-149 297.6,-162.88 297.6,-162.88 297.6,-162.88 352.55,-162.88 352.55,-162.88"/>
<polygon fill="#0000ff" fill-opacity="0.466667" stroke="#0000ff" stroke-width="2" stroke-opacity="0.466667" points="352.55,-164.98 358.55,-162.88 352.55,-160.78 352.55,-164.98"/>
</g>
<!-- src/render/vector -->
<g id="node20" class="node">
<title>src/render/vector</title>
<g id="a_node20"><a xlink:href="https://github.com/sverweij/state-machine-cat/blob/main/src/render/vector" xlink:title="vector">
<polygon fill="#ccccff" stroke="black" points="416,-127.75 363.97,-127.75 362,-125.78 362,-110 414.03,-110 416,-111.97 416,-127.75"/>
<polyline fill="none" stroke="black" points="414.03,-125.78 362,-125.78"/>
<polyline fill="none" stroke="black" points="414.03,-125.78 414.03,-110"/>
<polyline fill="none" stroke="black" points="414.03,-125.78 416,-127.75"/>
<text text-anchor="start" x="376.62" y="-115.2" font-family="Helvetica,sans-Serif" font-size="9.00">vector</text>
</a>
</g>
</g>
<!-- src/render/index&#45;node.mts&#45;&gt;src/render/vector -->
<g id="edge27" class="edge">
<title>src/render/index&#45;node.mts&#45;&gt;src/render/vector</title>
<path fill="none" stroke="#0000ff" stroke-width="2" stroke-opacity="0.466667" d="M295.88,-120.63C295.88,-116.99 295.88,-113.67 295.88,-113.67 295.88,-113.67 352.54,-113.67 352.54,-113.67"/>
<polygon fill="#0000ff" fill-opacity="0.466667" stroke="#0000ff" stroke-width="2" stroke-opacity="0.466667" points="352.54,-115.77 358.54,-113.67 352.54,-111.57 352.54,-115.77"/>
</g>
<!-- src/state&#45;machine&#45;model.mts -->
<g id="node15" class="node">
<title>src/state&#45;machine&#45;model.mts</title>
<g id="a_node15"><a xlink:href="https://github.com/sverweij/state-machine-cat/blob/main/src/state-machine-model.mts" xlink:title="state&#45;machine&#45;model.mts">
<path fill="#ddfeff" stroke="black" d="M719.33,-269.75C719.33,-269.75 612.42,-269.75 612.42,-269.75 609.46,-269.75 606.5,-266.79 606.5,-263.83 606.5,-263.83 606.5,-257.92 606.5,-257.92 606.5,-254.96 609.46,-252 612.42,-252 612.42,-252 719.33,-252 719.33,-252 722.29,-252 725.25,-254.96 725.25,-257.92 725.25,-257.92 725.25,-263.83 725.25,-263.83 725.25,-266.79 722.29,-269.75 719.33,-269.75"/>
<text text-anchor="start" x="614.5" y="-257.2" font-family="Helvetica,sans-Serif" font-size="9.00">state&#45;machine&#45;model.mts</text>
</a>
</g>
</g>
<!-- src/transform&#45;&gt;src/state&#45;machine&#45;model.mts -->
<g id="edge37" class="edge">
<title>src/transform&#45;&gt;src/state&#45;machine&#45;model.mts</title>
<path fill="none" stroke="#000000" stroke-width="2" stroke-opacity="0.200000" d="M551.56,-412.88C592.71,-412.88 665.88,-412.88 665.88,-412.88 665.88,-412.88 665.88,-278.96 665.88,-278.96"/>
<polygon fill="#000000" fill-opacity="0.200000" stroke="#000000" stroke-width="2" stroke-opacity="0.200000" points="667.98,-278.96 665.88,-272.96 663.78,-278.96 667.98,-278.96"/>
</g>
<!-- src/index.mts -->
<g id="node9" class="node">
<title>src/index.mts</title>
<g id="a_node9"><a xlink:href="https://github.com/sverweij/state-machine-cat/blob/main/src/index.mts" xlink:title="index.mts">
<path fill="#ddfeff" stroke="black" d="M167.08,-273.75C167.08,-273.75 123.92,-273.75 123.92,-273.75 120.96,-273.75 118,-270.79 118,-267.83 118,-267.83 118,-261.92 118,-261.92 118,-258.96 120.96,-256 123.92,-256 123.92,-256 167.08,-256 167.08,-256 170.04,-256 173,-258.96 173,-261.92 173,-261.92 173,-267.83 173,-267.83 173,-270.79 170.04,-273.75 167.08,-273.75"/>
<text text-anchor="start" x="126" y="-261.2" font-family="Helvetica,sans-Serif" font-size="9.00">index.mts</text>
</a>
</g>
</g>
<!-- src/index.mts&#45;&gt;src/options.mts -->
<g id="edge8" class="edge">
<title>src/index.mts&#45;&gt;src/options.mts</title>
<path fill="none" stroke="#000000" stroke-width="2" stroke-opacity="0.200000" d="M145.5,-255.68C145.5,-246.11 145.5,-232.5 145.5,-232.5 145.5,-232.5 665.88,-232.5 665.88,-232.5 665.88,-232.5 665.88,-148.01 665.88,-148.01"/>
<polygon fill="#000000" fill-opacity="0.200000" stroke="#000000" stroke-width="2" stroke-opacity="0.200000" points="667.98,-148.01 665.88,-142.01 663.78,-148.01 667.98,-148.01"/>
</g>
<!-- src/index.mts&#45;&gt;src/parse/index.mts -->
<g id="edge9" class="edge">
<title>src/index.mts&#45;&gt;src/parse/index.mts</title>
<path fill="none" stroke="#ff00ff" stroke-width="2" stroke-opacity="0.466667" d="M154.67,-273.91C154.67,-285.42 154.67,-303.83 154.67,-303.83 154.67,-303.83 223.67,-303.83 223.67,-303.83"/>
<polygon fill="#ff00ff" fill-opacity="0.466667" stroke="#ff00ff" stroke-width="2" stroke-opacity="0.466667" points="223.67,-305.93 229.67,-303.83 223.67,-301.73 223.67,-305.93"/>
</g>
<!-- src/index.mts&#45;&gt;src/transform -->
<g id="edge11" class="edge">
<title>src/index.mts&#45;&gt;src/transform</title>
<path fill="none" stroke="#000000" stroke-width="2" stroke-opacity="0.200000" d="M136.33,-273.87C136.33,-306.36 136.33,-415.83 136.33,-415.83 136.33,-415.83 487.64,-415.83 487.64,-415.83"/>
<polygon fill="#000000" fill-opacity="0.200000" stroke="#000000" stroke-width="2" stroke-opacity="0.200000" points="487.64,-417.93 493.64,-415.83 487.64,-413.73 487.64,-417.93"/>
</g>
<!-- src/index.mts&#45;&gt;src/version.mts -->
<g id="edge12" class="edge">
<title>src/index.mts&#45;&gt;src/version.mts</title>
<path fill="none" stroke="#000000" stroke-width="2" stroke-opacity="0.200000" d="M173.24,-259.44C187.94,-259.44 203,-259.44 203,-259.44 203,-259.44 203,-72.75 203,-72.75 203,-72.75 220.03,-72.75 220.03,-72.75"/>
<polygon fill="#000000" fill-opacity="0.200000" stroke="#000000" stroke-width="2" stroke-opacity="0.200000" points="220.03,-74.85 226.03,-72.75 220.03,-70.65 220.03,-74.85"/>
</g>
<!-- src/render/index.mts -->
<g id="node10" class="node">
<title>src/render/index.mts</title>
<g id="a_node10"><a xlink:href="https://github.com/sverweij/state-machine-cat/blob/main/src/render/index.mts" xlink:title="index.mts">
<path fill="#ccccff" stroke="black" d="M282.08,-204.75C282.08,-204.75 238.92,-204.75 238.92,-204.75 235.96,-204.75 233,-201.79 233,-198.83 233,-198.83 233,-192.92 233,-192.92 233,-189.96 235.96,-187 238.92,-187 238.92,-187 282.08,-187 282.08,-187 285.04,-187 288,-189.96 288,-192.92 288,-192.92 288,-198.83 288,-198.83 288,-201.79 285.04,-204.75 282.08,-204.75"/>
<text text-anchor="start" x="241" y="-192.2" font-family="Helvetica,sans-Serif" font-size="9.00">index.mts</text>
</a>
</g>
</g>
<!-- src/index.mts&#45;&gt;src/render/index.mts -->
<g id="edge10" class="edge">
<title>src/index.mts&#45;&gt;src/render/index.mts</title>
<path fill="none" stroke="#0000ff" stroke-width="2" stroke-opacity="0.466667" d="M173.31,-266.31C204.66,-266.31 251.33,-266.31 251.33,-266.31 251.33,-266.31 251.33,-214.11 251.33,-214.11"/>
<polygon fill="#0000ff" fill-opacity="0.466667" stroke="#0000ff" stroke-width="2" stroke-opacity="0.466667" points="253.43,-214.11 251.33,-208.11 249.23,-214.11 253.43,-214.11"/>
</g>
<!-- src/render/index.mts&#45;&gt;src/render/dot -->
<g id="edge28" class="edge">
<title>src/render/index.mts&#45;&gt;src/render/dot</title>
<path fill="none" stroke="#0000ff" stroke-width="2" stroke-opacity="0.466667" d="M288.25,-192.5C354.27,-192.5 515.25,-192.5 515.25,-192.5 515.25,-192.5 515.25,-158.89 515.25,-158.89"/>
<polygon fill="#0000ff" fill-opacity="0.466667" stroke="#0000ff" stroke-width="2" stroke-opacity="0.466667" points="517.35,-158.89 515.25,-152.89 513.15,-158.89 517.35,-158.89"/>
</g>
<!-- src/render/index.mts&#45;&gt;src/render/scjson -->
<g id="edge29" class="edge">
<title>src/render/index.mts&#45;&gt;src/render/scjson</title>
<path fill="none" stroke="#0000ff" stroke-width="2" stroke-opacity="0.466667" d="M288.41,-194.33C357.92,-194.33 533.25,-194.33 533.25,-194.33 533.25,-194.33 533.25,-195.53 533.25,-195.53"/>
<polygon fill="#0000ff" fill-opacity="0.466667" stroke="#0000ff" stroke-width="2" stroke-opacity="0.466667" points="531.15,-195.53 533.25,-201.53 535.35,-195.53 531.15,-195.53"/>
</g>
<!-- src/render/index.mts&#45;&gt;src/render/scxml -->
<g id="edge30" class="edge">
<title>src/render/index.mts&#45;&gt;src/render/scxml</title>
<path fill="none" stroke="#0000ff" stroke-width="2" stroke-opacity="0.466667" d="M288.33,-196.17C328.5,-196.17 398,-196.17 398,-196.17 398,-196.17 398,-196.33 398,-196.33"/>
<polygon fill="#0000ff" fill-opacity="0.466667" stroke="#0000ff" stroke-width="2" stroke-opacity="0.466667" points="395.9,-188.81 398,-194.81 400.1,-188.81 395.9,-188.81"/>
</g>
<!-- src/render/index.mts&#45;&gt;src/render/smcat -->
<g id="edge31" class="edge">
<title>src/render/index.mts&#45;&gt;src/render/smcat</title>
<path fill="none" stroke="#0000ff" stroke-width="2" stroke-opacity="0.466667" d="M288.22,-190.67C323.52,-190.67 380,-190.67 380,-190.67 380,-190.67 380,-181 380,-181"/>
<polygon fill="#0000ff" fill-opacity="0.466667" stroke="#0000ff" stroke-width="2" stroke-opacity="0.466667" points="382.1,-181 380,-175 377.9,-181 382.1,-181"/>
</g>
<!-- src/render/index.mts&#45;&gt;src/render/vector -->
<g id="edge32" class="edge">
<title>src/render/index.mts&#45;&gt;src/render/vector</title>
<path fill="none" stroke="#0000ff" stroke-width="2" stroke-opacity="0.466667" d="M288.24,-188.83C302.94,-188.83 318,-188.83 318,-188.83 318,-188.83 318,-117.33 318,-117.33 318,-117.33 352.73,-117.33 352.73,-117.33"/>
<polygon fill="#0000ff" fill-opacity="0.466667" stroke="#0000ff" stroke-width="2" stroke-opacity="0.466667" points="352.73,-119.43 358.73,-117.33 352.73,-115.23 352.73,-119.43"/>
</g>
<!-- src/parse/scxml&#45;&gt;src/transform -->
<g id="edge18" class="edge">
<title>src/parse/scxml&#45;&gt;src/transform</title>
<path fill="none" stroke="#000000" stroke-width="2" stroke-opacity="0.200000" d="M416.37,-333.83C455.89,-333.83 524.25,-333.83 524.25,-333.83 524.25,-333.83 524.25,-394.78 524.25,-394.78"/>
<polygon fill="#000000" fill-opacity="0.200000" stroke="#000000" stroke-width="2" stroke-opacity="0.200000" points="522.15,-394.78 524.25,-400.78 526.35,-394.78 522.15,-394.78"/>
</g>
<!-- src/parse/parser&#45;helpers.mts -->
<g id="node14" class="node">
<title>src/parse/parser&#45;helpers.mts</title>
<g id="a_node14"><a xlink:href="https://github.com/sverweij/state-machine-cat/blob/main/src/parse/parser-helpers.mts" xlink:title="parser&#45;helpers.mts">
<path fill="#ffccff" stroke="black" d="M564.58,-309.75C564.58,-309.75 483.92,-309.75 483.92,-309.75 480.96,-309.75 478,-306.79 478,-303.83 478,-303.83 478,-297.92 478,-297.92 478,-294.96 480.96,-292 483.92,-292 483.92,-292 564.58,-292 564.58,-292 567.54,-292 570.5,-294.96 570.5,-297.92 570.5,-297.92 570.5,-303.83 570.5,-303.83 570.5,-306.79 567.54,-309.75 564.58,-309.75"/>
<text text-anchor="start" x="486" y="-297.2" font-family="Helvetica,sans-Serif" font-size="9.00">parser&#45;helpers.mts</text>
</a>
</g>
</g>
<!-- src/parse/scxml&#45;&gt;src/parse/parser&#45;helpers.mts -->
<g id="edge19" class="edge">
<title>src/parse/scxml&#45;&gt;src/parse/parser&#45;helpers.mts</title>
<path fill="none" stroke="#ff00ff" stroke-width="2" stroke-opacity="0.466667" d="M416.46,-327.92C445.62,-327.92 487.56,-327.92 487.56,-327.92 487.56,-327.92 487.56,-319.06 487.56,-319.06"/>
<polygon fill="#ff00ff" fill-opacity="0.466667" stroke="#ff00ff" stroke-width="2" stroke-opacity="0.466667" points="489.66,-319.06 487.56,-313.06 485.46,-319.06 489.66,-319.06"/>
</g>
<!-- src/parse/smcat&#45;&gt;src/parse/parser&#45;helpers.mts -->
<g id="edge20" class="edge">
<title>src/parse/smcat&#45;&gt;src/parse/parser&#45;helpers.mts</title>
<path fill="none" stroke="#ff00ff" stroke-width="2" stroke-opacity="0.466667" d="M416.37,-300.88C416.37,-300.88 468.71,-300.88 468.71,-300.88"/>
<polygon fill="#ff00ff" fill-opacity="0.466667" stroke="#ff00ff" stroke-width="2" stroke-opacity="0.466667" points="468.71,-302.98 474.71,-300.88 468.71,-298.78 468.71,-302.98"/>
</g>
<!-- src/parse/parser&#45;helpers.mts&#45;&gt;src/state&#45;machine&#45;model.mts -->
<g id="edge17" class="edge">
<title>src/parse/parser&#45;helpers.mts&#45;&gt;src/state&#45;machine&#45;model.mts</title>
<path fill="none" stroke="#000000" stroke-width="2" stroke-opacity="0.200000" d="M560.88,-291.68C560.88,-280.43 560.88,-262.88 560.88,-262.88 560.88,-262.88 596.99,-262.88 596.99,-262.88"/>
<polygon fill="#000000" fill-opacity="0.200000" stroke="#000000" stroke-width="2" stroke-opacity="0.200000" points="596.99,-264.98 602.99,-262.88 596.99,-260.78 596.99,-264.98"/>
</g>
<!-- src/render/dot&#45;&gt;src/options.mts -->
<g id="edge21" class="edge">
<title>src/render/dot&#45;&gt;src/options.mts</title>
<path fill="none" stroke="#000000" stroke-width="2" stroke-opacity="0.200000" d="M551.59,-142.42C588.65,-142.42 650.25,-142.42 650.25,-142.42 650.25,-142.42 650.25,-142.07 650.25,-142.07"/>
<polygon fill="#000000" fill-opacity="0.200000" stroke="#000000" stroke-width="2" stroke-opacity="0.200000" points="652.35,-148.02 650.25,-142.02 648.15,-148.02 652.35,-148.02"/>
</g>
<!-- src/render/dot&#45;&gt;src/state&#45;machine&#45;model.mts -->
<g id="edge22" class="edge">
<title>src/render/dot&#45;&gt;src/state&#45;machine&#45;model.mts</title>
<path fill="none" stroke="#000000" stroke-width="2" stroke-opacity="0.200000" d="M551.58,-146.08C581.49,-146.08 625.25,-146.08 625.25,-146.08 625.25,-146.08 625.25,-242.84 625.25,-242.84"/>
<polygon fill="#000000" fill-opacity="0.200000" stroke="#000000" stroke-width="2" stroke-opacity="0.200000" points="623.15,-242.84 625.25,-248.84 627.35,-242.84 623.15,-242.84"/>
</g>
<!-- src/render/scjson&#45;&gt;src/state&#45;machine&#45;model.mts -->
<g id="edge33" class="edge">
<title>src/render/scjson&#45;&gt;src/state&#45;machine&#45;model.mts</title>
<path fill="none" stroke="#000000" stroke-width="2" stroke-opacity="0.200000" d="M551.74,-213.88C578.73,-213.88 615.88,-213.88 615.88,-213.88 615.88,-213.88 615.88,-242.79 615.88,-242.79"/>
<polygon fill="#000000" fill-opacity="0.200000" stroke="#000000" stroke-width="2" stroke-opacity="0.200000" points="613.78,-242.79 615.88,-248.79 617.98,-242.79 613.78,-242.79"/>
</g>
<!-- src/render/scxml&#45;&gt;src/render/scjson -->
<g id="edge34" class="edge">
<title>src/render/scxml&#45;&gt;src/render/scjson</title>
<path fill="none" stroke="#0000ff" stroke-width="2" stroke-opacity="0.466667" d="M416.37,-210.38C416.37,-210.38 487.89,-210.38 487.89,-210.38"/>
<polygon fill="#0000ff" fill-opacity="0.466667" stroke="#0000ff" stroke-width="2" stroke-opacity="0.466667" points="487.89,-212.48 493.89,-210.38 487.89,-208.28 487.89,-212.48"/>
</g>
<!-- src/render/vector&#45;&gt;src/options.mts -->
<g id="edge35" class="edge">
<title>src/render/vector&#45;&gt;src/options.mts</title>
<path fill="none" stroke="#000000" stroke-width="2" stroke-opacity="0.200000" d="M416.26,-115.5C488.87,-115.5 681.5,-115.5 681.5,-115.5 681.5,-115.5 681.5,-116.02 681.5,-116.02"/>
<polygon fill="#000000" fill-opacity="0.200000" stroke="#000000" stroke-width="2" stroke-opacity="0.200000" points="679.4,-111.66 681.5,-117.66 683.6,-111.66 679.4,-111.66"/>
</g>
<!-- src/render/vector&#45;&gt;src/render/dot -->
<g id="edge36" class="edge">
<title>src/render/vector&#45;&gt;src/render/dot</title>
<path fill="none" stroke="#0000ff" stroke-width="2" stroke-opacity="0.466667" d="M389,-128.18C389,-134.76 389,-142.42 389,-142.42 389,-142.42 487.85,-142.42 487.85,-142.42"/>
<polygon fill="#0000ff" fill-opacity="0.466667" stroke="#0000ff" stroke-width="2" stroke-opacity="0.466667" points="487.85,-144.52 493.85,-142.42 487.85,-140.32 487.85,-144.52"/>
</g>
</g>
</svg>
